<svg width="87" height="87" viewBox="0 0 87 87" fill="none" xmlns="http://www.w3.org/2000/svg">
<g clip-path="url(#clip0_1224_1670)">
<path fill-rule="evenodd" clip-rule="evenodd" d="M83.6383 30.7426C83.4301 30.5352 83.2068 30.338 82.9807 30.144C83.0989 29.4963 83.1676 28.8368 83.1676 28.1669C83.1683 26.3914 82.7377 24.5834 81.8408 22.9145C80.8157 21.0012 79.2972 19.4834 77.5246 18.455C76.2847 17.7346 74.9209 17.2545 73.5073 17.0307C73.1643 15.8318 72.6263 14.6905 71.9036 13.6547C70.7006 11.9296 68.9898 10.501 66.8965 9.61608C65.3993 8.98324 63.8281 8.67942 62.2848 8.67942C62.2848 8.67942 62.2372 8.67792 62.1506 8.68543C60.1909 8.7078 58.2833 9.2131 56.5958 10.1364C55.9358 9.35533 55.1726 8.66023 54.3231 8.0748C52.4614 6.78992 50.185 6.02804 47.7493 6.00434C47.7213 6.00284 47.6875 6.0015 47.646 6H47.6295H47.628H47.6258H47.6146C47.5981 6 47.5791 6.0008 47.5566 6.00175L47.5301 6.00284C45.4092 6.0192 43.4049 6.59428 41.6926 7.59003C40.9504 8.01988 40.2731 8.53703 39.6515 9.11211C37.8775 8.02572 35.7812 7.39138 33.5484 7.38103L33.5403 7.37969H33.4874H33.4837H33.474C33.4468 7.37969 33.4128 7.38103 33.3698 7.38403C30.9945 7.40623 28.767 8.12955 26.9305 9.35667C25.8661 10.0666 24.9346 10.9455 24.1643 11.9516C23.1898 11.6924 22.1723 11.5517 21.1327 11.5517C20.2676 11.5517 19.3903 11.648 18.5169 11.8436C15.9447 12.423 13.7484 13.8087 12.1739 15.6598C11.0689 16.9566 10.2716 18.486 9.83408 20.1356C8.15644 20.6945 6.57548 21.6312 5.25315 22.9544C5.25315 22.9544 5.25094 22.9574 5.24941 22.9589C3.03175 25.1805 1.91537 28.0868 1.91622 30.9723V30.9767V30.9827V30.9885L1.91689 31.0196C1.91978 32.0228 2.05793 33.0233 2.32726 33.9955C0.815459 35.9831 0.000851918 38.3973 7.67123e-07 40.8681C-0.000677382 42.6968 0.448257 44.5568 1.38113 46.2715C2.42955 48.1967 3.97142 49.7216 5.76512 50.7546C7.02323 51.4793 8.40435 51.9582 9.8351 52.1834C10.597 54.1946 11.9034 55.93 13.5749 57.2149C15.5632 58.746 18.0714 59.6514 20.7589 59.6514C21.0381 59.6514 21.3164 59.6427 21.5946 59.6219H21.6014H21.6051H21.6066C22.793 59.5374 23.9298 59.2751 24.9888 58.8705C25.6926 59.9789 26.5772 60.9585 27.6047 61.7664C29.5923 63.3299 32.1199 64.2637 34.8293 64.2756C34.8392 64.2771 34.8473 64.2771 34.8558 64.2771H34.8823H34.8847H34.8869H34.899H34.9081L34.9375 64.2756H34.9459C35.1623 64.2741 35.3797 64.2652 35.596 64.2519H35.599L35.7265 64.2489C36.6964 64.1791 37.6334 63.9938 38.5212 63.7065C39.6398 65.3383 41.1966 66.715 43.1239 67.6281C44.75 68.3987 46.4849 68.7677 48.1876 68.7677C49.8453 68.7677 51.4671 68.4137 52.9546 67.7585C53.2483 68.065 53.6169 68.6158 54.0881 69.3201C57.0844 73.7984 64.2318 84.4808 82.6976 78C75 72 72.7785 67 72.7785 62.6722C74.7102 62.4856 76.6269 61.8245 78.3211 60.6537C79.9331 59.5421 81.1822 58.0896 82.0194 56.4684C82.8568 54.8484 83.2882 53.0609 83.2882 51.2574C83.2882 50.0555 83.0891 48.8489 82.6976 47.6856C83.703 46.881 84.5922 45.8997 85.3013 44.7512C86.4479 42.8986 87 40.8327 87 38.8021C86.9995 35.8336 85.828 32.9213 83.6383 30.7426ZM81.7796 42.6494C80.5961 44.5641 78.6884 45.7558 76.6043 46.1101C75.9632 46.2182 75.5333 46.817 75.6433 47.4452C75.7534 48.0752 76.3622 48.4975 77.0026 48.3894C77.4816 48.3094 77.9532 48.1922 78.4155 48.0441C78.9192 49.0668 79.1676 50.1635 79.1676 51.2572C79.1683 52.4266 78.8871 53.5884 78.3455 54.6363C77.8031 55.6843 77.0035 56.6163 75.9535 57.3426C74.6314 58.2525 73.1303 58.6869 71.6344 58.6882C71.5472 58.6882 71.4599 58.6833 71.3727 58.6784L71.317 58.6753L71.2837 58.6735L71.2818 58.6582L71.2816 58.6572C71.2575 58.4701 71.2336 58.2843 71.1984 58.0984V58.0969C70.9405 56.7556 70.4095 55.5285 69.68 54.463L69.591 54.3325L69.4703 54.2301C68.5779 53.4803 67.3944 52.2472 66.4809 50.9905C66.0231 50.3635 65.6316 49.7292 65.3684 49.1646C65.102 48.5999 64.98 48.1062 64.9844 47.8144C64.9844 47.6841 65.0041 47.5966 65.026 47.5373C65.0493 47.4796 65.0712 47.4454 65.1172 47.3981C65.5765 46.9476 65.5765 46.2139 65.1172 45.7634C64.6571 45.3115 63.9118 45.3115 63.4524 45.7634V45.762C63.1659 46.0435 62.9494 46.3828 62.8165 46.7386C62.6838 47.0943 62.6303 47.4604 62.6303 47.8146C62.6347 48.6164 62.8814 49.3751 63.2284 50.1279C63.7543 51.2514 64.5387 52.3673 65.3857 53.3855C66.183 54.343 67.0316 55.201 67.7912 55.8591C68.3138 56.6505 68.6956 57.5427 68.8843 58.5253C68.9634 58.9388 69.0071 59.3493 69.0132 59.7449L69.0139 59.7509C70 67.182 71.1984 70.5 77.5 77.5C63.2454 79.2278 58.281 69.7852 56.0996 65.6358C55.7559 64.9822 55.4813 64.46 55.2504 64.1334C55.9972 63.3894 56.6337 62.515 57.1209 61.5251C57.7251 60.2979 58.0419 58.9995 58.1 57.7162C58.1287 57.0758 57.6249 56.5365 56.9761 56.5083C56.326 56.4802 55.7759 56.975 55.7472 57.6125C55.7027 58.5951 55.4629 59.5791 55.0006 60.5171L54.9999 60.5201C54.5065 61.5249 53.8156 62.3652 52.9941 63.0308L52.9897 63.0336C51.6404 64.1215 49.9325 64.7203 48.1879 64.7203C47.0882 64.7203 45.974 64.4831 44.9142 63.9821C42.9514 63.0513 41.5885 61.4064 40.9857 59.5154L40.9849 59.5139C40.7548 58.7964 40.6357 58.045 40.6357 57.2878C40.6357 56.2074 40.8772 55.1137 41.3891 54.0674C41.6721 53.4923 41.4255 52.8017 40.84 52.5246C40.2547 52.2475 39.5509 52.489 39.2689 53.0641C38.6004 54.4246 38.2814 55.8696 38.2814 57.288C38.2814 57.9756 38.3615 58.656 38.5062 59.3229C37.5868 59.8163 36.5496 60.1305 35.4286 60.2123H35.4264C35.2439 60.2242 35.0628 60.23 34.8849 60.23C33.1175 60.23 31.48 59.6282 30.178 58.6058C29.045 57.7163 28.1768 56.5116 27.713 55.1169C28.5418 54.3136 29.2283 53.3741 29.7299 52.3321C30.0074 51.7555 29.7563 51.0649 29.1687 50.7922C28.5811 50.5194 27.8788 50.7655 27.6011 51.3435C27.1351 52.3128 26.4593 53.1725 25.6272 53.8615C24.4489 54.8381 22.9607 55.4681 21.3037 55.5851H21.3013C21.1195 55.597 20.9385 55.6043 20.7597 55.6043C17.0215 55.6058 13.8308 52.8967 13.2922 49.2657L13.2908 49.2567L13.2893 49.2477C13.2606 49.0759 13.2402 48.895 13.2266 48.7084C13.2138 48.5274 13.2072 48.3496 13.2072 48.1718C13.2072 47.7034 13.2517 47.2455 13.336 46.7995C13.4538 46.171 13.0313 45.5679 12.3918 45.4507C11.7528 45.335 11.1389 45.7502 11.0205 46.3785C10.911 46.9594 10.8529 47.5597 10.8529 48.1718L10.8553 48.2384C9.79704 48.1228 8.76969 47.7924 7.84939 47.2619C6.68848 46.5933 5.69817 45.6168 5.01475 44.363C4.40676 43.2455 4.12096 42.0509 4.12011 40.8697C4.12011 39.3462 4.6015 37.8494 5.49223 36.5986C5.83309 37.0729 6.2217 37.5234 6.65687 37.9428C7.64888 38.9003 8.79976 39.6102 10.0196 40.0725C10.6254 40.3038 11.3073 40.0074 11.5418 39.4116C11.7765 38.8158 11.4748 38.1459 10.8691 37.916C9.93824 37.5618 9.06484 37.024 8.30665 36.2918L8.30512 36.2905C7.63835 35.6486 7.12008 34.9166 6.74659 34.1325C6.2737 33.1396 6.03615 32.0621 6.03615 30.9832C6.03683 29.1054 6.75118 27.2396 8.19263 25.7916C9.41828 24.566 10.961 23.8485 12.5644 23.6337H12.5659H12.5674L12.5719 23.6322C12.9107 23.5878 13.2516 23.5641 13.594 23.5656C15.5047 23.5671 17.4077 24.2697 18.8809 25.6849C19.3455 26.131 20.0908 26.1236 20.5456 25.6672C21.0005 25.2109 20.9922 24.4787 20.5276 24.0325C18.653 22.2288 16.2221 21.307 13.7872 21.2611C14.0648 20.154 14.5943 19.1255 15.3334 18.2585C16.3562 17.0581 17.7632 16.1688 19.4383 15.7894C20.0071 15.6619 20.5744 15.5998 21.1324 15.5998C22.1189 15.5998 23.0778 15.7924 23.964 16.1451C23.712 17.0062 23.5733 17.9148 23.5733 18.8528C23.5733 19.4914 24.1006 20.0088 24.7507 20.0088C25.4008 20.0088 25.9274 19.4916 25.9274 18.8528C25.9274 17.8405 26.1349 16.8743 26.5053 15.9969C27.0739 14.6571 28.035 13.5129 29.2441 12.7052C30.4557 11.8975 31.9092 11.4291 33.4856 11.4276C35.7537 11.4291 37.7798 12.4043 39.1684 13.959L39.1708 13.9605C40.3383 15.2661 41.0422 16.9734 41.043 18.8526C41.043 19.4913 41.5694 20.0086 42.2204 20.0086C42.8707 20.0086 43.3971 19.4914 43.3971 18.8526C43.398 16.717 42.6948 14.734 41.5038 13.1288C42.1133 12.299 42.8902 11.5964 43.7893 11.0747C44.9147 10.4212 46.2212 10.0478 47.6272 10.0478C49.2421 10.0478 50.7281 10.5427 51.9554 11.3891C53.1826 12.2337 54.1437 13.4298 54.6859 14.8244L54.6852 14.823C55.0052 15.6485 55.1809 16.5362 55.1816 17.4729C55.1816 18.1116 55.7081 18.6291 56.3584 18.6291C57.0086 18.6291 57.5358 18.1117 57.5358 17.4729C57.5358 16.5184 57.3902 15.5966 57.1292 14.7252C58.5231 13.4492 60.3734 12.7274 62.2826 12.7274C63.2797 12.7274 64.2906 12.923 65.2681 13.335C66.6312 13.9116 67.7257 14.8289 68.5063 15.9463C69.2863 17.0622 69.7464 18.3768 69.8243 19.7343C69.8317 19.8737 69.8363 20.0144 69.8363 20.1552C69.8355 21.1347 69.6385 22.1265 69.2193 23.0868C68.9628 23.6737 69.2382 24.3538 69.8355 24.6057C70.4329 24.8591 71.1252 24.5865 71.3818 23.9996C71.8185 23.0037 72.0696 21.9707 72.1547 20.9422C73.3089 21.0179 74.4329 21.3616 75.4285 21.9397C76.5651 22.6007 77.5321 23.5639 78.1951 24.8V24.8014C78.7753 25.8804 79.0468 27.0304 79.0475 28.1672C79.0475 28.6889 78.9863 29.2045 78.874 29.71C78.1634 29.4402 77.4339 29.255 76.6985 29.1528C76.055 29.0638 75.4601 29.5042 75.3695 30.1384C75.2789 30.7699 75.727 31.3551 76.3712 31.4441C77.8676 31.6514 79.6409 32.5232 80.7039 33.5857L80.7069 33.5887C82.1166 34.9877 82.8799 36.8774 82.8792 38.8025C82.8794 40.1165 82.5265 41.4431 81.7796 42.6494ZM33.5 49C34.8807 49 36 47.8807 36 46.5C36 45.1193 34.8807 44 33.5 44C32.1193 44 31 45.1193 31 46.5C31 47.8807 32.1193 49 33.5 49ZM37.9796 46.9312C37.7626 49.2142 35.8398 51 33.5 51C31.0147 51 29 48.9853 29 46.5C29 44.0147 31.0147 42 33.5 42C35.0681 42 36.4488 42.802 37.2544 44.0182C41.3585 43.1321 44.3662 44.4888 46.3597 46.6272C46.5667 46.8492 46.762 47.0787 46.9462 47.3139C50.7065 45.4233 55.0419 46.3413 58.4803 49.0011C62.1533 51.8425 64.9614 56.7413 65.4944 62.8701L65.5157 63.1151C67.5118 63.5756 69 65.364 69 67.5C69 69.9853 66.9853 72 64.5 72C62.0147 72 60 69.9853 60 67.5C60 65.7198 61.0337 64.1811 62.5336 63.4512L62.5056 63.1299C62.0386 57.7588 59.5967 53.6576 56.6447 51.374C53.9448 49.2854 50.9487 48.774 48.4853 49.9036C48.9904 51.0432 49.2996 52.1661 49.4556 53.1017C51.4818 53.5398 53 55.3426 53 57.5C53 59.9853 50.9853 62 48.5 62C46.0147 62 44 59.9853 44 57.5C44 55.7425 45.0075 54.2204 46.4764 53.4796C46.2162 52.0379 45.4894 50.0931 44.1653 48.6728C42.869 47.2824 40.9468 46.3185 37.9796 46.9312ZM51 57.5C51 58.8807 49.8807 60 48.5 60C47.1193 60 46 58.8807 46 57.5C46 56.1193 47.1193 55 48.5 55C49.8807 55 51 56.1193 51 57.5ZM67 67.5C67 68.8807 65.8807 70 64.5 70C63.1193 70 62 68.8807 62 67.5C62 66.1193 63.1193 65 64.5 65C65.8807 65 67 66.1193 67 67.5ZM33.5 21C34.8807 21 36 19.8807 36 18.5C36 17.1193 34.8807 16 33.5 16C32.1193 16 31 17.1193 31 18.5C31 19.8807 32.1193 21 33.5 21ZM36.1196 22.1593C37.2582 21.3428 38 20.008 38 18.5C38 16.0147 35.9853 14 33.5 14C31.0147 14 29 16.0147 29 18.5C29 20.8432 30.7909 22.7681 33.0786 22.9805C33.1239 23.1143 33.189 23.2438 33.2745 23.365C34.3689 24.9154 36.2494 26.8952 38.8684 27.7831C41.5984 28.7086 44.8588 28.3559 48.4 25.7L49.3372 24.9971C49.3912 24.999 49.4455 25 49.5 25C51.267 25 52.7961 23.9816 53.5324 22.4998C53.581 22.4986 53.6301 22.4952 53.6794 22.4892C56.9696 22.0928 59.1485 23.6018 60.634 25.71C61.3971 26.7931 61.9536 28.011 62.3372 29.1496C61.9072 29.0517 61.4597 29 61 29C58.2132 29 55.8701 30.9 55.1955 33.4752L54.8292 33.6583C54.0851 34.0304 53.1671 34.2048 52.2788 34.1878C51.3684 34.1703 50.6604 33.9564 50.295 33.728L49.7872 33.4106C49.0906 30.8683 46.7635 29 44 29C41.2773 29 38.9781 30.8136 38.2446 33.2987C37.2897 32.9595 36.4186 32.75 35.5 32.75C34.5814 32.75 33.7104 32.9595 32.7554 33.2986C32.0219 30.8136 29.7227 29 27 29C23.6863 29 21 31.6863 21 35C21 38.3137 23.6863 41 27 41C29.7993 41 32.1509 39.083 32.8135 36.4901L33.0571 36.3927C34.2667 35.9089 34.9221 35.75 35.5 35.75C36.0779 35.75 36.7333 35.9089 37.9429 36.3927L38.1865 36.4901C38.8491 39.083 41.2007 41 44 41C46.7005 41 48.9844 39.2159 49.7371 36.762C50.5075 37.035 51.3725 37.1709 52.2212 37.1872C53.1956 37.2059 54.2496 37.0697 55.2519 36.7257C55.9932 39.1983 58.2862 41 61 41C61.8055 41 62.5739 40.8413 63.2756 40.5534C64.5734 43.998 67.4756 46.1414 70.2958 46.7759C71.7875 47.1116 73.3641 47.0481 74.707 46.4092C76.0715 45.7599 77.085 44.5619 77.4488 42.8998C79.4785 42.4642 81 40.6598 81 38.5C81 36.0147 78.9853 34 76.5 34C74.0148 34 72 36.0147 72 38.5C72 40.2475 72.9961 41.7623 74.4514 42.5077C74.2583 43.1084 73.8882 43.4765 73.4181 43.7002C72.8235 43.9831 71.9626 44.0759 70.9543 43.8491C68.938 43.3954 66.7635 41.7557 65.9337 39.0589L65.7948 38.6075C66.5514 37.6034 67 36.3541 67 35C67 33.7546 66.6205 32.5978 65.9709 31.6389C65.7534 29.6911 64.9158 26.5784 63.0864 23.982C61.2153 21.3265 58.2271 19.1344 53.8784 19.4564C53.4077 17.4744 51.626 16 49.5 16C47.0147 16 45 18.0147 45 20.5C45 21.6904 45.4622 22.7728 46.2169 23.5776C43.5404 25.4486 41.4263 25.4825 39.8316 24.9419C38.2909 24.4196 37.0206 23.2863 36.1196 22.1593ZM49.5 23C50.8807 23 52 21.8807 52 20.5C52 19.1193 50.8807 18 49.5 18C48.1193 18 47 19.1193 47 20.5C47 21.8807 48.1193 23 49.5 23ZM30 35C30 36.6569 28.6569 38 27 38C25.3431 38 24 36.6569 24 35C24 33.3431 25.3431 32 27 32C28.6569 32 30 33.3431 30 35ZM47 35C47 36.6569 45.6569 38 44 38C42.3431 38 41 36.6569 41 35C41 33.3431 42.3431 32 44 32C45.6569 32 47 33.3431 47 35ZM64 35C64 36.6569 62.6569 38 61 38C59.3431 38 58 36.6569 58 35C58 33.3431 59.3431 32 61 32C62.6569 32 64 33.3431 64 35ZM79 38.5C79 39.8807 77.8808 41 76.5 41C75.1193 41 74 39.8807 74 38.5C74 37.1193 75.1193 36 76.5 36C77.8808 36 79 37.1193 79 38.5ZM15 30.5C15 31.8807 13.8807 33 12.5 33C11.1193 33 10 31.8807 10 30.5C10 29.1193 11.1193 28 12.5 28C13.8807 28 15 29.1193 15 30.5ZM17 30.5C17 31.881 16.3779 33.1167 15.3987 33.9422L15.4367 34.069C16.0053 35.9643 17.3529 37.2532 18.9212 38.7532C19.0428 38.8695 19.1657 38.9871 19.2897 39.1063C20.8387 40.5957 22.748 42.5217 22.5094 45.4724C23.986 46.2106 25 47.7369 25 49.5C25 51.9853 22.9853 54 20.5 54C18.0147 54 16 51.9853 16 49.5C16 47.3489 17.5093 45.5503 19.5267 45.1055C19.5815 43.7829 18.788 42.7858 17.2103 41.2687C17.075 41.1386 16.934 41.0049 16.789 40.8673C15.3107 39.4653 13.4045 37.6574 12.584 34.9992C12.5561 34.9997 12.5281 35 12.5 35C10.0147 35 8 32.9853 8 30.5C8 28.0147 10.0147 26 12.5 26C14.9853 26 17 28.0147 17 30.5ZM23 49.5C23 50.8807 21.8807 52 20.5 52C19.1193 52 18 50.8807 18 49.5C18 48.1193 19.1193 47 20.5 47C21.8807 47 23 48.1193 23 49.5Z" fill="url(#paint0_linear_1224_1670)"/>
</g>
<defs>
<linearGradient id="paint0_linear_1224_1670" x1="7.97821e-07" y1="43.6445" x2="87" y2="43.6445" gradientUnits="userSpaceOnUse">
<stop stop-color="#3C7FE3"/>
<stop offset="1" stop-color="#3EDCFF"/>
</linearGradient>
<clipPath id="clip0_1224_1670">
<rect width="87" height="87" fill="white"/>
</clipPath>
</defs>
</svg>
