<svg width="87" height="87" viewBox="0 0 87 87" fill="none" xmlns="http://www.w3.org/2000/svg">
<g clip-path="url(#clip0_1267_2571)">
<path fill-rule="evenodd" clip-rule="evenodd" d="M68.9451 15.7776C68.3125 15.3421 67.6279 14.963 66.8965 14.6508C65.3993 14.0119 63.8281 13.7052 62.2848 13.7052C62.2848 13.7052 62.2372 13.7037 62.1506 13.7112C60.1909 13.7338 58.2833 14.244 56.5958 15.1762C55.9358 14.3876 55.1726 13.6858 54.3231 13.0947C52.4614 11.7975 50.185 11.0283 47.7493 11.0044C47.7213 11.0029 47.6875 11.0015 47.646 11H47.6295H47.628H47.6265H47.6258H47.6146C47.5981 11 47.5791 11.0008 47.5566 11.0018L47.5566 11.0018L47.5301 11.0029C45.4092 11.0194 43.4049 11.6 41.6926 12.6053C40.9504 13.0393 40.2731 13.5614 39.6515 14.142C37.8775 13.0452 35.7812 12.4047 33.5484 12.3943L33.5403 12.3929H33.4874H33.4837H33.474C33.4468 12.3929 33.4128 12.3943 33.3698 12.3973C30.9945 12.4197 28.767 13.15 26.9305 14.3889C25.8661 15.1057 24.9346 15.993 24.1643 17.0088C23.1898 16.7471 22.1723 16.605 21.1327 16.605C20.2676 16.605 19.3903 16.7022 18.5169 16.8998C15.9447 17.4848 13.7476 18.8838 12.1731 20.7527H12.1739C11.0689 22.0619 10.2716 23.606 9.83408 25.2715C8.15644 25.8357 6.57548 26.7814 5.25315 28.1173C5.25247 28.1189 5.25094 28.1204 5.24941 28.1219C3.03175 30.3648 1.91536 33.299 1.91621 36.2123V36.2167V36.2227V36.2286V36.26H1.91689C1.91978 37.2729 2.05793 38.2829 2.32726 39.2645C0.815458 41.2712 0.000851151 43.7086 0 46.2031C-0.000678149 48.0494 0.448256 49.9272 1.38113 51.6584C2.42955 53.6022 3.97142 55.1417 5.76512 56.1846C7.02323 56.9163 8.40435 57.3998 9.8351 57.6271C10.597 59.6577 11.9034 61.4098 13.5749 62.707C15.5632 64.2528 18.0714 65.1669 20.7589 65.1669C21.0381 65.1669 21.3164 65.1582 21.5946 65.1371H21.6014H21.6051H21.606H21.6066C22.793 65.0518 23.9298 64.787 24.9888 64.3785C25.6926 65.4976 26.5772 66.4866 27.6047 67.3023C29.5923 68.8808 32.1199 69.8236 34.8293 69.8355C34.8392 69.8371 34.8473 69.8371 34.8558 69.8371H34.8823H34.8838H34.8847H34.8869H34.899H34.9081L34.9375 69.8355H34.9459C35.1623 69.834 35.3797 69.8251 35.596 69.8116H35.599L35.7265 69.8086C36.6964 69.7381 37.6334 69.5511 38.5212 69.261C39.6398 70.9084 41.1975 72.2984 43.1247 73.2202H43.1239C44.75 73.9982 46.4849 74.3708 48.1876 74.3708C49.8453 74.3708 51.4671 74.0134 52.9546 73.3519C55.1163 75.6291 58.1645 76.9968 61.4434 77C62.1623 77 62.8894 76.9341 63.6167 76.7979C66.4099 76.2773 68.8032 74.7944 70.4778 72.7699H70.4771C71.5707 71.4518 72.3576 69.8957 72.7785 68.2168C74.7102 68.0283 76.6269 67.3609 78.3211 66.1788C79.9331 65.0565 81.1822 63.5901 82.0194 61.9533C82.8568 60.3178 83.2882 58.5131 83.2882 56.6923C83.2882 55.4788 83.0891 54.2606 82.6976 53.0861C83.703 52.2738 84.5922 51.2831 85.3013 50.1236C86.4479 48.2532 87 46.1674 87 44.1173C86.9995 41.1202 85.828 38.1799 83.6383 35.9804C83.4301 35.7709 83.2068 35.5719 82.9807 35.376C83.0989 34.7221 83.1676 34.0562 83.1676 33.3799C83.1681 31.9102 82.8788 30.4184 82.2803 29.0001L78.9677 32.3119C79.021 32.6676 79.0473 33.0245 79.0475 33.3802C79.0475 33.9069 78.9863 34.4275 78.874 34.9378C78.2209 34.6875 77.552 34.5093 76.8771 34.402L75.5937 35.685L75.4081 35.8706C75.537 36.292 75.9021 36.6232 76.3712 36.6886C77.8676 36.8979 79.6408 37.7781 80.7039 38.8507L80.7069 38.8538C82.1166 40.2663 82.8799 42.1741 82.8792 44.1176C82.8794 45.4444 82.5265 46.7837 81.7797 48.0015C80.5961 49.9347 78.6884 51.1378 76.6043 51.4955C75.9632 51.6047 75.5333 52.2092 75.6432 52.8434C75.7534 53.4795 76.3622 53.9059 77.0026 53.7967C77.4816 53.7159 77.9532 53.5976 78.4155 53.4481C78.9192 54.4806 79.1676 55.5879 79.1676 56.6921C79.1683 57.8727 78.8871 59.0457 78.3455 60.1036C77.8031 61.1617 77.0035 62.1026 75.9535 62.8359C74.6314 63.7546 73.1303 64.1931 71.6344 64.1945C71.5472 64.1945 71.4599 64.1895 71.3727 64.1845L71.3712 64.1844C71.342 64.1828 71.3129 64.1811 71.2837 64.1796L71.2818 64.1641L71.2817 64.1637L71.2817 64.1636L71.2817 64.1634L71.2816 64.1633L71.2816 64.1631C71.2575 63.9742 71.2336 63.7867 71.1984 63.599V63.5975C70.9405 62.2433 70.4095 61.0044 69.68 59.9287L69.591 59.7969L69.4703 59.6936C68.5779 58.9365 67.3944 57.6915 66.4809 56.4228C66.0231 55.7898 65.6316 55.1493 65.3684 54.5793C65.102 54.0092 64.98 53.5108 64.9844 53.2162C64.9844 53.0846 65.0041 52.9963 65.026 52.9364C65.0493 52.8781 65.0712 52.8436 65.1172 52.7959C65.5765 52.341 65.5765 51.6003 65.1172 51.1454C64.6571 50.6892 63.9118 50.6892 63.4524 51.1454V51.1441C63.1659 51.4282 62.9494 51.7709 62.8165 52.13C62.6838 52.4892 62.6303 52.8588 62.6303 53.2164C62.6347 54.0259 62.8814 54.7919 63.2284 55.552C63.7543 56.6862 64.5387 57.8129 65.3857 58.8408C66.183 59.8075 67.0316 60.6738 67.7912 61.3381C68.3138 62.1372 68.6956 63.038 68.8843 64.03C68.9634 64.4474 69.0071 64.8619 69.0132 65.2613L69.0139 65.2674C69.0148 65.3213 69.0154 65.3737 69.0154 65.4275C69.0154 67.1932 68.3825 68.8614 67.2941 70.1767C66.2041 71.4906 64.6705 72.4421 62.8551 72.7817C62.38 72.8702 61.9084 72.9135 61.4445 72.9135C58.9479 72.915 56.6381 71.6731 55.2504 69.6919C55.9972 68.9408 56.6337 68.058 57.1209 67.0586C57.7251 65.8197 58.0419 64.5088 58.1 63.2131C58.1287 62.5666 57.6249 62.0221 56.9761 61.9936C56.326 61.9653 55.7759 62.4648 55.7472 63.1084C55.7027 64.1004 55.463 65.094 55.0006 66.041L54.9999 66.044C54.5065 67.0584 53.8156 67.9068 52.9941 68.5788L52.9897 68.5816C51.6404 69.68 49.9325 70.2845 48.1879 70.2845C47.0882 70.2845 45.974 70.045 44.9142 69.5393C42.9514 68.5995 41.5885 66.9387 40.9857 65.0296L40.9849 65.0281C40.7548 64.3037 40.6357 63.5451 40.6357 62.7806C40.6357 61.6899 40.8772 60.5856 41.3891 59.5292C41.6721 58.9486 41.4255 58.2514 40.84 57.9716C40.2547 57.6919 39.5509 57.9357 39.2689 58.5163C38.6004 59.8899 38.2814 61.3488 38.2814 62.7808C38.2814 63.475 38.3615 64.162 38.5062 64.8353C37.5868 65.3334 36.5496 65.6506 35.4286 65.7332H35.4264C35.2439 65.7452 35.0628 65.7511 34.8849 65.7511C33.1175 65.7511 31.48 65.1435 30.178 64.1112C29.045 63.2133 28.1768 61.9969 27.713 60.5888C28.5418 59.7778 29.2283 58.8293 29.7299 57.7773C30.0074 57.1952 29.7563 56.498 29.1687 56.2226C28.5811 55.9472 27.8788 56.1956 27.6011 56.7792C27.135 57.7578 26.4593 58.6257 25.6272 59.3214C24.4489 60.3074 22.9607 60.9434 21.3037 61.0616H21.3013C21.1195 61.0735 20.9385 61.0809 20.7597 61.0809C17.0214 61.0825 13.8308 58.3473 13.2922 54.6815L13.2908 54.6724L13.2893 54.6633C13.2606 54.4898 13.2402 54.3072 13.2266 54.1187C13.2138 53.936 13.2072 53.7565 13.2072 53.5771C13.2072 53.1041 13.2517 52.6418 13.336 52.1915C13.4538 51.557 13.0313 50.9481 12.3918 50.8298C11.7528 50.713 11.1389 51.1321 11.0205 51.7665C10.911 52.353 10.8529 52.959 10.8529 53.5771L10.8553 53.6443C9.79704 53.5275 8.76969 53.194 7.84939 52.6584C6.68848 51.9834 5.69817 50.9974 5.01475 49.7316C4.40676 48.6034 4.12095 47.3973 4.12011 46.2048C4.12011 44.6666 4.60149 43.1555 5.49223 41.8926C5.83309 42.3714 6.2217 42.8263 6.65687 43.2497C7.64888 44.2164 8.79976 44.9332 10.0196 45.3999C10.6254 45.6335 11.3073 45.3341 11.5418 44.7326C11.7765 44.1311 11.4748 43.4548 10.8691 43.2227C9.93824 42.8651 9.06484 42.3221 8.30665 41.5829L8.30512 41.5815C7.63834 40.9335 7.12008 40.1945 6.74659 39.4028C6.2737 38.4004 6.03615 37.3125 6.03615 36.2233C6.03683 34.3274 6.75118 32.4437 8.19263 30.9818C9.41828 29.7444 10.961 29.02 12.5644 28.8031H12.5659H12.5674L12.5719 28.8016C12.9107 28.7568 13.2516 28.7328 13.5939 28.7344C15.5047 28.7359 17.4077 29.4452 18.8809 30.8741C19.3455 31.3244 20.0908 31.317 20.5456 30.8562C21.0005 30.3954 20.9922 29.6562 20.5276 29.2058C18.653 27.3847 16.2221 26.4541 13.7872 26.4077C14.0648 25.29 14.5943 24.2516 15.3334 23.3763C16.3562 22.1643 17.7632 21.2665 19.4383 20.8834C20.0072 20.7547 20.5744 20.692 21.1324 20.692C22.1189 20.692 23.0778 20.8865 23.964 21.2426C23.712 22.1119 23.5733 23.0292 23.5733 23.9763C23.5733 24.6211 24.1006 25.1434 24.7507 25.1434C25.4008 25.1434 25.9274 24.6212 25.9274 23.9763C25.9274 22.9542 26.1349 21.9788 26.5053 21.0929C27.0739 19.7403 28.035 18.5851 29.2441 17.7696C30.4557 16.9542 31.9092 16.4813 33.4856 16.4798C35.7537 16.4813 37.7798 17.4659 39.1684 19.0355L39.1708 19.037C40.3383 20.3551 41.0422 22.0789 41.043 23.9761C41.043 24.6209 41.5694 25.1432 42.2204 25.1432C42.8707 25.1432 43.3971 24.6211 43.3971 23.9761C43.398 21.82 42.6948 19.818 41.5038 18.1973C42.1133 17.3595 42.8902 16.6502 43.7893 16.1235C44.9147 15.4637 46.2212 15.0867 47.6272 15.0867C49.2421 15.0867 50.7281 15.5864 51.9554 16.4408C53.1826 17.2936 54.1437 18.5012 54.6859 19.9091L54.6852 19.9078C55.0052 20.7412 55.1809 21.6375 55.1816 22.5831C55.1816 23.228 55.7081 23.7504 56.3584 23.7504C57.0086 23.7504 57.5358 23.2281 57.5358 22.5831C57.5358 21.6194 57.3902 20.6888 57.1292 19.809C58.5231 18.5207 60.3734 17.792 62.2826 17.792C63.2797 17.792 64.2906 17.9895 65.2681 18.4055C65.5118 18.5095 65.7469 18.6246 65.9731 18.7498L68.9451 15.7776ZM54.5006 30.2229C54.246 30.0393 54.0039 29.8481 53.7749 29.651C52.8781 28.879 52.1885 28.0156 51.7354 27.1897C51.2798 26.3622 51.0708 25.5751 51.0739 24.9856C51.0739 24.9573 51.0728 24.9292 51.0708 24.9013C52.134 24.3107 52.8526 23.1825 52.8526 21.8879C52.8526 19.9816 51.2946 18.4363 49.3726 18.4363C47.4506 18.4363 45.8926 19.9816 45.8926 21.8879C45.8926 23.5759 47.1143 24.9809 48.7286 25.2805C48.7865 26.2846 49.1223 27.307 49.6678 28.3044C50.2946 29.4447 51.2103 30.5518 52.3743 31.5273C52.1396 31.8506 51.8159 32.2667 51.4027 32.7125C50.5058 33.6836 49.213 34.7593 47.6696 35.3025C47.0572 35.5194 46.7381 36.1884 46.957 36.7942C47.1757 37.4018 47.8494 37.7192 48.4611 37.5019C48.9969 37.3109 49.4983 37.0797 49.9655 36.822L50.0942 36.3906L50.0967 36.3822C50.5938 34.733 51.4885 33.2353 52.7074 32.0162L54.5006 30.2229ZM57.5781 34.2165L59.5487 32.2458C59.9867 32.3104 60.4392 32.3529 60.9056 32.3708C61.0079 30.5555 62.5244 29.1147 64.3801 29.1147C66.3021 29.1147 67.8601 30.6601 67.8601 32.5664C67.8601 34.4726 66.3021 36.018 64.3801 36.018C63.2671 36.018 62.2761 35.4997 61.6391 34.6932C61.5641 34.7081 61.4865 34.7159 61.4072 34.7159C60.0409 34.7166 58.76 34.5355 57.5781 34.2165ZM48.6967 41.0769C48.6493 41.0157 48.6028 40.9543 48.5573 40.8927C47.4008 39.329 45.8962 37.9362 44.1227 36.9201C42.3518 35.9071 40.303 35.2741 38.1042 35.2741C36.1761 35.2727 34.1442 35.765 32.1309 36.8617C31.3078 37.3091 30.5943 37.8328 29.9729 38.4043C27.5237 39.3395 25.4132 39.676 23.6279 39.676C21.0843 39.676 19.1842 38.9982 17.9139 38.3323C17.2796 38.0001 16.8051 37.6695 16.4981 37.4301C16.3441 37.309 16.232 37.2131 16.1623 37.1504L16.0899 37.0814L16.0786 37.071H16.078C16.0143 37.006 15.9446 36.95 15.8708 36.903C15.9462 36.6205 15.9863 36.3239 15.9863 36.018C15.9863 34.1117 14.4282 32.5664 12.5063 32.5664C10.5843 32.5664 9.02627 34.1117 9.02627 36.018C9.02627 37.9242 10.5843 39.4696 12.5063 39.4696C13.2594 39.4696 13.9566 39.2323 14.5261 38.8291C14.8236 39.1046 15.5862 39.7532 16.8119 40.3972C17.4901 40.7533 18.3214 41.1034 19.2816 41.3892C19.0265 41.7453 18.6782 42.2659 18.2988 42.9288C17.5693 44.2051 16.7312 45.9963 16.3042 48.1091C16.2971 48.144 16.2917 48.1789 16.288 48.2137C14.7995 48.6053 13.7025 49.9507 13.7025 51.5502C13.7025 53.4565 15.2606 55.0019 17.1825 55.0019C19.1045 55.0019 20.6625 53.4565 20.6625 51.5502C20.6625 50.1614 19.8356 48.9642 18.6434 48.4165C19.0115 46.6982 19.7203 45.1734 20.3465 44.0811C20.6678 43.5185 20.9659 43.071 21.1801 42.7702C21.2872 42.6192 21.3732 42.5039 21.4306 42.4291C21.4523 42.4016 21.4702 42.3786 21.4832 42.3619L21.494 42.3482L21.5076 42.3317L21.5091 42.3301L21.5098 42.3286C21.6184 42.197 21.6909 42.0489 21.7322 41.8933C22.3312 41.9664 22.9602 42.0114 23.6279 42.0099C24.8656 42.0114 26.221 41.8663 27.6807 41.5372C26.9571 43.0843 26.6594 44.6989 26.6586 46.1787C26.6615 47.669 26.9475 49.0217 27.4574 50.099C27.4829 50.1526 27.5121 50.2034 27.5444 50.2512C27.1152 50.8251 26.8613 51.5358 26.8613 52.3053C26.8613 54.2115 28.4194 55.7569 30.3413 55.7569C32.2633 55.7569 33.8213 54.2115 33.8213 52.3053C33.8213 50.399 32.2633 48.8537 30.3413 48.8537C30.0576 48.8537 29.7819 48.8873 29.5179 48.9509C29.2247 48.2725 29.0097 47.2748 29.0134 46.1787C29.0125 44.9069 29.2893 43.5064 29.9532 42.2285C30.6207 40.9507 31.6572 39.7851 33.2631 38.9082C34.9579 37.988 36.5759 37.6108 38.1042 37.6095C39.8442 37.6095 41.4834 38.1078 42.9466 38.9426C44.4085 39.779 45.6856 40.9566 46.6584 42.2732C47.0492 42.8019 47.5003 43.3275 48.0154 43.8247C48.0456 43.4213 48.1188 43.0168 48.2374 42.6174L48.2394 42.6105L48.6967 41.0769ZM55.9901 49.5838C55.723 50.0723 55.5714 50.6319 55.5714 51.2266C55.5714 53.1329 57.1294 54.6783 59.0514 54.6783C60.9733 54.6783 62.5314 53.1329 62.5314 51.2266C62.5314 50.4311 62.26 49.6984 61.8041 49.1146C61.8118 49.0994 61.8192 49.084 61.8264 49.0683C61.8334 49.0528 61.8402 49.0371 61.8466 49.0212L61.8543 49.0006C61.8966 48.889 62.076 48.4158 62.208 47.7083C62.0141 47.7795 61.8178 47.8451 61.6193 47.905L61.612 47.9072L59.8921 48.4199L55.9901 49.5838ZM61.3819 42.5882C60.8494 41.7314 60.0527 40.9232 58.9556 40.277C59.0182 40.018 59.0514 39.7476 59.0514 39.4696C59.0514 37.6464 57.6262 36.1534 55.8206 36.0267C55.4138 36.542 55.1034 37.1276 54.9044 37.7589C55.1113 37.6795 55.3362 37.6359 55.5714 37.6359C56.5924 37.6359 57.4201 38.4569 57.4201 39.4696C57.4201 40.4823 56.5924 41.3033 55.5714 41.3033C54.9552 41.3033 54.4094 41.0042 54.0734 40.5445L53.5552 42.2832C54.124 42.6849 54.8199 42.9212 55.5714 42.9212C56.3548 42.9212 57.0778 42.6644 57.6594 42.2311C58.3139 42.6059 58.7734 43.0133 59.1081 43.4363L60.1762 43.1177C60.6006 42.9898 61.005 42.8118 61.3819 42.5882ZM69.9757 41.3033C70.8319 41.755 71.7187 42.5544 72.3655 43.5534C73.0233 44.5619 73.4399 45.7622 73.4392 47.0019C73.4342 48.3088 72.9983 49.6697 71.832 51.0257C71.4432 50.8768 71.0206 50.7952 70.5789 50.7952C68.6569 50.7952 67.0989 52.3405 67.0989 54.2468C67.0989 56.1531 68.6569 57.6984 70.5789 57.6984C72.5008 57.6984 74.0589 56.1531 74.0589 54.2468C74.0589 53.6015 73.8804 52.9976 73.5696 52.481C75.1348 50.7347 75.8041 48.8066 75.7989 47.0019C75.7989 45.8879 75.5524 44.8221 75.1382 43.8504C74.515 42.3941 73.5223 41.1476 72.3543 40.2336C72.1049 40.0391 71.8471 39.8596 71.5818 39.6971L69.9757 41.3033ZM66.9799 37.2289C66.4703 36.9388 65.8798 36.773 65.2501 36.773C63.3282 36.773 61.7701 38.3183 61.7701 40.2246C61.7701 40.8562 61.9412 41.4482 62.2398 41.9575C62.3114 41.8932 62.3813 41.8269 62.4496 41.7586L63.4738 40.7345C63.4266 40.5726 63.4014 40.4016 63.4014 40.2246C63.4014 39.2119 64.2291 38.391 65.2501 38.391C65.4233 38.391 65.5909 38.4146 65.7499 38.4587L66.9799 37.2289ZM76.4199 27.79C76.1079 27.5296 75.7761 27.2969 75.4285 27.0928C74.4329 26.5092 73.3089 26.1622 72.1547 26.0858C72.0696 27.1242 71.8185 28.1671 71.3818 29.1726C71.1252 29.7651 70.4329 30.0403 69.8355 29.7845C69.2382 29.5302 68.9628 28.8436 69.2193 28.251C69.6385 27.2814 69.8355 26.2801 69.8363 25.2912C69.8363 25.1491 69.8317 25.007 69.8243 24.8663C69.778 24.0515 69.5966 23.252 69.2932 22.5008L72.3562 19.4377C72.8549 20.2869 73.2402 21.1941 73.5073 22.1367C74.9209 22.3627 76.2847 22.8474 77.5246 23.5746C78.1623 23.9481 78.767 24.3856 79.3277 24.8825L76.4199 27.79ZM55.4458 44.5285L53.9614 44.9712C53.8914 44.9918 53.8173 45 53.7473 45C53.5537 45 53.3601 44.9259 53.2201 44.7817C53.0563 44.6179 52.978 44.3892 53.0052 44.1629C53.7397 44.39 54.5485 44.5226 55.4458 44.5285ZM42.001 50.8368C43.1517 52.1142 47.0598 53.8081 47.0598 53.8081C47.1663 53.8547 47.2702 53.9059 47.3713 53.9614C48.3303 54.0616 49.6003 54.3386 50.9566 54.7264C52.5942 55.1945 54.4547 55.8523 56.215 56.6489C57.9636 57.4402 59.6746 58.3958 60.9703 59.4784C62.1963 60.5028 63.3081 61.8582 63.346 63.4909C64.7687 63.9637 65.7939 65.2965 65.7939 66.8668C65.7939 68.8326 64.1871 70.4263 62.2051 70.4263C60.2231 70.4263 58.6164 68.8326 58.6164 66.8668C58.6164 65.4195 59.4872 64.1739 60.7376 63.6175C60.7372 63.6041 60.737 63.5905 60.737 63.5769C60.737 63.0909 60.3776 62.368 59.2887 61.4582C58.248 60.5886 56.7746 59.7476 55.1316 59.0041C53.5003 58.2659 51.7617 57.6506 50.2337 57.2138C49.9547 57.134 49.6857 57.0611 49.4282 56.9949C49.4685 57.1464 49.5076 57.3015 49.5341 57.4257C49.6935 58.1725 49.7953 59.0397 49.7477 59.9841C49.7046 60.8461 49.5351 61.7731 49.1728 62.7157C49.8866 63.1993 50.421 63.9458 50.6141 64.8509C51.012 66.7158 49.8103 68.5477 47.93 68.9423C46.0497 69.337 44.2028 68.1451 43.8049 66.2802C43.4069 64.4152 44.6087 62.5834 46.489 62.1887C46.6175 62.1617 46.7459 62.1421 46.8737 62.1297C46.8801 62.1121 46.887 62.0947 46.8943 62.0773C47.2149 61.3173 47.36 60.574 47.3959 59.8675C47.4316 59.161 47.3558 58.4949 47.2309 57.9092L47.2208 57.8622L47.2116 57.8207C46.9616 56.7042 45.9535 55.9972 44.8788 55.5829C42.467 54.653 41.048 53.3831 39.903 51.996C39.1395 51.0705 38.5899 50.1319 38.2283 49.2964C38.0207 48.8183 37.8745 48.3745 37.7866 47.964C36.332 47.807 35.0788 46.7436 34.7593 45.2465C34.3614 43.3815 35.5631 41.5497 37.4434 41.155C39.3237 40.7603 41.1706 41.9522 41.5685 43.8172C41.8739 45.2484 41.2372 46.6601 40.0747 47.4177L40.0778 47.4297C40.0818 47.4454 40.0856 47.4613 40.089 47.4773C40.159 47.8129 40.3488 48.3512 40.6664 48.9436C40.984 49.5393 41.4272 50.2001 42.001 50.8368ZM28.5593 31.4481V31.4496L28.5528 31.4573C28.86 31.9718 29.0363 32.5722 29.0363 33.2135C29.0363 35.1198 27.4783 36.6651 25.5563 36.6651C23.6343 36.6651 22.0763 35.1198 22.0763 33.2135C22.0763 31.3073 23.6343 29.7619 25.5563 29.7619C25.9719 29.7619 26.3704 29.8342 26.7399 29.9667C26.7472 29.9576 26.7546 29.9486 26.7622 29.9397C27.8883 28.6216 29.3826 27.6847 30.9868 27.0712C32.595 26.4595 34.3217 26.1632 35.9766 26.1632C37.5887 26.1645 39.1343 26.4399 40.4496 27.0399C40.4753 27.0517 40.5003 27.0643 40.5247 27.0776C41.0685 26.7286 41.7167 26.526 42.4126 26.526C44.3345 26.526 45.8926 28.0714 45.8926 29.9776C45.8926 31.8839 44.3345 33.4293 42.4126 33.4293C40.4906 33.4293 38.9326 31.8839 38.9326 29.9776C38.9326 29.6378 38.9821 29.3094 39.0744 28.9992C38.2134 28.6782 37.1293 28.4963 35.9764 28.4989C34.6074 28.4974 33.144 28.7489 31.8331 29.2516C30.5199 29.7528 29.368 30.4979 28.5593 31.4481ZM27.4051 33.2135C27.4051 34.2262 26.5773 35.0472 25.5563 35.0472C24.5353 35.0472 23.7075 34.2262 23.7075 33.2135C23.7075 32.2008 24.5353 31.3799 25.5563 31.3799C26.5773 31.3799 27.4051 32.2008 27.4051 33.2135ZM12.5063 37.8516C13.5273 37.8516 14.355 37.0307 14.355 36.018C14.355 35.0053 13.5273 34.1843 12.5063 34.1843C11.4852 34.1843 10.6575 35.0053 10.6575 36.018C10.6575 37.0307 11.4852 37.8516 12.5063 37.8516ZM19.0313 51.5502C19.0313 52.5629 18.2036 53.3839 17.1825 53.3839C16.1615 53.3839 15.3338 52.5629 15.3338 51.5502C15.3338 50.5375 16.1615 49.7166 17.1825 49.7166C18.2036 49.7166 19.0313 50.5375 19.0313 51.5502ZM30.3413 54.1389C31.3624 54.1389 32.1901 53.318 32.1901 52.3053C32.1901 51.2926 31.3624 50.4716 30.3413 50.4716C29.3203 50.4716 28.4926 51.2926 28.4926 52.3053C28.4926 53.318 29.3203 54.1389 30.3413 54.1389ZM51.2214 21.8879C51.2214 22.9006 50.3936 23.7216 49.3726 23.7216C48.3516 23.7216 47.5238 22.9006 47.5238 21.8879C47.5238 20.8752 48.3516 20.0542 49.3726 20.0542C50.3936 20.0542 51.2214 20.8752 51.2214 21.8879ZM64.3801 34.4C65.4012 34.4 66.2289 33.5791 66.2289 32.5664C66.2289 31.5536 65.4012 30.7327 64.3801 30.7327C63.3591 30.7327 62.5314 31.5536 62.5314 32.5664C62.5314 33.5791 63.3591 34.4 64.3801 34.4ZM70.5789 56.0805C71.5999 56.0805 72.4276 55.2595 72.4276 54.2468C72.4276 53.2341 71.5999 52.4131 70.5789 52.4131C69.5579 52.4131 68.7301 53.2341 68.7301 54.2468C68.7301 55.2595 69.5579 56.0805 70.5789 56.0805ZM59.0514 53.0603C60.0724 53.0603 60.9001 52.2394 60.9001 51.2266C60.9001 50.2139 60.0724 49.393 59.0514 49.393C58.0303 49.393 57.2026 50.2139 57.2026 51.2266C57.2026 52.2394 58.0303 53.0603 59.0514 53.0603ZM49.0182 65.1859C49.2296 66.1766 48.5912 67.1498 47.5923 67.3595C46.5933 67.5691 45.6122 66.9359 45.4008 65.9452C45.1894 64.9544 45.8278 63.9813 46.8267 63.7716C47.8256 63.5619 48.8068 64.1951 49.0182 65.1859ZM42.4126 31.8113C43.4336 31.8113 44.2613 30.9903 44.2613 29.9776C44.2613 28.9649 43.4336 28.144 42.4126 28.144C41.3915 28.144 40.5638 28.9649 40.5638 29.9776C40.5638 30.9903 41.3915 31.8113 42.4126 31.8113ZM39.9726 44.1522C40.184 45.1429 39.5456 46.1161 38.5467 46.3258C37.5478 46.5354 36.5666 45.9022 36.3552 44.9115C36.1438 43.9207 36.7822 42.9476 37.7812 42.7379C38.7801 42.5282 39.7612 43.1614 39.9726 44.1522ZM64.0539 66.8668C64.0539 67.8795 63.2262 68.7004 62.2051 68.7004C61.1841 68.7004 60.3564 67.8795 60.3564 66.8668C60.3564 65.8541 61.1841 65.0331 62.2051 65.0331C63.2262 65.0331 64.0539 65.8541 64.0539 66.8668Z" fill="url(#paint0_linear_1267_2571)"/>
<path d="M87 15.3906C87 16.552 86.5387 17.6723 85.715 18.4961L72.0581 32.1496L62.4497 41.7586C61.8155 42.3929 61.0371 42.8583 60.1763 43.1177L58.463 43.6285L53.9615 44.9712C53.8915 44.9918 53.8174 45 53.7473 45C53.5538 45 53.3602 44.9259 53.2202 44.7817C53.0266 44.5881 52.9525 44.3039 53.0307 44.0403L53.1543 43.6285L54.015 40.7454L54.884 37.8252C55.1435 36.9644 55.6089 36.1859 56.2431 35.5517L79.5085 12.285C80.3322 11.4613 81.4483 11 82.6097 11C83.7711 11 84.8913 11.4613 85.715 12.285C86.5387 13.1088 87 14.225 87 15.3906Z" fill="url(#paint1_linear_1267_2571)"/>
</g>
<defs>
<linearGradient id="paint0_linear_1267_2571" x1="7.97821e-07" y1="44.5593" x2="87" y2="44.5593" gradientUnits="userSpaceOnUse">
<stop stop-color="#3C7FE3"/>
<stop offset="1" stop-color="#3EDCFF"/>
</linearGradient>
<linearGradient id="paint1_linear_1267_2571" x1="53" y1="28.2881" x2="87" y2="28.2881" gradientUnits="userSpaceOnUse">
<stop stop-color="#3C7FE3"/>
<stop offset="1" stop-color="#3EDCFF"/>
</linearGradient>
<clipPath id="clip0_1267_2571">
<rect width="87" height="87" fill="white"/>
</clipPath>
</defs>
</svg>
