<svg width="87" height="87" viewBox="0 0 87 87" fill="none" xmlns="http://www.w3.org/2000/svg">
<g clip-path="url(#clip0_1250_1523)">
<path d="M68 16H44C41.2386 16 39 18.2386 39 21V44C39 46.7614 41.2386 49 44 49H75C77.7614 49 80 46.7614 80 44V26" stroke="url(#paint0_linear_1250_1523)" stroke-width="4" stroke-linecap="round" stroke-linejoin="round"/>
<path fill-rule="evenodd" clip-rule="evenodd" d="M75.8454 54.968C75.6693 55.2128 75.5879 55.5243 75.6433 55.8434C75.7534 56.4795 76.3622 56.9059 77.0026 56.7966C77.4816 56.7159 77.9532 56.5976 78.4155 56.4481C78.9192 57.4806 79.1676 58.5878 79.1676 59.6921C79.1683 60.8727 78.8871 62.0457 78.3455 63.1036C77.8031 64.1617 77.0035 65.1026 75.9535 65.8359C74.6314 66.7546 73.1303 67.1931 71.6344 67.1945C71.5472 67.1945 71.4599 67.1895 71.3727 67.1845C71.343 67.1828 71.3134 67.1811 71.2837 67.1796L71.2818 67.1641L71.2817 67.1637L71.2817 67.1636L71.2817 67.1634L71.2816 67.1633L71.2816 67.1631C71.2575 66.9742 71.2336 66.7867 71.1984 66.599V66.5975C70.9405 65.2433 70.4095 64.0044 69.68 62.9287L69.591 62.7969L69.4703 62.6936C68.5779 61.9365 67.3944 60.6915 66.4809 59.4228C66.0231 58.7898 65.6316 58.1493 65.3684 57.5793C65.102 57.0092 64.98 56.5108 64.9844 56.2162C64.9844 56.0846 65.0041 55.9963 65.026 55.9364C65.0493 55.8781 65.0712 55.8436 65.1172 55.7959C65.3394 55.5759 65.4541 55.289 65.4614 55H62.8686C62.85 55.043 62.8326 55.0864 62.8165 55.13C62.6838 55.4891 62.6303 55.8588 62.6303 56.2164C62.6347 57.0259 62.8814 57.7919 63.2284 58.552C63.7543 59.6862 64.5387 60.8129 65.3857 61.8408C66.183 62.8075 67.0316 63.6738 67.7912 64.3381C68.3138 65.1372 68.6956 66.038 68.8843 67.03C68.9634 67.4474 69.0071 67.8619 69.0132 68.2613L69.0139 68.2674L69.0149 68.3439C69.0151 68.3604 69.0153 68.377 69.0153 68.3936C69.0154 68.4049 69.0154 68.4161 69.0154 68.4275C69.0154 70.1932 68.3825 71.8614 67.2941 73.1767C66.2041 74.4906 64.6705 75.4421 62.8551 75.7817C62.38 75.8702 61.9084 75.9135 61.4446 75.9135C58.9479 75.915 56.6381 74.6731 55.2504 72.6919C55.9972 71.9408 56.6337 71.058 57.1209 70.0586C57.7251 68.8197 58.0419 67.5088 58.1 66.2131C58.1287 65.5666 57.6249 65.022 56.9761 64.9936C56.326 64.9652 55.7759 65.4648 55.7472 66.1084C55.7027 67.1004 55.463 68.0939 55.0006 69.041L54.9999 69.044C54.5065 70.0584 53.8156 70.9068 52.9941 71.5788L52.9897 71.5816C51.6404 72.68 49.9325 73.2845 48.1879 73.2845C47.0882 73.2845 45.974 73.045 44.9142 72.5392C42.9514 71.5995 41.5885 69.9387 40.9857 68.0296L40.9849 68.028C40.7548 67.3037 40.6357 66.5451 40.6357 65.7806C40.6357 64.6899 40.8772 63.5856 41.3891 62.5292C41.6721 61.9486 41.4255 61.2514 40.84 60.9716C40.2547 60.6919 39.5509 60.9357 39.2689 61.5163C38.6004 62.8899 38.2814 64.3487 38.2814 65.7808C38.2814 66.475 38.3615 67.1619 38.5062 67.8352C37.5868 68.3334 36.5496 68.6506 35.4286 68.7332H35.4264C35.2439 68.7452 35.0628 68.7511 34.8849 68.7511C33.1175 68.7511 31.48 68.1435 30.178 67.1112C29.045 66.2132 28.1768 64.9969 27.713 63.5888C28.5418 62.7778 29.2283 61.8293 29.7299 60.7773C30.0074 60.1952 29.7563 59.4979 29.1687 59.2226C28.5811 58.9472 27.8788 59.1956 27.6011 59.7792C27.1351 60.7577 26.4593 61.6257 25.6272 62.3214C24.4489 63.3074 22.9607 63.9434 21.3037 64.0616H21.3013C21.1195 64.0735 20.9385 64.0809 20.7597 64.0809C17.0215 64.0825 13.8308 61.3473 13.2922 57.6815L13.2908 57.6724L13.2893 57.6633C13.2606 57.4898 13.2402 57.3071 13.2266 57.1187C13.2138 56.936 13.2072 56.7565 13.2072 56.577C13.2072 56.1041 13.2517 55.6418 13.336 55.1915C13.4538 54.557 13.0313 53.9481 12.3918 53.8297C11.7528 53.7129 11.1389 54.1321 11.0205 54.7665C10.9111 55.353 10.8529 55.959 10.8529 56.577L10.8553 56.6443C9.79704 56.5275 8.76969 56.194 7.84939 55.6584C6.68848 54.9834 5.69817 53.9974 5.01475 52.7316C4.40677 51.6034 4.12096 50.3973 4.12011 49.2048C4.12011 47.6666 4.6015 46.1555 5.49223 44.8926C5.83309 45.3714 6.22171 45.8263 6.65688 46.2497C7.64888 47.2164 8.79977 47.9332 10.0196 48.3999C10.6254 48.6334 11.3073 48.3341 11.5418 47.7326C11.7765 47.1311 11.4749 46.4548 10.8691 46.2227C9.93824 45.8651 9.06484 45.3221 8.30665 44.5829L8.30512 44.5815C7.63835 43.9335 7.12008 43.1945 6.74659 42.4028C6.2737 41.4004 6.03615 40.3125 6.03615 39.2232C6.03683 37.3274 6.75118 35.4437 8.19263 33.9818C9.41828 32.7444 10.961 32.02 12.5644 31.8031H12.5659H12.5675L12.5719 31.8016C12.9107 31.7568 13.2516 31.7328 13.594 31.7344C15.5047 31.7359 17.4077 32.4452 18.8809 33.8741C19.3455 34.3244 20.0908 34.317 20.5456 33.8562C21.0005 33.3954 20.9922 32.6562 20.5276 32.2057C18.653 30.3847 16.2221 29.4541 13.7872 29.4077C14.0648 28.29 14.5943 27.2516 15.3334 26.3763C16.3562 25.1643 17.7632 24.2665 19.4383 23.8834C20.0072 23.7547 20.5744 23.692 21.1324 23.692C22.1189 23.692 23.0778 23.8865 23.964 24.2426C23.712 25.1119 23.5733 26.0292 23.5733 26.9762C23.5733 27.6211 24.1006 28.1434 24.7507 28.1434C25.4008 28.1434 25.9274 27.6212 25.9274 26.9762C25.9274 25.9542 26.1349 24.9788 26.5053 24.0929C27.0739 22.7403 28.035 21.5851 29.2441 20.7696C30.357 20.0206 31.674 19.5606 33.1029 19.4895C33.3036 18.0278 33.7915 16.6576 34.5078 15.4378C34.1913 15.4105 33.8713 15.3958 33.5484 15.3943L33.5403 15.3929H33.4874H33.4837H33.474C33.4468 15.3929 33.4128 15.3943 33.3698 15.3973C30.9945 15.4197 28.767 16.15 26.9305 17.3889C25.8661 18.1057 24.9346 18.993 24.1643 20.0088C23.1898 19.7471 22.1723 19.605 21.1327 19.605C20.2676 19.605 19.3903 19.7022 18.5169 19.8998C15.9447 20.4848 13.7476 21.8838 12.1731 23.7527H12.1739C11.0689 25.0618 10.2716 26.606 9.83408 28.2714C8.15644 28.8357 6.57548 29.7814 5.25315 31.1173C5.25247 31.1189 5.25094 31.1204 5.24941 31.1219C3.03176 33.3648 1.91537 36.299 1.91622 39.2123V39.2167V39.2227V39.2286V39.26H1.9169C1.91978 40.2729 2.05793 41.2829 2.32726 42.2645C0.815461 44.2712 0.000853447 46.7086 7.63663e-07 49.2031C-0.000675853 51.0494 0.448259 52.9272 1.38113 54.6584C2.42955 56.6022 3.97143 58.1417 5.76512 59.1846C7.02323 59.9162 8.40436 60.3998 9.8351 60.6271C10.597 62.6577 11.9034 64.4098 13.5749 65.707C15.5632 67.2528 18.0714 68.1669 20.7589 68.1669C21.0381 68.1669 21.3164 68.1582 21.5946 68.1371H21.6014H21.6051H21.606H21.6066C22.793 68.0518 23.9298 67.787 24.9888 67.3785C25.6926 68.4976 26.5772 69.4866 27.6047 70.3023C29.5923 71.8808 32.1199 72.8236 34.8293 72.8355C34.8392 72.8371 34.8473 72.8371 34.8558 72.8371H34.8823H34.8838H34.8847H34.8869H34.899H34.9081L34.9375 72.8355H34.9459C35.1623 72.834 35.3797 72.8251 35.596 72.8116H35.599L35.7265 72.8086C36.6964 72.7381 37.6334 72.551 38.5212 72.261C39.6398 73.9084 41.1975 75.2984 43.1247 76.2202H43.1239C44.75 76.9982 46.4849 77.3708 48.1876 77.3708C49.8453 77.3708 51.4671 77.0134 52.9546 76.3519C55.1163 78.6291 58.1645 79.9968 61.4434 80C62.1623 80 62.8894 79.9341 63.6167 79.7979C66.4099 79.2773 68.8032 77.7944 70.4778 75.7699H70.4771C71.5707 74.4518 72.3576 72.8957 72.7785 71.2167C74.7102 71.0283 76.6269 70.3609 78.3211 69.1788C79.9331 68.0565 81.1822 66.5901 82.0194 64.9533C82.8568 63.3178 83.2882 61.5131 83.2882 59.6923C83.2882 58.4788 83.0891 57.2606 82.6976 56.0861C83.703 55.2738 84.5922 54.2831 85.3013 53.1236C86.4479 51.2532 87 49.1674 87 47.1173C86.9997 45.4998 86.6584 43.8988 86 42.4219V44C86 49.7907 81.5255 54.5363 75.8454 54.968ZM33 29.479C32.3178 29.6248 31.6425 29.8218 30.9868 30.0712C29.3826 30.6847 27.8883 31.6216 26.7622 32.9397C26.7546 32.9486 26.7472 32.9576 26.7399 32.9667C26.3704 32.8342 25.9719 32.7619 25.5563 32.7619C23.6344 32.7619 22.0763 34.3073 22.0763 36.2135C22.0763 38.1198 23.6344 39.6651 25.5563 39.6651C27.4783 39.6651 29.0363 38.1198 29.0363 36.2135C29.0363 35.5722 28.86 34.9718 28.5528 34.4572L28.5593 34.4496V34.4481C29.368 33.4979 30.5199 32.7528 31.8331 32.2516C32.2113 32.1065 32.6023 31.9824 33 31.8792V29.479ZM33 39.4258C32.7102 39.5588 32.4204 39.704 32.1309 39.8617C31.3078 40.3091 30.5943 40.8328 29.9729 41.4043C27.5237 42.3395 25.4132 42.676 23.6279 42.676C21.0843 42.676 19.1842 41.9982 17.9139 41.3323C17.2796 41.0001 16.8051 40.6695 16.4981 40.4301C16.3441 40.309 16.232 40.2131 16.1623 40.1504L16.0899 40.0814L16.0786 40.071H16.078C16.0143 40.006 15.9447 39.95 15.8708 39.903C15.9462 39.6205 15.9863 39.3239 15.9863 39.018C15.9863 37.1117 14.4282 35.5663 12.5063 35.5663C10.5843 35.5663 9.02627 37.1117 9.02627 39.018C9.02627 40.9242 10.5843 42.4696 12.5063 42.4696C13.2594 42.4696 13.9566 42.2323 14.5261 41.8291C14.8236 42.1046 15.5862 42.7532 16.8119 43.3972C17.4901 43.7533 18.3214 44.1034 19.2816 44.3892C19.0265 44.7453 18.6782 45.2659 18.2988 45.9288C17.5693 47.2051 16.7312 48.9963 16.3042 51.1091C16.2972 51.144 16.2918 51.1789 16.288 51.2137C14.7995 51.6053 13.7025 52.9507 13.7025 54.5502C13.7025 56.4565 15.2606 58.0018 17.1825 58.0018C19.1045 58.0018 20.6625 56.4565 20.6625 54.5502C20.6625 53.1614 19.8356 51.9642 18.6434 51.4165C19.0115 49.6982 19.7203 48.1734 20.3465 47.0811C20.6678 46.5185 20.9659 46.071 21.1801 45.7702C21.2872 45.6192 21.3732 45.5039 21.4306 45.4291C21.4523 45.4016 21.4702 45.3786 21.4832 45.3619L21.494 45.3482L21.5076 45.3317L21.5091 45.3301L21.5098 45.3286C21.6184 45.197 21.6909 45.0489 21.7322 44.8933C22.3312 44.9664 22.9602 45.0114 23.6279 45.0099C24.8656 45.0114 26.221 44.8663 27.6807 44.5372C26.9571 46.0843 26.6594 47.6989 26.6586 49.1787C26.6615 50.669 26.9475 52.0217 27.4574 53.099C27.4829 53.1526 27.5121 53.2034 27.5444 53.2512C27.1152 53.8251 26.8613 54.5358 26.8613 55.3053C26.8613 57.2115 28.4194 58.7569 30.3413 58.7569C32.2633 58.7569 33.8213 57.2115 33.8213 55.3053C33.8213 53.399 32.2633 51.8537 30.3413 51.8537C30.0576 51.8537 29.7819 51.8873 29.5179 51.9509C29.2247 51.2725 29.0097 50.2748 29.0134 49.1787C29.0125 47.9069 29.2893 46.5064 29.9532 45.2285C30.5835 44.0219 31.5429 42.9153 33 42.0574V39.4258ZM39.0481 53.825C39.2962 54.2118 39.5805 54.6051 39.903 54.996C41.048 56.3831 42.467 57.653 44.8788 58.5829C45.9535 58.9972 46.9616 59.7042 47.2116 60.8207L47.2208 60.8622L47.2309 60.9092C47.3558 61.4949 47.4316 62.161 47.3959 62.8675C47.36 63.574 47.2149 64.3173 46.8943 65.0772C46.887 65.0947 46.8801 65.1121 46.8737 65.1297C46.7459 65.1421 46.6175 65.1617 46.489 65.1887C44.6087 65.5834 43.4069 67.4152 43.8049 69.2802C44.2028 71.1451 46.0497 72.337 47.93 71.9423C49.8103 71.5477 51.012 69.7158 50.6141 67.8509C50.421 66.9458 49.8866 66.1993 49.1728 65.7157C49.5351 64.7731 49.7046 63.8461 49.7478 62.984C49.7953 62.0397 49.6935 61.1725 49.5341 60.4257C49.5076 60.3014 49.4685 60.1464 49.4282 59.9949C49.6857 60.0611 49.9547 60.134 50.2337 60.2138C51.7617 60.6506 53.5003 61.2659 55.1316 62.0041C56.7746 62.7476 58.248 63.5886 59.2887 64.4582C60.3776 65.368 60.737 66.0909 60.737 66.5769L60.7371 66.5942L60.7376 66.6175C59.4872 67.1739 58.6164 68.4195 58.6164 69.8668C58.6164 71.8326 60.2231 73.4262 62.2051 73.4262C64.1871 73.4262 65.7939 71.8326 65.7939 69.8668C65.7939 68.2965 64.7687 66.9637 63.346 66.4909C63.3081 64.8582 62.1963 63.5028 60.9703 62.4784C59.6746 61.3957 57.9636 60.4402 56.215 59.6489C54.4547 58.8523 52.5942 58.1945 50.9566 57.7264C49.6004 57.3386 48.3303 57.0616 47.3713 56.9614C47.2702 56.9059 47.1663 56.8547 47.0598 56.8081C47.0598 56.8081 45.0728 55.9469 43.5153 54.9895C41.9136 54.9201 40.4007 54.5081 39.0481 53.825ZM55.6591 55C56.0131 56.5339 57.3975 57.6783 59.0514 57.6783C60.7053 57.6783 62.0897 56.5339 62.4437 55H60.7281C60.434 55.6262 59.7938 56.0603 59.0514 56.0603C58.3089 56.0603 57.6687 55.6262 57.3746 55H55.6591ZM73.9748 55H67.937C67.4146 55.6038 67.0989 56.3887 67.0989 57.2468C67.0989 59.1531 68.6569 60.6984 70.5789 60.6984C72.5008 60.6984 74.0589 59.1531 74.0589 57.2468C74.0589 56.6015 73.8804 55.9976 73.5696 55.481C73.712 55.3221 73.847 55.1617 73.9748 55ZM27.4051 36.2135C27.4051 37.2262 26.5773 38.0472 25.5563 38.0472C24.5353 38.0472 23.7076 37.2262 23.7076 36.2135C23.7076 35.2008 24.5353 34.3799 25.5563 34.3799C26.5773 34.3799 27.4051 35.2008 27.4051 36.2135ZM12.5063 40.8516C13.5273 40.8516 14.355 40.0307 14.355 39.018C14.355 38.0053 13.5273 37.1843 12.5063 37.1843C11.4852 37.1843 10.6575 38.0053 10.6575 39.018C10.6575 40.0307 11.4852 40.8516 12.5063 40.8516ZM19.0313 54.5502C19.0313 55.5629 18.2036 56.3839 17.1825 56.3839C16.1615 56.3839 15.3338 55.5629 15.3338 54.5502C15.3338 53.5375 16.1615 52.7166 17.1825 52.7166C18.2036 52.7166 19.0313 53.5375 19.0313 54.5502ZM30.3413 57.1389C31.3624 57.1389 32.1901 56.318 32.1901 55.3053C32.1901 54.2926 31.3624 53.4716 30.3413 53.4716C29.3203 53.4716 28.4926 54.2926 28.4926 55.3053C28.4926 56.318 29.3203 57.1389 30.3413 57.1389ZM70.5789 59.0805C71.5999 59.0805 72.4276 58.2595 72.4276 57.2468C72.4276 56.2341 71.5999 55.4131 70.5789 55.4131C69.5579 55.4131 68.7301 56.2341 68.7301 57.2468C68.7301 58.2595 69.5579 59.0805 70.5789 59.0805ZM49.0182 68.1859C49.2296 69.1766 48.5912 70.1498 47.5923 70.3594C46.5933 70.5691 45.6122 69.9359 45.4008 68.9452C45.1894 67.9544 45.8278 66.9813 46.8267 66.7716C47.8256 66.5619 48.8068 67.1951 49.0182 68.1859ZM64.0539 69.8668C64.0539 70.8795 63.2262 71.7004 62.2051 71.7004C61.1841 71.7004 60.3564 70.8795 60.3564 69.8668C60.3564 68.8541 61.1841 68.0331 62.2051 68.0331C63.2262 68.0331 64.0539 68.8541 64.0539 69.8668Z" fill="url(#paint1_linear_1250_1523)"/>
<path d="M87 10.7118C87 11.4292 86.7151 12.1211 86.2063 12.6299L77.7712 21.063L71.8366 26.9979C71.4448 27.3897 70.9641 27.6772 70.4324 27.8374L69.3742 28.1529L66.5939 28.9822C66.5506 28.9949 66.5048 29 66.4616 29C66.342 29 66.2225 28.9542 66.136 28.8652C66.0164 28.7456 65.9706 28.5701 66.019 28.4073L66.0953 28.1529L66.6269 26.3721L67.1637 24.5685C67.3239 24.0368 67.6114 23.556 68.0031 23.1643L82.3729 8.7937C82.8816 8.28492 83.571 8 84.2883 8C85.0057 8 85.6976 8.28492 86.2063 8.7937C86.7151 9.30248 87 9.99188 87 10.7118Z" fill="url(#paint2_linear_1250_1523)"/>
<path d="M46 42L53 35L55.25 37.25M60 42L55.25 37.25M74.5 42L62.5 30L55.25 37.25" stroke="url(#paint3_linear_1250_1523)" stroke-width="3" stroke-linecap="round" stroke-linejoin="round"/>
<circle cx="53" cy="25" r="4" stroke="url(#paint4_linear_1250_1523)" stroke-width="2"/>
</g>
<defs>
<linearGradient id="paint0_linear_1250_1523" x1="39" y1="32.7797" x2="80" y2="32.7797" gradientUnits="userSpaceOnUse">
<stop stop-color="#3C7FE3"/>
<stop offset="1" stop-color="#3EDCFF"/>
</linearGradient>
<linearGradient id="paint1_linear_1250_1523" x1="7.97821e-07" y1="48.244" x2="87" y2="48.244" gradientUnits="userSpaceOnUse">
<stop stop-color="#3C7FE3"/>
<stop offset="1" stop-color="#3EDCFF"/>
</linearGradient>
<linearGradient id="paint2_linear_1250_1523" x1="66" y1="18.678" x2="87" y2="18.678" gradientUnits="userSpaceOnUse">
<stop stop-color="#3C7FE3"/>
<stop offset="1" stop-color="#3EDCFF"/>
</linearGradient>
<linearGradient id="paint3_linear_1250_1523" x1="46" y1="36.1017" x2="74.5" y2="36.1017" gradientUnits="userSpaceOnUse">
<stop stop-color="#3C7FE3"/>
<stop offset="1" stop-color="#3EDCFF"/>
</linearGradient>
<linearGradient id="paint4_linear_1250_1523" x1="48" y1="25.0847" x2="58" y2="25.0847" gradientUnits="userSpaceOnUse">
<stop stop-color="#3C7FE3"/>
<stop offset="1" stop-color="#3EDCFF"/>
</linearGradient>
<clipPath id="clip0_1250_1523">
<rect width="87" height="87" fill="white"/>
</clipPath>
</defs>
</svg>
