<svg width="87" height="87" viewBox="0 0 87 87" fill="none" xmlns="http://www.w3.org/2000/svg">
<g id="AluminiSupport">
<g id="Group 572">
<path id="Star 1 (Stroke)" fill-rule="evenodd" clip-rule="evenodd" d="M39.0781 11.3715C38.9443 11.7835 38.5603 12.0625 38.1271 12.0625H26.8974C25.9287 12.0625 25.5259 13.3021 26.3096 13.8715L35.3946 20.4722C35.7451 20.7268 35.8918 21.1782 35.7579 21.5902L32.2877 32.2702C31.9884 33.1915 33.0429 33.9577 33.8266 33.3883L42.9116 26.7876C43.2621 26.533 43.7367 26.533 44.0871 26.7876L53.1721 33.3883C53.9559 33.9577 55.0103 33.1916 54.711 32.2702L51.2408 21.5902C51.107 21.1782 51.2536 20.7268 51.6041 20.4722L60.6891 13.8715C61.4728 13.3021 61.07 12.0625 60.1013 12.0625H48.8716C48.4384 12.0625 48.0545 11.7835 47.9206 11.3715L44.4504 0.691472C44.1511 -0.229838 42.8477 -0.22984 42.5483 0.69147L39.0781 11.3715ZM43.4994 7.47262L41.9313 12.2986C41.3958 13.9467 39.86 15.0625 38.1271 15.0625H33.0528L37.158 18.0451C38.5599 19.0637 39.1466 20.8691 38.6111 22.5172L37.043 27.3432L41.1482 24.3606C42.5502 23.342 44.4486 23.342 45.8505 24.3606L49.9557 27.3432L48.3877 22.5172C47.8522 20.8692 48.4388 19.0637 49.8407 18.0451L53.9459 15.0625H48.8716C47.1387 15.0625 45.6029 13.9467 45.0674 12.2986L43.4994 7.47262Z" fill="url(#paint0_linear_891_6336)"/>
<path id="Star 2 (Stroke)" fill-rule="evenodd" clip-rule="evenodd" d="M16.5969 27.2541L16.3343 28.0624C15.9327 29.2984 14.7808 30.1353 13.4812 30.1353H12.6314L13.3189 30.6348C14.3703 31.3987 14.8103 32.7528 14.4087 33.9889L14.1461 34.7971L14.8336 34.2976C15.885 33.5337 17.3088 33.5337 18.3603 34.2976L19.0478 34.7971L18.7852 33.9889C18.3836 32.7528 18.8236 31.3987 19.875 30.6348L20.5625 30.1353H19.7127C18.413 30.1353 17.2612 29.2984 16.8595 28.0624L16.5969 27.2541ZM17.548 23.709C17.2486 22.7877 15.9452 22.7877 15.6459 23.709L14.4322 27.4443C14.2983 27.8563 13.9144 28.1353 13.4812 28.1353H9.55367C8.58495 28.1353 8.18218 29.3749 8.96589 29.9443L12.1433 32.2528C12.4938 32.5075 12.6404 32.9588 12.5066 33.3709L11.2929 37.1061C10.9936 38.0275 12.048 38.7936 12.8317 38.2242L16.0092 35.9157C16.3596 35.661 16.8342 35.661 17.1847 35.9157L20.3621 38.2242C21.1458 38.7936 22.2003 38.0275 21.901 37.1061L20.6873 33.3709C20.5534 32.9588 20.7001 32.5075 21.0506 32.2528L24.228 29.9443C25.0117 29.3749 24.6089 28.1353 23.6402 28.1353H19.7127C19.2795 28.1353 18.8955 27.8563 18.7617 27.4443L17.548 23.709Z" fill="url(#paint1_linear_891_6336)"/>
<path id="Star 3 (Stroke)" fill-rule="evenodd" clip-rule="evenodd" d="M70.6419 27.2541L70.3793 28.0624C69.9776 29.2984 68.8258 30.1353 67.5261 30.1353H66.6763L67.3638 30.6348C68.4153 31.3987 68.8552 32.7528 68.4536 33.9889L68.191 34.7971L68.8785 34.2976C69.93 33.5337 71.3538 33.5337 72.4052 34.2976L73.0927 34.7971L72.8301 33.9889C72.4285 32.7528 72.8685 31.3987 73.9199 30.6348L74.6074 30.1353H73.7576C72.458 30.1353 71.3061 29.2984 70.9045 28.0624L70.6419 27.2541ZM71.5929 23.709C71.2936 22.7877 69.9902 22.7877 69.6908 23.709L68.4771 27.4443C68.3433 27.8563 67.9593 28.1353 67.5261 28.1353H63.5986C62.6299 28.1353 62.2271 29.3749 63.0108 29.9443L66.1882 32.2528C66.5387 32.5075 66.6854 32.9588 66.5515 33.3709L65.3378 37.1061C65.0385 38.0275 66.093 38.7936 66.8767 38.2242L70.0541 35.9157C70.4046 35.661 70.8792 35.661 71.2296 35.9157L74.4071 38.2242C75.1908 38.7936 76.2452 38.0275 75.9459 37.1061L74.7322 33.3709C74.5984 32.9588 74.745 32.5075 75.0955 32.2528L78.2729 29.9443C79.0566 29.3749 78.6539 28.1353 77.6851 28.1353H73.7576C73.3244 28.1353 72.9405 27.8563 72.8066 27.4443L71.5929 23.709Z" fill="url(#paint2_linear_891_6336)"/>
<path id="Union" fill-rule="evenodd" clip-rule="evenodd" d="M21.4668 60.9861C21.4668 63.6747 19.2872 65.8542 16.5986 65.8542C13.91 65.8542 11.7305 63.6747 11.7305 60.9861C11.7305 58.2975 13.91 56.1179 16.5986 56.1179C19.2872 56.1179 21.4668 58.2975 21.4668 60.9861ZM21.0649 68.6491C23.6979 67.1112 25.4668 64.2552 25.4668 60.9861C25.4668 56.0883 21.4964 52.1179 16.5986 52.1179C11.7009 52.1179 7.73047 56.0883 7.73047 60.9861C7.73047 64.2488 9.49247 67.1 12.1168 68.64C6.01352 70.8497 1.73462 77.4613 1.08574 85.0032C0.99106 86.1037 1.89543 87.0013 3 87.0013C4.10457 87.0013 4.9889 86.1019 5.09792 85.0027C5.86786 77.2402 11.0634 71.8562 16.5978 71.8562C17.8468 71.8562 19.0581 72.1162 20.202 72.6084C21.2166 73.045 22.4551 72.8367 23.0793 71.9254C23.7034 71.0141 23.476 69.754 22.4875 69.2612C22.0249 69.0307 21.5503 68.826 21.0649 68.6491Z" fill="url(#paint3_linear_891_6336)"/>
<path id="Union_2" fill-rule="evenodd" clip-rule="evenodd" d="M75.7363 60.9861C75.7363 63.6747 73.5568 65.8542 70.8682 65.8542C68.1796 65.8542 66 63.6747 66 60.9861C66 58.2975 68.1796 56.1179 70.8682 56.1179C73.5568 56.1179 75.7363 58.2975 75.7363 60.9861ZM75.3498 68.6402C77.9742 67.1002 79.7363 64.2489 79.7363 60.9861C79.7363 56.0883 75.7659 52.1179 70.8682 52.1179C65.9704 52.1179 62 56.0883 62 60.9861C62 64.2551 63.7688 67.1111 66.4016 68.649C65.9066 68.8294 65.4228 69.0387 64.9516 69.2749C63.9641 69.7698 63.7392 71.0303 64.3652 71.9404C64.9913 72.8504 66.2301 73.0562 67.2438 72.6173C68.3937 72.1193 69.6121 71.8562 70.8684 71.8562C76.4028 71.8562 81.5984 77.2402 82.3683 85.0027C82.4773 86.1019 83.3617 87.0013 84.4662 87.0013C85.5708 87.0013 86.4752 86.1037 86.3805 85.0032C85.7316 77.4614 81.4529 70.8499 75.3498 68.6402Z" fill="url(#paint4_linear_891_6336)"/>
<path id="Union_3" fill-rule="evenodd" clip-rule="evenodd" d="M50.141 55.664C50.141 59.3322 47.1674 62.3058 43.4992 62.3058C39.8311 62.3058 36.8574 59.3322 36.8574 55.664C36.8574 51.9959 39.8311 49.0222 43.4992 49.0222C47.1674 49.0222 50.141 51.9959 50.141 55.664ZM48.4262 65.099C51.823 63.3216 54.141 59.7635 54.141 55.664C54.141 49.7867 49.3765 45.0222 43.4992 45.0222C37.6219 45.0222 32.8574 49.7867 32.8574 55.664C32.8574 59.7632 35.1751 63.321 38.5715 65.0986C31.0393 67.5958 25.6919 75.685 25.0166 84.9991C24.9367 86.1008 25.8398 86.9978 26.9443 86.9978C28.0489 86.9978 28.9353 86.1007 29.025 84.9997C29.8173 75.2677 36.3351 68.3054 43.4982 68.3054C50.6614 68.3054 57.1791 75.2677 57.9715 84.9997C58.0611 86.1007 58.9476 86.9978 60.0521 86.9978C61.1567 86.9978 62.0597 86.1008 61.9799 84.9991C61.3047 75.6855 55.9577 67.5967 48.4262 65.099Z" fill="url(#paint5_linear_891_6336)"/>
</g>
</g>
<defs>
<linearGradient id="paint0_linear_891_6336" x1="25.8955" y1="17.0767" x2="61.1032" y2="17.0767" gradientUnits="userSpaceOnUse">
<stop stop-color="#3C7FE3"/>
<stop offset="1" stop-color="#3EDCFF"/>
</linearGradient>
<linearGradient id="paint1_linear_891_6336" x1="8.55176" y1="30.8494" x2="24.6421" y2="30.8494" gradientUnits="userSpaceOnUse">
<stop stop-color="#3C7FE3"/>
<stop offset="1" stop-color="#3EDCFF"/>
</linearGradient>
<linearGradient id="paint2_linear_891_6336" x1="62.5967" y1="30.8494" x2="78.687" y2="30.8494" gradientUnits="userSpaceOnUse">
<stop stop-color="#3C7FE3"/>
<stop offset="1" stop-color="#3EDCFF"/>
</linearGradient>
<linearGradient id="paint3_linear_891_6336" x1="1" y1="69.8552" x2="25.4668" y2="69.8552" gradientUnits="userSpaceOnUse">
<stop stop-color="#3C7FE3"/>
<stop offset="1" stop-color="#3EDCFF"/>
</linearGradient>
<linearGradient id="paint4_linear_891_6336" x1="62" y1="69.8552" x2="86.4662" y2="69.8552" gradientUnits="userSpaceOnUse">
<stop stop-color="#3C7FE3"/>
<stop offset="1" stop-color="#3EDCFF"/>
</linearGradient>
<linearGradient id="paint5_linear_891_6336" x1="24.9443" y1="66.3657" x2="62.0521" y2="66.3657" gradientUnits="userSpaceOnUse">
<stop stop-color="#3C7FE3"/>
<stop offset="1" stop-color="#3EDCFF"/>
</linearGradient>
</defs>
</svg>
