<svg width="150" height="150" viewBox="0 0 150 150" fill="none" xmlns="http://www.w3.org/2000/svg">
<g clip-path="url(#clip0_1056_36247)">
<path d="M140.999 21.6328H9.00285C4.03977 21.6328 -0.0100098 25.6706 -0.0100098 30.6457V100.73C-0.0100098 105.705 4.03977 109.743 9.00285 109.743H43.6964L51.159 122.349H45.6792C44.2251 122.349 43.0354 123.694 43.0354 125.353C43.0354 127.011 44.2131 128.357 45.6792 128.357H101.499C102.953 128.357 104.143 127.011 104.143 125.353C104.143 123.694 102.965 122.349 101.499 122.349H96.019L103.482 109.743H140.987C145.95 109.743 150 105.705 150 100.73V30.6457C150 25.6706 145.95 21.6328 140.987 21.6328H140.999ZM11.6827 103.734H9.00285C7.34448 103.734 5.99856 102.388 5.99856 100.73V30.6457C5.99856 28.9873 7.34448 27.6414 9.00285 27.6414H11.6827C11.3342 28.5787 11.1539 29.5882 11.1539 30.6457V100.73C11.1539 101.787 11.3342 102.797 11.6827 103.734ZM90.431 122.349H56.771L49.765 109.743H97.437L90.431 122.349ZM144.003 100.73C144.003 102.388 142.658 103.734 140.999 103.734H20.1668C18.5084 103.734 17.1625 102.388 17.1625 100.73V30.6457C17.1625 28.9873 18.5084 27.6414 20.1668 27.6414H140.999C142.658 27.6414 144.003 28.9873 144.003 30.6457V100.73Z" fill="url(#paint0_linear_1056_36247)"/>
<path d="M101.331 60.244C101.283 60.0878 101.222 59.9436 101.138 59.8114C101.114 59.7753 101.102 59.7393 101.078 59.7032C100.97 59.535 100.85 59.3908 100.706 59.2586C100.67 59.2225 100.634 59.1985 100.598 59.1745C100.477 59.0663 100.345 58.9822 100.201 58.8981C100.177 58.8861 100.153 58.862 100.129 58.85L81.6946 49.6329C81.0216 49.2964 80.2165 49.2964 79.5435 49.6329L61.1092 58.85C61.1092 58.85 61.0612 58.8861 61.0371 58.8981C60.8929 58.9822 60.7607 59.0663 60.6406 59.1745C60.6045 59.1985 60.5685 59.2346 60.5324 59.2586C60.3882 59.3908 60.268 59.535 60.1599 59.7032C60.1358 59.7393 60.1238 59.7753 60.0998 59.8114C60.0277 59.9436 59.9556 60.0878 59.9075 60.244C59.8955 60.2921 59.8715 60.3401 59.8594 60.4002C59.8114 60.5925 59.7753 60.7848 59.7753 61.0011V82.5118C59.7753 83.4251 60.2921 84.2542 61.1092 84.6628L79.5435 93.88C79.5435 93.88 79.5796 93.892 79.6036 93.904C79.7118 93.9521 79.8319 94.0001 79.9641 94.0362C80.0122 94.0482 80.0482 94.0723 80.0963 94.0843C80.2646 94.1203 80.4328 94.1444 80.6131 94.1444C80.7933 94.1444 80.9616 94.1203 81.1298 94.0843C81.1779 94.0843 81.2259 94.0602 81.262 94.0362C81.3822 94.0001 81.5023 93.9641 81.6225 93.904C81.6465 93.904 81.6585 93.892 81.6826 93.88L100.117 84.6628C100.934 84.2542 101.451 83.4251 101.451 82.5118V61.0011C101.451 60.7968 101.415 60.5925 101.367 60.4002C101.355 60.3521 101.331 60.3041 101.319 60.244H101.331ZM80.6251 54.4637L93.6877 60.9891L80.6251 67.5144L67.5624 60.9891L80.6251 54.4637ZM64.5942 64.8826L78.2216 71.6963V87.8233L64.5942 81.0096V64.8826ZM83.0285 87.8233V71.6963L96.6559 64.8826V81.0096L83.0285 87.8233Z" fill="url(#paint1_linear_1056_36247)"/>
<path d="M58.1166 45.7153C58.0805 45.5951 58.0205 45.4749 57.9604 45.3668C57.9484 45.3427 57.9363 45.3067 57.9123 45.2826C57.8282 45.1504 57.732 45.0303 57.6239 44.9341C57.5999 44.9101 57.5758 44.8981 57.5518 44.8741C57.4556 44.7899 57.3475 44.7178 57.2273 44.6577C57.2033 44.6577 57.1913 44.6337 57.1672 44.6217L45.5106 38.7934C44.9698 38.529 44.3449 38.529 43.8162 38.7934L32.1596 44.6217C32.1596 44.6217 32.1235 44.6457 32.0995 44.6577C31.9793 44.7178 31.8832 44.7899 31.775 44.8741C31.751 44.8981 31.7269 44.9101 31.7029 44.9341C31.5948 45.0423 31.4986 45.1625 31.4145 45.2826C31.4025 45.3067 31.3905 45.3427 31.3664 45.3668C31.3063 45.4749 31.2583 45.5951 31.2102 45.7153C31.1982 45.7513 31.1862 45.7874 31.1742 45.8354C31.1381 45.9916 31.1021 46.1479 31.1021 46.3041V59.9075C31.1021 60.6285 31.5106 61.2895 32.1475 61.6019L43.8042 67.4302C43.8042 67.4302 43.8402 67.4302 43.8522 67.4423C43.9484 67.4903 44.0445 67.5144 44.1407 67.5504C44.1767 67.5504 44.2128 67.5744 44.2488 67.5865C44.381 67.6105 44.5132 67.6345 44.6574 67.6345C44.8016 67.6345 44.9338 67.6105 45.066 67.5865C45.102 67.5865 45.1381 67.5624 45.1741 67.5504C45.2703 67.5264 45.3664 67.4903 45.4625 67.4423C45.4746 67.4423 45.4986 67.4422 45.5106 67.4302L57.1672 61.6019C57.8162 61.2775 58.2127 60.6165 58.2127 59.9075V46.3041C58.2127 46.1359 58.1887 45.9796 58.1406 45.8354C58.1406 45.7994 58.1166 45.7633 58.1046 45.7153H58.1166ZM44.6694 42.6028L52.072 46.3041L44.6694 50.0054L37.2668 46.3041L44.6694 42.6028ZM34.9115 49.3805L42.7707 53.3101V62.6594L34.9115 58.7298V49.3805ZM46.5681 62.6594V53.3101L54.4273 49.3805V58.7298L46.5681 62.6594Z" fill="url(#paint2_linear_1056_36247)"/>
<path d="M130.04 45.7153C130.004 45.5951 129.944 45.4749 129.884 45.3668C129.872 45.3427 129.86 45.3067 129.836 45.2826C129.752 45.1504 129.655 45.0303 129.547 44.9341C129.523 44.9101 129.499 44.8981 129.475 44.8741C129.379 44.7899 129.271 44.7178 129.151 44.6577C129.127 44.6577 129.115 44.6337 129.091 44.6217L117.434 38.7934C116.893 38.529 116.268 38.529 115.74 38.7934L104.083 44.6217C104.083 44.6217 104.047 44.6457 104.023 44.6577C103.903 44.7178 103.807 44.7899 103.698 44.8741C103.674 44.8981 103.65 44.9101 103.626 44.9341C103.518 45.0423 103.422 45.1625 103.338 45.2826C103.326 45.3067 103.314 45.3427 103.29 45.3668C103.23 45.4749 103.182 45.5951 103.134 45.7153C103.122 45.7513 103.11 45.7874 103.097 45.8354C103.061 45.9916 103.025 46.1479 103.025 46.3041V59.9075C103.025 60.6285 103.434 61.2895 104.071 61.6019L115.728 67.4302C115.728 67.4302 115.764 67.4302 115.776 67.4423C115.872 67.4903 115.968 67.5144 116.064 67.5504C116.1 67.5504 116.136 67.5744 116.172 67.5865C116.304 67.6105 116.437 67.6345 116.581 67.6345C116.725 67.6345 116.857 67.6105 116.989 67.5865C117.025 67.5865 117.061 67.5624 117.097 67.5504C117.194 67.5264 117.29 67.4903 117.386 67.4423C117.398 67.4423 117.422 67.4422 117.434 67.4302L129.091 61.6019C129.74 61.2775 130.136 60.6165 130.136 59.9075V46.3041C130.136 46.1359 130.112 45.9796 130.064 45.8354C130.064 45.7994 130.04 45.7633 130.028 45.7153H130.04ZM116.593 42.6028L123.995 46.3041L116.593 50.0054L109.19 46.3041L116.593 42.6028ZM106.835 49.3805L114.694 53.3101V62.6594L106.835 58.7298V49.3805ZM118.491 62.6594V53.3101L126.351 49.3805V58.7298L118.491 62.6594Z" fill="url(#paint3_linear_1056_36247)"/>
</g>
<defs>
<linearGradient id="paint0_linear_1056_36247" x1="-0.0100084" y1="75.8994" x2="150" y2="75.8994" gradientUnits="userSpaceOnUse">
<stop stop-color="#3C7FE3"/>
<stop offset="1" stop-color="#3EDCFF"/>
</linearGradient>
<linearGradient id="paint1_linear_1056_36247" x1="59.7753" y1="72.1418" x2="101.451" y2="72.1418" gradientUnits="userSpaceOnUse">
<stop stop-color="#3C7FE3"/>
<stop offset="1" stop-color="#3EDCFF"/>
</linearGradient>
<linearGradient id="paint2_linear_1056_36247" x1="31.1021" y1="53.3609" x2="58.2127" y2="53.3609" gradientUnits="userSpaceOnUse">
<stop stop-color="#3C7FE3"/>
<stop offset="1" stop-color="#3EDCFF"/>
</linearGradient>
<linearGradient id="paint3_linear_1056_36247" x1="103.025" y1="53.3609" x2="130.136" y2="53.3609" gradientUnits="userSpaceOnUse">
<stop stop-color="#3C7FE3"/>
<stop offset="1" stop-color="#3EDCFF"/>
</linearGradient>
<clipPath id="clip0_1056_36247">
<rect width="150" height="150" fill="white"/>
</clipPath>
</defs>
</svg>
