<svg width="150" height="150" viewBox="0 0 150 150" fill="none" xmlns="http://www.w3.org/2000/svg">
<path fill-rule="evenodd" clip-rule="evenodd" d="M143.07 60.104C143.46 60.4423 143.845 60.7861 144.204 61.1479C147.979 64.9472 149.999 70.0258 150 75.2026C150 78.7436 149.048 82.3464 147.071 85.5771C145.849 87.5799 144.316 89.291 142.582 90.6942C143.257 92.7229 143.6 94.827 143.6 96.923C143.6 100.068 142.857 103.185 141.413 106.01C139.969 108.837 137.816 111.37 135.036 113.309C132.115 115.351 128.811 116.503 125.48 116.829C124.755 119.729 123.398 122.417 121.512 124.693H121.513C118.626 128.19 114.5 130.752 109.684 131.651C108.43 131.886 107.176 132 105.937 132C100.284 131.994 95.0281 129.632 91.301 125.699C88.7363 126.841 85.9402 127.459 83.082 127.459C80.1464 127.459 77.1552 126.815 74.3515 125.471H74.353C71.0301 123.879 68.3445 121.478 66.4159 118.633C64.8851 119.134 63.2697 119.457 61.5974 119.578L61.3777 119.584H61.3724C60.9994 119.607 60.6247 119.622 60.2515 119.625H60.2371L60.1864 119.628H60.1706H60.1498H60.146H60.1446H60.1419H60.0962C60.0816 119.628 60.0675 119.628 60.0505 119.625C55.3791 119.604 51.0212 117.976 47.5943 115.249C45.8227 113.84 44.2975 112.132 43.0841 110.199C41.2583 110.905 39.2983 111.362 37.2528 111.51H37.2516H37.2502H37.2437H37.232C36.7524 111.546 36.2725 111.561 35.7912 111.561C31.1576 111.561 26.8331 109.982 23.405 107.312C20.5231 105.071 18.2707 102.045 16.9571 98.5378C14.4903 98.1451 12.109 97.3099 9.93987 96.0462C6.84728 94.2448 4.18888 91.5856 2.38126 88.2282C0.772854 85.238 -0.00117055 81.9944 1.32863e-06 78.8054C0.00146618 74.4967 1.40596 70.2867 4.01251 66.8205C3.54815 65.1251 3.30997 63.3804 3.30499 61.6309H3.30382V61.5767V61.5666V61.5561V61.5485C3.30235 56.5164 5.22716 51.4482 9.0507 47.5742C9.05334 47.5716 9.05598 47.5689 9.05715 47.5663C11.337 45.2587 14.0628 43.6253 16.9553 42.6507C17.7097 39.774 19.0843 37.1068 20.9895 34.8455H20.988C23.7027 31.6174 27.4908 29.2009 31.9257 28.1905C33.4316 27.8493 34.9442 27.6814 36.4357 27.6814C38.2281 27.6814 39.9824 27.9268 41.6626 28.3789C42.9906 26.6243 44.5967 25.0917 46.4318 23.8536C49.5982 21.7137 53.4388 20.4523 57.5342 20.4136C57.6083 20.4083 57.6669 20.406 57.7138 20.406H57.7305H57.7369H57.828L57.8421 20.4083C61.6917 20.4264 65.3061 21.5326 68.3647 23.4271C69.4364 22.4243 70.6041 21.5224 71.8838 20.7728C74.8361 19.0363 78.2917 18.0335 81.9485 18.0049C81.9646 18.0043 81.9798 18.0037 81.9942 18.0031L81.9942 18.0031C82.033 18.0014 82.0657 18 82.0941 18H82.1134H82.1146H82.1173H82.1199H82.1483C82.2198 18.0026 82.2781 18.0049 82.3264 18.0076C86.5259 18.0489 90.4508 19.3775 93.6605 21.6182C95.1251 22.6391 96.4411 23.8513 97.579 25.2134C100.488 23.6032 103.777 22.7221 107.156 22.683C107.306 22.6699 107.388 22.6726 107.388 22.6726C110.048 22.6726 112.757 23.2024 115.339 24.306C118.948 25.8491 121.898 28.3404 123.972 31.3487C125.218 33.1551 126.145 35.1454 126.737 37.2361C129.174 37.6265 131.525 38.4637 133.663 39.7198C136.719 41.5133 139.337 44.1601 141.105 47.4968C142.651 50.407 143.394 53.5599 143.392 56.6562C143.392 57.8244 143.274 58.9745 143.07 60.104ZM132.076 87.9467C135.67 87.329 138.959 85.2508 140.999 81.9118C142.287 79.8082 142.895 77.4948 142.895 75.2032C142.896 71.8461 141.58 68.5508 139.15 66.111L139.145 66.1058C137.312 64.2531 134.255 62.7328 131.674 62.3712C130.564 62.216 129.791 61.1954 129.947 60.0941C130.104 58.9882 131.129 58.2203 132.239 58.3754C133.507 58.5536 134.764 58.8767 135.99 59.3472C136.183 58.4657 136.289 57.5664 136.289 56.6567C136.288 54.6743 135.819 52.6689 134.819 50.7871V50.7848C133.676 48.6292 132.009 46.9495 130.049 45.7967C128.333 44.7886 126.395 44.1892 124.405 44.0573C124.258 45.8508 123.825 47.6522 123.072 49.3889C122.63 50.4125 121.436 50.8879 120.406 50.446C119.376 50.0067 118.901 48.8207 119.344 47.7972C120.066 46.1224 120.406 44.393 120.407 42.6847C120.407 42.4393 120.4 42.1939 120.387 41.9509C120.252 39.5836 119.459 37.2911 118.114 35.3451C116.769 33.3964 114.881 31.7967 112.531 30.7913C110.846 30.0728 109.103 29.7316 107.384 29.7316C104.092 29.7316 100.902 30.9904 98.4986 33.2156C98.9486 34.7352 99.1997 36.3427 99.1997 38.0072C99.1997 39.1213 98.2906 40.0234 97.1697 40.0234C96.0485 40.0234 95.1406 39.121 95.1406 38.0072C95.1394 36.3738 94.8365 34.8257 94.2849 33.3862L94.286 33.3885C93.3512 30.9566 91.6941 28.8708 89.5783 27.3978C87.4622 25.9219 84.9002 25.0588 82.1158 25.0588C79.6918 25.0588 77.4391 25.71 75.4988 26.8497C73.9487 27.7594 72.6092 28.9846 71.5583 30.4317C73.6118 33.231 74.8241 36.6891 74.8226 40.4132C74.8226 41.5273 73.915 42.4292 72.7938 42.4292C71.6714 42.4292 70.7638 41.527 70.7638 40.4132C70.7623 37.1362 69.5489 34.1588 67.5359 31.882L67.5318 31.8794C65.1376 29.1683 61.6443 27.4677 57.7337 27.4651C55.0158 27.4677 52.5098 28.2845 50.4209 29.6929C48.3361 31.1016 46.6791 33.0968 45.6988 35.4333C45.0601 36.9633 44.7024 38.6482 44.7024 40.4135C44.7024 41.5276 43.7945 42.4294 42.6736 42.4294C41.5527 42.4294 40.6436 41.5273 40.6436 40.4135C40.6436 38.7778 40.8827 37.1933 41.3172 35.6918C39.7893 35.0767 38.1361 34.7407 36.4351 34.7407C35.473 34.7407 34.4951 34.849 33.5142 35.0714C30.6261 35.7331 28.2004 37.2838 26.437 39.3772C25.1626 40.8892 24.2497 42.6827 23.7709 44.6133C27.9692 44.6934 32.1604 46.3009 35.3925 49.4463C36.1934 50.2244 36.2078 51.5012 35.4235 52.2971C34.6392 53.093 33.3543 53.1058 32.5533 52.328C30.0132 49.86 26.7323 48.6347 23.4378 48.6321C22.8475 48.6295 22.2598 48.6708 21.6756 48.7482L21.668 48.7508H21.6654H21.6627C18.8983 49.1255 16.2384 50.3767 14.1252 52.514C11.64 55.0391 10.4083 58.2928 10.4072 61.5674C10.4072 63.4489 10.8167 65.328 11.6321 67.0595C12.276 68.4268 13.1696 69.7033 14.3192 70.8226L14.3218 70.8249C15.629 72.1017 17.1349 73.0397 18.7398 73.6574C19.7842 74.0583 20.3042 75.2265 19.8997 76.2654C19.4954 77.3044 18.3197 77.8214 17.2752 77.4179C15.172 76.6119 13.1877 75.3738 11.4774 73.704C10.7271 72.9727 10.0571 72.187 9.46936 71.36C7.93361 73.5413 7.10363 76.1513 7.10363 78.8083C7.10509 80.8681 7.59787 82.9513 8.64611 84.9C9.82443 87.0865 11.5319 88.7895 13.5334 89.9554C15.1201 90.8805 16.8914 91.4566 18.7161 91.6583L18.712 91.5422C18.712 90.4747 18.8122 89.4279 19.0008 88.4148C19.205 87.3191 20.2635 86.5951 21.3651 86.7968C22.4678 87.0012 23.1961 88.053 22.9931 89.149C22.8478 89.9268 22.771 90.7253 22.771 91.5422C22.771 91.8522 22.7825 92.1622 22.8044 92.4778C22.8279 92.8033 22.863 93.1188 22.9125 93.4184L22.9152 93.4341L22.9175 93.4498C23.8462 99.7817 29.3473 104.506 35.7926 104.503C36.1009 104.503 36.4129 104.491 36.7263 104.47H36.7304C39.5875 104.266 42.1533 103.167 44.1848 101.464C45.6194 100.263 46.7846 98.7634 47.5882 97.0732C48.0669 96.0651 49.2777 95.636 50.2908 96.1117C51.3039 96.5874 51.7369 97.7917 51.2585 98.7972C50.3937 100.614 49.2101 102.253 47.781 103.653C48.5808 106.086 50.0775 108.187 52.0311 109.738C54.2758 111.521 57.0991 112.57 60.1463 112.57C60.453 112.57 60.7654 112.56 61.08 112.539H61.0838C63.0165 112.397 64.8048 111.849 66.3901 110.988C66.1405 109.825 66.0025 108.639 66.0025 107.44C66.0025 104.966 66.5524 102.446 67.7049 100.074C68.1912 99.0708 69.4047 98.6496 70.4137 99.1328C71.4233 99.616 71.8484 100.82 71.3606 101.823C70.4779 103.648 70.0616 105.555 70.0616 107.439C70.0616 108.76 70.2669 110.07 70.6636 111.321L70.6651 111.324C71.7042 114.621 74.0541 117.49 77.4382 119.113C79.2655 119.987 81.1865 120.401 83.0826 120.401C86.0905 120.401 89.0351 119.356 91.3616 117.459L91.3692 117.454C92.7854 116.294 93.9766 114.828 94.8274 113.076L94.8286 113.071C95.6258 111.435 96.0392 109.719 96.1159 108.005C96.1654 106.894 97.1138 106.031 98.2347 106.08C99.3532 106.129 100.222 107.07 100.172 108.186C100.072 110.424 99.5261 112.689 98.4843 114.828C97.6443 116.555 96.5469 118.08 95.2593 119.377C97.652 122.799 101.634 124.944 105.939 124.942C106.739 124.942 107.552 124.867 108.371 124.714C111.501 124.127 114.145 122.484 116.024 120.214C117.901 117.942 118.992 115.061 118.992 112.011C118.992 111.918 118.991 111.828 118.989 111.735L118.988 111.724C118.978 111.034 118.902 110.318 118.766 109.597C118.441 107.884 117.782 106.328 116.881 104.948C115.572 103.8 114.109 102.304 112.734 100.634C111.274 98.8586 109.921 96.9125 109.014 94.9534C108.416 93.6405 107.991 92.3174 107.983 90.9192C107.983 90.3015 108.076 89.6631 108.304 89.0427C108.533 88.4224 108.907 87.8306 109.401 87.3398V87.3421C110.193 86.5541 111.478 86.5541 112.271 87.3421C113.063 88.1278 113.063 89.4072 112.271 90.1929C112.192 90.2753 112.154 90.335 112.114 90.4357C112.076 90.539 112.042 90.6916 112.042 90.9189C112.034 91.4278 112.245 92.2886 112.704 93.2734C113.158 94.2579 113.833 95.3641 114.622 96.4575C116.197 98.649 118.238 100.799 119.776 102.107L119.984 102.286L120.138 102.513C121.396 104.371 122.311 106.511 122.756 108.85V108.853C122.817 109.177 122.858 109.501 122.899 109.827L122.899 109.828L122.899 109.828L122.899 109.828L122.899 109.828L122.9 109.829L122.903 109.856C122.954 109.858 123.005 109.861 123.056 109.864C123.207 109.873 123.357 109.881 123.508 109.881C126.087 109.879 128.675 109.122 130.954 107.535C132.765 106.268 134.143 104.643 135.078 102.815C136.012 100.988 136.497 98.9619 136.496 96.9227C136.496 95.0154 136.068 93.1028 135.199 91.3195C134.402 91.5777 133.589 91.7821 132.763 91.9215C131.659 92.1101 130.609 91.3736 130.419 90.275C130.23 89.1795 130.971 88.1354 132.076 87.9467ZM106.274 58.9246C107.373 60.3177 109.081 61.2129 111 61.2129C114.314 61.2129 117 58.5436 117 55.251C117 51.9583 114.314 49.2891 111 49.2891C107.801 49.2891 105.186 51.7777 105.01 54.9131C99.8311 54.7148 95.6528 52.7484 92.7154 50.2154C91.1691 48.8818 89.9803 47.3905 89.1989 45.9641C88.4135 44.5347 88.0531 43.1753 88.0584 42.157C88.0584 42.108 88.0566 42.0595 88.0532 42.0114C89.8862 40.9912 91.1252 39.0425 91.1252 36.8064C91.1252 33.5137 88.4389 30.8445 85.1252 30.8445C81.8115 30.8445 79.1252 33.5137 79.1252 36.8064C79.1252 39.7221 81.2315 42.1489 84.0148 42.6664C84.1147 44.4007 84.6936 46.1666 85.6341 47.8895C86.7148 49.8591 88.2936 51.7714 90.3005 53.4563C89.8959 54.0146 89.3378 54.7334 88.6253 55.5034C87.079 57.1807 84.8501 59.0389 82.189 59.9771C81.1332 60.3518 80.583 61.5072 80.9603 62.5537C81.3374 63.6031 82.499 64.1513 83.5537 63.7761C87.1651 62.4865 89.8686 60.1349 91.7026 58.1341C92.5194 57.2398 93.1552 56.4233 93.6248 55.7694C96.9828 57.6948 101.13 58.9664 105.874 58.9638C106.011 58.9638 106.145 58.9503 106.274 58.9246ZM95.8127 73.1366C97.1634 73.1366 98.4099 72.6931 99.4127 71.9446C100.875 72.7834 101.773 73.7167 102.369 74.6807C99.8668 75.554 97.649 75.9132 95.6893 75.9132C92.8215 75.9106 90.4757 75.1584 88.4975 74.0059C86.5247 72.8508 84.9292 71.2715 83.7195 69.6328C81.7256 66.932 79.1313 64.5262 76.0736 62.7712C73.0203 61.0213 69.4879 59.9279 65.6969 59.9279C62.3726 59.9256 58.8693 60.7759 55.3982 62.6701C53.979 63.443 52.7488 64.3475 51.6774 65.3347C47.4546 66.95 43.8159 67.5313 40.7377 67.5313C36.3522 67.5313 33.0762 66.3605 30.886 65.2103C29.7923 64.6366 28.9744 64.0654 28.445 63.6521C28.1795 63.4427 27.9862 63.2771 27.8661 63.1688L27.7413 63.0497L27.7216 63.0317H27.7208C27.6108 62.9195 27.4908 62.8228 27.3635 62.7415C27.4934 62.2537 27.5626 61.7413 27.5626 61.2129C27.5626 57.9202 24.8763 55.251 21.5625 55.251C18.2488 55.251 15.5625 57.9202 15.5625 61.2129C15.5625 64.5055 18.2488 67.1747 21.5625 67.1747C22.861 67.1747 24.063 66.7649 25.0449 66.0684C25.558 66.5442 26.8728 67.6646 28.9861 68.777C30.1553 69.3921 31.5885 69.9967 33.2441 70.4905C32.8044 71.1056 32.2038 72.0048 31.5496 73.1497C30.2919 75.3543 28.8469 78.4482 28.1107 82.0975C28.0985 82.1579 28.0892 82.2182 28.0827 82.2783C25.5164 82.9546 23.625 85.2785 23.625 88.0413C23.625 91.334 26.3113 94.0032 29.6251 94.0032C32.9388 94.0032 35.6251 91.334 35.6251 88.0413C35.6251 85.6425 34.1992 83.5745 32.1438 82.6286C32.7785 79.6606 34.0006 77.0268 35.0801 75.14C35.6342 74.1683 36.148 73.3954 36.5175 72.8758C36.702 72.615 36.8503 72.4158 36.9493 72.2866C36.9868 72.2391 37.0176 72.1995 37.0401 72.1706L37.0586 72.1469L37.082 72.1183L37.0846 72.1157L37.0858 72.1131C37.273 71.8857 37.3981 71.6299 37.4693 71.3612C38.502 71.4875 39.5866 71.5652 40.7377 71.5626C42.8717 71.5652 45.2087 71.3146 47.7253 70.746C46.4778 73.4184 45.9645 76.2072 45.9631 78.7631C45.9681 81.3374 46.4611 83.6738 47.3403 85.5346C47.3844 85.6272 47.4346 85.7149 47.4903 85.7975C46.7503 86.7889 46.3126 88.0164 46.3126 89.3455C46.3126 92.6381 48.9989 95.3074 52.3126 95.3074C55.6263 95.3074 58.3126 92.6381 58.3126 89.3455C58.3126 86.0528 55.6263 83.3836 52.3126 83.3836C51.8235 83.3836 51.348 83.4418 50.8929 83.5515C50.3874 82.3798 50.0168 80.6565 50.023 78.7631C50.0216 76.5664 50.4988 74.1473 51.6435 71.9402C52.7942 69.733 54.5814 67.7197 57.3502 66.2051C60.2723 64.6156 63.0619 63.9641 65.6969 63.9618C68.6969 63.9618 71.5232 64.8226 74.0459 66.2644C76.5664 67.7092 78.7683 69.7432 80.4456 72.0173C81.9215 74.0178 83.8962 75.9924 86.4374 77.4811C88.9733 78.9698 92.087 79.9491 95.6893 79.9465C98.0729 79.9465 100.663 79.5174 103.443 78.5765L103.45 78.7212C103.45 79.7087 103.295 80.6079 103.14 81.2437C103.104 81.3926 103.068 81.5269 103.035 81.6442C102.64 81.5631 102.231 81.5205 101.813 81.5205C98.499 81.5205 95.8127 84.1897 95.8127 87.4824C95.8127 90.775 98.499 93.4443 101.813 93.4443C105.126 93.4443 107.813 90.775 107.813 87.4824C107.813 86.1082 107.345 84.8427 106.559 83.8344C106.585 83.7821 106.61 83.7283 106.632 83.673C106.635 83.6657 106.639 83.6539 106.645 83.6374C106.763 83.3253 107.501 81.3755 107.509 78.7209C107.509 77.1184 107.226 75.237 106.289 73.3791C105.397 71.6004 103.884 69.8893 101.648 68.5694C101.756 68.122 101.813 67.655 101.813 67.1747C101.813 63.8821 99.1264 61.2129 95.8127 61.2129C92.499 61.2129 89.8127 63.8821 89.8127 67.1747C89.8127 70.4674 92.499 73.1366 95.8127 73.1366ZM81.1375 91.9412C81.1375 91.9412 74.3994 89.0154 72.4154 86.809C71.4263 85.7093 70.6621 84.5679 70.1145 83.5389C69.5668 82.5156 69.2397 81.5858 69.119 81.0063C69.1131 80.9786 69.1066 80.9512 69.0997 80.924C69.0979 80.9171 69.0961 80.9102 69.0942 80.9034C71.0986 79.5948 72.1964 77.1563 71.6699 74.6842C70.9838 71.4629 67.7995 69.4042 64.5576 70.0859C61.3157 70.7676 59.2438 73.9317 59.9299 77.153C60.4807 79.7389 62.6413 81.5757 65.1493 81.8469C65.3008 82.556 65.553 83.3225 65.9108 84.1483C66.5344 85.5915 67.4819 87.2127 68.7983 88.8113C70.7724 91.2072 73.2189 93.4006 77.3773 95.0068C79.2302 95.7224 80.9682 96.9437 81.3993 98.872C81.4046 98.8959 81.4099 98.9198 81.4151 98.9438C81.421 98.9707 81.4268 98.9978 81.4325 99.025C81.648 100.037 81.7787 101.187 81.717 102.408C81.6552 103.628 81.4049 104.912 80.8523 106.224C80.8397 106.254 80.8278 106.285 80.8167 106.315C80.5964 106.336 80.375 106.37 80.1534 106.417C76.9115 107.099 74.8396 110.263 75.5257 113.484C76.2117 116.705 79.396 118.764 82.6379 118.082C85.8798 117.4 87.9517 114.236 87.2657 111.015C86.9327 109.452 86.0114 108.162 84.7808 107.327C85.4053 105.699 85.6976 104.098 85.772 102.609C85.854 100.978 85.6784 99.4798 85.4037 98.1899C85.358 97.9752 85.2906 97.7075 85.2211 97.4457C85.665 97.56 86.1287 97.686 86.6098 97.8238C89.2443 98.5784 92.2418 99.641 95.0545 100.916C97.8873 102.2 100.428 103.653 102.222 105.155C104.099 106.727 104.719 107.975 104.719 108.815C104.719 108.838 104.719 108.862 104.72 108.885C102.564 109.846 101.063 111.997 101.063 114.497C101.063 117.893 103.833 120.645 107.25 120.645C110.667 120.645 113.438 117.893 113.438 114.497C113.438 111.785 111.67 109.483 109.217 108.666C109.152 105.846 107.235 103.505 105.121 101.735C102.887 99.8654 99.9372 98.2149 96.9224 96.8481C93.8873 95.4722 90.6797 94.336 87.8562 93.5273C85.5178 92.8576 83.3281 92.3791 81.6746 92.2061C81.5004 92.1101 81.3213 92.0217 81.1375 91.9412ZM121.507 66.6033C122.654 67.062 123.741 67.7073 124.749 68.4943C126.763 70.0731 128.474 72.2262 129.549 74.7416C130.263 76.42 130.688 78.261 130.688 80.1851C130.697 83.3023 129.543 86.6326 126.844 89.6489C127.38 90.5413 127.688 91.5844 127.688 92.699C127.688 95.9917 125.001 98.6609 121.688 98.6609C118.374 98.6609 115.688 95.9917 115.688 92.699C115.688 89.4064 118.374 86.7372 121.688 86.7372C122.449 86.7372 123.178 86.8782 123.848 87.1353C125.859 84.7931 126.611 82.4425 126.619 80.1851C126.621 78.0437 125.902 75.9706 124.768 74.2286C123.641 72.4842 122.091 71.092 120.599 70.3167C119.81 69.902 119.05 69.6675 118.396 69.5897C117.873 72.3515 115.432 74.4408 112.5 74.4408C109.187 74.4408 106.5 71.7715 106.5 68.4789C106.5 65.1862 109.187 62.517 112.5 62.517C114.873 62.517 116.923 63.8851 117.897 65.8706L117.91 65.8706C119.15 65.8706 120.361 66.1448 121.507 66.6033ZM49.2402 53.3221V53.3195C50.6345 51.6782 52.6205 50.3912 54.8846 49.5255C57.1448 48.6571 59.6679 48.2228 62.0283 48.2254C64.016 48.2209 65.8852 48.5351 67.3696 49.0895C67.2105 49.6253 67.1251 50.1925 67.1251 50.7796C67.1251 54.0722 69.8114 56.7414 73.1251 56.7414C76.4389 56.7414 79.1252 54.0722 79.1252 50.7796C79.1252 47.4869 76.4389 44.8177 73.1251 44.8177C71.9253 44.8177 70.8077 45.1676 69.8701 45.7704C69.8281 45.7474 69.785 45.7256 69.7408 45.7053C67.4729 44.6689 64.808 44.1933 62.0286 44.1909C59.1754 44.1909 56.1983 44.7027 53.4256 45.7594C50.6597 46.8191 48.0833 48.4373 46.1418 50.7141C46.1287 50.7295 46.1158 50.745 46.1033 50.7606C45.4663 50.5317 44.7791 50.4069 44.0626 50.4069C40.7489 50.4069 38.0626 53.0762 38.0626 56.3688C38.0626 59.6615 40.7489 62.3307 44.0626 62.3307C47.3763 62.3307 50.0626 59.6615 50.0626 56.3688C50.0626 55.2611 49.7586 54.224 49.2289 53.3353C49.2327 53.3309 49.2365 53.3265 49.2402 53.3221ZM44.0626 59.5361C45.823 59.5361 47.2501 58.118 47.2501 56.3688C47.2501 54.6196 45.823 53.2016 44.0626 53.2016C42.3022 53.2016 40.8751 54.6196 40.8751 56.3688C40.8751 58.118 42.3022 59.5361 44.0626 59.5361ZM24.75 61.2129C24.75 62.9621 23.323 64.3801 21.5625 64.3801C19.8021 64.3801 18.375 62.9621 18.375 61.2129C18.375 59.4636 19.8021 58.0456 21.5625 58.0456C23.323 58.0456 24.75 59.4636 24.75 61.2129ZM29.6251 91.2086C31.3855 91.2086 32.8126 89.7905 32.8126 88.0413C32.8126 86.2921 31.3855 84.8741 29.6251 84.8741C27.8646 84.8741 26.4376 86.2921 26.4376 88.0413C26.4376 89.7905 27.8646 91.2086 29.6251 91.2086ZM55.5001 89.3455C55.5001 91.0947 54.073 92.5127 52.3126 92.5127C50.5522 92.5127 49.1251 91.0947 49.1251 89.3455C49.1251 87.5962 50.5522 86.1782 52.3126 86.1782C54.073 86.1782 55.5001 87.5962 55.5001 89.3455ZM85.1252 39.9737C86.8856 39.9737 88.3127 38.5556 88.3127 36.8064C88.3127 35.0572 86.8856 33.6392 85.1252 33.6392C83.3648 33.6392 81.9377 35.0572 81.9377 36.8064C81.9377 38.5556 83.3648 39.9737 85.1252 39.9737ZM114.188 55.251C114.188 57.0002 112.761 58.4182 111 58.4182C109.24 58.4182 107.813 57.0002 107.813 55.251C107.813 53.5017 109.24 52.0837 111 52.0837C112.761 52.0837 114.188 53.5017 114.188 55.251ZM112.5 71.6461C114.261 71.6461 115.688 70.2281 115.688 68.4789C115.688 66.7297 114.261 65.3116 112.5 65.3116C110.74 65.3116 109.313 66.7297 109.313 68.4789C109.313 70.2281 110.74 71.6461 112.5 71.6461ZM124.875 92.699C124.875 94.4483 123.448 95.8663 121.688 95.8663C119.927 95.8663 118.5 94.4483 118.5 92.699C118.5 90.9498 119.927 89.5318 121.688 89.5318C123.448 89.5318 124.875 90.9498 124.875 92.699ZM95.8127 70.342C97.5731 70.342 99.0002 68.924 99.0002 67.1747C99.0002 65.4255 97.5731 64.0075 95.8127 64.0075C94.0523 64.0075 92.6252 65.4255 92.6252 67.1747C92.6252 68.924 94.0523 70.342 95.8127 70.342ZM105 87.4824C105 89.2316 103.573 90.6496 101.813 90.6496C100.052 90.6496 98.6252 89.2316 98.6252 87.4824C98.6252 85.7332 100.052 84.3151 101.813 84.3151C103.573 84.3151 105 85.7332 105 87.4824ZM82.0556 115.348C83.7779 114.986 84.8786 113.305 84.5141 111.594C84.1496 109.882 82.458 108.789 80.7357 109.151C79.0134 109.513 77.9127 111.194 78.2772 112.905C78.6417 114.617 80.3334 115.71 82.0556 115.348ZM76.3127 50.7796C76.3127 52.5288 74.8856 53.9468 73.1251 53.9468C71.3647 53.9468 69.9376 52.5288 69.9376 50.7796C69.9376 49.0303 71.3647 47.6123 73.1251 47.6123C74.8856 47.6123 76.3127 49.0303 76.3127 50.7796ZM66.4599 79.0172C68.1821 78.655 69.2828 76.9741 68.9183 75.2628C68.5538 73.5515 66.8622 72.4578 65.1399 72.82C63.4177 73.1821 62.317 74.863 62.6815 76.5744C63.0459 78.2857 64.7376 79.3794 66.4599 79.0172ZM107.25 117.664C109.011 117.664 110.438 116.246 110.438 114.497C110.438 112.748 109.011 111.33 107.25 111.33C105.49 111.33 104.063 112.748 104.063 114.497C104.063 116.246 105.49 117.664 107.25 117.664Z" fill="url(#paint0_linear_1056_36254)"/>
<defs>
<linearGradient id="paint0_linear_1056_36254" x1="1.37555e-06" y1="75.9661" x2="150" y2="75.9661" gradientUnits="userSpaceOnUse">
<stop stop-color="#3C7FE3"/>
<stop offset="1" stop-color="#3EDCFF"/>
</linearGradient>
</defs>
</svg>
