<svg width="38" height="38" viewBox="0 0 38 38" fill="none" xmlns="http://www.w3.org/2000/svg">
<path fill-rule="evenodd" clip-rule="evenodd" d="M29.7357 11.2657C30.0893 11.6187 30.0879 12.1896 29.7325 12.5409L15.1025 27L7.26749 19.2565C6.91207 18.9052 6.91066 18.3343 7.26434 17.9813C7.61803 17.6283 8.19287 17.6269 8.5483 17.9781L15.1025 24.4558L28.4517 11.2625C28.8071 10.9113 29.382 10.9127 29.7357 11.2657Z" fill="url(#paint0_linear_1121_7962)"/>
<path fill-rule="evenodd" clip-rule="evenodd" d="M19 35.9643C28.3691 35.9643 35.9643 28.3691 35.9643 19C35.9643 9.63088 28.3691 2.03571 19 2.03571C9.63088 2.03571 2.03571 9.63088 2.03571 19C2.03571 28.3691 9.63088 35.9643 19 35.9643ZM19 38C29.4934 38 38 29.4934 38 19C38 8.50659 29.4934 0 19 0C8.50659 0 0 8.50659 0 19C0 29.4934 8.50659 38 19 38Z" fill="url(#paint1_linear_1121_7962)"/>
<defs>
<linearGradient id="paint0_linear_1121_7962" x1="16.1419" y1="2.18387" x2="16.1419" y2="25.6489" gradientUnits="userSpaceOnUse">
<stop stop-color="#1B1D1E"/>
<stop offset="1" stop-color="#3EDCFF"/>
</linearGradient>
<linearGradient id="paint1_linear_1121_7962" x1="19" y1="38" x2="25.5766" y2="1.17452" gradientUnits="userSpaceOnUse">
<stop stop-color="#3EDCFF"/>
<stop offset="1" stop-color="#1B1D1E"/>
</linearGradient>
</defs>
</svg>
