<svg width="129" height="113" viewBox="0 0 129 113" fill="none" xmlns="http://www.w3.org/2000/svg">
<path d="M100.213 23.35C96.2237 9.70001 81.5862 0 64.5491 0C47.512 0 32.8745 9.70001 28.8852 23.35C12.9879 23.92 0.290039 34.12 0.290039 46.56C0.290039 56.96 9.14851 65.77 21.3264 68.74V63.58C11.958 60.95 5.28919 54.31 5.28919 46.56C5.28919 36.5 16.5173 28.32 30.3149 28.32L32.8545 28.36L33.2844 26.35C35.9039 13.98 49.0517 5 64.5491 5C80.0464 5 93.1942 13.98 95.8138 26.35L96.2438 28.36L98.7833 28.32C112.581 28.32 123.809 36.5 123.809 46.56C123.809 54.31 117.14 60.95 107.772 63.58V68.74C119.95 65.77 128.808 56.96 128.808 46.56C128.808 34.12 116.11 23.92 100.213 23.35Z" fill="url(#paint0_linear_450_2412)"/>
<path d="M99.9323 55H29.1643C26.5048 55 24.3252 57.16 24.3252 59.83V97.41C24.3252 100.08 26.5048 102.25 29.1643 102.25H47.7613L51.7706 109.01H48.831C48.0512 109.01 47.4112 109.73 47.4112 110.62C47.4112 111.51 48.0512 112.23 48.831 112.23H78.756C79.5459 112.23 80.1757 111.51 80.1757 110.62C80.1757 109.73 79.5459 109.01 78.756 109.01H75.8265L79.8258 102.25H99.9323C102.592 102.25 104.762 100.08 104.762 97.41V59.83C104.762 57.16 102.592 55 99.9323 55ZM30.5941 99.03H29.1643C28.2745 99.03 27.5546 98.3 27.5546 97.41V59.83C27.5546 58.94 28.2745 58.22 29.1643 58.22H30.5941C30.4142 58.72 30.3142 59.26 30.3142 59.83V97.41C30.3142 97.98 30.4142 98.52 30.5941 99.03ZM72.817 109.01H54.7701L51.0207 102.25H76.5763L72.817 109.01ZM101.542 97.41C101.542 98.3 100.822 99.03 99.9323 99.03H35.1434C34.2636 99.03 33.5336 98.3 33.5336 97.41V59.83C33.5336 58.94 34.2636 58.22 35.1434 58.22H99.9323C100.822 58.22 101.542 58.94 101.542 59.83V97.41Z" fill="url(#paint1_linear_450_2412)"/>
<path d="M54.12 76.94C53.87 74.73 52.85 72.93 51.08 71.54C49.12 70.01 46.61 69.25 43.55 69.25C42.95 69.25 41.69 69.32 39.77 69.44C39.34 69.48 38.98 69.65 38.7 69.95C38.43 70.24 38.29 70.57 38.29 70.96V84.79C38.29 85.19 38.43 85.54 38.7 85.82C39.01 86.12 39.38 86.28 39.82 86.3C42.02 86.41 43.41 86.46 43.97 86.46C47.23 86.46 49.77 85.66 51.61 84.05C52.58 83.2 53.27 82.2 53.69 81.05C54.03 80.15 54.19 79.17 54.19 78.09C54.19 77.69 54.17 77.31 54.12 76.94ZM48.01 81.65C46.86 82.71 45.49 83.24 43.89 83.24H43.88C43.62 83.24 43.39 83.14 43.19 82.95C42.98 82.74 42.88 82.49 42.88 82.19V73.52C42.88 73.22 42.98 72.97 43.19 72.77C43.39 72.57 43.62 72.47 43.88 72.47H43.89C45.49 72.47 46.86 73 48.01 74.06C49.14 75.1 49.71 76.36 49.71 77.86C49.71 79.36 49.14 80.62 48.01 81.65Z" fill="url(#paint2_linear_450_2412)"/>
<path d="M68.1904 74.3893C67.8704 74.0693 67.4604 73.8993 66.9604 73.8993H65.9704C65.4904 73.8993 65.0804 74.0693 64.7604 74.3893C64.4304 74.7193 64.2604 75.1093 64.2604 75.5493V74.1493C64.0804 73.7393 63.2403 73.5293 61.7403 73.5293C60.0403 73.5293 58.5904 74.1493 57.4004 75.3993C56.8604 75.9593 56.4503 76.5793 56.1603 77.2393C55.7903 78.0593 55.6104 78.9393 55.6104 79.8993C55.6104 80.3693 55.6503 80.8193 55.7403 81.2493C55.9703 82.4293 56.5304 83.4793 57.4004 84.3993C58.5904 85.6393 60.0403 86.2693 61.7403 86.2693C62.2703 86.2693 63.0003 85.9693 63.9103 85.3793C64.0503 85.2893 64.2004 85.2493 64.3604 85.2693C64.5204 85.2893 64.6604 85.3693 64.7904 85.4993C65.2704 86.0093 65.6803 86.2693 66.0203 86.2693H67.6204C67.9304 86.2693 68.1804 86.1593 68.3904 85.9493C68.6004 85.7593 68.7003 85.5193 68.7003 85.2493V75.5693C68.7003 75.1193 68.5304 74.7293 68.1904 74.3893ZM64.2604 81.0693C64.2404 81.9593 63.8804 82.5293 63.1804 82.7793C62.8204 82.8893 62.4504 82.9193 62.0804 82.8593C61.4804 82.8593 60.9603 82.5793 60.5303 82.0193C60.0803 81.4193 59.8503 80.6793 59.8503 79.8093V79.6593C59.8503 79.0893 59.9503 78.5793 60.1603 78.1193C60.3703 77.6593 60.6304 77.3493 60.9604 77.1993C61.6804 76.8493 62.3903 76.8193 63.1003 77.0893C63.7203 77.3293 64.1104 77.6593 64.2604 78.0693V81.0693Z" fill="url(#paint3_linear_450_2412)"/>
<path d="M82.6005 74.3893C82.6005 74.3893 82.5705 74.3593 82.5505 74.3493C82.2405 74.0493 81.8505 73.8993 81.3705 73.8993H80.3805C79.9005 73.8993 79.4905 74.0693 79.1705 74.3893C78.8405 74.7193 78.6705 75.1093 78.6705 75.5493V74.1493C78.4905 73.7393 77.6505 73.5293 76.1505 73.5293C74.4505 73.5293 73.0005 74.1493 71.8105 75.3993C71.3505 75.8793 70.9805 76.3993 70.7005 76.9493C70.2505 77.8393 70.0205 78.8193 70.0205 79.8993C70.0205 80.9793 70.2505 81.9593 70.7005 82.8493C70.9805 83.3993 71.3505 83.9193 71.8105 84.3993C73.0005 85.6393 74.4505 86.2693 76.1505 86.2693C76.6805 86.2693 77.4105 85.9693 78.3205 85.3793C78.4605 85.2893 78.6105 85.2493 78.7705 85.2693C78.9305 85.2893 79.0805 85.3693 79.2005 85.4993C79.6805 86.0093 80.0905 86.2693 80.4305 86.2693H82.0305C82.3405 86.2693 82.5905 86.1593 82.8005 85.9493C82.8705 85.8893 82.9305 85.8193 82.9705 85.7393C83.0705 85.5893 83.1105 85.4293 83.1105 85.2493V75.5693C83.1105 75.1193 82.9405 74.7293 82.6005 74.3893ZM78.6705 81.0693C78.6505 81.9593 78.2905 82.5293 77.5905 82.7793C77.2305 82.8893 76.8605 82.9193 76.4905 82.8593C75.8905 82.8593 75.3705 82.5793 74.9405 82.0193C74.4905 81.4193 74.2605 80.6793 74.2605 79.8093V79.6593C74.2605 79.0893 74.3705 78.5793 74.5805 78.1193C74.7805 77.6593 75.0405 77.3493 75.3705 77.1993C76.0905 76.8493 76.8005 76.8193 77.5105 77.0893C78.1305 77.3293 78.5205 77.6593 78.6705 78.0693V81.0693Z" fill="url(#paint4_linear_450_2412)"/>
<path d="M96.4398 81.19C96.4398 82.05 96.2598 82.83 95.8998 83.53C95.6398 84.02 95.2998 84.48 94.8598 84.88C93.6098 86.05 91.7998 86.63 89.4198 86.63C88.5298 86.63 87.4098 86.43 86.0398 86.04C85.6498 85.92 85.3398 85.72 85.0998 85.44C85.0298 85.36 84.9698 85.27 84.9098 85.18C84.6598 84.73 84.5998 84.28 84.7198 83.81V83.77C84.7998 83.49 84.9198 83.25 85.1098 83.04C85.2398 82.86 85.4298 82.71 85.6498 82.59C86.1298 82.33 86.6398 82.28 87.1798 82.44C88.2198 82.76 89.0398 82.92 89.6398 82.92C90.3598 82.92 90.9098 82.79 91.2998 82.52C91.6798 82.27 91.8698 81.92 91.8698 81.46C91.8698 81.05 91.6998 80.71 91.3698 80.44C90.9898 80.12 90.3098 79.79 89.3398 79.46C87.2398 78.71 85.8198 77.7 85.1098 76.43C84.7398 75.78 84.5498 75.06 84.5498 74.27C84.5498 74.07 84.5498 73.88 84.5798 73.7C84.7098 72.39 85.3098 71.31 86.3898 70.46C87.6098 69.49 89.2098 69 91.1798 69C91.8898 69 92.8298 69.15 93.9998 69.44C94.5298 69.57 94.9198 69.85 95.1798 70.3C95.4298 70.74 95.4898 71.2 95.3598 71.67V71.72C95.2098 72.19 94.9198 72.55 94.4898 72.8C94.0298 73.06 93.5398 73.12 93.0298 72.98C92.3098 72.78 91.6698 72.68 91.1298 72.68C90.4598 72.68 89.9398 72.82 89.5798 73.09C89.2698 73.32 89.1198 73.61 89.1198 73.95C89.1198 74.36 89.3198 74.7 89.7198 74.97C90.0998 75.22 90.8398 75.56 91.9398 75.98C93.4898 76.54 94.6098 77.24 95.3198 78.06C95.4198 78.18 95.5198 78.3 95.6098 78.43C96.1698 79.21 96.4398 80.13 96.4398 81.19Z" fill="url(#paint5_linear_450_2412)"/>
<defs>
<linearGradient id="paint0_linear_450_2412" x1="0.29004" y1="34.9525" x2="128.808" y2="34.9525" gradientUnits="userSpaceOnUse">
<stop stop-color="#3C7FE3"/>
<stop offset="1" stop-color="#3EDCFF"/>
</linearGradient>
<linearGradient id="paint1_linear_450_2412" x1="24.3252" y1="84.1" x2="104.762" y2="84.1" gradientUnits="userSpaceOnUse">
<stop stop-color="#3C7FE3"/>
<stop offset="1" stop-color="#3EDCFF"/>
</linearGradient>
<linearGradient id="paint2_linear_450_2412" x1="38.29" y1="78.0008" x2="54.19" y2="78.0008" gradientUnits="userSpaceOnUse">
<stop stop-color="#3C7FE3"/>
<stop offset="1" stop-color="#3EDCFF"/>
</linearGradient>
<linearGradient id="paint3_linear_450_2412" x1="55.6104" y1="80.0073" x2="68.7003" y2="80.0073" gradientUnits="userSpaceOnUse">
<stop stop-color="#3C7FE3"/>
<stop offset="1" stop-color="#3EDCFF"/>
</linearGradient>
<linearGradient id="paint4_linear_450_2412" x1="70.0205" y1="80.0073" x2="83.1105" y2="80.0073" gradientUnits="userSpaceOnUse">
<stop stop-color="#3C7FE3"/>
<stop offset="1" stop-color="#3EDCFF"/>
</linearGradient>
<linearGradient id="paint5_linear_450_2412" x1="84.5498" y1="77.9644" x2="96.4398" y2="77.9644" gradientUnits="userSpaceOnUse">
<stop stop-color="#3C7FE3"/>
<stop offset="1" stop-color="#3EDCFF"/>
</linearGradient>
</defs>
</svg>
