<svg width="34" height="34" viewBox="0 0 34 34" fill="none" xmlns="http://www.w3.org/2000/svg">
<g id="EmailIcon">
<g id="EmailIcon_2">
<path id="Vector" d="M31.7931 5.47241C31.8866 5.47022 31.9802 5.47899 32.0714 5.49654C32.9739 5.65887 33.6637 6.38935 33.6637 7.29312C33.6637 13.6985 33.6637 20.1039 33.6637 26.5093C33.6637 26.7374 33.6123 26.9634 33.5164 27.1718C33.3855 27.4592 33.2311 27.7312 32.9342 27.9132C32.6512 28.0887 32.3613 28.2357 32.0223 28.2818C31.8258 28.3081 31.6294 28.3147 31.433 28.3147C25.3676 28.3147 19.3022 28.3147 13.2345 28.3147C9.46521 28.3147 5.6983 28.3147 1.92905 28.3125C1.79577 28.3125 1.66249 28.3037 1.53155 28.273C0.895548 28.1282 0.446605 27.8079 0.184721 27.3166C0.0514414 27.0665 0 26.7835 0 26.5027C0 24.1007 0.0116912 9.13358 0.0140295 7.14834C0.0140295 6.96847 0.0350737 6.78859 0.102883 6.62187C0.161339 6.47271 0.245516 6.33451 0.350737 6.20508C0.717841 5.75978 1.19952 5.50751 1.80279 5.47241C1.84254 5.47022 31.7463 5.47241 31.7908 5.47241H31.7931ZM16.7722 26.9042C21.4347 26.9042 26.0971 26.9042 30.7596 26.9042C30.7853 26.9042 30.8227 26.9173 30.8344 26.8888C30.8438 26.8625 30.8111 26.8449 30.7923 26.8274C30.486 26.5334 30.1821 26.2373 29.8734 25.9455C29.1205 25.2348 28.3699 24.5219 27.6217 23.8046C26.7308 22.9534 25.8353 22.1067 24.9421 21.26C24.3154 20.6655 23.6864 20.0754 23.0621 19.4809C22.2718 18.7307 21.4861 17.9805 20.6958 17.2303C20.5789 17.1184 20.607 17.1315 20.4971 17.2171C20.0692 17.5483 19.6413 17.884 19.2134 18.2174C18.6662 18.6452 18.1214 19.0751 17.5696 19.4985C17.2726 19.7288 16.9195 19.7332 16.6179 19.5116C15.9913 19.0488 15.3693 18.5815 14.745 18.1165C14.3334 17.8094 13.9196 17.5023 13.5104 17.1952C13.4543 17.1513 13.4122 17.1491 13.3561 17.2017C13.1947 17.3531 13.0287 17.4979 12.865 17.6449C12.1612 18.2832 11.4597 18.9215 10.7559 19.5599C10.0778 20.1763 9.40208 20.7971 8.71931 21.4091C8.01316 22.0431 7.31871 22.6902 6.61022 23.3242C5.90641 23.9559 5.20727 24.5965 4.50814 25.2326C3.95631 25.735 3.40215 26.2395 2.85032 26.7418C2.81525 26.7747 2.77783 26.8055 2.74276 26.8362C2.72873 26.8493 2.70535 26.8647 2.71236 26.8866C2.72172 26.9107 2.74978 26.9042 2.77082 26.9042C2.83629 26.9042 2.90176 26.9042 2.96723 26.9042C7.5689 26.9042 12.1706 26.9042 16.7722 26.9042ZM2.83395 6.88072C2.83863 6.90924 2.86435 6.9224 2.88539 6.93775C3.07947 7.08911 3.27354 7.23828 3.46996 7.38745C4.15038 7.90514 4.83549 8.42065 5.51592 8.93834C6.1262 9.40339 6.73414 9.87064 7.34443 10.3357C7.9968 10.8314 8.65151 11.3206 9.30154 11.8164C9.91416 12.2814 10.5221 12.7531 11.1371 13.2181C11.911 13.8016 12.6803 14.3873 13.4496 14.973C14.2119 15.5521 14.9788 16.1247 15.7387 16.7082C16.1596 17.0306 16.5852 17.3465 17.0037 17.669C17.0598 17.7129 17.0996 17.7172 17.158 17.669C17.3942 17.4738 17.635 17.2829 17.8759 17.0921C18.4184 16.6599 18.9632 16.23 19.508 15.7978C20.2656 15.1946 21.0255 14.5913 21.7831 13.9881C22.4963 13.4221 23.2071 12.854 23.9202 12.288C24.4651 11.8537 25.0122 11.4215 25.557 10.9894C26.2795 10.4147 27.002 9.83993 27.7269 9.26519C28.2507 8.84841 28.7768 8.43162 29.3029 8.01483C29.7471 7.66385 30.1914 7.31287 30.6333 6.95969C30.6567 6.93995 30.7035 6.92679 30.6918 6.89388C30.6778 6.8544 30.6287 6.87414 30.5959 6.87414C25.8937 6.87414 21.1892 6.87414 16.487 6.87414C11.9601 6.87414 7.43094 6.87414 2.9041 6.87414C2.88072 6.87414 2.855 6.86536 2.83395 6.8873V6.88072ZM1.83552 16.8244C1.83552 19.6345 1.83552 22.4467 1.83552 25.2567C1.83552 25.373 1.83318 25.4871 1.83085 25.6033C1.83085 25.6297 1.80746 25.6691 1.83786 25.6823C1.87293 25.6977 1.8893 25.6538 1.91502 25.6362C1.93139 25.6253 1.94308 25.6121 1.95711 25.599C2.29382 25.2743 2.63053 24.9518 2.96489 24.625C3.93293 23.6817 4.89628 22.7385 5.86432 21.7974C6.70842 20.9748 7.55019 20.1544 8.3943 19.3318C9.28049 18.4697 10.1667 17.6076 11.0529 16.7455C11.3124 16.4932 11.5696 16.2431 11.8268 15.9909C11.8993 15.9207 11.897 15.9075 11.8198 15.8439C11.6959 15.743 11.5696 15.6421 11.4457 15.5434C10.798 15.0322 10.1503 14.5211 9.50496 14.0078C8.59539 13.2861 7.68581 12.5644 6.77623 11.8427C6.24311 11.4193 5.70532 11.0004 5.1722 10.577C4.12232 9.74341 3.07245 8.90983 2.02492 8.07625C1.98517 8.04554 1.94308 8.01483 1.90099 7.98631C1.88696 7.97534 1.86826 7.96218 1.84955 7.96876C1.82383 7.97973 1.83318 8.00386 1.83318 8.0236C1.83552 8.14206 1.8402 8.26051 1.8402 8.37897C1.8402 11.1956 1.8402 14.01 1.8402 16.8266L1.83552 16.8244ZM31.7978 25.7722C31.8165 25.7372 31.8071 25.7021 31.8071 25.667C31.8071 25.5726 31.7978 25.4761 31.7978 25.3818C31.7978 19.6389 31.7978 13.8959 31.7978 8.15302C31.7978 8.07625 31.8048 7.99947 31.8071 7.92269C31.8071 7.90295 31.8188 7.87663 31.7955 7.86566C31.7744 7.85688 31.758 7.87882 31.7393 7.89198C31.723 7.90514 31.7066 7.91831 31.6902 7.93147C31.3676 8.19909 31.0449 8.46452 30.7222 8.73214C29.8383 9.46701 28.9545 10.2019 28.0706 10.9345C26.8547 11.9414 25.6389 12.9483 24.423 13.9552C23.6794 14.5716 22.9382 15.188 22.1946 15.8044C22.0987 15.8834 22.0964 15.8943 22.1806 15.9821C22.6553 16.4691 23.1323 16.9561 23.6093 17.443C24.2803 18.1275 24.9561 18.8097 25.6272 19.4941C26.2024 20.0798 26.7729 20.6699 27.3481 21.2556C28.0285 21.9488 28.7113 22.6419 29.3917 23.3373C30.1704 24.1314 30.949 24.9277 31.7276 25.7218C31.7463 25.7415 31.7627 25.7679 31.7978 25.7722Z" fill="url(#paint0_linear_1373_3234)"/>
</g>
</g>
<defs>
<linearGradient id="paint0_linear_1373_3234" x1="3.08708e-07" y1="17.0866" x2="33.6637" y2="17.0866" gradientUnits="userSpaceOnUse">
<stop stop-color="#3C7FE3"/>
<stop offset="1" stop-color="#3EDCFF"/>
</linearGradient>
</defs>
</svg>
