<svg width="22" height="22" viewBox="0 0 22 22" fill="none" xmlns="http://www.w3.org/2000/svg">
<path d="M10.2857 18V7.81818H11.6905V18H10.2857ZM11 6.12121C10.7262 6.12121 10.4901 6.01736 10.2917 5.80966C10.0972 5.60196 10 5.35227 10 5.06061C10 4.76894 10.0972 4.51925 10.2917 4.31155C10.4901 4.10385 10.7262 4 11 4C11.2738 4 11.5079 4.10385 11.7024 4.31155C11.9008 4.51925 12 4.76894 12 5.06061C12 5.35227 11.9008 5.60196 11.7024 5.80966C11.5079 6.01736 11.2738 6.12121 11 6.12121Z" fill="white"/>
<path fill-rule="evenodd" clip-rule="evenodd" d="M11 20.75C16.3848 20.75 20.75 16.3848 20.75 11C20.75 5.61522 16.3848 1.25 11 1.25C5.61522 1.25 1.25 5.61522 1.25 11C1.25 16.3848 5.61522 20.75 11 20.75ZM11 22C17.0751 22 22 17.0751 22 11C22 4.92487 17.0751 0 11 0C4.92487 0 0 4.92487 0 11C0 17.0751 4.92487 22 11 22Z" fill="white"/>
</svg>
