<svg width="87" height="87" viewBox="0 0 87 87" fill="none" xmlns="http://www.w3.org/2000/svg">
<g id="MailGuardIcon">
<g id="Group 553">
<path id="Ellipse 56 (Stroke)" fill-rule="evenodd" clip-rule="evenodd" d="M43 28.5C38.3056 28.5 34.5 32.3056 34.5 37C34.5 37.8284 33.8284 38.5 33 38.5C32.1716 38.5 31.5 37.8284 31.5 37C31.5 30.6487 36.6487 25.5 43 25.5C49.3513 25.5 54.5 30.6487 54.5 37C54.5 37.8284 53.8284 38.5 53 38.5C52.1716 38.5 51.5 37.8284 51.5 37C51.5 32.3056 47.6944 28.5 43 28.5Z" fill="url(#paint0_linear_891_6318)"/>
<rect id="Rectangle 183" x="28.5" y="37.5" width="28" height="19" rx="3.5" stroke="url(#paint1_linear_891_6318)" stroke-width="3"/>
<path id="Subtract" fill-rule="evenodd" clip-rule="evenodd" d="M81.353 14.0025C81.5923 13.9969 81.8316 14.0193 82.065 14.0642C84.3745 14.4796 86.1395 16.3488 86.1395 18.6614V67.8322C86.1395 68.416 86.0079 68.9941 85.7626 69.5274C85.4275 70.2627 85.0326 70.9587 84.2728 71.4246C83.5488 71.8736 82.8069 72.2497 81.9393 72.3676C81.4367 72.435 80.9342 72.4518 80.4316 72.4518H33.8647C24.2198 72.4518 14.581 72.4518 4.9361 72.4462C4.59506 72.4462 4.25402 72.4237 3.91897 72.3451C2.29155 71.9747 1.14278 71.1552 0.472669 69.8978C0.131629 69.2579 0 68.5338 0 67.8154C0 61.669 0.0299157 23.3708 0.0358989 18.2909C0.0358989 17.8306 0.0897474 17.3704 0.263259 16.9438C0.412838 16.5621 0.628231 16.2084 0.897473 15.8773C1.83683 14.7378 3.06936 14.0923 4.61301 14.0025C4.71102 13.9971 75.7628 14.0021 81.0381 14.0025L81.347 14.0025H81.353ZM42.9172 68.8426H78.7084C78.7238 68.8426 78.7409 68.8444 78.7584 68.8463C78.8155 68.8525 78.877 68.8592 78.8999 68.8033C78.9188 68.75 78.8704 68.7108 78.8257 68.6745C78.8188 68.6689 78.8119 68.6634 78.8055 68.6579C78.8008 68.654 78.7964 68.65 78.7922 68.6461C78.531 68.3954 78.2704 68.1442 78.0099 67.8929C77.4886 67.3901 76.9674 66.8874 76.4408 66.3896C74.5142 64.571 72.5936 62.7467 70.679 60.9112C68.8571 59.1706 67.0276 57.4372 65.1996 55.7052C64.7404 55.2701 64.2812 54.8351 63.8223 54.4C63.1355 53.7485 62.4476 53.099 61.7599 52.4497C61.1728 51.8954 60.5858 51.3411 60 50.7862V44.2127C60.1357 44.3512 60.2713 44.4897 60.407 44.6282L60.4096 44.6309L60.4119 44.6332C61.2704 45.5088 62.1319 46.3829 62.9934 47.2571C63.855 48.1314 64.7167 49.0057 65.5754 49.8815C66.3108 50.6303 67.0433 51.382 67.7758 52.1337L67.7772 52.1352L67.7786 52.1366C68.5111 52.8883 69.2435 53.6399 69.979 54.3888C70.5746 54.9956 71.1709 55.6024 71.7674 56.2094C72.9147 57.3768 74.0628 58.545 75.2083 59.7157C76.2041 60.7313 77.2 61.7483 78.1958 62.7653C79.1923 63.783 80.1889 64.8008 81.1854 65.8171C81.1939 65.826 81.2021 65.8354 81.2104 65.8449C81.2495 65.8896 81.291 65.937 81.3649 65.9462C81.4008 65.8788 81.3963 65.8115 81.3919 65.7441C81.3904 65.7217 81.3889 65.6992 81.3889 65.6768C81.3889 65.5561 81.3829 65.434 81.3769 65.3119C81.3709 65.1898 81.3649 65.0678 81.3649 64.9471V20.8617C81.3649 20.7438 81.3714 20.626 81.3779 20.5081C81.3822 20.4295 81.3865 20.3509 81.3889 20.2723C81.3889 20.2599 81.3907 20.2464 81.3925 20.2327C81.3982 20.191 81.404 20.1475 81.359 20.1264C81.3178 20.1093 81.2837 20.1379 81.2486 20.1674C81.2377 20.1766 81.2267 20.1858 81.2154 20.1938L81.0897 20.2948C80.6769 20.6372 80.264 20.9782 79.8512 21.3192C79.4384 21.6602 79.0255 22.0012 78.6127 22.3436L78.605 22.3499C76.346 24.2282 74.0869 26.1065 71.8278 27.9791L62.4941 35.7084C61.5427 36.497 60.5929 37.2857 59.6431 38.0743C59.6363 38.08 59.6295 38.0856 59.6227 38.0912C59.0558 36.7197 57.8962 35.6554 56.4631 35.2175C57.1326 34.6854 57.8014 34.1527 58.4702 33.6201L58.4734 33.6175L58.4766 33.615C59.3865 32.8903 60.2963 32.1657 61.2077 31.4424C62.1633 30.6806 63.1218 29.9214 64.0791 29.163L64.0805 29.1619C64.5193 28.8143 64.9579 28.4669 65.3959 28.1195C67.2447 26.6488 69.0935 25.1782 70.9483 23.7076C72.2885 22.6411 73.6347 21.5746 74.9809 20.5081L74.9831 20.5064C76.1191 19.6089 77.2552 18.7113 78.3853 17.8082C78.4017 17.7944 78.4225 17.7818 78.4435 17.7692C78.4994 17.7355 78.5566 17.701 78.5349 17.6398C78.5078 17.5634 78.4293 17.5737 78.3564 17.5832C78.3329 17.5863 78.31 17.5893 78.2896 17.5893H42.1872H7.43108C7.41788 17.5893 7.40439 17.5882 7.3908 17.5871C7.34394 17.5833 7.2959 17.5794 7.2546 17.6199C7.26921 17.6731 7.31407 17.704 7.3578 17.7342C7.36639 17.7401 7.37494 17.746 7.38321 17.7521C7.87982 18.1394 8.37642 18.521 8.879 18.9027C9.74955 19.5651 10.6231 20.226 11.4966 20.887C12.3702 21.5479 13.2437 22.2089 14.1143 22.8712C14.8951 23.4662 15.6744 24.0626 16.4538 24.6591L16.4551 24.6601C17.2339 25.2561 18.0128 25.8521 18.7931 26.4468C19.5479 27.0204 20.3039 27.5905 21.0595 28.1603C21.9749 28.8507 22.8898 29.5407 23.801 30.2356C24.5213 30.7824 25.2391 31.3327 25.9572 31.8834C26.802 32.5311 27.6472 33.1792 28.4978 33.8224C29.018 34.2146 29.5373 34.6071 30.0561 35H30C28.315 35 26.8247 35.8335 25.9188 37.1107C25.3859 36.6886 24.8534 36.2662 24.3215 35.8431L17.3392 30.303C16.6571 29.7613 15.972 29.2224 15.287 28.6836C14.6019 28.1447 13.9168 27.6059 13.2347 27.0642C10.5483 24.9312 7.86187 22.7982 5.18141 20.6653C5.0797 20.5867 4.972 20.5081 4.86431 20.4351C4.82841 20.4071 4.78054 20.3734 4.73268 20.3902C4.68062 20.4124 4.68471 20.4557 4.6887 20.4978C4.68975 20.5089 4.69079 20.52 4.69079 20.5305C4.69279 20.6316 4.69545 20.7326 4.69811 20.8337C4.70343 21.0357 4.70874 21.2378 4.70874 21.4399V43.0559L4.69678 43.0503V64.6271C4.69678 64.9192 4.69101 65.2059 4.68514 65.4978L4.68481 65.514C4.68481 65.5341 4.67946 65.5573 4.67404 65.5807C4.66134 65.6357 4.64823 65.6925 4.70276 65.7161C4.76427 65.743 4.80329 65.6987 4.84295 65.6538C4.86116 65.6331 4.8795 65.6123 4.90021 65.5982C4.9315 65.5772 4.95611 65.5531 4.98153 65.5282C4.98695 65.5229 4.99243 65.5175 4.998 65.5122C5.00126 65.509 5.00455 65.5059 5.0079 65.5028C5.22155 65.2968 5.43519 65.0911 5.64875 64.8855L5.64964 64.8847C6.297 64.2616 6.94351 63.6392 7.58664 63.0105C8.5853 62.0374 9.58201 61.0644 10.5783 60.0916C12.0532 58.6517 13.5275 57.2123 15.0058 55.7753L21.4795 49.4661L25 46.0414V52.3484C24.1063 53.1624 23.2111 53.975 22.3112 54.7817C21.4466 55.558 20.5888 56.3419 19.7307 57.1262C18.7956 57.9808 17.8597 58.8361 16.9144 59.682C15.5668 60.8916 14.226 62.1138 12.8868 63.3344C12.4363 63.7451 11.9859 64.1556 11.5355 64.5654L7.29347 68.4272C7.23272 68.4842 7.16923 68.5386 7.10671 68.5922C7.07692 68.6177 7.04718 68.6432 7.01824 68.6686C7.01276 68.6737 7.00671 68.679 7.00047 68.6844C6.96587 68.7146 6.92525 68.7501 6.94046 68.7977C6.96025 68.8487 7.01279 68.846 7.06083 68.8436C7.07088 68.8431 7.08073 68.8426 7.09004 68.8426H7.59263H42.9172Z" fill="url(#paint2_linear_891_6318)"/>
<path id="Union" fill-rule="evenodd" clip-rule="evenodd" d="M44.1301 46.6504C44.6554 46.2899 45 45.6852 45 45C45 43.8954 44.1046 43 43 43C41.8954 43 41 43.8954 41 45C41 45.6852 41.3446 46.2899 41.8699 46.6504L41 51H45L44.1301 46.6504Z" fill="url(#paint3_linear_891_6318)"/>
</g>
</g>
<defs>
<linearGradient id="paint0_linear_891_6318" x1="31.5" y1="32.1102" x2="54.5" y2="32.1102" gradientUnits="userSpaceOnUse">
<stop stop-color="#3C7FE3"/>
<stop offset="1" stop-color="#3EDCFF"/>
</linearGradient>
<linearGradient id="paint1_linear_891_6318" x1="27" y1="47.1864" x2="58" y2="47.1864" gradientUnits="userSpaceOnUse">
<stop stop-color="#3C7FE3"/>
<stop offset="1" stop-color="#3EDCFF"/>
</linearGradient>
<linearGradient id="paint2_linear_891_6318" x1="7.8993e-07" y1="43.7212" x2="86.1395" y2="43.7212" gradientUnits="userSpaceOnUse">
<stop stop-color="#3C7FE3"/>
<stop offset="1" stop-color="#3EDCFF"/>
</linearGradient>
<linearGradient id="paint3_linear_891_6318" x1="41" y1="47.0678" x2="45" y2="47.0678" gradientUnits="userSpaceOnUse">
<stop stop-color="#3C7FE3"/>
<stop offset="1" stop-color="#3EDCFF"/>
</linearGradient>
</defs>
</svg>
