<svg width="119" height="127" viewBox="0 0 119 127" fill="none" xmlns="http://www.w3.org/2000/svg">
<g id="Group 384">
<g id="HeaderLogo">
<g id="Group">
<path id="Vector_5" d="M118.921 0.193359V20.4882L118.228 19.6095L111.632 11.2651L118.921 0.193359Z" fill="white"/>
<path id="Vector_6" d="M118.612 20.5065L118.902 20.8711L109.364 41.6168L111.491 12.7952L111.577 11.605L118.612 20.5065Z" fill="white"/>
<path id="Vector_7" d="M99.697 6.28809L96.0856 13.2624L92.1518 20.8597L83.0583 18.9578L99.697 6.28809Z" fill="white"/>
<path id="Vector_8" d="M80.4621 27.7872C80.4621 27.7872 80.4621 27.7872 80.4596 27.7897L68.6607 34.7463L68.1455 35.0502L82.8097 19.1592L88.5657 20.3646L91.8803 21.0585L91.799 21.1066L80.4672 27.7846L80.4621 27.7872Z" fill="white"/>
<path id="Vector_9" d="M80.9558 27.792L92.2268 21.1494L109.411 29.1266L109.502 29.1671L93.2064 28.382L80.9558 27.792Z" fill="white"/>
<path id="Vector_10" d="M88.6296 55.0221L95.2333 42.3296L97.0099 42.3448L108.748 42.441L88.6296 55.0221Z" fill="white"/>
<path id="Vector_11" d="M88.4607 55.46L104.442 55.7031L91.5062 61.0642L88.4607 55.46Z" fill="white"/>
<path id="Vector_12" d="M67.426 35.9829L71.7075 53.2667L69.8827 52.1423L63.6394 48.2956C63.9008 44.0006 66.7357 37.51 67.426 35.9829Z" fill="white"/>
<path id="Vector_13" d="M63.6272 48.585L71.1902 53.2446L64.5611 51.7429C63.886 51.1908 63.5713 50.1297 63.6272 48.585Z" fill="white"/>
<path id="Vector_14" d="M66.5493 57.7783C66.8513 56.7679 67.2929 54.2228 64.9783 52.1006L69.4273 53.1085L71.6251 53.6074L66.5493 57.7808V57.7783Z" fill="white"/>
<path id="Vector_15" d="M66.1711 58.6177L66.4503 64.146L61.0496 67.8408L66.1711 58.6177Z" fill="white"/>
<path id="Vector_16" d="M67.5002 70.607L60.9295 70.8881C60.4067 70.1942 60.3331 69.2167 60.7392 68.4038L67.5002 70.607Z" fill="white"/>
<path id="Vector_17" d="M64.453 71.2372C64.118 71.0852 63.6814 71.1232 63.1612 71.3461C62.3414 71.6956 61.6663 71.6247 61.1511 71.1308L67.5036 70.8599L65.0316 71.8906C64.9022 71.5715 64.7093 71.3537 64.4555 71.2372H64.453Z" fill="white"/>
<path id="Vector_18" d="M71.9166 53.8003L79.1091 65.8065L69.569 64.4922L66.7722 64.1073L71.9166 53.8003Z" fill="white"/>
<path id="Vector_19" d="M80.3853 54.6294L79.459 63.6727L79.2661 65.5771L72.1472 53.6924L80.3853 54.6294Z" fill="white"/>
<path id="Vector_20" d="M80.3314 54.3686L72.0984 53.4341L76.5245 44.5479L79.2503 51.5829L80.3314 54.3686Z" fill="white"/>
<path id="Vector_21" d="M80.6314 54.7295L91.1664 61.1973L79.4995 65.7759L80.6314 54.7295Z" fill="white"/>
<path id="Vector_22" d="M67.5614 75.9921L65.0945 74.4777C65.1452 74.1966 65.2899 73.3052 65.1833 72.5176L65.9244 73.3735L68.8912 76.8075L67.5614 75.9895V75.9921Z" fill="white"/>
<path id="Vector_23" d="M65.0744 76.5846C64.6912 75.9743 64.9145 75.0778 65.0236 74.7334L69.0742 77.2202L69.3356 77.3798L69.262 77.4735L66.8484 80.5175C66.318 80.2516 65.9931 79.892 65.884 79.4463C65.6784 78.608 66.5134 77.281 66.5134 77.281C66.4627 77.2785 65.3079 76.9619 65.0744 76.5871V76.5846Z" fill="white"/>
<path id="Vector_24" d="M68.1702 81.6776C67.9037 81.2218 67.5382 80.8698 67.0789 80.6267L69.2285 77.917L68.8224 79.3605L68.1702 81.6776Z" fill="white"/>
<path id="Vector_25" d="M68.6934 83.8555C68.6883 83.3161 68.6173 82.8223 68.4802 82.3867L74.622 86.9628L69.602 86.8134C69.0183 85.9802 68.7061 84.9571 68.696 83.8555H68.6934Z" fill="white"/>
<path id="Vector_26" d="M73.4872 89.6386C71.7893 89.2663 70.561 88.0837 69.792 87.0732L74.8095 87.2227L73.4898 89.6411L73.4872 89.6386Z" fill="white"/>
<path id="Vector_27" d="M84.2343 89.261C80.4756 90.1778 77.0367 90.317 73.7476 89.689L75.0825 87.2427L84.2343 89.261Z" fill="white"/>
<path id="Vector_28" d="M107.703 88.9508H118.624L109.639 72.8218C109.639 72.8218 107.906 87.2743 107.703 88.9508Z" fill="white"/>
<path id="Vector_29" d="M102.369 96.6426L118.18 89.21H107.625C107.11 89.9368 102.369 96.6426 102.369 96.6426Z" fill="white"/>
<path id="Vector_30" d="M109.711 72.4326L118.644 88.473L116.084 64.3491L112.01 69.5153L109.711 72.4326Z" fill="white"/>
<path id="Vector_31" d="M109.831 71.8704L112.511 61.4419L115.977 64.0883L109.831 71.8704Z" fill="white"/>
<path id="Vector_32" d="M100.411 5.86764L118.742 0L117.387 2.0614L111.428 11.1072L100.411 5.86764Z" fill="white"/>
<path id="Vector_33" d="M100.059 6.14111L109.896 29.0697L92.3923 20.9457L100.059 6.14111Z" fill="white"/>
<path id="Vector_34" d="M109.994 29.6182L109.26 39.5782L109.067 42.1891L95.4968 42.0777L109.994 29.6182Z" fill="white"/>
<path id="Vector_35" d="M68.029 70.514L60.9634 68.2095L62.5521 67.1206L66.5012 64.4185L68.029 70.514Z" fill="white"/>
<path id="Vector_36" d="M98.0693 72.9191L79.7048 65.9676L91.3946 61.3813L98.0693 72.9191Z" fill="white"/>
<path id="Vector_37" d="M97.7169 89.3799H85.3774L101.696 96.691L97.7169 89.3799Z" fill="white"/>
<path id="Vector_38" d="M84.9343 89.1266H97.3296L89.0432 84.2365L85.9723 82.4258L85.1501 87.7388L84.9343 89.1266Z" fill="white"/>
<path id="Vector_39" d="M103.091 89.2859L107.315 89.21L104.731 92.8617L102.003 96.7211L98.0029 89.3771L103.091 89.2859Z" fill="white"/>
<path id="Vector_40" d="M67.8491 35.793L83.1478 38.2849L76.5441 44.0588L67.8491 35.793Z" fill="white"/>
<path id="Vector_41" d="M76.3842 44.2595L71.9453 53.1736L70.1561 45.9537L67.6892 35.9937L76.3842 44.2595Z" fill="white"/>
<path id="Vector_42" d="M66.4041 58.2251L71.5281 54.0137L66.6807 63.7205L66.4041 58.2251Z" fill="white"/>
<path id="Vector_43" d="M88.2038 55.5204L91.1123 60.8689L89.4702 59.861L81.0798 54.7075L88.2038 55.5204Z" fill="white"/>
<path id="Vector_44" d="M92.0884 61.0967H112.059L105.039 55.7305L92.0884 61.0967Z" fill="white"/>
<path id="Vector_45" d="M91.8962 61.3506L105.494 69.7557L109.479 72.2223L112.271 61.3506H91.8962Z" fill="white"/>
<path id="Vector_46" d="M76.863 44.7144L87.9259 55.2341L86.9995 55.1277L80.6166 54.4009L76.863 44.7144Z" fill="white"/>
<path id="Vector_47" d="M69.3051 76.899L65.1658 72.1076L68.1123 70.8794L69.3051 76.899Z" fill="white"/>
<path id="Vector_48" d="M78.8191 79.9851L71.9464 77.9363L69.6318 77.2475L68.9745 73.925L68.4009 71.0405L78.8191 79.9851Z" fill="white"/>
<path id="Vector_49" d="M72.8216 83.4573L74.6159 86.6406L68.3523 81.9758L69.1035 79.3143L69.5629 77.6758L72.8216 83.4573Z" fill="white"/>
<path id="Vector_50" d="M107.484 88.6841L91.8145 61.5947L102.068 67.9359L109.425 72.4842L107.484 88.6841Z" fill="white"/>
<path id="Vector_51" d="M98.4679 73.6084L107.346 88.9574L104.394 89.0106L97.9248 89.1246L98.0263 86.2047L98.4679 73.6084Z" fill="white"/>
<path id="Vector_52" d="M76.5402 82.9829L84.2682 89.0101L75.1012 86.9867L69.9441 77.8345L76.5402 82.9829Z" fill="white"/>
<path id="Vector_53" d="M70.1296 77.6602L70.99 77.9159L85.7329 82.3122L85.4816 83.938L84.6948 89.0206L70.1296 77.6602Z" fill="white"/>
<path id="Vector_54" d="M97.5264 73.6084L91.4836 77.9946L85.8519 82.0819L85.319 81.9224L79.7507 80.2636L97.5264 73.6084Z" fill="white"/>
<path id="Vector_55" d="M97.7426 87.1078L97.6741 89.035L86.1062 82.2101L98.2198 73.4175L97.7426 87.1078Z" fill="white"/>
<path id="Vector_56" d="M100.319 6.10303L111.344 11.3477L111.095 14.7057L110.055 28.7961L100.319 6.10303Z" fill="white"/>
<path id="Vector_57" d="M80.7761 28.3203L94.6637 41.9017L83.5374 38.1056L80.7761 28.3203Z" fill="white"/>
<path id="Vector_58" d="M83.0047 37.1522L83.2585 38.0487L67.8279 35.534L68.0309 35.4125L80.449 28.0938L83.0047 37.1522Z" fill="white"/>
<path id="Vector_59" d="M83.366 38.4321L88.0383 54.9917L76.7292 44.2365L83.366 38.4321Z" fill="white"/>
<path id="Vector_60" d="M68.2912 70.5293L66.7456 64.3628L78.8795 66.0342L68.2912 70.5293Z" fill="white"/>
<path id="Vector_61" d="M97.996 73.1616L79.4792 66.1519V80.0929L97.996 73.1616Z" fill="white"/>
<path id="Vector_62" d="M68.4451 70.7407L71.6429 73.4859L79.2262 79.9993V66.1621L68.4451 70.7407Z" fill="white"/>
<path id="Vector_63" d="M80.8542 28.0391L91.3232 28.543L109.82 29.4344L95.1657 42.0333L86.3286 33.3926L80.8542 28.0391Z" fill="white"/>
<path id="Vector_64" d="M94.9775 42.2734L88.3231 55.0597L83.6228 38.4014L90.7823 40.8426L94.9775 42.2734Z" fill="white"/>
</g>
<g id="Group_2">
<path id="Vector_65" d="M0.078125 0.193359V20.4882L0.770981 19.6095L7.36707 11.2651L0.078125 0.193359Z" fill="white"/>
<path id="Vector_66" d="M0.387713 20.5065L0.0983887 20.8711L9.63594 41.6168L7.50916 12.7952L7.42287 11.605L0.387713 20.5065Z" fill="white"/>
<path id="Vector_67" d="M19.3037 6.28809L22.9152 13.2624L26.849 20.8597L35.9424 18.9578L19.3037 6.28809Z" fill="white"/>
<path id="Vector_68" d="M38.5393 27.7872C38.5393 27.7872 38.5393 27.7872 38.5418 27.7897L50.3407 34.7463L50.8559 35.0502L36.1917 19.1592L30.4356 20.3646L27.1211 21.0585L27.2023 21.1066L38.5342 27.7872H38.5393Z" fill="white"/>
<path id="Vector_69" d="M38.0428 27.792L26.7718 21.1494L9.58746 29.1266L9.49609 29.1671L25.7922 28.382L38.0428 27.792Z" fill="white"/>
<path id="Vector_70" d="M30.3702 55.0216L23.7664 42.3291L21.9899 42.3443L10.252 42.4405L30.3702 55.0216Z" fill="white"/>
<path id="Vector_71" d="M30.537 55.46L14.5557 55.7031L27.4915 61.0642L30.537 55.46Z" fill="white"/>
<path id="Vector_72" d="M51.5745 35.9829L47.293 53.2667L49.1177 52.1423L55.3611 48.2956C55.0997 44.0006 52.2648 37.51 51.5745 35.9829Z" fill="white"/>
<path id="Vector_73" d="M55.3707 48.585L47.8076 53.2446L54.4367 51.7429C55.1118 51.1908 55.4265 50.1297 55.3707 48.585Z" fill="white"/>
<path id="Vector_74" d="M52.4499 57.7783C52.1479 56.7679 51.7063 54.2228 54.0209 52.1006L49.5719 53.1085L47.374 53.6074L52.4499 57.7808V57.7783Z" fill="white"/>
<path id="Vector_75" d="M52.829 58.6172L52.5498 64.1455L57.9505 67.8403L52.829 58.6172Z" fill="white"/>
<path id="Vector_76" d="M51.4993 70.607L58.07 70.8881C58.5928 70.1942 58.6664 69.2167 58.2603 68.4038L51.4993 70.607Z" fill="white"/>
<path id="Vector_77" d="M54.5477 71.2372C54.8827 71.0852 55.3192 71.1232 55.8395 71.3461C56.6592 71.6956 57.3343 71.6247 57.8495 71.1308L51.4971 70.8599L53.969 71.8906C54.0985 71.5715 54.2913 71.3537 54.5451 71.2372H54.5477Z" fill="white"/>
<path id="Vector_78" d="M47.0839 53.8003L39.8914 65.8065L49.4315 64.4922L52.2283 64.1073L47.0839 53.8003Z" fill="white"/>
<path id="Vector_79" d="M38.6152 54.6294L39.5416 63.6727L39.7345 65.5771L46.8534 53.6924L38.6152 54.6294Z" fill="white"/>
<path id="Vector_80" d="M38.6672 54.3676L46.9003 53.4332L42.4741 44.5469L39.7484 51.582L38.6672 54.3676Z" fill="white"/>
<path id="Vector_81" d="M38.368 54.7295L27.833 61.1973L39.4999 65.7759L38.368 54.7295Z" fill="white"/>
<path id="Vector_82" d="M51.4373 75.9921L53.9042 74.4777C53.8534 74.1966 53.7088 73.3052 53.8153 72.5176L53.0743 73.3735L50.1074 76.8075L51.4373 75.9895V75.9921Z" fill="white"/>
<path id="Vector_83" d="M53.9253 76.5836C54.3085 75.9733 54.0851 75.0768 53.976 74.7324L49.9255 77.2193L49.6641 77.3788L49.7377 77.4725L52.1512 80.5165C52.6817 80.2506 53.0065 79.891 53.1157 79.4453C53.3212 78.607 52.4862 77.2801 52.4862 77.2801C52.537 77.2775 53.6918 76.961 53.9253 76.5862V76.5836Z" fill="white"/>
<path id="Vector_84" d="M50.8298 81.6776C51.0963 81.2218 51.4617 80.8698 51.9211 80.6267L49.7715 77.917L50.1776 79.3605L50.8298 81.6776Z" fill="white"/>
<path id="Vector_85" d="M50.3056 83.8555C50.3106 83.3161 50.3817 82.8223 50.5188 82.3867L44.377 86.9628L49.397 86.8134C49.9807 85.9802 50.2929 84.9571 50.303 83.8555H50.3056Z" fill="white"/>
<path id="Vector_86" d="M45.5117 89.6386C47.2096 89.2663 48.438 88.0837 49.207 87.0732L44.1895 87.2227L45.5092 89.6411L45.5117 89.6386Z" fill="white"/>
<path id="Vector_87" d="M34.7649 89.261C38.5236 90.1778 41.9625 90.317 45.2516 89.689L43.9167 87.2427L34.7649 89.261Z" fill="white"/>
<path id="Vector_88" d="M11.2987 88.9508H0.37793L9.36222 72.8218C9.36222 72.8218 11.0956 87.2743 11.2987 88.9508Z" fill="white"/>
<path id="Vector_89" d="M16.6316 96.6426L0.820312 89.21H11.3756C11.8908 89.9368 16.6316 96.6426 16.6316 96.6426Z" fill="white"/>
<path id="Vector_90" d="M9.28704 72.4326L0.353516 88.473L2.91429 64.3491L6.98767 69.5153L9.28704 72.4326Z" fill="white"/>
<path id="Vector_91" d="M9.16836 71.8704L6.4883 61.4419L3.02148 64.0883L9.16836 71.8704Z" fill="white"/>
<path id="Vector_92" d="M18.5883 5.86764L0.256836 0L1.61209 2.0614L7.57116 11.1072L18.5883 5.86764Z" fill="white"/>
<path id="Vector_93" d="M18.9415 6.14111L9.10449 29.0697L26.6086 20.9457L18.9415 6.14111Z" fill="white"/>
<path id="Vector_94" d="M9.00684 29.6182L9.7403 39.5782L9.93318 42.1891L23.5035 42.0777L9.00684 29.6182Z" fill="white"/>
<path id="Vector_95" d="M50.9717 70.5135L58.0373 68.209L56.4485 67.1201L52.4995 64.418L50.9717 70.5135Z" fill="white"/>
<path id="Vector_96" d="M20.9326 72.9191L39.2946 65.9676L27.6048 61.3813L20.9326 72.9191Z" fill="white"/>
<path id="Vector_97" d="M21.2822 89.3799H33.6216L17.3027 96.691L21.2822 89.3799Z" fill="white"/>
<path id="Vector_98" d="M34.0664 89.1256H21.6711L29.9575 84.2355L33.0284 82.4248L33.8507 87.7378L34.0664 89.1256Z" fill="white"/>
<path id="Vector_99" d="M15.9067 89.2859L11.6836 89.21L14.2672 92.8617L16.9955 96.7211L20.9953 89.3771L15.9067 89.2859Z" fill="white"/>
<path id="Vector_100" d="M51.1519 35.793L35.8533 38.2849L42.457 44.0588L51.1519 35.793Z" fill="white"/>
<path id="Vector_101" d="M42.6152 44.2595L47.0541 53.1736L48.8433 45.9537L51.3102 35.9937L42.6152 44.2595Z" fill="white"/>
<path id="Vector_102" d="M52.5958 58.2251L47.4717 54.0137L52.3191 63.7205L52.5958 58.2251Z" fill="white"/>
<path id="Vector_103" d="M30.7952 55.5204L27.8867 60.8689L29.5288 59.861L37.9192 54.7075L30.7952 55.5204Z" fill="white"/>
<path id="Vector_104" d="M26.9127 61.0981H6.94165L13.9616 55.7319L26.9127 61.0981Z" fill="white"/>
<path id="Vector_105" d="M27.104 61.3506L13.5058 69.7557L9.52122 72.2223L6.72949 61.3506H27.104Z" fill="white"/>
<path id="Vector_106" d="M42.1361 44.7144L31.0732 55.2341L31.9996 55.1277L38.3825 54.4009L42.1361 44.7144Z" fill="white"/>
<path id="Vector_107" d="M49.6934 76.8985L53.8327 72.1071L50.8862 70.8789L49.6934 76.8985Z" fill="white"/>
<path id="Vector_108" d="M40.1814 79.9841L47.0541 77.9354L49.3687 77.2465L50.026 73.924L50.5996 71.0396L40.1814 79.9841Z" fill="white"/>
<path id="Vector_109" d="M46.1801 83.4568L44.3857 86.6401L50.6494 81.9754L49.8981 79.3138L49.4388 77.6753L46.1801 83.4568Z" fill="white"/>
<path id="Vector_110" d="M11.5157 88.6841L27.1849 61.5947L16.9317 67.9359L9.57422 72.4842L11.5157 88.6841Z" fill="white"/>
<path id="Vector_111" d="M20.532 73.6079L11.6543 88.957L14.6059 89.0101L21.0751 89.1241L20.9736 86.2042L20.532 73.6079Z" fill="white"/>
<path id="Vector_112" d="M42.4595 82.9829L34.7314 89.0101L43.8985 86.9867L49.0555 77.8345L42.4595 82.9829Z" fill="white"/>
<path id="Vector_113" d="M48.8706 77.6602L48.0102 77.9159L33.2673 82.3122L33.5186 83.938L34.3053 89.0206L48.8706 77.6602Z" fill="white"/>
<path id="Vector_114" d="M21.4736 73.6079L27.5165 77.9941L33.1481 82.0814L33.6811 81.9219L39.2493 80.2631L21.4736 73.6079Z" fill="white"/>
<path id="Vector_115" d="M21.2564 87.1078L21.325 89.035L32.8929 82.2101L20.7793 73.4175L21.2564 87.1078Z" fill="white"/>
<path id="Vector_116" d="M18.6801 6.10303L7.65527 11.3477L7.90399 14.7057L8.94454 28.7961L18.6801 6.10303Z" fill="white"/>
<path id="Vector_117" d="M38.2245 28.3193L24.3369 41.9008L35.4632 38.1046L38.2245 28.3193Z" fill="white"/>
<path id="Vector_118" d="M35.994 37.1518L35.7402 38.0482L51.1709 35.5335L50.9678 35.412L38.5497 28.0933L35.994 37.1518Z" fill="white"/>
<path id="Vector_119" d="M35.6333 38.4321L30.9609 54.9917L42.27 44.2365L35.6333 38.4321Z" fill="white"/>
<path id="Vector_120" d="M50.7064 70.5293L52.252 64.3628L40.1182 66.0342L50.7064 70.5293Z" fill="white"/>
<path id="Vector_121" d="M21.0049 73.1611L39.5217 66.1514V80.0924L21.0049 73.1611Z" fill="white"/>
<path id="Vector_122" d="M50.5546 70.7407L47.3568 73.4859L39.7734 79.9993V66.1621L50.5546 70.7407Z" fill="white"/>
<path id="Vector_123" d="M38.1461 28.0381L27.6771 28.542L9.18066 29.4335L23.8347 42.0323L32.6718 33.3916L38.1461 28.0381Z" fill="white"/>
<path id="Vector_124" d="M24.0225 42.2734L30.6769 55.0597L35.3772 38.4014L28.2177 40.8426L24.0225 42.2734Z" fill="white"/>
</g>
</g>
<g id="Vector">
<path d="M8.54046 103.251C13.2107 103.251 17.0809 107.14 17.0809 111.886C17.0809 116.808 13.2539 120.522 8.54046 120.522C3.82699 120.522 0 116.808 0 111.886C0 107.14 3.87023 103.251 8.54046 103.251ZM8.54046 118.588C12.0647 118.588 15.0485 115.666 15.0485 111.886C15.0485 108.239 12.3674 105.184 8.54046 105.184C4.71347 105.184 2.03241 108.239 2.03241 111.886C2.03241 115.666 5.01617 118.588 8.54046 118.588Z" fill="white"/>
<path d="M21.4728 109.887V111.183H21.516C22.0782 110.282 23.0944 109.579 24.1971 109.579C25.516 109.579 26.4673 110.26 27.1159 111.403C27.743 110.304 28.9538 109.579 30.2294 109.579C32.8889 109.579 33.5807 111.688 33.5807 114.018V120.17H31.6348V114.347C31.6348 113.029 31.4618 111.337 29.7538 111.337C27.6781 111.337 27.5268 113.534 27.5268 115.116V120.17H25.5808V114.721C25.5808 113.38 25.516 111.337 23.7214 111.337C21.6457 111.337 21.4728 113.512 21.4728 115.116V120.17H19.5268V109.887H21.4728Z" fill="white"/>
<path d="M38.8694 109.887V111.271H38.9126C39.518 110.172 40.7288 109.579 41.9612 109.579C44.8153 109.579 45.5504 111.535 45.5504 114.04V120.17H43.6045V114.281C43.6045 112.523 43.3666 111.337 41.3775 111.337C38.8694 111.337 38.8694 113.578 38.8694 115.446V120.17H36.9234V109.887H38.8694Z" fill="white"/>
<path d="M51.376 109.887V120.17H49.4301V109.887H51.376ZM50.403 103.8C51.1382 103.8 51.7436 104.415 51.7436 105.184C51.7436 105.931 51.1382 106.525 50.403 106.525C49.6679 106.525 49.0625 105.931 49.0625 105.184C49.0625 104.415 49.6679 103.8 50.403 103.8Z" fill="white"/>
<path d="M60.455 112.963L65.6009 120.17H63.136L58.3361 113.161H57.4928V120.17H55.4604V103.602H57.9253C59.3739 103.602 60.9306 103.624 62.2279 104.371C63.5901 105.184 64.3684 106.744 64.3684 108.326C64.3684 110.7 62.8117 112.677 60.455 112.963ZM57.4928 105.448V111.447H58.1415C60.2171 111.447 62.4658 111.051 62.4658 108.414C62.4658 105.821 60.0442 105.448 58.0334 105.448H57.4928Z" fill="white"/>
<path d="M76.6271 115.358H68.9083C68.9299 117.116 70.0974 118.764 71.9569 118.764C73.4488 118.764 74.2487 117.995 74.9839 116.764L76.6271 117.709C75.6758 119.489 73.9028 120.522 71.9353 120.522C68.8434 120.522 66.9623 118.149 66.9623 115.116C66.9623 111.952 68.6272 109.579 71.892 109.579C75.1136 109.579 76.6271 111.996 76.6271 115.05V115.358ZM69.0164 113.864H74.6812C74.4433 112.326 73.4488 111.293 71.892 111.293C70.3785 111.293 69.2542 112.392 69.0164 113.864Z" fill="white"/>
<path d="M83.4223 118.764C85.5412 118.764 86.7088 117.05 86.7088 115.028C86.7088 113.029 85.5196 111.337 83.4223 111.337C81.4115 111.337 80.2223 113.117 80.2223 115.028C80.2223 116.962 81.3683 118.764 83.4223 118.764ZM88.5466 109.887V120.17H86.6006V118.566H86.5574C85.779 119.731 84.5682 120.522 83.1196 120.522C80.0277 120.522 78.2764 117.907 78.2764 114.962C78.2764 112.15 80.1142 109.579 83.0547 109.579C84.5466 109.579 85.7574 110.37 86.5574 111.6H86.6006V109.887H88.5466Z" fill="white"/>
<path d="M93.8582 101.097V120.17H91.9123V101.097H93.8582Z" fill="white"/>
<path d="M99.7539 109.887V120.17H97.808V109.887H99.7539ZM98.7809 103.8C99.5161 103.8 100.121 104.415 100.121 105.184C100.121 105.931 99.5161 106.525 98.7809 106.525C98.0458 106.525 97.4404 105.931 97.4404 105.184C97.4404 104.415 98.0458 103.8 98.7809 103.8Z" fill="white"/>
<path d="M105.849 111.732V120.17H103.903V111.732H102.844V109.887H103.903V105.953H105.849V109.887H107.752V111.732H105.849Z" fill="white"/>
<path d="M112.578 118.412L107.951 109.887H110.222L113.638 116.413L116.816 109.887H119L110.805 126.059H108.6L112.578 118.412Z" fill="white"/>
<path d="M98.5203 121.672V125.749H99.8956V126.274H97.9557V121.672H98.5203Z" fill="white"/>
<path d="M100.801 121.672V125.749H102.176V126.274H100.237V121.672H100.801Z" fill="white"/>
<path d="M105.815 121.885V122.551C105.49 122.258 105.046 122.099 104.62 122.099C103.605 122.099 102.83 122.96 102.83 123.979C102.83 124.986 103.599 125.847 104.607 125.847C105.052 125.847 105.478 125.676 105.815 125.37V126.048C105.466 126.256 105.022 126.372 104.626 126.372C103.334 126.372 102.265 125.328 102.265 123.997C102.265 122.636 103.34 121.574 104.674 121.574C105.07 121.574 105.472 121.672 105.815 121.885Z" fill="white"/>
</g>
</g>
</svg>
