<svg width="87" height="87" viewBox="0 0 87 87" fill="none" xmlns="http://www.w3.org/2000/svg">
<g id="Group 552">
<g id="Group 549">
<path id="Vector" fill-rule="evenodd" clip-rule="evenodd" d="M43.5 5.8C23.6546 5.8 7.39067 21.1339 5.90988 40.6C5.78839 42.1971 4.50163 43.5 2.9 43.5C1.29837 43.5 -0.0100418 42.1976 0.0951712 40.5994C1.58775 17.9274 20.4503 0 43.5 0C56.1051 0 67.4586 5.36414 75.4 13.9255V2.9C75.4 1.29838 76.6984 0 78.3 0C79.9016 0 81.2 1.29838 81.2 2.9V20.1739C81.2 21.8452 79.8452 23.2 78.1739 23.2H60.9C59.2984 23.2 58 21.9016 58 20.3C58 18.6984 59.2984 17.4 60.9 17.4H70.7049C63.8406 10.2469 54.1903 5.8 43.5 5.8ZM43.5 81.2C63.3457 81.2 79.6094 65.8663 81.0901 46.3999C81.2116 44.8029 82.4984 43.5 84.1 43.5C85.7016 43.5 87.01 44.8024 86.9048 46.4006C85.4122 69.0724 66.5495 87 43.5 87C30.8949 87 19.5412 81.6356 11.6 73.0742V84.1C11.6 85.7016 10.3016 87 8.7 87C7.09837 87 5.8 85.7016 5.8 84.1V66.8261C5.8 65.1548 7.15483 63.8 8.82609 63.8H26.1C27.7016 63.8 29 65.0984 29 66.7C29 68.3016 27.7016 69.6 26.1 69.6H16.2954C23.1594 76.7531 32.8097 81.2 43.5 81.2Z" fill="url(#paint0_linear_1215_9431)"/>
</g>
<g id="SEO">
<path d="M26.5686 39.2544C26.485 38.411 26.126 37.7558 25.4917 37.2888C24.8574 36.8218 23.9966 36.5883 22.9093 36.5883C22.1704 36.5883 21.5466 36.6929 21.0378 36.902C20.5289 37.1041 20.1386 37.3864 19.8668 37.7488C19.6019 38.1113 19.4695 38.5225 19.4695 38.9826C19.4555 39.3659 19.5357 39.7005 19.7099 39.9863C19.8911 40.2721 20.1386 40.5195 20.4523 40.7286C20.7659 40.9307 21.1284 41.1085 21.5396 41.2618C21.9508 41.4082 22.39 41.5337 22.857 41.6382L24.7808 42.0983C25.7148 42.3074 26.5721 42.5862 27.3528 42.9347C28.1334 43.2832 28.8095 43.7119 29.3811 44.2207C29.9527 44.7295 30.3953 45.329 30.7089 46.019C31.0296 46.7091 31.1934 47.5002 31.2003 48.3924C31.1934 49.7028 30.8588 50.8389 30.1966 51.8008C29.5414 52.7557 28.5935 53.4981 27.3528 54.0278C26.119 54.5506 24.6309 54.8119 22.8883 54.8119C21.1597 54.8119 19.6542 54.5471 18.3716 54.0173C17.0961 53.4876 16.0993 52.7034 15.3814 51.6649C14.6705 50.6194 14.2975 49.3264 14.2627 47.786H18.6435C18.6923 48.5039 18.8979 49.1033 19.2603 49.5843C19.6298 50.0582 20.1212 50.4172 20.7345 50.6612C21.3549 50.8982 22.0554 51.0167 22.8361 51.0167C23.6028 51.0167 24.2684 50.9051 24.833 50.6821C25.4046 50.459 25.8472 50.1489 26.1609 49.7516C26.4745 49.3543 26.6314 48.8977 26.6314 48.3819C26.6314 47.901 26.4885 47.4967 26.2027 47.1691C25.9239 46.8415 25.5126 46.5627 24.969 46.3327C24.4322 46.1026 23.7736 45.8935 22.9929 45.7053L20.6614 45.1198C18.8561 44.6807 17.4307 43.9942 16.3851 43.0601C15.3396 42.1261 14.8203 40.868 14.8273 39.2858C14.8203 37.9893 15.1653 36.8567 15.8624 35.8878C16.5664 34.9189 17.5317 34.1627 18.7585 33.619C19.9852 33.0753 21.3793 32.8035 22.9406 32.8035C24.5298 32.8035 25.9169 33.0753 27.1018 33.619C28.2938 34.1627 29.2208 34.9189 29.883 35.8878C30.5451 36.8567 30.8867 37.9789 30.9076 39.2544H26.5686Z" fill="url(#paint1_linear_1215_9431)"/>
<path d="M34.2454 54.5087V33.0962H48.6738V36.8288H38.7726V41.931H47.9315V45.6635H38.7726V50.7762H48.7156V54.5087H34.2454Z" fill="url(#paint2_linear_1215_9431)"/>
<path d="M71.95 43.8025C71.95 46.1375 71.5074 48.124 70.6222 49.762C69.7439 51.4 68.545 52.6512 67.0255 53.5155C65.513 54.3728 63.8123 54.8015 61.9233 54.8015C60.0205 54.8015 58.3127 54.3693 56.8002 53.505C55.2877 52.6407 54.0923 51.3896 53.214 49.7516C52.3358 48.1136 51.8967 46.1305 51.8967 43.8025C51.8967 41.4675 52.3358 39.4809 53.214 37.8429C54.0923 36.2049 55.2877 34.9573 56.8002 34.0999C58.3127 33.2356 60.0205 32.8035 61.9233 32.8035C63.8123 32.8035 65.513 33.2356 67.0255 34.0999C68.545 34.9573 69.7439 36.2049 70.6222 37.8429C71.5074 39.4809 71.95 41.4675 71.95 43.8025ZM67.3601 43.8025C67.3601 42.2899 67.1336 41.0144 66.6805 39.9758C66.2344 38.9373 65.6036 38.1496 64.7881 37.6129C63.9726 37.0762 63.0176 36.8079 61.9233 36.8079C60.829 36.8079 59.8741 37.0762 59.0586 37.6129C58.243 38.1496 57.6088 38.9373 57.1557 39.9758C56.7096 41.0144 56.4866 42.2899 56.4866 43.8025C56.4866 45.315 56.7096 46.5906 57.1557 47.6291C57.6088 48.6677 58.243 49.4553 59.0586 49.992C59.8741 50.5287 60.829 50.7971 61.9233 50.7971C63.0176 50.7971 63.9726 50.5287 64.7881 49.992C65.6036 49.4553 66.2344 48.6677 66.6805 47.6291C67.1336 46.5906 67.3601 45.315 67.3601 43.8025Z" fill="url(#paint3_linear_1215_9431)"/>
</g>
</g>
<defs>
<linearGradient id="paint0_linear_1215_9431" x1="7.97821e-07" y1="44.2373" x2="87" y2="44.2373" gradientUnits="userSpaceOnUse">
<stop stop-color="#3C7FE3"/>
<stop offset="1" stop-color="#3EDCFF"/>
</linearGradient>
<linearGradient id="paint1_linear_1215_9431" x1="14.2627" y1="43.9942" x2="71.95" y2="43.9942" gradientUnits="userSpaceOnUse">
<stop stop-color="#3C7FE3"/>
<stop offset="1" stop-color="#3EDCFF"/>
</linearGradient>
<linearGradient id="paint2_linear_1215_9431" x1="14.2627" y1="43.9942" x2="71.95" y2="43.9942" gradientUnits="userSpaceOnUse">
<stop stop-color="#3C7FE3"/>
<stop offset="1" stop-color="#3EDCFF"/>
</linearGradient>
<linearGradient id="paint3_linear_1215_9431" x1="14.2627" y1="43.9942" x2="71.95" y2="43.9942" gradientUnits="userSpaceOnUse">
<stop stop-color="#3C7FE3"/>
<stop offset="1" stop-color="#3EDCFF"/>
</linearGradient>
</defs>
</svg>
