<svg width="79" height="104" viewBox="0 0 79 104" fill="none" xmlns="http://www.w3.org/2000/svg">
<path d="M72.38 103.2H6.5C2.92 103.2 0 100.18 0 96.48V6.72C0 3.01 2.92 0 6.5 0H72.37C75.95 0 78.87 3.02 78.87 6.72V96.48C78.87 100.19 75.95 103.2 72.37 103.2H72.38ZM6.5 3.1C4.57 3.1 3 4.72 3 6.72V96.48C3 98.48 4.57 100.1 6.5 100.1H72.37C74.3 100.1 75.87 98.48 75.87 96.48V6.72C75.87 4.72 74.3 3.1 72.37 3.1H6.5Z" fill="url(#paint0_linear_450_2393)"/>
<path d="M67.0601 7.41992H11.8301V13.5599H67.0601V7.41992Z" fill="url(#paint1_linear_450_2393)"/>
<path d="M67.0601 17.5586H11.8301V39.7186H67.0601V17.5586Z" fill="url(#paint2_linear_450_2393)"/>
<path d="M25.3801 76.6094H11.8301V89.9594H25.3801V76.6094Z" fill="url(#paint3_linear_450_2393)"/>
<path d="M67.05 76.6094H53.5V89.9594H67.05V76.6094Z" fill="url(#paint4_linear_450_2393)"/>
<path d="M46.2209 76.6094H32.6709V89.9594H46.2209V76.6094Z" fill="url(#paint5_linear_450_2393)"/>
<path d="M76.4107 93.9805H2.4707V101.65H76.4107V93.9805Z" fill="url(#paint6_linear_450_2393)"/>
<path d="M67.0601 43.7188H11.8301V47.4588H67.0601V43.7188Z" fill="url(#paint7_linear_450_2393)"/>
<path d="M67.0601 68.8496H11.8301V72.5896H67.0601V68.8496Z" fill="url(#paint8_linear_450_2393)"/>
<path d="M30.9301 51.5996H11.8301V53.4696H30.9301V51.5996Z" fill="url(#paint9_linear_450_2393)"/>
<path d="M30.9301 55.0703H11.8301V56.9403H30.9301V55.0703Z" fill="url(#paint10_linear_450_2393)"/>
<path d="M30.9301 58.5391H11.8301V60.4091H30.9301V58.5391Z" fill="url(#paint11_linear_450_2393)"/>
<path d="M30.9301 62.0098H11.8301V63.8798H30.9301V62.0098Z" fill="url(#paint12_linear_450_2393)"/>
<path d="M67.06 51.5996H47.96V53.4696H67.06V51.5996Z" fill="url(#paint13_linear_450_2393)"/>
<path d="M67.06 55.0703H47.96V56.9403H67.06V55.0703Z" fill="url(#paint14_linear_450_2393)"/>
<path d="M67.06 58.5391H47.96V60.4091H67.06V58.5391Z" fill="url(#paint15_linear_450_2393)"/>
<path d="M67.06 62.0098H47.96V63.8798H67.06V62.0098Z" fill="url(#paint16_linear_450_2393)"/>
<defs>
<linearGradient id="paint0_linear_450_2393" x1="7.23266e-07" y1="52.4746" x2="78.87" y2="52.4746" gradientUnits="userSpaceOnUse">
<stop stop-color="#3C7FE3"/>
<stop offset="1" stop-color="#3EDCFF"/>
</linearGradient>
<linearGradient id="paint1_linear_450_2393" x1="11.8301" y1="10.542" x2="67.0601" y2="10.542" gradientUnits="userSpaceOnUse">
<stop stop-color="#3C7FE3"/>
<stop offset="1" stop-color="#3EDCFF"/>
</linearGradient>
<linearGradient id="paint2_linear_450_2393" x1="11.8301" y1="28.8264" x2="67.0601" y2="28.8264" gradientUnits="userSpaceOnUse">
<stop stop-color="#3C7FE3"/>
<stop offset="1" stop-color="#3EDCFF"/>
</linearGradient>
<linearGradient id="paint3_linear_450_2393" x1="11.8301" y1="83.3975" x2="25.3801" y2="83.3975" gradientUnits="userSpaceOnUse">
<stop stop-color="#3C7FE3"/>
<stop offset="1" stop-color="#3EDCFF"/>
</linearGradient>
<linearGradient id="paint4_linear_450_2393" x1="53.5" y1="83.3975" x2="67.05" y2="83.3975" gradientUnits="userSpaceOnUse">
<stop stop-color="#3C7FE3"/>
<stop offset="1" stop-color="#3EDCFF"/>
</linearGradient>
<linearGradient id="paint5_linear_450_2393" x1="32.6709" y1="83.3975" x2="46.2209" y2="83.3975" gradientUnits="userSpaceOnUse">
<stop stop-color="#3C7FE3"/>
<stop offset="1" stop-color="#3EDCFF"/>
</linearGradient>
<linearGradient id="paint6_linear_450_2393" x1="2.4707" y1="97.8805" x2="76.4107" y2="97.8805" gradientUnits="userSpaceOnUse">
<stop stop-color="#3C7FE3"/>
<stop offset="1" stop-color="#3EDCFF"/>
</linearGradient>
<linearGradient id="paint7_linear_450_2393" x1="11.8301" y1="45.6204" x2="67.0601" y2="45.6204" gradientUnits="userSpaceOnUse">
<stop stop-color="#3C7FE3"/>
<stop offset="1" stop-color="#3EDCFF"/>
</linearGradient>
<linearGradient id="paint8_linear_450_2393" x1="11.8301" y1="70.7513" x2="67.0601" y2="70.7513" gradientUnits="userSpaceOnUse">
<stop stop-color="#3C7FE3"/>
<stop offset="1" stop-color="#3EDCFF"/>
</linearGradient>
<linearGradient id="paint9_linear_450_2393" x1="11.8301" y1="52.5505" x2="30.9301" y2="52.5505" gradientUnits="userSpaceOnUse">
<stop stop-color="#3C7FE3"/>
<stop offset="1" stop-color="#3EDCFF"/>
</linearGradient>
<linearGradient id="paint10_linear_450_2393" x1="11.8301" y1="56.0212" x2="30.9301" y2="56.0212" gradientUnits="userSpaceOnUse">
<stop stop-color="#3C7FE3"/>
<stop offset="1" stop-color="#3EDCFF"/>
</linearGradient>
<linearGradient id="paint11_linear_450_2393" x1="11.8301" y1="59.4899" x2="30.9301" y2="59.4899" gradientUnits="userSpaceOnUse">
<stop stop-color="#3C7FE3"/>
<stop offset="1" stop-color="#3EDCFF"/>
</linearGradient>
<linearGradient id="paint12_linear_450_2393" x1="11.8301" y1="62.9606" x2="30.9301" y2="62.9606" gradientUnits="userSpaceOnUse">
<stop stop-color="#3C7FE3"/>
<stop offset="1" stop-color="#3EDCFF"/>
</linearGradient>
<linearGradient id="paint13_linear_450_2393" x1="47.96" y1="52.5505" x2="67.06" y2="52.5505" gradientUnits="userSpaceOnUse">
<stop stop-color="#3C7FE3"/>
<stop offset="1" stop-color="#3EDCFF"/>
</linearGradient>
<linearGradient id="paint14_linear_450_2393" x1="47.96" y1="56.0212" x2="67.06" y2="56.0212" gradientUnits="userSpaceOnUse">
<stop stop-color="#3C7FE3"/>
<stop offset="1" stop-color="#3EDCFF"/>
</linearGradient>
<linearGradient id="paint15_linear_450_2393" x1="47.96" y1="59.4899" x2="67.06" y2="59.4899" gradientUnits="userSpaceOnUse">
<stop stop-color="#3C7FE3"/>
<stop offset="1" stop-color="#3EDCFF"/>
</linearGradient>
<linearGradient id="paint16_linear_450_2393" x1="47.96" y1="62.9606" x2="67.06" y2="62.9606" gradientUnits="userSpaceOnUse">
<stop stop-color="#3C7FE3"/>
<stop offset="1" stop-color="#3EDCFF"/>
</linearGradient>
</defs>
</svg>
