<svg width="108" height="102" viewBox="0 0 108 102" fill="none" xmlns="http://www.w3.org/2000/svg">
<path d="M14.4799 68.9409L25.9599 74.6809C25.9599 74.6809 25.9799 74.6809 25.9899 74.6809C26.0399 74.7009 26.0899 74.7209 26.1399 74.7409C26.1599 74.7409 26.1799 74.7509 26.1999 74.7609C26.2699 74.7809 26.3499 74.7909 26.4299 74.7909C26.5099 74.7909 26.5799 74.7909 26.6599 74.7609C26.6799 74.7609 26.6999 74.7509 26.7199 74.7409C26.7699 74.7209 26.8299 74.7109 26.8699 74.6809C26.8699 74.6809 26.8899 74.6809 26.8999 74.6809L38.3799 68.9409C38.7299 68.7609 38.9499 68.4009 38.9499 68.0109V54.6109C38.9499 54.5209 38.9399 54.4309 38.9099 54.3509C38.9099 54.3309 38.8999 54.3109 38.8899 54.2809C38.8699 54.2109 38.8399 54.1509 38.8099 54.0909C38.8099 54.0709 38.7899 54.0609 38.7799 54.0409C38.7299 53.9709 38.6799 53.9009 38.6199 53.8509C38.6099 53.8409 38.5899 53.8309 38.5799 53.8109C38.5299 53.7609 38.4699 53.7309 38.4099 53.6909C38.3999 53.6909 38.3899 53.6709 38.3799 53.6709L26.8999 47.9309C26.6099 47.7809 26.2599 47.7809 25.9699 47.9309L14.4899 53.6709C14.4899 53.6709 14.4699 53.6909 14.4599 53.6909C14.3999 53.7209 14.3399 53.7609 14.2899 53.8109C14.2799 53.8209 14.2599 53.8309 14.2499 53.8509C14.1899 53.9109 14.1399 53.9709 14.0899 54.0409C14.0899 54.0509 14.0699 54.0709 14.0599 54.0909C14.0299 54.1509 13.9999 54.2109 13.9799 54.2809C13.9799 54.3009 13.9699 54.3209 13.9599 54.3409C13.9399 54.4209 13.9199 54.5109 13.9199 54.6009V68.0009C13.9199 68.3909 14.1399 68.7509 14.4899 68.9309L14.4799 68.9409ZM15.9899 56.3009L25.3899 61.0009V72.0709L15.9899 67.3709V56.3009ZM27.4699 72.0709V61.0009L36.8699 56.3009V67.3709L27.4699 72.0709ZM26.4299 50.0409L35.5899 54.6209L26.4299 59.2009L17.2699 54.6209L26.4299 50.0409Z" fill="url(#paint0_linear_450_2404)"/>
<path d="M51.1798 89.2012C51.1798 89.2012 51.1598 89.1712 51.1498 89.1612L43.6998 80.1812C42.7798 79.0312 41.5398 78.4512 40.0198 78.4512H12.8398C11.4098 78.4512 9.91977 79.1612 9.16977 80.1712L1.66977 89.2012C0.939765 90.1712 0.509766 91.3412 0.509766 92.3112V96.7112C0.509766 99.3912 2.68977 101.581 5.37977 101.581H47.4798C50.1598 101.581 52.3498 99.4012 52.3498 96.7112V92.3112C52.3498 91.3312 51.9098 90.1712 51.1898 89.2012H51.1798ZM10.7998 81.4512C11.1398 80.9912 11.9498 80.5312 12.8398 80.5312H40.0198C40.9198 80.5312 41.5498 80.8212 42.0898 81.4912L49.0898 89.9312H3.76977L10.7998 81.4512ZM50.2598 96.7112C50.2598 98.2512 49.0098 99.5012 47.4698 99.5012H5.36977C3.82977 99.5012 2.57977 98.2512 2.57977 96.7112V92.3112C2.57977 92.1212 2.62977 91.9112 2.69977 91.6812C2.88977 91.8812 3.15977 92.0112 3.45977 92.0112H49.3898C49.6898 92.0112 49.9598 91.8812 50.1498 91.6812C50.2198 91.9112 50.2698 92.1212 50.2698 92.3112V96.7112H50.2598Z" fill="url(#paint1_linear_450_2404)"/>
<path d="M93.0492 19.6098C93.0392 18.9998 93.0292 18.3898 93.0192 17.7798C92.9492 6.70976 86.3392 0.0697661 75.3292 0.0297661C72.2392 0.00976608 69.1592 0.00976562 66.0692 0.00976562H52.9792V0.0497646H50.9792C48.2892 0.0497646 45.6092 0.0397661 42.9192 0.0297661C40.2392 0.0197661 37.5592 0.00976562 34.8792 0.00976562C30.8992 0.00976562 27.6292 0.0297653 24.5792 0.0797653C16.7792 0.209765 10.4492 5.44976 8.81922 13.1198C7.96922 17.1298 8.27922 21.4198 8.57922 25.6198C9.09922 32.7698 14.5192 38.7098 21.7792 40.0598C23.6692 40.4198 25.6192 40.4598 27.4492 40.4598C27.9292 40.4598 29.8692 40.4598 30.3592 40.4598C30.8992 40.4598 31.4492 40.4598 31.9992 40.4798H32.2792C35.7292 40.4798 38.3192 38.9098 40.1892 35.6598C40.6992 34.7898 41.2992 34.1498 42.0292 33.7298C42.7592 33.3098 43.6292 33.1098 44.6692 33.1098C46.7292 33.1298 48.7892 33.1498 50.8492 33.1498C52.9092 33.1498 54.8192 33.1398 56.8892 33.1098C58.8792 33.1098 60.3292 33.9598 61.3292 35.6898C62.7692 38.1998 65.0192 39.7398 68.0092 40.2598C69.3392 40.4998 70.7992 40.6098 72.4592 40.6098C73.9892 40.6098 75.5292 40.5198 77.3692 40.3798C85.7592 39.7398 91.3792 34.5598 92.7792 26.1598C93.1292 24.0498 93.0892 21.8998 93.0492 19.6198V19.6098ZM89.0092 25.6998C87.9792 32.2898 83.2592 36.5398 76.6792 36.7798C75.9392 36.7998 75.1892 36.8098 74.4392 36.8098C73.8192 36.8098 73.2092 36.8098 72.5992 36.7998C71.9992 36.7898 71.3992 36.7898 70.8092 36.7898C70.4492 36.7898 69.6292 36.7998 69.6292 36.7998C67.5292 36.7998 64.7992 35.9898 63.6892 32.1298C62.9992 29.7398 62.6392 29.4598 60.1892 29.4498C56.9892 29.4398 53.7992 29.4298 50.5992 29.4298C47.3992 29.4298 44.4492 29.4398 41.3792 29.4498C38.7892 29.4698 38.4992 29.6898 37.8492 32.0498C36.7792 35.9598 34.0092 36.7798 31.8692 36.7798H31.5492C31.2492 36.7698 30.9492 36.7598 30.6492 36.7598C29.9792 36.7598 29.3092 36.7798 28.6392 36.7998C27.9292 36.8298 27.2192 36.8498 26.5092 36.8498C25.2292 36.8498 23.5192 36.7898 21.7492 36.3298C16.0592 34.8498 12.1992 29.9898 12.1592 24.2398C12.1492 23.4098 12.1192 22.5798 12.0892 21.7398C11.9992 19.2298 11.9092 16.6198 12.4292 13.9898C13.6992 7.51977 18.7292 3.76976 26.2192 3.70976C29.5392 3.68976 32.8592 3.67977 36.1692 3.67977C38.6892 3.67977 48.7492 3.69977 51.2692 3.69977H74.6892C83.8392 3.69977 89.0392 8.69977 89.3392 17.7698C89.4192 20.2498 89.4292 22.9298 89.0092 25.6998Z" fill="url(#paint2_linear_450_2404)"/>
<path d="M107.569 81.8701C107.239 79.3601 106.919 76.8601 106.599 74.3501C106.199 71.1801 105.799 68.0001 105.369 64.8301C105.159 63.3101 104.909 62.2901 104.189 61.5601C102.989 60.3401 101.799 59.1201 100.609 57.8901C98.0088 55.2201 95.3288 52.4501 92.5988 49.8601C91.1988 48.5401 89.5288 47.8301 87.7688 47.8301C85.5988 47.8301 83.5288 48.9301 82.0888 50.8501C81.2788 51.9201 79.9188 53.3501 77.5088 53.3501H77.3688C75.3788 53.3501 73.6688 54.0601 72.2888 55.4701C71.4288 56.3401 70.5388 56.7701 69.5688 56.7701C68.0888 56.7701 67.0788 55.6901 66.7488 55.3401C64.8688 53.3401 62.9488 51.4201 61.4988 49.9801C60.2088 48.7101 58.7388 47.8601 55.7088 47.8601H55.5488C53.4988 47.9401 51.4688 49.2401 50.0988 51.3401C47.5588 55.2601 49.4488 58.6401 51.4888 60.7901C55.0688 64.5701 58.9088 68.3201 62.2888 71.6401C64.1688 73.4801 64.6188 75.5401 63.6188 77.7801C63.5188 78.0001 63.4388 78.3101 63.3588 78.6401C63.2288 79.1101 63.0888 79.6601 62.8288 80.2101C62.3088 81.3201 62.2988 82.2501 63.7788 83.7101C65.6588 85.5701 67.5288 87.4501 69.3988 89.3201C70.4488 90.3801 71.4988 91.4301 72.5588 92.4901C73.3788 93.3101 74.2788 93.8801 75.2288 94.1801C77.7488 95.0001 80.2788 95.7901 82.7988 96.5801C85.3088 97.3701 87.8188 98.1501 90.3188 98.9601C90.6088 99.0501 90.8888 99.1001 91.1388 99.1001C91.4488 99.1001 91.9388 99.0401 92.5188 98.4601C98.2988 92.7401 102.709 88.3501 106.789 84.2001C107.439 83.5501 107.689 82.7901 107.569 81.8701ZM101.839 84.3801C98.9288 87.2101 95.9288 90.1401 93.0388 93.0701C91.9588 94.1701 90.7188 94.7301 89.3588 94.7301C88.7588 94.7301 88.1388 94.6301 87.4788 94.4101C86.2688 94.0201 85.0488 93.6701 83.8288 93.3101C81.7488 92.7101 79.5988 92.0901 77.5188 91.2901C74.3188 90.0601 72.2288 87.7101 70.2088 85.4501C69.4488 84.6001 68.7288 83.7901 67.9688 83.0601C67.0188 82.1501 66.9688 81.1901 67.0288 80.7001C67.1888 79.3001 68.3988 78.5901 68.8588 78.3301C71.0788 77.0401 71.1788 76.4901 71.1888 76.4701C71.1888 76.4401 71.2388 75.9001 69.4788 74.0701C66.5588 71.0601 63.6288 68.0601 60.6888 65.0601C58.8588 63.1901 57.0288 61.3201 55.1588 59.3901C54.5388 58.7601 53.8988 58.1101 53.3388 57.3201C52.3288 55.9101 52.5088 54.2001 53.7988 52.7401C54.4888 51.9601 55.3988 51.5401 56.3488 51.5401C57.1388 51.5401 57.9088 51.8201 58.5888 52.3701C59.3088 52.9401 59.9988 53.5601 60.6488 54.2001C62.5188 56.0901 64.3988 57.9801 66.2688 59.8701C68.4388 62.0601 70.6088 64.2501 72.7888 66.4301L73.2288 66.8801C74.1988 67.8601 75.1188 68.7901 76.1188 69.5701C76.6288 69.9701 77.0988 70.1901 77.4288 70.1901C77.6988 70.1901 78.0288 70.0101 78.3788 69.6401C78.8088 69.2001 79.2788 68.4801 78.3388 67.3101C77.4888 66.2501 76.5688 65.2601 75.5988 64.2101L74.8588 63.4001C72.6288 60.9801 73.5188 59.2101 74.6688 58.1401C75.6788 57.2101 76.6688 57.0101 77.3388 57.0101C78.3688 57.0101 79.3488 57.4501 80.2488 58.3301C80.9688 59.0301 81.6788 59.7301 82.3888 60.4301C83.6588 61.6901 84.9888 63.0001 86.3088 64.2301C86.6688 64.5601 87.1888 64.9601 87.6388 64.9601C87.8588 64.9601 88.1288 64.8601 88.4288 64.6601C88.9488 64.3101 89.2788 63.9101 89.3388 63.5301C89.4088 63.1301 89.1588 62.7101 88.9388 62.4301C88.0888 61.3401 87.0888 60.3301 86.0288 59.2601L85.5088 58.7401C83.6188 56.8301 83.4288 54.6001 84.9988 52.7801C85.9388 51.7001 86.9388 51.4801 87.6288 51.4801C89.1088 51.4801 90.1388 52.4801 90.8288 53.1601C93.4088 55.7001 95.9888 58.3001 98.4888 60.8201L100.429 62.7701C101.189 63.5301 101.649 64.4601 101.789 65.5201C102.249 68.8501 102.709 72.1701 103.169 75.5001L103.739 79.6701C104.019 82.2501 102.379 83.8501 101.839 84.3801Z" fill="url(#paint3_linear_450_2404)"/>
<path d="M81.939 19.66C81.919 20.79 81.259 21.67 80.279 21.85C80.139 21.87 79.999 21.89 79.869 21.89C79.609 21.89 78.929 21.88 78.709 20.73C77.939 16.68 75.499 14.62 71.469 14.62C71.039 14.62 70.579 14.64 70.109 14.69C69.999 14.7 69.889 14.7 69.779 14.7C68.909 14.7 68.249 14.36 67.759 13.64C67.529 13.3 67.449 12.93 67.539 12.56C67.649 12.12 67.969 11.74 68.459 11.48C69.379 10.99 70.439 10.75 71.609 10.75C74.319 10.75 77.329 12.08 79.449 14.23C81.079 15.89 81.959 17.82 81.939 19.66Z" fill="url(#paint4_linear_450_2404)"/>
<defs>
<linearGradient id="paint0_linear_450_2404" x1="13.9199" y1="61.5332" x2="38.9499" y2="61.5332" gradientUnits="userSpaceOnUse">
<stop stop-color="#3C7FE3"/>
<stop offset="1" stop-color="#3EDCFF"/>
</linearGradient>
<linearGradient id="paint1_linear_450_2404" x1="0.509766" y1="90.2122" x2="52.3498" y2="90.2122" gradientUnits="userSpaceOnUse">
<stop stop-color="#3C7FE3"/>
<stop offset="1" stop-color="#3EDCFF"/>
</linearGradient>
<linearGradient id="paint2_linear_450_2404" x1="8.26758" y1="20.6538" x2="93.0748" y2="20.6538" gradientUnits="userSpaceOnUse">
<stop stop-color="#3C7FE3"/>
<stop offset="1" stop-color="#3EDCFF"/>
</linearGradient>
<linearGradient id="paint3_linear_450_2404" x1="48.876" y1="73.8996" x2="107.598" y2="73.8996" gradientUnits="userSpaceOnUse">
<stop stop-color="#3C7FE3"/>
<stop offset="1" stop-color="#3EDCFF"/>
</linearGradient>
<linearGradient id="paint4_linear_450_2404" x1="67.5029" y1="16.4144" x2="81.9394" y2="16.4144" gradientUnits="userSpaceOnUse">
<stop stop-color="#3C7FE3"/>
<stop offset="1" stop-color="#3EDCFF"/>
</linearGradient>
</defs>
</svg>
