<svg width="59" height="61" viewBox="0 0 59 61" fill="none" xmlns="http://www.w3.org/2000/svg">
<path d="M51.2126 46.4355H10.0713V55.4849H51.2126V46.4355Z" fill="white"/>
<path d="M51.2126 1.25391H10.0713V35.986H51.2126V1.25391Z" fill="white"/>
<path d="M0.321289 5.29414V48.3384L10.071 42.8692V0L0.321289 5.29414Z" fill="#7DC6DD"/>
<path d="M32.6521 48.252L31.5371 51.7491H33.8271L32.7028 48.252H32.6521Z" fill="#36697F"/>
<path d="M53.8296 9.33984V42.8694H10.0711L5.19629 45.6063V57.3142C5.19629 59.3508 6.84581 61.0003 8.88237 61.0003H58.11V9.33984H53.8296ZM27.1607 55.4896H25.3592V48.3893H25.3085L23.1706 55.4896H21.4335L19.3693 48.3755H19.3186V55.4896H17.5539V46.4403H20.429L22.3412 53.0522H22.3919L24.2902 46.4403H27.1515V55.4896H27.1607ZM34.9752 55.4896L34.2242 53.2918H31.2108L30.5105 55.4896H28.5246L31.4873 46.4403H33.8879L37.0855 55.4896H34.9752ZM43.4164 55.4896L41.4397 52.4763L39.5506 55.4896H37.4772L40.403 50.9281L37.6154 46.4403H39.7672L41.6194 49.5043L43.4947 46.4403H45.4944L42.6699 50.9143L45.6465 55.4896H43.421H43.4164Z" fill="#36697F"/>
<path d="M50.1436 0H10.0713V42.8738H53.8297V3.68608C53.8297 1.64952 52.1802 0 50.1436 0ZM29.907 34.3451C25.9767 34.3451 22.0787 32.8753 21.7377 27.0789L26.3914 27.0374C26.6679 29.1385 27.5618 30.3134 29.907 30.3134C31.8699 30.3134 33.4226 29.1754 33.4226 26.5905C33.4226 24.0056 32.0081 23.0058 29.391 23.0058H26.9443V19.0755H28.5662C31.4967 19.0755 33.0817 17.5918 33.0817 15.2834C33.0817 13.6293 32.3905 12.5281 30.2526 12.5281C28.1147 12.5281 27.2531 13.6293 26.8061 15.629L22.3229 15.5276C22.6731 10.2197 26.8384 8.52407 30.7318 8.52407C35.5237 8.52407 38.2099 10.7634 38.2099 14.5923C38.2099 17.8683 35.7956 19.7298 33.524 20.4854V20.6236C36.8323 21.3839 38.7306 23.2454 38.7306 26.8623C38.7306 31.4838 35.2841 34.3405 29.907 34.3405V34.3451Z" fill="#37A5CC"/>
</svg>
