<svg width="128" height="44" viewBox="0 0 128 44" fill="none" xmlns="http://www.w3.org/2000/svg">
<path d="M33.11 0H52.64V43.88L33.11 0ZM19.53 0H0V43.88L19.53 0ZM26.32 16.24L38.61 43.88H30.27L26.77 35.09H17.77L26.32 16.24Z" fill="white"/>
<path d="M65.8995 24.8102H59.9395L58.4495 29.3102C58.4295 29.4502 58.3395 29.5202 58.1695 29.5202H55.4695C55.2995 29.5202 55.2395 29.4302 55.2895 29.2602L60.6295 14.0002C60.7495 13.7402 60.8295 13.2602 60.8595 12.5602C60.8595 12.4602 60.9195 12.4102 61.0395 12.4102H64.7395C64.8195 12.4102 64.8895 12.4502 64.9495 12.5402L70.9095 29.2902C70.9595 29.4402 70.9095 29.5202 70.7595 29.5202H67.7295C67.6095 29.5202 67.5195 29.4602 67.4695 29.3402L65.8995 24.8202V24.8102ZM60.6095 22.3202H65.2395C65.1695 22.0802 64.8195 20.9902 64.1695 19.0402C63.5295 17.1002 63.0995 15.7602 62.8995 15.0402H62.8695C62.6595 15.9102 61.9095 18.3402 60.6095 22.3102V22.3202Z" fill="white"/>
<path d="M78.8998 29.7705C76.9098 29.7705 75.3198 29.2305 74.1098 28.1405C72.8998 27.0505 72.2998 25.4505 72.2998 23.3505C72.2998 21.4505 72.9498 19.8805 74.2398 18.6305C75.5298 17.3905 77.2698 16.7705 79.4398 16.7705C80.0398 16.7705 80.5198 16.8205 80.8798 16.9205V11.1605C80.8798 11.0405 80.9398 10.9805 81.0598 10.9805H83.9898C84.0898 10.9805 84.1398 11.0305 84.1398 11.1305V26.6305C84.1398 26.9205 84.1698 27.5005 84.2198 28.3805C84.2398 28.5005 84.1798 28.5805 84.0698 28.6105C82.4798 29.3805 80.7498 29.7705 78.8998 29.7705ZM80.8798 27.1005V19.3105C80.4998 19.1205 80.0098 19.0305 79.3898 19.0305C78.2598 19.0305 77.3498 19.3905 76.6698 20.1205C75.9798 20.8505 75.6398 21.8805 75.6398 23.2205C75.6398 24.6205 75.9798 25.6705 76.6698 26.3505C77.3498 27.0405 78.2198 27.3805 79.2698 27.3805C79.9698 27.3805 80.5098 27.2905 80.8898 27.1005H80.8798Z" fill="white"/>
<path d="M93.1891 16.7598C95.1391 16.7598 96.6791 17.3698 97.7891 18.5798C98.8991 19.7998 99.4591 21.3398 99.4591 23.2098C99.4591 25.2298 98.8791 26.8298 97.7091 27.9998C96.5391 29.1698 95.0191 29.7598 93.1391 29.7598C91.0691 29.7598 89.4891 29.1298 88.4091 27.8698C87.3291 26.6098 86.7891 25.0698 86.7891 23.2598C86.7891 21.4498 87.3791 19.7998 88.5491 18.5798C89.7191 17.3598 91.2691 16.7598 93.1891 16.7598ZM93.0591 18.9998C92.1691 18.9998 91.4491 19.3698 90.8991 20.1198C90.3491 20.8698 90.0791 21.8998 90.0791 23.2198C90.0791 24.5398 90.3491 25.5798 90.8991 26.3498C91.4491 27.1198 92.2091 27.5098 93.1891 27.5098C94.0291 27.5098 94.7291 27.1598 95.2991 26.4398C95.8691 25.7298 96.1491 24.6698 96.1491 23.2698C96.1491 21.9898 95.8891 20.9498 95.3791 20.1698C94.8691 19.3898 94.0891 18.9998 93.0691 18.9998H93.0591Z" fill="white"/>
<path d="M102.26 10.9805H105.14C105.28 10.9805 105.35 11.0505 105.35 11.1905V17.2305C106.19 16.9205 107.08 16.7705 108.02 16.7705C109.8 16.7705 111.23 17.3405 112.31 18.4805C113.39 19.6205 113.93 21.0905 113.93 22.8905C113.93 25.0305 113.26 26.7205 111.93 27.9405C110.6 29.1605 109 29.7805 107.15 29.7805C105.3 29.7805 103.6 29.4505 102.24 28.8005C102.14 28.7505 102.09 28.6605 102.09 28.5405V11.1705C102.09 11.0505 102.15 10.9905 102.27 10.9905L102.26 10.9805ZM110.59 23.1905C110.59 21.8705 110.29 20.8705 109.7 20.2005C109.11 19.5205 108.31 19.1805 107.3 19.1805C106.55 19.1805 105.89 19.3205 105.35 19.5905V27.0905C105.85 27.3605 106.51 27.5005 107.33 27.5005C108.24 27.5005 109.01 27.1305 109.64 26.3805C110.27 25.6305 110.59 24.5705 110.59 23.1805V23.1905Z" fill="white"/>
<path d="M124.489 23.8495H119.319C119.339 24.8895 119.669 25.7295 120.309 26.3495C120.949 26.9795 121.889 27.2895 123.119 27.2895C124.349 27.2895 125.399 27.0795 126.309 26.6495C126.409 26.6195 126.459 26.6495 126.459 26.7795V28.7095C126.459 28.8595 126.409 28.9695 126.309 29.0195C125.229 29.5195 123.939 29.7695 122.429 29.7695C121.279 29.7695 120.279 29.5895 119.419 29.2295C118.559 28.8695 117.889 28.3795 117.419 27.7695C116.939 27.1495 116.589 26.4795 116.349 25.7495C116.109 25.0195 115.999 24.2395 115.999 23.3995C115.999 21.5295 116.539 19.9595 117.629 18.6795C118.719 17.3995 120.199 16.7695 122.089 16.7695C123.869 16.7695 125.209 17.2995 126.099 18.3595C126.989 19.4195 127.439 20.6595 127.439 22.0895C127.439 22.6195 127.409 23.1095 127.339 23.5495C127.319 23.6695 127.249 23.7395 127.129 23.7595C126.649 23.8295 125.769 23.8595 124.479 23.8595L124.489 23.8495ZM119.319 21.8495H122.969C123.779 21.8495 124.229 21.8295 124.329 21.7995C124.349 21.7295 124.359 21.6095 124.359 21.4395C124.359 20.7895 124.179 20.2095 123.809 19.6895C123.439 19.1795 122.839 18.9195 121.999 18.9195C121.159 18.9195 120.569 19.1995 120.109 19.7495C119.659 20.3095 119.399 21.0095 119.329 21.8395L119.319 21.8495Z" fill="white"/>
</svg>
