<svg width="162" height="63" viewBox="0 0 162 63" fill="none" xmlns="http://www.w3.org/2000/svg">
<g clip-path="url(#clip0_1056_33461)">
<path fill-rule="evenodd" clip-rule="evenodd" d="M20.8616 60.2296L11.3382 56.8333V42.9583L20.8616 46.1839V60.2296Z" fill="#FF9900"/>
<path fill-rule="evenodd" clip-rule="evenodd" d="M22.608 60.2296L32.1314 56.8333V42.9583L22.608 46.1835V60.2296Z" fill="#FF9900"/>
<path fill-rule="evenodd" clip-rule="evenodd" d="M12.3167 41.9203L21.9553 39.2236L30.8923 42.0878L21.9553 45.1037L12.3167 41.9203Z" fill="#FF9900"/>
<path fill-rule="evenodd" clip-rule="evenodd" d="M9.52344 40.8455L0 37.4496V23.5742L9.52344 26.7995V40.8455Z" fill="#FF9900"/>
<path fill-rule="evenodd" clip-rule="evenodd" d="M11.2701 40.8455L20.7939 37.4496V23.5742L11.2701 26.7995V40.8455Z" fill="#FF9900"/>
<path fill-rule="evenodd" clip-rule="evenodd" d="M0.978455 22.5357L10.6175 19.8394L19.5545 22.7035L10.6175 25.7198L0.978455 22.5357Z" fill="#FF9900"/>
<path fill-rule="evenodd" clip-rule="evenodd" d="M31.7455 40.8455L22.2217 37.4496V23.5742L31.7455 26.7995V40.8455Z" fill="#FF9900"/>
<path fill-rule="evenodd" clip-rule="evenodd" d="M33.4919 40.8455L43.0157 37.4496V23.5742L33.4919 26.7995V40.8455Z" fill="#FF9900"/>
<path fill-rule="evenodd" clip-rule="evenodd" d="M23.2009 22.5357L32.8392 19.8394L41.7762 22.7035L32.8392 25.7198L23.2009 22.5357Z" fill="#FF9900"/>
<path fill-rule="evenodd" clip-rule="evenodd" d="M43.0837 21.4609L33.5599 18.066V4.19067L43.0837 7.4152V21.4609Z" fill="#FF9900"/>
<path fill-rule="evenodd" clip-rule="evenodd" d="M44.8301 21.4609L54.3539 18.066V4.19067L44.8301 7.4152V21.4609Z" fill="#FF9900"/>
<path fill-rule="evenodd" clip-rule="evenodd" d="M34.5388 3.15203L44.1774 0.455322L53.1144 3.3195L44.1774 6.33576L34.5388 3.15203Z" fill="#FF9900"/>
<path fill-rule="evenodd" clip-rule="evenodd" d="M65.3058 21.4609L55.782 18.066V4.19067L65.3058 7.4152V21.4609Z" fill="#FF9900"/>
<path fill-rule="evenodd" clip-rule="evenodd" d="M67.0521 21.4609L76.5759 18.066V4.19067L67.0521 7.4152V21.4609Z" fill="#FF9900"/>
<path fill-rule="evenodd" clip-rule="evenodd" d="M56.7609 3.15203L66.3995 0.455322L75.3361 3.3195L66.3995 6.33576L56.7609 3.15203Z" fill="#FF9900"/>
<path fill-rule="evenodd" clip-rule="evenodd" d="M60.4613 51.1907L57.2623 62.2376H55.8716L53.3812 54.0327L51.0973 62.2376H49.68L46.355 51.1907H48.0744L50.4961 59.4229L52.8016 51.1907H54.0698L56.5758 59.4497L59.0652 51.1907H60.4613Z" fill="white"/>
<path fill-rule="evenodd" clip-rule="evenodd" d="M60.4613 51.1907L57.2623 62.2376H55.8716L53.3812 54.0327L51.0973 62.2376H49.68L46.355 51.1907H48.0744L50.4961 59.4229L52.8016 51.1907H54.0698L56.5758 59.4497L59.0652 51.1907H60.4613Z" fill="white"/>
<path fill-rule="evenodd" clip-rule="evenodd" d="M69.3104 58.9423L70.9211 59.2708C70.628 60.2155 70.0567 60.9978 69.2078 61.6165C68.3575 62.2359 67.3585 62.5454 66.2086 62.5454C64.693 62.5454 63.4665 62.0148 62.5291 60.9523C61.5917 59.8906 61.1233 58.4979 61.1233 56.7756C61.1233 55.0161 61.6104 53.5947 62.5842 52.5108C63.5583 51.4269 64.7812 50.8848 66.2536 50.8848C67.7041 50.8848 68.8701 51.384 69.7525 52.382C70.6349 53.3804 71.0874 54.8733 71.1093 56.8618H63.0432C63.0432 58.5326 63.3942 59.6587 64.0969 60.2427C64.7992 60.8264 65.5423 61.1177 66.3249 61.1177C67.7372 61.1173 68.7323 60.3919 69.3104 58.9423ZM69.2165 55.5804C69.2017 54.961 69.0995 54.4106 68.909 53.9297C68.7186 53.4487 68.3967 53.0386 67.9428 52.6998C67.4892 52.3612 66.9434 52.1916 66.3069 52.1916C65.4505 52.1916 64.724 52.4979 64.1275 53.1102C63.531 53.7225 63.1965 54.5455 63.1231 55.5804H69.2165Z" fill="white"/>
<path fill-rule="evenodd" clip-rule="evenodd" d="M69.3104 58.9423L70.9211 59.2708C70.628 60.2155 70.0567 60.9978 69.2078 61.6165C68.3575 62.2359 67.3585 62.5454 66.2086 62.5454C64.693 62.5454 63.4665 62.0148 62.5291 60.9523C61.5917 59.8906 61.1233 58.4979 61.1233 56.7756C61.1233 55.0161 61.6104 53.5947 62.5842 52.5108C63.5583 51.4269 64.7812 50.8848 66.2536 50.8848C67.7041 50.8848 68.8701 51.384 69.7525 52.382C70.6349 53.3804 71.0874 54.8733 71.1093 56.8618H63.0432C63.0432 58.5326 63.3942 59.6587 64.0969 60.2427C64.7992 60.8264 65.5423 61.1177 66.3249 61.1177C67.7372 61.1173 68.7323 60.3919 69.3104 58.9423ZM69.2165 55.5804C69.2017 54.961 69.0995 54.4106 68.909 53.9297C68.7186 53.4487 68.3967 53.0386 67.9428 52.6998C67.4892 52.3612 66.9434 52.1916 66.3069 52.1916C65.4505 52.1916 64.724 52.4979 64.1275 53.1102C63.531 53.7225 63.1965 54.5455 63.1231 55.5804H69.2165Z" fill="white"/>
<path fill-rule="evenodd" clip-rule="evenodd" d="M74.2158 62.2376H73.3835V47.322H75.1151V53.0321C75.9053 51.6 76.995 50.884 78.385 50.884C79.6576 50.884 80.7239 51.3839 81.5836 52.3844C82.4432 53.3842 82.8731 54.8367 82.8731 56.7415C82.8731 58.384 82.4504 59.7614 81.6048 60.8746C80.7588 61.9882 79.6583 62.545 78.3036 62.545C76.7952 62.545 75.6389 61.8329 74.8332 60.4101L74.2158 62.2376ZM75.1151 57.9067C75.1957 59.041 75.5453 59.8637 76.1645 60.3758C76.7833 60.8879 77.4378 61.1441 78.1261 61.1441C79.0056 61.1441 79.7144 60.7644 80.253 60.0054C80.7919 59.2464 81.0605 58.2069 81.0605 56.8861C81.0605 55.464 80.8009 54.3458 80.2804 53.5317C79.7598 52.7183 79.038 52.3111 78.115 52.3111C77.3896 52.3111 76.7354 52.6009 76.153 53.1796C75.5705 53.7589 75.2245 54.5075 75.1144 55.4254V57.9067H75.1151Z" fill="white"/>
<path fill-rule="evenodd" clip-rule="evenodd" d="M74.2158 62.2376H73.3835V47.322H75.1151V53.0321C75.9053 51.6 76.995 50.884 78.385 50.884C79.6576 50.884 80.7239 51.3839 81.5836 52.3844C82.4432 53.3842 82.8731 54.8367 82.8731 56.7415C82.8731 58.384 82.4504 59.7614 81.6048 60.8746C80.7588 61.9882 79.6583 62.545 78.3036 62.545C76.7952 62.545 75.6389 61.8329 74.8332 60.4101L74.2158 62.2376ZM75.1151 57.9067C75.1957 59.041 75.5453 59.8637 76.1645 60.3758C76.7833 60.8879 77.4378 61.1441 78.1261 61.1441C79.0056 61.1441 79.7144 60.7644 80.253 60.0054C80.7919 59.2464 81.0605 58.2069 81.0605 56.8861C81.0605 55.464 80.8009 54.3458 80.2804 53.5317C79.7598 52.7183 79.038 52.3111 78.115 52.3111C77.3896 52.3111 76.7354 52.6009 76.153 53.1796C75.5705 53.7589 75.2245 54.5075 75.1144 55.4254V57.9067H75.1151Z" fill="white"/>
<path fill-rule="evenodd" clip-rule="evenodd" d="M87.2853 59.3749L88.9359 59.0361C89.3031 60.4238 90.4623 61.1173 92.4142 61.1173C93.1328 61.1173 93.7422 60.9577 94.2408 60.6374C94.7402 60.3178 94.9893 59.8666 94.9893 59.2848C94.9893 58.4198 94.3542 57.8709 93.0841 57.6383L90.7434 57.1953C89.8265 57.0203 89.0971 56.6779 88.5546 56.1672C88.0125 55.6566 87.7414 54.9824 87.7414 54.1433C87.7414 53.2179 88.1115 52.4428 88.8516 51.8194C89.5914 51.1961 90.5883 50.884 91.8414 50.884C94.2523 50.884 95.741 51.8209 96.3047 53.6938L94.7207 54.0323C94.266 52.8851 93.3329 52.3115 91.9196 52.3115C91.2161 52.3115 90.639 52.455 90.1883 52.7416C89.7383 53.0282 89.513 53.4287 89.513 53.9443C89.513 54.7563 90.089 55.2672 91.2395 55.478L93.4031 55.8738C95.6686 56.2821 96.8008 57.3746 96.8008 59.1488C96.8008 60.1636 96.3792 60.9838 95.5358 61.6075C94.6926 62.2327 93.5705 62.5451 92.169 62.5451C89.5367 62.5451 87.9084 61.4876 87.2853 59.3749Z" fill="white"/>
<path fill-rule="evenodd" clip-rule="evenodd" d="M87.2853 59.3749L88.9359 59.0361C89.3031 60.4238 90.4623 61.1173 92.4142 61.1173C93.1328 61.1173 93.7422 60.9577 94.2408 60.6374C94.7402 60.3178 94.9893 59.8666 94.9893 59.2848C94.9893 58.4198 94.3542 57.8709 93.0841 57.6383L90.7434 57.1953C89.8265 57.0203 89.0971 56.6779 88.5546 56.1672C88.0125 55.6566 87.7414 54.9824 87.7414 54.1433C87.7414 53.2179 88.1115 52.4428 88.8516 51.8194C89.5914 51.1961 90.5883 50.884 91.8414 50.884C94.2523 50.884 95.741 51.8209 96.3047 53.6938L94.7207 54.0323C94.266 52.8851 93.3329 52.3115 91.9196 52.3115C91.2161 52.3115 90.639 52.455 90.1883 52.7416C89.7383 53.0282 89.513 53.4287 89.513 53.9443C89.513 54.7563 90.089 55.2672 91.2395 55.478L93.4031 55.8738C95.6686 56.2821 96.8008 57.3746 96.8008 59.1488C96.8008 60.1636 96.3792 60.9838 95.5358 61.6075C94.6926 62.2327 93.5705 62.5451 92.169 62.5451C89.5367 62.5451 87.9084 61.4876 87.2853 59.3749Z" fill="white"/>
<path fill-rule="evenodd" clip-rule="evenodd" d="M106.009 58.9423L107.619 59.2708C107.327 60.2155 106.756 60.9978 105.906 61.6165C105.057 62.2359 104.057 62.5454 102.907 62.5454C101.391 62.5454 100.165 62.0148 99.2279 60.9523C98.2901 59.8906 97.8221 58.4979 97.8221 56.7756C97.8221 55.0161 98.3084 53.5947 99.2837 52.5108C100.257 51.4269 101.48 50.8848 102.953 50.8848C104.402 50.8848 105.569 51.384 106.451 52.382C107.334 53.3804 107.786 54.8733 107.808 56.8618H99.7416C99.7416 58.5326 100.093 59.6587 100.795 60.2427C101.498 60.8264 102.241 61.1177 103.024 61.1177C104.436 61.1173 105.431 60.3919 106.009 58.9423ZM105.915 55.5804C105.901 54.961 105.798 54.4106 105.608 53.9297C105.417 53.4487 105.096 53.0386 104.642 52.6998C104.189 52.3612 103.642 52.1916 103.006 52.1916C102.15 52.1916 101.423 52.4979 100.826 53.1102C100.23 53.7225 99.895 54.5455 99.8219 55.5804H105.915Z" fill="white"/>
<path fill-rule="evenodd" clip-rule="evenodd" d="M106.009 58.9423L107.619 59.2708C107.327 60.2155 106.756 60.9978 105.906 61.6165C105.057 62.2359 104.057 62.5454 102.907 62.5454C101.391 62.5454 100.165 62.0148 99.2279 60.9523C98.2901 59.8906 97.8221 58.4979 97.8221 56.7756C97.8221 55.0161 98.3084 53.5947 99.2837 52.5108C100.257 51.4269 101.48 50.8848 102.953 50.8848C104.402 50.8848 105.569 51.384 106.451 52.382C107.334 53.3804 107.786 54.8733 107.808 56.8618H99.7416C99.7416 58.5326 100.093 59.6587 100.795 60.2427C101.498 60.8264 102.241 61.1177 103.024 61.1177C104.436 61.1173 105.431 60.3919 106.009 58.9423ZM105.915 55.5804C105.901 54.961 105.798 54.4106 105.608 53.9297C105.417 53.4487 105.096 53.0386 104.642 52.6998C104.189 52.3612 103.642 52.1916 103.006 52.1916C102.15 52.1916 101.423 52.4979 100.826 53.1102C100.23 53.7225 99.895 54.5455 99.8219 55.5804H105.915Z" fill="white"/>
<path fill-rule="evenodd" clip-rule="evenodd" d="M111.401 62.2377H109.67V51.1907H111.187V53.7661C111.721 52.5594 112.258 51.7779 112.797 51.4208C113.335 51.063 113.887 50.884 114.451 50.884C114.627 50.884 114.855 50.8976 115.132 50.9241V52.5648H114.782C113.83 52.5648 113.04 52.9166 112.411 53.6187C111.781 54.3215 111.445 55.2444 111.401 56.3891V62.2377Z" fill="white"/>
<path fill-rule="evenodd" clip-rule="evenodd" d="M111.401 62.2377H109.67V51.1907H111.187V53.7661C111.721 52.5594 112.258 51.7779 112.797 51.4208C113.335 51.063 113.887 50.884 114.451 50.884C114.627 50.884 114.855 50.8976 115.132 50.9241V52.5648H114.782C113.83 52.5648 113.04 52.9166 112.411 53.6187C111.781 54.3215 111.445 55.2444 111.401 56.3891V62.2377Z" fill="white"/>
<path fill-rule="evenodd" clip-rule="evenodd" d="M125.886 51.1907L122.049 62.2376H120.255L116.29 51.1907H118.206L121.29 60.17L124.351 51.1907H125.886Z" fill="white"/>
<path fill-rule="evenodd" clip-rule="evenodd" d="M125.886 51.1907L122.049 62.2376H120.255L116.29 51.1907H118.206L121.29 60.17L124.351 51.1907H125.886Z" fill="white"/>
<path fill-rule="evenodd" clip-rule="evenodd" d="M127.27 47.322H129.122V49.23H127.27V47.322ZM127.351 51.1907H129.082V62.2376H127.351V51.1907Z" fill="white"/>
<path fill-rule="evenodd" clip-rule="evenodd" d="M127.27 47.322H129.122V49.23H127.27V47.322ZM127.351 51.1907H129.082V62.2376H127.351V51.1907Z" fill="white"/>
<path fill-rule="evenodd" clip-rule="evenodd" d="M138.127 58.369L139.684 58.6421C139.464 59.8627 138.977 60.8185 138.222 61.5087C137.467 62.1994 136.525 62.5451 135.397 62.5451C133.865 62.5451 132.698 61.9825 131.895 60.8586C131.093 59.7349 130.692 58.3622 130.692 56.7416C130.692 55.0629 131.115 53.667 131.962 52.5541C132.808 51.4405 133.96 50.884 135.419 50.884C136.629 50.884 137.597 51.2437 138.327 51.9633C139.056 52.6822 139.509 53.6119 139.684 54.7512L138.128 55.0465C137.835 53.2236 136.948 52.3115 135.469 52.3115C134.517 52.3115 133.785 52.7137 133.273 53.5185C132.76 54.3236 132.503 55.3671 132.503 56.6489C132.503 58.0624 132.758 59.1595 133.267 59.9428C133.776 60.7254 134.492 61.1169 135.415 61.1169C136.841 61.1173 137.746 60.2012 138.127 58.369Z" fill="white"/>
<path fill-rule="evenodd" clip-rule="evenodd" d="M138.127 58.369L139.684 58.6421C139.464 59.8627 138.977 60.8185 138.222 61.5087C137.467 62.1994 136.525 62.5451 135.397 62.5451C133.865 62.5451 132.698 61.9825 131.895 60.8586C131.093 59.7349 130.692 58.3622 130.692 56.7416C130.692 55.0629 131.115 53.667 131.962 52.5541C132.808 51.4405 133.96 50.884 135.419 50.884C136.629 50.884 137.597 51.2437 138.327 51.9633C139.056 52.6822 139.509 53.6119 139.684 54.7512L138.128 55.0465C137.835 53.2236 136.948 52.3115 135.469 52.3115C134.517 52.3115 133.785 52.7137 133.273 53.5185C132.76 54.3236 132.503 55.3671 132.503 56.6489C132.503 58.0624 132.758 59.1595 133.267 59.9428C133.776 60.7254 134.492 61.1169 135.415 61.1169C136.841 61.1173 137.746 60.2012 138.127 58.369Z" fill="white"/>
<path fill-rule="evenodd" clip-rule="evenodd" d="M149.448 58.9423L151.058 59.2708C150.765 60.2155 150.195 60.9978 149.345 61.6165C148.496 62.2359 147.496 62.5454 146.346 62.5454C144.83 62.5454 143.603 62.0148 142.666 60.9523C141.728 59.8906 141.26 58.4979 141.26 56.7756C141.26 55.0161 141.747 53.5947 142.722 52.5108C143.695 51.4269 144.919 50.8848 146.391 50.8848C147.84 50.8848 149.007 51.384 149.89 52.382C150.772 53.3804 151.224 54.8733 151.246 56.8618H143.18C143.18 58.5326 143.531 59.6587 144.234 60.2427C144.937 60.8264 145.679 61.1177 146.462 61.1177C147.874 61.1173 148.869 60.3919 149.448 58.9423ZM149.354 55.5804C149.34 54.961 149.237 54.4106 149.046 53.9297C148.856 53.4487 148.535 53.0386 148.081 52.6998C147.627 52.3612 147.081 52.1916 146.444 52.1916C145.588 52.1916 144.861 52.4979 144.265 53.1102C143.669 53.7225 143.333 54.5455 143.261 55.5804H149.354Z" fill="white"/>
<path fill-rule="evenodd" clip-rule="evenodd" d="M149.448 58.9423L151.058 59.2708C150.765 60.2155 150.195 60.9978 149.345 61.6165C148.496 62.2359 147.496 62.5454 146.346 62.5454C144.83 62.5454 143.603 62.0148 142.666 60.9523C141.728 59.8906 141.26 58.4979 141.26 56.7756C141.26 55.0161 141.747 53.5947 142.722 52.5108C143.695 51.4269 144.919 50.8848 146.391 50.8848C147.84 50.8848 149.007 51.384 149.89 52.382C150.772 53.3804 151.224 54.8733 151.246 56.8618H143.18C143.18 58.5326 143.531 59.6587 144.234 60.2427C144.937 60.8264 145.679 61.1177 146.462 61.1177C147.874 61.1173 148.869 60.3919 149.448 58.9423ZM149.354 55.5804C149.34 54.961 149.237 54.4106 149.046 53.9297C148.856 53.4487 148.535 53.0386 148.081 52.6998C147.627 52.3612 147.081 52.1916 146.444 52.1916C145.588 52.1916 144.861 52.4979 144.265 53.1102C143.669 53.7225 143.333 54.5455 143.261 55.5804H149.354Z" fill="white"/>
<path fill-rule="evenodd" clip-rule="evenodd" d="M152.224 59.3749L153.876 59.0361C154.242 60.4238 155.402 61.1173 157.353 61.1173C158.072 61.1173 158.681 60.9577 159.179 60.6374C159.679 60.3178 159.929 59.8666 159.929 59.2848C159.929 58.4198 159.294 57.8709 158.023 57.6383L155.682 57.1953C154.766 57.0203 154.036 56.6779 153.494 56.1672C152.952 55.6566 152.681 54.9824 152.681 54.1433C152.681 53.2179 153.05 52.4428 153.791 51.8194C154.53 51.1961 155.527 50.884 156.781 50.884C159.192 50.884 160.68 51.8209 161.244 53.6938L159.66 54.0323C159.206 52.8851 158.272 52.3115 156.858 52.3115C156.155 52.3115 155.579 52.455 155.128 52.7416C154.678 53.0282 154.452 53.4287 154.452 53.9443C154.452 54.7563 155.028 55.2672 156.179 55.478L158.343 55.8738C160.608 56.2821 161.74 57.3746 161.74 59.1488C161.74 60.1636 161.319 60.9838 160.475 61.6075C159.632 62.2327 158.509 62.5451 157.109 62.5451C154.476 62.5451 152.847 61.4876 152.224 59.3749Z" fill="white"/>
<path fill-rule="evenodd" clip-rule="evenodd" d="M152.224 59.3749L153.876 59.0361C154.242 60.4238 155.402 61.1173 157.353 61.1173C158.072 61.1173 158.681 60.9577 159.179 60.6374C159.679 60.3178 159.929 59.8666 159.929 59.2848C159.929 58.4198 159.294 57.8709 158.023 57.6383L155.682 57.1953C154.766 57.0203 154.036 56.6779 153.494 56.1672C152.952 55.6566 152.681 54.9824 152.681 54.1433C152.681 53.2179 153.05 52.4428 153.791 51.8194C154.53 51.1961 155.527 50.884 156.781 50.884C159.192 50.884 160.68 51.8209 161.244 53.6938L159.66 54.0323C159.206 52.8851 158.272 52.3115 156.858 52.3115C156.155 52.3115 155.579 52.455 155.128 52.7416C154.678 53.0282 154.452 53.4287 154.452 53.9443C154.452 54.7563 155.028 55.2672 156.179 55.478L158.343 55.8738C160.608 56.2821 161.74 57.3746 161.74 59.1488C161.74 60.1636 161.319 60.9838 160.475 61.6075C159.632 62.2327 158.509 62.5451 157.109 62.5451C154.476 62.5451 152.847 61.4876 152.224 59.3749Z" fill="white"/>
<path fill-rule="evenodd" clip-rule="evenodd" d="M113.199 27.5805V24.9271C113.201 24.5231 113.506 24.254 113.875 24.2547L125.84 24.2537C126.223 24.2537 126.53 24.5303 126.531 24.9239L126.53 27.1998C126.527 27.5816 126.204 28.0797 125.629 28.8702L119.432 37.666C121.733 37.6123 124.166 37.9544 126.256 39.1224C126.728 39.3854 126.854 39.7758 126.891 40.1584V42.9896C126.891 43.38 126.462 43.8313 126.01 43.5965C122.327 41.6792 117.44 41.4688 113.368 43.6194C112.952 43.8399 112.517 43.395 112.517 43.0046V40.3129C112.517 39.8825 112.525 39.1457 112.962 38.489L120.142 28.2497L113.89 28.2486C113.508 28.249 113.201 27.9781 113.199 27.5805Z" fill="white"/>
<path fill-rule="evenodd" clip-rule="evenodd" d="M70.3796 44.1544H66.7397C66.3934 44.1318 66.1165 43.8727 66.0884 43.5428L66.091 24.9725C66.091 24.6011 66.4056 24.3041 66.7933 24.3041L70.1831 24.3034C70.538 24.3213 70.8228 24.5882 70.8455 24.9267V27.3515H70.9135C71.7966 25.0069 73.462 23.9126 75.704 23.9126C77.9807 23.9126 79.4077 25.0069 80.4276 27.3515C81.3103 25.0069 83.3155 23.9126 85.4557 23.9126C86.985 23.9126 88.65 24.5378 89.6692 25.9444C90.824 27.5075 90.5864 29.7741 90.5864 31.7673L90.5836 43.4859C90.5836 43.857 90.2693 44.1544 89.8816 44.1544H86.2459C85.8805 44.1311 85.5922 43.8434 85.5922 43.4873L85.5914 33.6427C85.5914 32.8612 85.6595 30.9074 85.4892 30.1648C85.2174 28.9142 84.4024 28.5624 83.349 28.5624C82.4656 28.5624 81.5479 29.1486 81.1739 30.0868C80.8002 31.0247 80.8344 32.5874 80.8344 33.6427V43.4859C80.8344 43.857 80.5198 44.1544 80.1324 44.1544H76.4964C76.131 44.1311 75.8426 43.8434 75.8426 43.4873L75.839 33.6427C75.839 31.5719 76.1792 28.5234 73.597 28.5234C70.9805 28.5234 71.0824 31.4931 71.0824 33.6427L71.0806 43.4859C71.082 43.8566 70.7674 44.1544 70.3796 44.1544Z" fill="white"/>
<path fill-rule="evenodd" clip-rule="evenodd" d="M135.32 23.9124C140.679 23.9124 143.578 28.5235 143.578 34.385C143.578 40.0507 140.377 44.5452 135.32 44.5452C130.062 44.5452 127.196 39.9337 127.196 34.1896C127.196 28.4061 130.095 23.9124 135.32 23.9124ZM135.354 28.1807C132.69 28.1807 132.522 31.815 132.522 34.0812C132.522 36.3474 132.488 40.7156 135.32 40.7156C138.118 40.7156 138.253 37.2857 138.253 34.9021C138.253 33.3387 138.186 31.4632 137.713 29.9781C137.308 28.6888 136.499 28.1807 135.354 28.1807Z" fill="white"/>
<path fill-rule="evenodd" clip-rule="evenodd" d="M151.335 44.1545H147.708C147.344 44.1312 147.055 43.8435 147.055 43.4874L147.05 24.91C147.08 24.5704 147.382 24.3038 147.749 24.3038L151.125 24.3031C151.443 24.3192 151.705 24.535 151.772 24.8231V27.6636H151.84C152.86 25.1237 154.286 23.9124 156.801 23.9124C158.431 23.9124 160.029 24.4985 161.048 26.1006C162 27.5856 162 30.0869 162 31.8844V43.569C161.959 43.8986 161.662 44.1545 161.303 44.1545H157.653C157.316 44.1326 157.044 43.8868 157.005 43.569V33.4861C157.005 31.4543 157.243 28.4842 154.728 28.4842C153.844 28.4842 153.029 29.0703 152.622 29.9692C152.112 31.1025 152.043 32.2354 152.043 33.4861V43.4857C152.037 43.8567 151.723 44.1545 151.335 44.1545Z" fill="white"/>
<path fill-rule="evenodd" clip-rule="evenodd" d="M104.073 35.2859C104.073 36.6961 104.107 37.8706 103.392 39.1241C102.813 40.1425 101.894 40.7688 100.872 40.7688C99.4763 40.7688 98.6587 39.711 98.6587 38.145C98.6587 35.0637 101.44 34.5029 104.073 34.5029V35.2859ZM107.743 44.1078C107.502 44.3225 107.155 44.3368 106.883 44.1919C105.674 43.1928 105.458 42.7312 104.797 41.7807C102.798 43.804 101.383 44.4109 98.7952 44.4109C95.7305 44.4109 93.3469 42.5311 93.3469 38.7716C93.3469 35.8341 94.9471 33.837 97.2284 32.8579C99.2034 31.9959 101.962 31.8395 104.073 31.6044V31.1345C104.073 30.2732 104.141 29.2548 103.631 28.5108C103.188 27.8452 102.337 27.5711 101.588 27.5711C100.199 27.5711 98.9651 28.2782 98.662 29.744C98.5993 30.07 98.3592 30.3924 98.0298 30.4088L94.5014 30.0295C94.2034 29.9626 93.8722 29.725 93.9582 29.273C94.7693 25.0183 98.6342 23.7329 102.099 23.7329C103.869 23.7329 106.185 24.2028 107.581 25.5347C109.351 27.1797 109.181 29.3725 109.181 31.7615V37.3986C109.181 39.094 109.89 39.838 110.556 40.7516C110.788 41.0808 110.84 41.4723 110.543 41.7127C109.8 42.3322 108.479 43.473 107.752 44.1157L107.743 44.1078Z" fill="white"/>
<path fill-rule="evenodd" clip-rule="evenodd" d="M56.7681 35.2859C56.7681 36.6961 56.8023 37.8706 56.0873 39.1241C55.5084 40.1425 54.5894 40.7688 53.5673 40.7688C52.1712 40.7688 51.354 39.711 51.354 38.145C51.354 35.0637 54.135 34.5029 56.7681 34.5029V35.2859ZM60.4386 44.1078C60.1974 44.3225 59.8497 44.3368 59.5786 44.1919C58.3694 43.1928 58.1523 42.7312 57.4917 41.7807C55.4937 43.804 54.0782 44.4109 51.4905 44.4109C48.4254 44.4109 46.0419 42.5311 46.0419 38.7716C46.0419 35.8341 47.6424 33.837 49.9238 32.8579C51.8987 31.9959 54.657 31.8395 56.7681 31.6044V31.1345C56.7681 30.2732 56.8361 29.2548 56.326 28.5108C55.8828 27.8452 55.0314 27.5711 54.2826 27.5711C52.8945 27.5711 51.66 28.2782 51.3569 29.744C51.2939 30.07 51.0545 30.3924 50.7244 30.4088L47.1968 30.0295C46.899 29.9626 46.5675 29.725 46.6539 29.273C47.4642 25.0183 51.3296 23.7329 54.7938 23.7329C56.5647 23.7329 58.8798 24.2028 60.2763 25.5347C62.0468 27.1797 61.8768 29.3725 61.8768 31.7615V37.3986C61.8768 39.094 62.5853 39.838 63.2506 40.7516C63.4832 41.0808 63.5354 41.4723 63.2391 41.7127C62.4953 42.3322 61.1741 43.473 60.4476 44.1157L60.4386 44.1078Z" fill="white"/>
</g>
<defs>
<clipPath id="clip0_1056_33461">
<rect width="162" height="63" fill="white"/>
</clipPath>
</defs>
</svg>
