<svg width="145" height="21" viewBox="0 0 145 21" fill="none" xmlns="http://www.w3.org/2000/svg">
<path d="M0 2.7782L8.27972 1.64009V9.62975H0.000762301L0 2.7782ZM8.27972 10.6522V18.5515L0.00114345 17.4151L0.000952874 10.6526H8.27991L8.27972 10.6522ZM9.19524 1.5145L20.2124 0V9.62975H9.19524V1.5145ZM20.2124 10.6522V20.1903L9.19524 18.6769V10.6522H20.2124Z" fill="#0DADEA"/>
<path d="M38.9157 16.0637H37.0018V8.66345C37.0018 8.05685 37.0397 7.31608 37.1154 6.4381H37.0834C36.9639 6.93779 36.8585 7.29645 36.767 7.51523L33.2962 16.0637H31.9662L28.4871 7.57926C28.3899 7.32961 28.287 6.94922 28.1791 6.43905H28.1471C28.1907 6.89643 28.2121 7.64311 28.2121 8.67964V16.0637H26.4277V4.6284H29.1444L32.2018 12.2442C32.4341 12.8288 32.5856 13.2653 32.6555 13.5519H32.6959C32.896 12.951 33.058 12.5041 33.1825 12.2118L36.2968 4.6284H38.9163L38.9155 16.0637H38.9157ZM42.5084 6.18311C42.2005 6.18311 41.9362 6.08516 41.7179 5.88829C41.4988 5.69162 41.3894 5.44139 41.3894 5.13857C41.3894 4.83575 41.4988 4.58305 41.7179 4.38065C41.9371 4.17903 42.2005 4.07764 42.5084 4.07764C42.8271 4.07764 43.0981 4.17903 43.3195 4.38065C43.541 4.58305 43.6523 4.83479 43.6523 5.13857C43.6523 5.4252 43.541 5.67142 43.3195 5.8761C43.0971 6.08115 42.8271 6.18311 42.5084 6.18311ZM43.4405 16.0637H41.5598V7.89752H43.4407V16.0637H43.4405ZM51.8506 15.6888C51.1861 16.0661 50.3988 16.2548 49.4905 16.2548C48.2579 16.2548 47.2631 15.8759 46.5061 15.1188C45.7496 14.3616 45.3707 13.3794 45.3707 12.1721C45.3707 10.827 45.7776 9.74686 46.5911 8.93044C47.4049 8.1144 48.4925 7.70619 49.8553 7.70619C50.6121 7.70619 51.2799 7.83654 51.8581 8.09744V9.81966C51.2791 9.39468 50.6632 9.18162 50.0095 9.18162C49.2148 9.18162 48.5634 9.44652 48.0553 9.97517C47.5473 10.504 47.2926 11.1964 47.2926 12.0522C47.2926 12.8976 47.5314 13.5648 48.01 14.0539C48.4883 14.5431 49.1305 14.7876 49.9361 14.7876C50.6121 14.7876 51.2494 14.5513 51.8497 14.0783L51.8506 15.6888ZM58.5404 9.66015C58.313 9.48444 57.9862 9.39716 57.5589 9.39716C57.0021 9.39716 56.5369 9.64395 56.1639 10.1387C55.7908 10.6327 55.604 11.3056 55.604 12.1559V16.0637H53.7223V7.89752H55.604V9.58011H55.636C55.8197 9.00591 56.1022 8.55806 56.4833 8.23656C56.8645 7.91525 57.2904 7.75402 57.7605 7.75402C58.1015 7.75402 58.3609 7.8051 58.5396 7.90553L58.5404 9.66015ZM63.5683 16.2548C62.2871 16.2548 61.2643 15.8735 60.4985 15.1106C59.7336 14.3479 59.3507 13.3363 59.3507 12.0766C59.3507 10.7047 59.7492 9.63347 60.5471 8.8626C61.3451 8.09172 62.4188 7.70619 63.7709 7.70619C65.0687 7.70619 66.0791 8.08124 66.8037 8.83096C67.5285 9.58087 67.89 10.6197 67.89 11.9486C67.89 13.2515 67.4997 14.2946 66.7181 15.0782C65.9375 15.863 64.8877 16.2548 63.5683 16.2548ZM63.6573 9.18162C62.9221 9.18162 62.3406 9.43432 61.9141 9.93877C61.4867 10.444 61.2734 11.1403 61.2734 12.0279C61.2734 12.8837 61.4899 13.5576 61.9223 14.0491C62.3545 14.5406 62.9335 14.7866 63.6581 14.7866C64.3994 14.7866 64.9683 14.5446 65.3652 14.0613C65.762 13.577 65.9614 12.8887 65.9614 11.9955C65.9614 11.0975 65.763 10.4036 65.3652 9.91438C64.9675 9.42613 64.3985 9.18162 63.6573 9.18162ZM69.2939 15.8087V14.0945C69.9972 14.6208 70.7728 14.8838 71.6209 14.8838C72.7567 14.8838 73.3239 14.5543 73.3239 13.8951C73.3239 13.7089 73.2754 13.5511 73.1782 13.4206C73.0811 13.2902 72.9501 13.1745 72.7845 13.0741C72.6189 12.9737 72.4247 12.883 72.2008 12.8029C71.9759 12.7227 71.7263 12.6327 71.4505 12.5315C71.135 12.4103 70.8276 12.2691 70.53 12.1088C70.2565 11.9598 70.0301 11.7915 69.8489 11.6029C69.6704 11.4187 69.5312 11.2002 69.4397 10.9606C69.3475 10.7218 69.3021 10.4423 69.3021 10.1234C69.3021 9.7299 69.3969 9.38325 69.5861 9.0829C69.7757 8.78236 70.0292 8.52985 70.348 8.32575C70.6674 8.12088 71.0289 7.96708 71.4349 7.86341C71.8456 7.75907 72.2678 7.70683 72.6915 7.7079C73.459 7.7079 74.1456 7.82206 74.7511 8.05037V9.66911C74.1671 9.27557 73.4969 9.07871 72.7401 9.07871C72.5021 9.07871 72.2871 9.1031 72.0954 9.14998C71.9035 9.19782 71.7396 9.26433 71.6045 9.34933C71.4696 9.43432 71.3642 9.53628 71.2883 9.65615C71.2131 9.77391 71.1737 9.91093 71.1747 10.0506C71.1747 10.2262 71.2127 10.3752 71.2883 10.4975C71.3642 10.6197 71.476 10.7274 71.6251 10.8206C71.7733 10.9138 71.9521 10.9988 72.1604 11.0756C72.3687 11.1525 72.6075 11.2368 72.8785 11.3267C73.2059 11.4569 73.5266 11.6034 73.8394 11.7656C74.1235 11.9145 74.3655 12.0829 74.5656 12.2716C74.7627 12.4558 74.9199 12.6785 75.0276 12.9258C75.1356 13.1728 75.19 13.4669 75.19 13.8069C75.19 14.2216 75.0928 14.5825 74.8976 14.8912C74.7032 15.1998 74.4431 15.4548 74.1195 15.6564C73.7949 15.8588 73.4203 16.0086 72.9962 16.1065C72.5713 16.2055 72.1242 16.254 71.654 16.254C70.745 16.2548 69.9585 16.1065 69.2939 15.8087ZM80.6635 16.2548C79.3822 16.2548 78.3587 15.8735 77.5935 15.1106C76.8285 14.3479 76.4464 13.3363 76.4464 12.0766C76.4464 10.7047 76.8451 9.63347 77.643 8.8626C78.44 8.09172 79.5147 7.70619 80.866 7.70619C82.1639 7.70619 83.1741 8.08124 83.8989 8.83096C84.6234 9.58087 84.9857 10.6197 84.9857 11.9486C84.9857 13.2515 84.5954 14.2946 83.814 15.0782C83.0327 15.863 81.9819 16.2548 80.6635 16.2548ZM80.7525 9.18162C80.017 9.18162 79.4356 9.43432 79.0083 9.93877C78.5809 10.444 78.3676 11.1403 78.3676 12.0279C78.3676 12.8837 78.5843 13.5576 79.0165 14.0491C79.4489 14.5406 80.0277 14.7866 80.7525 14.7866C81.4927 14.7866 82.0617 14.5446 82.4594 14.0613C82.8572 13.577 83.0556 12.8887 83.0556 11.9955C83.0556 11.0975 82.8572 10.4036 82.4594 9.91438C82.0617 9.42613 81.4927 9.18162 80.7525 9.18162ZM91.603 5.4818C91.3496 5.33848 91.0597 5.26645 90.7352 5.26645C89.8212 5.26645 89.3649 5.77414 89.3649 6.78952V7.8981H91.2951V9.34933H89.3731V16.0637H87.4916V9.34933H86.0727V7.8981H87.4916V6.57417C87.4916 5.71277 87.7782 5.03414 88.3513 4.53693C88.9243 4.03953 89.6409 3.79102 90.5006 3.79102C90.9658 3.79102 91.333 3.84133 91.603 3.94252V5.4818ZM97.0281 15.9762C96.6609 16.1569 96.1766 16.2476 95.5763 16.2476C93.9656 16.2476 93.1602 15.4872 93.1602 13.9673V9.35009H91.7736V7.89905H93.1602V6.00893L95.042 5.48275V7.89905H97.0289V9.35009H95.042V13.4326C95.042 13.9161 95.1308 14.2618 95.3095 14.4691C95.4883 14.6765 95.7854 14.7801 96.2014 14.7801C96.5201 14.7801 96.796 14.6902 97.0281 14.5088V15.9762ZM112.988 16.0637H110.871L109.825 13.1526H105.252L104.247 16.0637H102.138L106.492 4.6284H108.665L112.987 16.0637H112.988ZM109.314 11.6061L107.701 7.0447C107.652 6.89567 107.6 6.65688 107.547 6.32719H107.515C107.466 6.6302 107.412 6.86975 107.353 7.0447L105.755 11.6061H109.314ZM120.513 8.67145L116.029 14.6199H120.497V16.0637H113.393V15.3698L117.974 9.34113H113.831V7.89733H120.513V8.67145ZM129.344 16.0637H127.463V14.7714H127.431C126.885 15.7601 126.036 16.2548 124.885 16.2548C122.923 16.2548 121.941 15.0961 121.941 12.7778V7.89733H123.823V12.5866C123.823 14.054 124.398 14.7876 125.55 14.7876C126.107 14.7876 126.565 14.5859 126.925 14.1819C127.284 13.7779 127.464 13.2491 127.464 12.5948V7.89733H129.346L129.344 16.0637ZM136.618 9.66015C136.391 9.48444 136.064 9.39716 135.637 9.39716C135.08 9.39716 134.615 9.64395 134.242 10.1387C133.869 10.6327 133.682 11.3056 133.682 12.1559V16.0637H131.801V7.89752H133.682V9.58011H133.714C133.898 9.00591 134.18 8.55806 134.561 8.23656C134.943 7.91525 135.368 7.75402 135.839 7.75402C136.179 7.75402 136.439 7.8051 136.617 7.90553L136.619 9.66015H136.618ZM144.995 12.4829H139.335C139.356 13.2376 139.592 13.8198 140.045 14.2296C140.496 14.6385 141.116 14.8434 141.906 14.8434C142.792 14.8434 143.606 14.5827 144.346 14.0621V15.5527C143.59 16.0208 142.589 16.2548 141.346 16.2548C140.124 16.2548 139.166 15.8839 138.471 15.1422C137.776 14.4005 137.429 13.3575 137.429 12.0126C137.429 10.742 137.811 9.70627 138.577 8.90624C139.342 8.1062 140.292 7.70619 141.428 7.70619C142.564 7.70619 143.441 8.06504 144.063 8.78236C144.685 9.49988 144.996 10.4966 144.996 11.7729L144.995 12.4829H144.995ZM143.179 11.1752C143.171 10.5105 143.014 9.99366 142.701 9.62452C142.387 9.25537 141.954 9.0707 141.403 9.0707C140.862 9.0707 140.404 9.26509 140.028 9.65291C139.653 10.0407 139.422 10.5486 139.335 11.176H143.179V11.1752Z" fill="#00ADEF"/>
</svg>
