<svg width="146" height="39" viewBox="0 0 146 39" fill="none" xmlns="http://www.w3.org/2000/svg">
<path d="M46.748 22.2887C46.3834 18.7022 44.7084 15.7363 42.0578 13.342C40.1266 11.6177 37.9884 10.1495 35.939 8.56318C32.8549 6.17869 29.7511 3.81392 26.6474 1.43929C25.5438 0.591909 24.3319 0.513081 23.1101 1.13384C21.5828 1.91224 21.4646 3.3114 22.8046 4.3854C24.5782 5.81412 26.3518 7.2527 28.1254 8.69127C28.214 8.76024 28.352 8.79965 28.3224 8.99672H27.7903C22.0361 9.00657 16.2818 9.00657 10.5275 9.00657C10.291 9.01643 10.0447 9.00657 9.80819 9.02628C8.68492 9.14452 7.72916 9.59776 7.07884 10.5437C6.25117 11.7556 6.71427 13.1252 8.09373 13.608C8.63565 13.7952 9.19729 13.8248 9.75892 13.8248C12.3996 13.8051 15.0501 13.7854 17.7006 13.7755C17.8583 13.7657 18.0258 13.7066 18.213 13.8642C17.4642 14.4357 16.735 14.9973 16.0059 15.559C11.2468 19.2145 6.4778 22.8602 1.70883 26.5158C0.979689 27.0774 0.437761 27.7573 0.152017 28.6441C-0.439177 30.4866 0.753064 32.1518 2.70401 32.1518C3.78786 32.1617 4.69436 31.7183 5.52203 31.0483C7.26605 29.6294 9.01008 28.2007 10.7541 26.772C11.9266 25.8162 13.0893 24.8604 14.3111 23.8653C14.4097 24.1806 14.3604 24.417 14.3505 24.6535C14.3407 24.9097 14.2914 25.1757 14.3111 25.4221C14.6166 28.5652 15.9172 31.265 18.0849 33.5313C21.7799 37.3839 26.3518 38.9998 31.6528 38.7141C34.865 38.5466 37.8111 37.5711 40.4123 35.699C44.9744 32.3982 47.3096 27.9938 46.748 22.2887ZM37.1017 29.3141C35.1507 30.8413 32.9436 31.5705 30.165 31.6C27.0021 31.4818 24.1052 30.2107 22.0853 27.2745C19.9964 24.2397 20.2822 20.0323 22.7258 17.2636C24.6077 15.1156 26.9922 13.9923 29.83 13.8149C33.0027 13.6179 35.7518 14.5737 37.9687 16.8596C41.4863 20.4659 41.0528 26.1906 37.1017 29.3141Z" fill="#EA7600"/>
<path d="M37.9681 16.8589C35.7511 14.5729 33.0021 13.6172 29.8293 13.8142C26.9916 13.9916 24.6071 15.1148 22.7251 17.2629C20.2815 20.0316 19.9958 24.2389 22.0847 27.2737C24.1046 30.21 27.0014 31.4811 30.1643 31.5993C32.9429 31.5698 35.1501 30.8406 37.101 29.3134C41.0522 26.1899 41.4857 20.4652 37.9681 16.8589ZM34.4997 27.0668C31.5832 29.0276 27.4153 28.3379 25.3954 25.5593C24.7155 24.6232 24.3509 23.5591 24.3608 21.9727C24.4692 20.0612 25.6121 18.4255 27.6517 17.3417C29.9771 16.1199 33.1893 16.4943 35.1304 18.2285C38.0075 20.8002 37.7119 24.909 34.4997 27.0668Z" fill="white"/>
<path d="M118.962 21.5891C118.962 24.2495 118.962 26.9098 118.962 29.5702C118.962 30.2304 118.952 30.2501 118.273 30.2501C117.346 30.2501 116.43 30.2501 115.504 30.2501C114.883 30.2501 114.883 30.2501 114.844 29.5801C114.844 29.4815 114.893 29.3436 114.765 29.3042C114.706 29.2845 114.597 29.3534 114.528 29.4126C113.07 30.5752 111.356 30.7526 109.582 30.6245C107.779 30.4964 106.153 29.8757 104.862 28.575C101.867 25.5599 102.399 19.3721 107.404 17.6379C109.237 16.9975 111.109 16.9384 112.972 17.5394C113.543 17.7266 114.046 18.0222 114.509 18.3966C114.587 18.4558 114.666 18.574 114.775 18.5247C114.893 18.4656 114.844 18.3375 114.844 18.239C114.844 17.0172 114.863 15.7954 114.844 14.5637C114.844 14.14 114.962 13.9331 115.386 13.8346C116.4 13.5981 117.405 13.3222 118.42 13.066C118.943 12.938 118.962 12.9478 118.962 13.4799C118.962 16.1797 118.962 18.8893 118.962 21.5891ZM111.159 20.3673C109.217 20.3673 107.986 21.2245 107.572 22.9094C107.089 24.8899 107.917 26.9788 110.154 27.3926C111.405 27.6291 112.627 27.5306 113.632 26.6931C114.893 25.6486 115.041 24.2396 114.676 22.7616C114.302 21.2147 112.991 20.3673 111.159 20.3574V20.3673Z" fill="#265787"/>
<path d="M49.4375 21.5398C49.4375 18.8991 49.4375 16.2486 49.4375 13.6079C49.4375 12.9379 49.4375 12.928 50.0681 13.0857C51.083 13.332 52.088 13.6079 53.1029 13.8542C53.4576 13.9331 53.5562 14.1301 53.5562 14.4652C53.5463 15.7067 53.5562 16.9383 53.5562 18.1798C53.5562 18.2882 53.497 18.4459 53.6251 18.505C53.7532 18.5641 53.8419 18.4261 53.9306 18.3473C55.1524 17.362 56.5909 17.1058 58.1083 17.1157C59.1725 17.1157 60.2169 17.293 61.2121 17.6872C64.513 18.9976 66.1584 22.5054 65.0549 25.954C64.1779 28.6735 62.1974 30.0924 59.4484 30.5259C58 30.7525 56.5515 30.7131 55.1622 30.1416C54.709 29.9544 54.2951 29.718 53.9109 29.4125C53.832 29.3534 53.7532 29.2352 53.6448 29.2746C53.5167 29.3238 53.566 29.4519 53.566 29.5505C53.5266 30.2205 53.5266 30.2205 52.8664 30.2205C51.9402 30.2205 51.0239 30.2205 50.0977 30.2205C49.4769 30.2205 49.4572 30.1909 49.4572 29.5899C49.4572 26.8999 49.4572 24.21 49.4572 21.5201L49.4375 21.5398ZM57.261 20.3672C57.123 20.3672 56.9851 20.3672 56.857 20.3672C55.3691 20.4362 54.1966 21.2737 53.7729 22.5645C53.2507 24.1509 53.635 25.8555 54.8174 26.7324C56.0884 27.6685 57.5172 27.6981 58.9557 27.1758C59.6652 26.9196 60.2169 26.4368 60.5421 25.757C61.5668 23.5991 60.7983 20.318 57.2708 20.3771L57.261 20.3672Z" fill="#265787"/>
<path d="M129.87 24.8198C128.225 24.8198 126.57 24.8296 124.924 24.8198C124.53 24.8198 124.422 24.938 124.491 25.3223C124.638 26.15 125.033 26.82 125.752 27.2831C126.983 28.0615 128.915 27.894 129.999 26.9284C130.215 26.7313 130.383 26.5047 130.521 26.2485C130.669 25.9825 130.836 25.9726 131.073 26.1106C131.959 26.6328 132.846 27.1451 133.743 27.6477C134.058 27.825 134.068 27.9827 133.831 28.2389C132.955 29.1749 131.9 29.8548 130.669 30.1997C127.959 30.9584 125.299 30.8894 122.816 29.4311C120.904 28.3078 120.027 26.5145 119.85 24.3567C119.771 23.3615 119.85 22.3663 120.165 21.4007C120.766 19.5483 121.988 18.2477 123.781 17.5185C126.116 16.5726 128.521 16.5431 130.895 17.3018C133.368 18.09 134.768 19.8833 135.231 22.4156C135.339 23.0363 135.398 23.667 135.408 24.3074C135.408 24.7015 135.26 24.8296 134.876 24.8296C133.211 24.8198 131.546 24.8296 129.88 24.8296L129.87 24.8198ZM127.713 22.051C128.471 22.051 129.23 22.051 129.979 22.051C130.885 22.051 130.974 21.9032 130.55 21.0854C130.521 21.0361 130.491 20.977 130.462 20.9278C129.733 19.8045 128.609 19.5089 127.378 19.5976C126.146 19.6862 125.121 20.1592 124.678 21.4401C124.51 21.9328 124.579 22.0412 125.082 22.0412C125.959 22.0412 126.836 22.0412 127.713 22.0412V22.051Z" fill="#265787"/>
<path d="M81.2134 24.8214C79.5975 24.8214 77.9717 24.8214 76.3558 24.8214C75.804 24.8214 75.735 24.9199 75.8631 25.4717C76.208 26.9004 77.2229 27.7084 78.8487 27.7577C80.1197 27.7971 81.2134 27.3931 81.8736 26.2206C82.0115 25.9742 82.1594 25.9545 82.386 26.0925C83.3023 26.6246 84.2187 27.1566 85.135 27.6789C85.4306 27.8464 85.3912 27.9744 85.1941 28.2011C84.061 29.482 82.6027 30.1816 80.9573 30.4772C79.1147 30.8023 77.282 30.7235 75.4986 30.1027C72.9564 29.216 71.2617 26.93 71.1631 24.2401C71.0843 22.1413 71.5868 20.2495 73.1732 18.7715C74.1881 17.8256 75.4099 17.3034 76.7598 17.0374C78.7304 16.6629 80.6814 16.7221 82.5633 17.4413C85.0266 18.3872 86.278 20.2791 86.6229 22.8311C86.6918 23.3139 86.7115 23.7967 86.7312 24.2795C86.751 24.713 86.6032 24.8608 86.1598 24.8608C84.5143 24.8411 82.8589 24.8608 81.2134 24.8608V24.8214ZM79.026 22.0527C79.9227 22.0527 80.8095 22.0527 81.7061 22.0527C82.1396 22.0527 82.2185 21.9344 82.0805 21.5304C81.9032 21.0082 81.6174 20.555 81.1642 20.22C80.0212 19.3824 78.0111 19.3923 76.8977 20.2495C76.4543 20.5944 76.1587 21.0279 76.0011 21.5698C75.9025 21.9147 75.9617 22.0625 76.3656 22.0625C77.2524 22.0428 78.1491 22.0625 79.0457 22.0625L79.026 22.0527Z" fill="#265787"/>
<path d="M91.7864 18.9974C92.2397 18.5934 92.6831 18.219 93.1856 17.9135C95.2745 16.603 98.4177 16.6326 100.378 17.9923C101.374 18.6821 101.906 19.6575 102.054 20.8301C102.132 21.4311 102.172 22.0322 102.172 22.6332C102.172 24.9783 102.162 27.3135 102.172 29.6586C102.172 30.0921 102.024 30.2498 101.6 30.2399C100.605 30.2202 99.6001 30.2202 98.6049 30.2399C98.191 30.2399 98.0531 30.0921 98.0531 29.6783C98.0531 27.55 98.0531 25.4217 98.0531 23.2835C98.0531 22.6431 97.9447 22.0223 97.6885 21.4311C97.4323 20.8399 96.9889 20.4655 96.3682 20.367C94.9001 20.1206 93.5206 20.229 92.4565 21.4508C91.9145 22.0716 91.7273 22.8401 91.7175 23.6382C91.6978 25.599 91.7175 27.5697 91.7076 29.5305C91.7076 30.2103 91.6879 30.2202 91.0277 30.2202C90.0621 30.2202 89.0866 30.2202 88.121 30.2202C87.7466 30.2202 87.5791 30.102 87.5791 29.698C87.589 26.0424 87.589 22.3869 87.5791 18.7313C87.5791 18.3668 87.6973 18.219 88.0816 18.2288C88.9881 18.2485 89.8946 18.2288 90.8011 18.2288C91.3266 18.2288 91.6518 18.4784 91.7766 18.9777L91.7864 18.9974Z" fill="#265787"/>
<path d="M140.344 18.8206C141.162 17.9831 141.94 17.3328 142.965 17.0175C143.655 16.8007 144.335 16.8007 145.024 16.9091C145.29 16.9485 145.33 17.116 145.32 17.3328C145.32 18.2196 145.32 19.1162 145.32 20.003C145.32 20.2887 145.202 20.407 144.916 20.3971C144.413 20.3971 143.911 20.3676 143.418 20.4267C141.654 20.6533 140.502 21.9638 140.383 23.7866C140.265 25.7179 140.344 27.6491 140.324 29.5803C140.324 30.2208 140.305 30.2405 139.664 30.2405C138.698 30.2405 137.723 30.2405 136.757 30.2405C136.393 30.2405 136.255 30.1223 136.255 29.738C136.265 26.0726 136.265 22.3973 136.255 18.7319C136.255 18.3477 136.403 18.2393 136.767 18.2491C137.762 18.2688 138.767 18.259 139.763 18.2491C140.098 18.2491 140.374 18.2787 140.344 18.8206Z" fill="#265787"/>
<path d="M70.2872 22.1221C70.2872 24.6347 70.2773 27.1374 70.2872 29.6401C70.2872 30.1032 70.1295 30.251 69.6861 30.2412C68.7205 30.2215 67.745 30.2215 66.7794 30.2412C66.3853 30.2412 66.2178 30.1229 66.2178 29.6992C66.2276 24.6248 66.2276 19.5504 66.2178 14.476C66.2178 14.0523 66.3656 13.9242 66.7696 13.9242C67.7549 13.9439 68.7402 13.9439 69.7157 13.9242C70.1591 13.9144 70.2773 14.0917 70.2773 14.5154C70.2576 17.0575 70.2773 19.5898 70.2773 22.132L70.2872 22.1221Z" fill="#265787"/>
<path d="M34.5005 27.0674C31.5839 29.0282 27.416 28.3384 25.3961 25.5598C24.7162 24.6238 24.3517 23.5596 24.3615 21.9732C24.4699 20.0617 25.6129 18.4261 27.6525 17.3422C29.9779 16.1204 33.19 16.4948 35.1311 18.229C38.0083 20.8007 37.7127 24.9095 34.5005 27.0674Z" fill="#265787"/>
</svg>
