<svg width="201" height="68" viewBox="0 0 201 68" fill="none" xmlns="http://www.w3.org/2000/svg">
<g clip-path="url(#clip0_1056_33511)">
<path d="M170.397 42.9361L170.869 41.2317C171.454 39.2054 171.237 37.3306 170.255 35.9528C169.755 35.2993 169.111 34.7702 168.374 34.4064C167.637 34.0427 166.826 33.8542 166.004 33.8555L131.363 33.4105C131.256 33.4074 131.151 33.3798 131.056 33.3297C130.961 33.2797 130.879 33.2085 130.815 33.1217C130.756 33.0292 130.719 32.9244 130.706 32.8151C130.694 32.7059 130.707 32.5954 130.744 32.492C130.806 32.3237 130.915 32.1765 131.057 32.0676C131.199 31.9586 131.369 31.8924 131.547 31.8765L166.496 31.4315C170.642 31.2421 175.134 27.8665 176.706 23.7523L178.699 18.5445C178.753 18.4024 178.778 18.2513 178.775 18.0995C178.776 18.0168 178.768 17.9342 178.751 17.8533C177.669 12.9944 175.032 8.62348 171.241 5.4067C167.451 2.18992 162.715 0.303722 157.756 0.0355834C152.797 -0.232555 147.887 1.13207 143.773 3.92148C139.66 6.71089 136.569 10.7721 134.971 15.4861C133.52 14.3965 131.807 13.7125 130.005 13.504C128.204 13.2955 126.38 13.57 124.72 14.2993C123.059 15.0287 121.621 16.1868 120.553 17.6555C119.485 19.1241 118.825 20.8506 118.64 22.6587C118.519 23.8628 118.609 25.0788 118.905 26.2521C115.118 26.363 111.523 27.9489 108.884 30.6733C106.245 33.3976 104.769 37.0459 104.769 40.8435C104.769 41.55 104.82 42.2557 104.92 42.955C104.941 43.1283 105.026 43.2872 105.16 43.399C105.293 43.5109 105.465 43.5671 105.638 43.5563H169.608C169.788 43.5507 169.962 43.4876 170.104 43.376C170.246 43.2644 170.348 43.1103 170.397 42.9361Z" fill="#F78100"/>
<path d="M181.939 18.9375C181.618 18.9375 181.297 18.9375 180.994 18.9375C180.945 18.9435 180.896 18.9546 180.848 18.9706C180.764 18.9986 180.688 19.047 180.627 19.1114C180.566 19.1758 180.522 19.2543 180.499 19.3399L179.134 24.0743C178.548 26.1006 178.77 27.9754 179.752 29.3484C180.251 30.0033 180.895 30.5338 181.632 30.8984C182.369 31.263 183.181 31.452 184.003 31.4505L191.384 31.8955C191.488 31.8992 191.59 31.9267 191.682 31.9759C191.774 32.0252 191.853 32.0948 191.913 32.1796C191.975 32.2721 192.013 32.3776 192.026 32.4878C192.04 32.598 192.027 32.7097 191.989 32.814C191.927 32.9823 191.819 33.1295 191.677 33.2384C191.534 33.3474 191.364 33.4136 191.186 33.4295L183.516 33.8745C179.351 34.0639 174.86 37.4348 173.287 41.5489L172.734 43.0024C172.711 43.0632 172.703 43.1286 172.71 43.1933C172.716 43.2581 172.739 43.3202 172.774 43.3747C172.809 43.4292 172.857 43.4746 172.914 43.5069C172.97 43.5393 173.033 43.5579 173.098 43.561H199.517C199.671 43.5632 199.821 43.5148 199.944 43.4233C200.068 43.3318 200.159 43.2023 200.202 43.0545C200.988 40.2303 201.112 37.262 200.563 34.382C200.015 31.5019 198.809 28.7881 197.041 26.4527C195.272 24.1173 192.989 22.2237 190.369 20.9199C187.749 19.6162 184.864 18.9377 181.939 18.9375Z" fill="#FCAD32"/>
<path d="M22.3575 51.3823H26.863V63.7201H34.7311V67.6734H22.3575V51.3823Z" fill="white"/>
<path d="M39.3972 59.5776V59.5302C39.3972 54.8526 43.1754 51.0557 48.172 51.0557C53.1687 51.0557 56.8996 54.8053 56.8996 59.4829V59.5302C56.8996 64.2078 53.1215 68 48.1248 68C43.1281 68 39.3972 64.2551 39.3972 59.5776ZM52.3044 59.5776V59.5302C52.3044 57.163 50.609 55.132 48.1248 55.132C45.6406 55.132 44.016 57.1346 44.016 59.4829V59.5302C44.016 61.8974 45.7115 63.9285 48.172 63.9285C50.6326 63.9285 52.3044 61.9258 52.3044 59.5776Z" fill="white"/>
<path d="M62.4111 60.5292V51.3823H66.9874V60.4392C66.9874 62.8064 68.1728 63.9048 69.9816 63.9048C71.7904 63.9048 72.9759 62.8348 72.9759 60.5528V51.3823H77.5522V60.4155C77.5522 65.6754 74.558 67.9906 69.9344 67.9906C65.3108 67.9906 62.4111 65.6234 62.4111 60.5434" fill="white"/>
<path d="M84.4427 51.3823H90.7098C96.514 51.3823 99.8813 54.7343 99.8813 59.4308V59.4781C99.8813 64.1794 96.4715 67.6686 90.62 67.6686H84.4427V51.3823ZM90.7806 63.6917C93.4773 63.6917 95.2625 62.2004 95.2625 59.5728V59.5255C95.2625 56.9168 93.4773 55.4066 90.7806 55.4066H88.9482V63.6917H90.7806Z" fill="white"/>
<path d="M106.427 51.3823H119.429V55.3403H110.933V58.1099H118.616V61.8548H110.933V67.6734H106.427V51.3823Z" fill="white"/>
<path d="M125.696 51.3823H130.201V63.7201H138.069V67.6734H125.696V51.3823Z" fill="white"/>
<path d="M149.838 51.2686H154.179L161.098 67.6732H156.271L155.085 64.7663H148.818L147.657 67.6732H142.934L149.838 51.2686ZM153.787 61.2534L151.973 56.6184L150.141 61.2534H153.787Z" fill="white"/>
<path d="M166.902 51.3823H174.586C177.07 51.3823 178.784 52.0357 179.88 53.153C180.363 53.6527 180.738 54.247 180.982 54.8987C181.226 55.5504 181.333 56.2454 181.297 56.9405V56.9878C181.341 58.07 181.044 59.1385 180.448 60.0419C179.852 60.9452 178.987 61.6375 177.977 62.0205L181.854 67.7018H176.631L173.358 62.7685H171.384V67.7018H166.902V51.3823ZM174.378 59.2035C175.908 59.2035 176.791 58.4602 176.791 57.2719V57.2246C176.791 55.9463 175.847 55.2929 174.354 55.2929H171.403V59.2035H174.378Z" fill="white"/>
<path d="M187.814 51.3823H200.887V55.2219H192.272V57.6885H200.074V61.2535H192.272V63.8338H201.005V67.6734H187.814V51.3823Z" fill="white"/>
<path d="M12.4964 61.4856C12.1863 62.2148 11.6669 62.8351 11.0043 63.2676C10.3416 63.7001 9.56553 63.9252 8.77486 63.9143C6.31431 63.9143 4.61884 61.8643 4.61884 59.5161V59.4687C4.61884 57.1015 6.26708 55.1178 8.72763 55.1178C9.57094 55.1117 10.3954 55.368 11.0873 55.8513C11.7792 56.3346 12.3045 57.0212 12.5908 57.8164H17.3419C16.5816 53.939 13.1812 51.0415 8.77486 51.0415C3.7782 51.0557 0 54.8527 0 59.5303V59.5729C0 64.2552 3.71208 68.0001 8.72763 68.0001C13.0159 68.0001 16.369 65.2163 17.2522 61.4856H12.4964Z" fill="white"/>
</g>
<defs>
<clipPath id="clip0_1056_33511">
<rect width="201" height="68" fill="white"/>
</clipPath>
</defs>
</svg>
