<svg width="134" height="26" viewBox="0 0 134 26" fill="none" xmlns="http://www.w3.org/2000/svg">
<path d="M43.4812 8.17891C40.7712 8.17891 38.6412 10.4889 38.6412 13.4589C38.6412 16.4289 40.7712 18.7189 43.4812 18.7189C44.8812 18.7189 46.1712 18.0989 47.1012 16.9389C47.1712 16.8489 47.2812 16.8489 47.3712 16.9189L48.8812 18.1189C48.9712 18.1889 48.9712 18.2989 48.9012 18.3889C47.5712 20.0989 45.5712 21.0989 43.4212 21.0989C39.4512 21.0989 36.2312 17.6789 36.2312 13.4589C36.2312 9.2389 39.4712 5.8189 43.4212 5.8189C45.5712 5.8189 47.5712 6.7989 48.9012 8.5289C48.9712 8.6189 48.9412 8.72891 48.8812 8.79891L47.3712 10.0189C47.2812 10.0889 47.1712 10.0589 47.1012 9.99891C46.1912 8.8189 44.9012 8.17891 43.4812 8.17891ZM53.5212 5.3789H50.9412C50.8112 5.3789 50.7012 5.4689 50.7012 5.5589V20.6789C50.7012 20.7889 50.8112 20.8589 50.9412 20.8589H53.5212C53.6512 20.8589 53.7612 20.7689 53.7612 20.6789V5.5589C53.7812 5.4689 53.6712 5.3789 53.5212 5.3789ZM62.2912 15.8389C62.2912 14.1289 61.0912 12.8589 59.4912 12.8589C57.8912 12.8589 56.7112 14.1489 56.7112 15.8389C56.7112 17.5289 57.9112 18.8789 59.4912 18.8789C61.0712 18.8789 62.2912 17.5689 62.2912 15.8389ZM59.4912 10.6189C62.4012 10.6189 64.6012 12.8589 64.6012 15.8389C64.6012 18.8189 62.4012 21.1189 59.4912 21.1189C56.5812 21.1189 54.4112 18.8589 54.4112 15.8389C54.3912 12.4189 56.9612 10.6189 59.4912 10.6189ZM74.8812 10.8389H72.9712C72.8612 10.8389 72.7912 10.9289 72.7912 11.0189V16.0789C72.7912 18.0589 71.4112 18.7689 70.2612 18.7689C69.2212 18.7689 68.1712 17.9889 68.1712 16.2389V11.0189C68.1712 10.9089 68.0812 10.8389 67.9912 10.8389H66.0812C65.9712 10.8389 65.8812 10.9289 65.8812 11.0189V16.4789C65.8812 19.4789 67.2312 21.1189 69.7012 21.1189C70.5912 21.1189 72.0512 20.6089 72.5912 19.4789L72.7712 19.5189V20.6989C72.7712 20.8089 72.8612 20.8789 72.9512 20.8789H74.8612C74.9712 20.8789 75.0412 20.7889 75.0412 20.6989V11.0189C75.0612 10.9289 74.9712 10.8389 74.8812 10.8389ZM84.4512 15.8389C84.4512 13.9989 82.9612 12.8589 81.5912 12.8589C80.0412 12.8589 78.8112 14.1689 78.8112 15.8389C78.8112 17.5089 80.0312 18.8589 81.5912 18.8589C82.9912 18.8589 84.4512 17.7289 84.4512 15.8389ZM86.5812 5.3789C86.6912 5.3789 86.7612 5.4689 86.7612 5.5589V20.6789C86.7612 20.7889 86.6712 20.8589 86.5812 20.8589H84.6712C84.5612 20.8589 84.4912 20.7689 84.4912 20.6789V19.3289L84.3812 19.5289C83.6712 20.6789 82.2312 21.0789 81.2012 21.0789C78.5112 21.0789 76.4912 18.8189 76.4912 15.8189C76.4912 12.3789 78.8412 10.5789 81.1712 10.5789C82.5212 10.5789 83.7712 11.1789 84.3512 12.1089L84.4612 12.2889V5.5189C84.4612 5.4089 84.5512 5.3389 84.6412 5.3389H86.5712M92.0812 10.8489H89.5012C89.3712 10.8489 89.2612 10.9389 89.2612 11.0289V20.7089C89.2612 20.8189 89.3712 20.8889 89.5012 20.8889H92.0812C92.2112 20.8889 92.3212 20.7989 92.3212 20.7089V11.0289C92.3412 10.9389 92.2312 10.8489 92.0812 10.8489ZM90.4412 5.6989C89.5712 5.6989 88.8912 6.36891 88.8912 7.22891C88.8912 8.08891 89.5812 8.75891 90.4412 8.75891C91.3012 8.75891 91.9712 8.08891 91.9712 7.22891C91.9712 6.36891 91.3012 5.6989 90.4412 5.6989ZM99.3912 10.6289C98.5512 10.6289 97.0612 11.0689 96.5012 12.2689L96.3212 12.2289V11.0289C96.3212 10.9189 96.2312 10.8489 96.1412 10.8489H94.2312C94.1212 10.8489 94.0512 10.9389 94.0512 11.0289V20.7089C94.0512 20.8189 94.1412 20.8889 94.2312 20.8889H96.1412C96.2512 20.8889 96.3212 20.7989 96.3212 20.7089V15.6489C96.3212 13.6989 97.7012 12.9889 98.8512 12.9889C99.8912 12.9889 100.941 13.7689 100.941 15.4989V20.7189C100.941 20.8289 101.031 20.8989 101.121 20.8989H103.031C103.141 20.8989 103.211 20.8089 103.211 20.7189V15.2589C103.211 12.2789 101.861 10.6389 99.3912 10.6389M112.471 15.8589C112.471 14.0189 110.981 12.8789 109.611 12.8789C108.061 12.8789 106.831 14.1889 106.831 15.8589C106.831 17.5289 108.051 18.8789 109.611 18.8789C111.031 18.8789 112.471 17.7489 112.471 15.8589ZM114.621 10.8589C114.731 10.8589 114.801 10.9489 114.801 11.0389V20.7189C114.801 20.8289 114.711 20.8989 114.621 20.8989H112.711C112.601 20.8989 112.531 20.8089 112.531 20.7189V19.3689L112.421 19.5689C111.711 20.7189 110.271 21.1189 109.241 21.1189C106.551 21.1189 104.531 18.8589 104.531 15.8589C104.531 12.4189 106.881 10.6189 109.211 10.6189C110.561 10.6189 111.811 11.2189 112.391 12.1489L112.501 12.3289V11.0189C112.501 10.9089 112.591 10.8389 112.681 10.8389H114.611M123.311 10.8789C122.951 10.7189 122.441 10.6389 121.931 10.6389C120.661 10.6389 119.731 11.3889 119.271 12.8389L119.091 12.8189V11.0389C119.091 10.9289 119.001 10.8589 118.911 10.8589H117.001C116.891 10.8589 116.821 10.9489 116.821 11.0389V20.7189C116.821 20.8289 116.911 20.8989 117.001 20.8989H118.931C119.041 20.8989 119.111 20.8089 119.111 20.7189V17.4089C119.111 13.4589 120.691 12.8789 121.621 12.8789C122.021 12.8789 122.401 12.9689 122.771 13.1189C122.811 13.1389 122.881 13.1389 122.931 13.1189C122.981 13.0989 123.021 13.0489 123.021 12.9889L123.401 11.0989C123.421 11.0089 123.381 10.9189 123.311 10.8789ZM133.901 10.9489C133.901 10.9489 133.811 10.8589 133.741 10.8589H131.681C131.611 10.8589 131.521 10.8989 131.501 10.9689L129.011 17.4089L126.501 10.9689C126.481 10.8989 126.411 10.8589 126.321 10.8589H124.231C124.161 10.8589 124.121 10.8789 124.071 10.9489C124.031 10.9889 124.031 11.0589 124.051 11.1289L127.781 20.2989L125.721 25.6489C125.701 25.7189 125.701 25.7589 125.741 25.8289C125.781 25.8689 125.831 25.9189 125.901 25.9189H127.901C127.971 25.9189 128.061 25.8789 128.081 25.8089L133.901 11.1589C133.921 11.0689 133.921 10.9989 133.901 10.9589M26.7912 7.60891C25.4112 3.23891 21.2612 0.128906 16.6212 0.128906C12.6712 0.128906 9.12117 2.23891 7.25117 5.67891C3.52117 6.34891 0.701172 9.67891 0.701172 13.4989C0.701172 16.6089 2.52117 19.4689 5.34117 20.7589L5.54117 20.8489V18.5889C3.81117 17.5189 2.72117 15.5889 2.72117 13.5089C2.72117 10.5089 5.05117 7.9389 8.03117 7.6289L8.59117 7.5589L8.83117 7.04891C10.2712 4.02891 13.2712 2.1389 16.6212 2.1389C20.5712 2.1389 24.1212 4.93891 25.0312 8.79891L25.2112 9.57891L25.9912 9.5989C28.6512 9.6389 30.8312 11.8389 30.8312 14.5089C30.8312 16.3989 29.7412 17.9289 27.9012 18.7089V20.8589L28.0312 20.8189C31.0112 19.8389 32.8512 17.4489 32.8512 14.5089C32.8512 10.9989 30.1912 8.0689 26.7912 7.6289M12.7112 20.5989C12.4212 20.3089 12.2412 19.8889 12.2412 19.4689V12.8089C12.2412 12.8089 12.2812 12.7189 12.3312 12.7189H13.0812C13.1712 12.7189 13.1912 12.6289 13.1512 12.5589L10.2012 9.60891C10.2012 9.60891 10.1112 9.56891 10.0712 9.60891L7.09117 12.5889C7.02117 12.6289 7.07117 12.7489 7.16117 12.7489H7.91117C7.91117 12.7489 8.00117 12.7889 8.00117 12.8389V19.6289C8.00117 20.5189 8.71117 21.2289 9.58117 21.2289H13.0712C13.1612 21.2289 13.1812 21.1389 13.1412 21.0689L12.7212 20.5989M19.2712 20.5989C18.9812 20.3089 18.8012 19.8889 18.8012 19.4689V14.5189C18.8012 14.5189 18.8412 14.4289 18.8912 14.4289H19.6412C19.7312 14.4289 19.7512 14.3389 19.7112 14.2689L16.7312 11.3189C16.7312 11.3189 16.6412 11.2789 16.6012 11.3189L13.6512 14.2689C13.5812 14.3089 13.6312 14.4289 13.7212 14.4289H14.4712C14.4712 14.4289 14.5612 14.4689 14.5612 14.5189V19.5989C14.5612 20.4889 15.2712 21.1989 16.1612 21.1989H19.6512C19.7412 21.1989 19.7612 21.1089 19.7212 21.0389L19.2812 20.5989M25.8312 20.5989C25.5412 20.3089 25.3612 19.8889 25.3612 19.4689V16.2289C25.3612 16.2289 25.4012 16.1389 25.4512 16.1389H26.2012C26.2912 16.1389 26.3112 16.0489 26.2712 15.9789L23.2912 13.0289C23.2912 13.0289 23.2012 12.9889 23.1612 13.0289L20.2112 15.9789C20.1412 16.0489 20.1912 16.1389 20.2812 16.1389H21.0312C21.0312 16.1389 21.1212 16.1789 21.1212 16.2289V19.5989C21.1212 20.4889 21.8312 21.1989 22.7212 21.1989H26.2112C26.3012 21.1989 26.3212 21.1089 26.2812 21.0389L25.8412 20.5989" fill="#3448C5"/>
</svg>
