<svg width="176" height="59" viewBox="0 0 176 59" fill="none" xmlns="http://www.w3.org/2000/svg">
<path d="M69.042 11.0938V40.8128L72.8663 40.842V26.6831H82.0915V22.9463H72.8663V14.8305H84.8649V11.0938H69.042ZM91.7546 17.1368C93.1266 17.1368 94.2652 16.0275 94.2652 14.6262C94.2652 13.2249 93.1558 12.1155 91.7546 12.1155C90.3825 12.1155 89.2439 13.2249 89.2439 14.6262C89.2439 16.0275 90.3533 17.1368 91.7546 17.1368ZM89.7986 20.8736V40.842H93.6229V20.8736H89.7986ZM107.811 20.2897C102.731 20.2897 99.1989 24.5812 99.1989 29.69C99.1989 34.7989 102.731 39.0903 107.811 39.0903C110.146 39.0903 112.044 38.2145 113.445 36.7257V39.3823C113.475 42.6811 110.847 45.4253 107.519 45.4545C107.49 45.4545 107.49 45.4545 107.461 45.4545C106.235 45.4545 105.038 44.9874 104.074 44.316L102.147 47.6441C106.702 50.5926 112.774 49.2789 115.693 44.7247C116.715 43.1191 117.27 41.2799 117.27 39.3823V20.9028H113.445V22.6836C112.044 21.1947 110.146 20.2897 107.811 20.2897ZM103.023 29.69C103.023 26.5079 105.446 24.0265 108.249 24.0265C111.051 24.0265 113.445 26.5371 113.445 29.69C113.445 32.8721 111.022 35.3244 108.249 35.3244C105.446 35.3244 103.023 32.8429 103.023 29.69ZM131.049 24.0265C128.772 24.0557 126.933 25.9241 126.962 28.2012V40.8128H123.138V20.8444H126.962V22.6836C128.13 21.1363 129.94 20.2605 131.896 20.2897C134.581 20.2897 136.654 21.6034 137.822 23.647C139.165 21.5742 141.442 20.3189 143.894 20.2897C148.244 20.2897 150.959 23.7929 150.959 28.1428V40.8128H147.164V28.2012C147.164 25.9241 145.354 24.0557 143.077 24.0265C140.8 24.0557 138.96 25.9241 138.99 28.2012V40.8128H135.136V28.2012C135.136 25.9241 133.326 24.0557 131.049 24.0265ZM171.336 23.1215C169.584 21.2823 167.132 20.2605 164.592 20.2897C158.9 20.2897 154.871 25.1066 154.871 30.8286C154.871 36.5797 158.9 41.3674 164.592 41.3674C167.132 41.3674 169.555 40.3457 171.336 38.5357V40.8128H175.16V20.8444H171.336V23.1215ZM158.695 30.8286C158.695 27.0334 161.615 23.9973 165.03 23.9973C168.417 24.0265 171.336 27.0334 171.336 30.8286C171.336 34.6237 168.417 37.6307 165.001 37.6307C161.644 37.6599 158.695 34.6529 158.695 30.8286Z" fill="white"/>
<path d="M19.6475 29.514C19.6475 24.084 24.0557 19.6758 29.4857 19.6758C34.9157 19.6758 39.3239 24.084 39.3239 29.514C39.3239 34.944 34.9157 39.3522 29.4857 39.3522C24.0557 39.3522 19.6475 34.944 19.6475 29.514Z" fill="#1ABCFE"/>
<path d="M0 49.1624C0 43.7324 4.40822 39.3242 9.83822 39.3242H19.6764V49.1624C19.6764 54.5924 15.2682 59.0007 9.83822 59.0007C4.40822 59.0007 0 54.5924 0 49.1624Z" fill="#0ACF83"/>
<path d="M19.6475 0.0291953V19.6764H29.4857C34.9157 19.6764 39.3239 15.2682 39.3239 9.83822C39.3239 4.40823 34.9157 0 29.4857 0H19.6475V0.0291953Z" fill="#FF7262"/>
<path d="M0 9.86776C0 15.2978 4.40822 19.706 9.83822 19.706H19.6764V0.0587379H9.83822C4.40822 0.0295444 0 4.43776 0 9.86776Z" fill="#F24E1E"/>
<path d="M0 29.5142C0 34.9442 4.40822 39.3525 9.83822 39.3525H19.6764V19.7052H9.83822C4.40822 19.676 0 24.0843 0 29.5142Z" fill="#A259FF"/>
</svg>
