<svg width="139" height="60" viewBox="0 0 139 60" fill="none" xmlns="http://www.w3.org/2000/svg">
<path d="M12.15 18.8086H2.17C0.971542 18.8086 0 19.7801 0 20.9786V52.8986C0 54.097 0.971542 55.0686 2.17 55.0686H12.15C13.3485 55.0686 14.32 54.097 14.32 52.8986V20.9786C14.32 19.7801 13.3485 18.8086 12.15 18.8086Z" fill="#F7931E"/>
<path d="M31.26 9.41992H20.98C19.8643 9.41992 18.96 10.3243 18.96 11.4399V53.0499C18.96 54.1655 19.8643 55.0699 20.98 55.0699H31.26C32.3756 55.0699 33.28 54.1655 33.28 53.0499V11.4399C33.28 10.3243 32.3756 9.41992 31.26 9.41992Z" fill="#F9A94B"/>
<path d="M49.7297 0H40.4497C39.0579 0 37.9297 1.12824 37.9297 2.52V52.55C37.9297 53.9418 39.0579 55.07 40.4497 55.07H49.7297C51.1214 55.07 52.2497 53.9418 52.2497 52.55V2.52C52.2497 1.12824 51.1214 0 49.7297 0Z" fill="#FABE78"/>
<path d="M69.8301 30.7817C69.1701 31.1617 68.4501 31.4617 67.6601 31.6717C66.8701 31.8817 66.0201 31.9817 65.1101 31.9817C63.0501 31.9817 61.4101 31.4017 60.1901 30.2417C58.9701 29.0817 58.3701 27.4017 58.3701 25.1917C58.3701 22.9817 59.0201 21.3317 60.3201 20.0017C61.6201 18.6717 63.3501 18.0117 65.5101 18.0117C66.3101 18.0117 67.0601 18.0917 67.7301 18.2417C68.4101 18.3917 69.1001 18.6317 69.8001 18.9617L68.9901 20.7717C68.4101 20.4917 67.8501 20.2917 67.3101 20.1717C66.7701 20.0517 66.1601 19.9917 65.5001 19.9917C64.0901 19.9917 62.9501 20.4317 62.0801 21.3017C61.2101 22.1717 60.7701 23.4317 60.7701 25.0717C60.7701 26.7117 61.1701 27.9717 61.9801 28.7917C62.7901 29.6117 63.8801 30.0217 65.2701 30.0217C65.7201 30.0217 66.1301 29.9817 66.5101 29.9017C66.8901 29.8217 67.2301 29.7117 67.5301 29.5617V26.3317H64.6901V24.4117H69.8301V30.8017V30.7817Z" fill="#4285F4"/>
<path d="M77.0793 31.9811C75.5293 31.9811 74.2993 31.5211 73.3893 30.5911C72.4793 29.6611 72.0293 28.4211 72.0293 26.8711C72.0293 25.2211 72.5093 23.9411 73.4393 23.0111C74.3693 22.0811 75.6393 21.6211 77.2493 21.6211C78.7993 21.6211 80.0093 22.0711 80.8793 22.9911C81.7493 23.9111 82.1993 25.1511 82.1993 26.7111C82.1993 28.2711 81.7393 29.6011 80.8093 30.5511C79.8793 31.5011 78.6393 31.9811 77.0693 31.9811H77.0793ZM77.1793 30.2011C78.0693 30.2011 78.7493 29.9111 79.2193 29.3211C79.6893 28.7311 79.9193 27.8811 79.9193 26.7711C79.9193 25.6611 79.6893 24.8411 79.2193 24.2711C78.7493 23.6911 78.0693 23.4111 77.1793 23.4111C76.2893 23.4111 75.5993 23.7111 75.0893 24.3211C74.5793 24.9311 74.3293 25.7711 74.3293 26.8411C74.3293 27.9111 74.5793 28.7411 75.0793 29.3311C75.5793 29.9111 76.2793 30.2111 77.1893 30.2111L77.1793 30.2011Z" fill="#EA4335"/>
<path d="M89.0295 31.9811C87.4795 31.9811 86.2495 31.5211 85.3395 30.5911C84.4295 29.6611 83.9795 28.4211 83.9795 26.8711C83.9795 25.2211 84.4595 23.9411 85.3895 23.0111C86.3195 22.0811 87.5895 21.6211 89.1995 21.6211C90.7495 21.6211 91.9595 22.0711 92.8295 22.9911C93.6995 23.9111 94.1495 25.1511 94.1495 26.7111C94.1495 28.2711 93.6895 29.6011 92.7595 30.5511C91.8295 31.5011 90.5895 31.9811 89.0195 31.9811H89.0295ZM89.1295 30.2011C90.0195 30.2011 90.6995 29.9111 91.1695 29.3211C91.6395 28.7311 91.8695 27.8811 91.8695 26.7711C91.8695 25.6611 91.6395 24.8411 91.1695 24.2711C90.6995 23.6911 90.0195 23.4111 89.1295 23.4111C88.2395 23.4111 87.5495 23.7111 87.0395 24.3211C86.5295 24.9311 86.2795 25.7711 86.2795 26.8411C86.2795 27.9111 86.5295 28.7411 87.0295 29.3311C87.5295 29.9111 88.2295 30.2111 89.1395 30.2111L89.1295 30.2011Z" fill="#FBBC05"/>
<path d="M105.579 30.8206C105.579 32.5206 105.099 33.8606 104.149 34.8406C103.199 35.8206 101.839 36.3006 100.089 36.3006C99.3894 36.3006 98.7394 36.2306 98.1395 36.1006C97.5495 35.9606 96.9395 35.7506 96.3295 35.4606L97.0594 33.8706C97.5694 34.1106 98.0595 34.2806 98.5395 34.3906C99.0095 34.5006 99.5395 34.5506 100.109 34.5506C101.129 34.5506 101.919 34.2506 102.489 33.6606C103.059 33.0706 103.339 32.2306 103.339 31.1506V30.2006H103.289C102.929 30.8006 102.479 31.2406 101.929 31.5406C101.379 31.8406 100.749 31.9906 100.039 31.9906C98.7895 31.9906 97.7994 31.5506 97.0594 30.6606C96.3194 29.7706 95.9395 28.5906 95.9395 27.1106C95.9395 25.4606 96.3495 24.1406 97.1795 23.1406C98.0095 22.1406 99.0894 21.6406 100.449 21.6406C101.089 21.6406 101.649 21.7606 102.119 22.0106C102.589 22.2606 102.989 22.6406 103.289 23.1506H103.339V21.8806H105.579V30.8406V30.8206ZM103.339 27.1606V26.0006C103.339 25.2806 103.109 24.6706 102.659 24.1706C102.199 23.6606 101.619 23.4106 100.919 23.4106C100.079 23.4106 99.4195 23.7106 98.9395 24.3206C98.4595 24.9306 98.2195 25.8206 98.2195 27.0006C98.2195 28.0106 98.4395 28.8006 98.8895 29.3606C99.3395 29.9206 99.9595 30.2006 100.749 30.2006C101.539 30.2006 102.149 29.9206 102.629 29.3506C103.109 28.7806 103.349 28.0506 103.349 27.1506L103.339 27.1606Z" fill="#4285F4"/>
<path d="M108.58 31.7509V17.4609H110.82V31.7509H108.58Z" fill="#34A853"/>
<path d="M122.219 27.3809H115.469C115.509 28.3209 115.789 29.0309 116.289 29.5209C116.789 30.0109 117.499 30.2609 118.409 30.2609C118.769 30.2609 119.189 30.1909 119.659 30.0409C120.129 29.8909 120.609 29.6509 121.079 29.3209L122.079 30.7309C121.459 31.1709 120.829 31.4909 120.189 31.6909C119.559 31.8909 118.859 31.9909 118.099 31.9909C116.569 31.9909 115.369 31.5509 114.519 30.6609C113.669 29.7709 113.229 28.5309 113.229 26.9409C113.229 25.3609 113.669 24.0809 114.559 23.1009C115.449 22.1209 116.579 21.6309 117.959 21.6309C119.339 21.6309 120.339 22.0509 121.089 22.8809C121.839 23.7109 122.229 24.8909 122.229 26.4209V27.3909L122.219 27.3809ZM120.069 25.8309C120.069 24.9809 119.879 24.3409 119.499 23.9109C119.119 23.4809 118.599 23.2609 117.929 23.2609C117.289 23.2609 116.739 23.4909 116.299 23.9609C115.849 24.4309 115.579 25.0509 115.479 25.8409H120.069V25.8309Z" fill="#EA4335"/>
<path d="M57.7197 54.9204L62.7697 41.4004H65.3697L70.3897 54.9204H67.8597L66.7297 51.6904H61.3297L60.2297 54.9204H57.7197ZM61.9297 49.8104H66.1197L64.2697 44.4704C64.2297 44.3304 64.1897 44.1904 64.1497 44.0504C64.1197 43.9104 64.0797 43.7304 64.0497 43.5304H63.9897C63.9597 43.7104 63.9297 43.8804 63.8897 44.0204C63.8497 44.1704 63.8197 44.3104 63.7697 44.4504L61.9197 49.8004L61.9297 49.8104Z" fill="white"/>
<path d="M80.9894 54.921H78.7495V49.341C78.7495 48.421 78.5795 47.731 78.2495 47.271C77.9095 46.811 77.4195 46.581 76.7595 46.581C76.0995 46.581 75.5294 46.831 75.0894 47.341C74.6494 47.851 74.4295 48.491 74.4295 49.271V54.921H72.1895V45.031H74.4295V46.631H74.4695C74.8295 46.021 75.2895 45.561 75.8195 45.251C76.3595 44.941 76.9795 44.791 77.6795 44.791C78.7695 44.791 79.5895 45.131 80.1495 45.821C80.7095 46.511 80.9894 47.521 80.9894 48.861V54.911V54.921Z" fill="white"/>
<path d="M91.3996 54.9208H89.2296V53.4208H89.1896C88.8596 53.9908 88.4396 54.4208 87.9396 54.7208C87.4396 55.0108 86.8696 55.1608 86.2196 55.1608C85.3096 55.1608 84.5596 54.9008 83.9796 54.3608C83.3996 53.8308 83.0996 53.1108 83.0996 52.2008C83.0996 51.2908 83.3896 50.5808 83.9796 50.0208C84.5696 49.4608 85.4496 49.1008 86.6096 48.9308L89.2396 48.5808V48.3708C89.2396 47.7008 89.0696 47.2208 88.7196 46.9108C88.3696 46.6008 87.8996 46.4508 87.2996 46.4508C86.8296 46.4508 86.3496 46.5408 85.8596 46.7108C85.3696 46.8808 84.8996 47.1408 84.4396 47.4908L83.4796 46.1508C84.0796 45.6908 84.6996 45.3508 85.3496 45.1308C85.9996 44.9108 86.7096 44.8008 87.4796 44.8008C88.7896 44.8008 89.7696 45.1308 90.4196 45.7808C91.0696 46.4308 91.3896 47.4208 91.3896 48.7308V54.9208H91.3996ZM89.2496 50.8808V50.0508L87.1196 50.3308C86.4896 50.4208 86.0196 50.5908 85.7096 50.8408C85.3996 51.0908 85.2396 51.4608 85.2396 51.9408C85.2396 52.4208 85.3896 52.7808 85.6796 53.0508C85.9696 53.3208 86.3496 53.4608 86.8296 53.4608C87.5496 53.4608 88.1396 53.2208 88.5796 52.7308C89.0196 52.2408 89.2496 51.6308 89.2496 50.8708V50.8808Z" fill="white"/>
<path d="M94.2695 54.9209V40.6309H96.5095V54.9209H94.2695Z" fill="white"/>
<path d="M108.149 45.0315L103.609 56.7115C103.259 57.6315 102.779 58.3315 102.159 58.8015C101.549 59.2815 100.809 59.5215 99.9594 59.5215C99.7094 59.5215 99.4694 59.5015 99.2394 59.4715C99.0094 59.4415 98.7895 59.3915 98.5795 59.3415L98.9894 57.6015C99.1294 57.6515 99.2695 57.6915 99.3995 57.7115C99.5195 57.7315 99.6594 57.7415 99.8094 57.7415C100.169 57.7415 100.489 57.6415 100.749 57.4515C101.009 57.2615 101.229 56.9715 101.389 56.6015L102.119 54.9015L98.1895 45.0315H100.669L102.969 51.9115C103.009 52.0315 103.049 52.1715 103.079 52.3415C103.119 52.5115 103.159 52.7115 103.189 52.9215H103.249C103.279 52.7915 103.309 52.6415 103.349 52.4815C103.389 52.3215 103.439 52.1315 103.499 51.9215L105.889 45.0215H108.149V45.0315Z" fill="white"/>
<path d="M115.18 54.7813C114.9 54.9113 114.6 55.0013 114.28 55.0513C113.96 55.1013 113.63 55.1313 113.27 55.1313C112.35 55.1313 111.64 54.8913 111.14 54.4013C110.64 53.9113 110.4 53.1913 110.4 52.2313V46.7713H108.75V45.0313H110.4V42.7913L112.64 42.1113V45.0313H115.01V46.7713H112.64V52.0313C112.64 52.5213 112.73 52.8713 112.91 53.0913C113.09 53.3113 113.36 53.4113 113.74 53.4113C113.92 53.4113 114.09 53.3913 114.26 53.3513C114.42 53.3113 114.57 53.2513 114.7 53.1813L115.17 54.7713L115.18 54.7813Z" fill="white"/>
<path d="M118.24 43.2916C117.83 43.2916 117.49 43.1616 117.23 42.9016C116.97 42.6416 116.83 42.3216 116.83 41.9516C116.83 41.5516 116.96 41.2316 117.23 40.9816C117.5 40.7316 117.83 40.6016 118.24 40.6016C118.65 40.6016 118.99 40.7316 119.26 40.9816C119.53 41.2316 119.67 41.5616 119.67 41.9516C119.67 42.3416 119.53 42.6516 119.26 42.9116C118.99 43.1616 118.65 43.2916 118.24 43.2916ZM119.34 54.9216H117.1V45.0316H119.34V54.9216Z" fill="white"/>
<path d="M129.939 54.281C129.449 54.591 128.959 54.811 128.459 54.951C127.969 55.091 127.429 55.161 126.859 55.161C125.339 55.161 124.119 54.711 123.219 53.821C122.309 52.931 121.859 51.721 121.859 50.211C121.859 48.561 122.329 47.241 123.279 46.261C124.229 45.281 125.509 44.791 127.109 44.791C127.659 44.791 128.169 44.851 128.629 44.971C129.089 45.091 129.549 45.281 130.019 45.551L129.129 47.111C128.799 46.921 128.479 46.781 128.159 46.701C127.839 46.621 127.499 46.571 127.139 46.571C126.179 46.571 125.449 46.881 124.929 47.511C124.409 48.131 124.149 48.971 124.149 50.011C124.149 51.051 124.419 51.911 124.969 52.491C125.519 53.071 126.219 53.361 127.069 53.361C127.349 53.361 127.649 53.311 127.989 53.221C128.329 53.131 128.669 52.971 129.009 52.741L129.929 54.271L129.939 54.281Z" fill="white"/>
<path d="M131.09 54.1505L132.07 52.5705C132.45 52.8305 132.85 53.0505 133.28 53.2105C133.71 53.3705 134.18 53.4605 134.7 53.4605C135.25 53.4605 135.68 53.3605 135.99 53.1605C136.3 52.9605 136.45 52.6505 136.45 52.2505C136.45 51.9205 136.32 51.6505 136.06 51.4405C135.8 51.2305 135.37 51.0505 134.76 50.9005C133.53 50.6105 132.67 50.2305 132.17 49.7505C131.67 49.2705 131.43 48.6405 131.43 47.8605C131.43 46.9605 131.78 46.2305 132.49 45.6605C133.2 45.0905 134.11 44.8105 135.23 44.8105C135.78 44.8105 136.31 44.8805 136.81 45.0205C137.31 45.1605 137.8 45.3905 138.27 45.6905L137.38 47.2305C136.96 46.9705 136.57 46.7805 136.22 46.6605C135.87 46.5405 135.51 46.4905 135.14 46.4905C134.6 46.4905 134.19 46.5905 133.89 46.7905C133.59 46.9905 133.44 47.2705 133.44 47.6305C133.44 47.9905 133.58 48.2605 133.87 48.4405C134.16 48.6205 134.65 48.7905 135.36 48.9605C136.44 49.2205 137.22 49.5905 137.72 50.0705C138.22 50.5505 138.47 51.2005 138.47 52.0205C138.47 52.9705 138.12 53.7305 137.42 54.3005C136.72 54.8705 135.77 55.1605 134.59 55.1605C133.94 55.1605 133.33 55.0805 132.74 54.9105C132.16 54.7405 131.6 54.4905 131.06 54.1605L131.09 54.1505Z" fill="white"/>
</svg>
