<svg width="137" height="59" viewBox="0 0 137 59" fill="none" xmlns="http://www.w3.org/2000/svg">
<path d="M11.9996 18.5239H2.14313C0.959514 18.5239 0 19.4807 0 20.6609V52.0959C0 53.2761 0.959514 54.2329 2.14313 54.2329H11.9996C13.1832 54.2329 14.1427 53.2761 14.1427 52.0959V20.6609C14.1427 19.4807 13.1832 18.5239 11.9996 18.5239Z" fill="#F7931E"/>
<path d="M30.8724 9.27661H20.7197C19.6179 9.27661 18.7247 10.1673 18.7247 11.2659V52.2436C18.7247 53.3422 19.6179 54.2329 20.7197 54.2329H30.8724C31.9742 54.2329 32.8674 53.3422 32.8674 52.2436V11.2659C32.8674 10.1673 31.9742 9.27661 30.8724 9.27661Z" fill="#F9A94B"/>
<path d="M49.1137 0H39.9486C38.5741 0 37.4598 1.11109 37.4598 2.4817V51.7514C37.4598 53.122 38.5741 54.2331 39.9486 54.2331H49.1137C50.4883 54.2331 51.6025 53.122 51.6025 51.7514V2.4817C51.6025 1.11109 50.4883 0 49.1137 0Z" fill="#FABE78"/>
<path d="M68.9657 30.312C68.3138 30.6862 67.6028 30.9817 66.8225 31.1885C66.0423 31.3953 65.2028 31.4938 64.3041 31.4938C62.2696 31.4938 60.6499 30.9226 59.445 29.7802C58.2401 28.6379 57.6476 26.9834 57.6476 24.807C57.6476 22.6306 58.2895 21.0056 59.5734 19.6958C60.8573 18.3861 62.5659 17.7361 64.6992 17.7361C65.4892 17.7361 66.23 17.8149 66.8917 17.9626C67.5633 18.1103 68.2447 18.3467 68.936 18.6716L68.1361 20.4541C67.5632 20.1784 67.0102 19.9814 66.4769 19.8633C65.9435 19.7451 65.3411 19.686 64.6893 19.686C63.2967 19.686 62.1708 20.1193 61.3116 20.9761C60.4524 21.8329 60.0178 23.0737 60.0178 24.6888C60.0178 26.3039 60.4129 27.5447 61.2129 28.3523C62.0128 29.1598 63.0893 29.5636 64.4621 29.5636C64.9065 29.5636 65.3115 29.5242 65.6868 29.4454C66.0621 29.3666 66.3979 29.2583 66.6941 29.1106V25.9296H63.8893V24.0388H68.9657V30.3317V30.312Z" fill="#4285F4"/>
<path d="M76.1251 31.4938C74.5942 31.4938 73.3795 31.0408 72.4807 30.1249C71.582 29.2091 71.1376 27.9879 71.1376 26.4615C71.1376 24.8366 71.6116 23.576 72.5301 22.6601C73.4486 21.7443 74.7029 21.2913 76.2929 21.2913C77.8238 21.2913 79.0188 21.7344 79.878 22.6404C80.7372 23.5465 81.1817 24.7676 81.1817 26.3039C81.1817 27.8402 80.7274 29.15 79.8089 30.0856C78.8904 31.0211 77.6657 31.4938 76.1152 31.4938H76.1251ZM76.2238 29.7409C77.1028 29.7409 77.7744 29.4553 78.2386 28.8742C78.7027 28.2932 78.9299 27.4561 78.9299 26.363C78.9299 25.2699 78.7027 24.4623 78.2386 23.901C77.7744 23.3298 77.1028 23.0541 76.2238 23.0541C75.3448 23.0541 74.6634 23.3495 74.1597 23.9502C73.656 24.551 73.4091 25.3782 73.4091 26.4319C73.4091 27.4857 73.656 28.3031 74.1498 28.8841C74.6436 29.4553 75.335 29.7507 76.2337 29.7507L76.2238 29.7409Z" fill="#EA4335"/>
<path d="M87.927 31.4941C86.3962 31.4941 85.1815 31.0411 84.2827 30.1252C83.384 29.2093 82.9396 27.9882 82.9396 26.4617C82.9396 24.8368 83.4136 23.5762 84.3321 22.6604C85.2506 21.7445 86.5049 21.2915 88.0949 21.2915C89.6258 21.2915 90.8208 21.7347 91.68 22.6407C92.5392 23.5467 92.9837 24.7679 92.9837 26.3041C92.9837 27.8404 92.5294 29.1502 91.6109 30.0858C90.6924 31.0214 89.4677 31.4941 87.9172 31.4941H87.927ZM88.0258 29.7411C88.9048 29.7411 89.5764 29.4555 90.0406 28.8745C90.5047 28.2935 90.7319 27.4564 90.7319 26.3632C90.7319 25.2701 90.5047 24.4626 90.0406 23.9012C89.5764 23.33 88.9048 23.0543 88.0258 23.0543C87.1468 23.0543 86.4654 23.3497 85.9617 23.9505C85.458 24.5512 85.2111 25.3784 85.2111 26.4322C85.2111 27.4859 85.458 28.3033 85.9518 28.8843C86.4456 29.4555 87.137 29.751 88.0357 29.751L88.0258 29.7411Z" fill="#FBBC05"/>
<path d="M104.273 30.3515C104.273 32.0257 103.799 33.3453 102.86 34.3104C101.922 35.2756 100.579 35.7483 98.8507 35.7483C98.1594 35.7483 97.5174 35.6793 96.9248 35.5513C96.3421 35.4134 95.7397 35.2066 95.1372 34.921L95.8582 33.3552C96.3619 33.5915 96.8458 33.7589 97.3199 33.8673C97.7841 33.9756 98.3075 34.0248 98.8704 34.0248C99.8778 34.0248 100.658 33.7294 101.221 33.1484C101.784 32.5673 102.06 31.7401 102.06 30.6765V29.741H102.011C101.656 30.3318 101.211 30.7651 100.668 31.0606C100.125 31.356 99.5025 31.5038 98.8013 31.5038C97.5668 31.5038 96.589 31.0704 95.8582 30.194C95.1274 29.3175 94.7521 28.1554 94.7521 26.6979C94.7521 25.073 95.157 23.773 95.9767 22.7882C96.7964 21.8034 97.8631 21.311 99.2062 21.311C99.8383 21.311 100.391 21.4292 100.856 21.6754C101.32 21.9216 101.715 22.2958 102.011 22.7981H102.06V21.5474H104.273V30.3712V30.3515ZM102.06 26.7472V25.6048C102.06 24.8957 101.833 24.295 101.389 23.8026C100.935 23.3003 100.362 23.0541 99.6704 23.0541C98.8408 23.0541 98.189 23.3496 97.7149 23.9503C97.2409 24.551 97.0038 25.4275 97.0038 26.5896C97.0038 27.5842 97.2211 28.3622 97.6655 28.9137C98.11 29.4652 98.7223 29.741 99.5025 29.741C100.283 29.741 100.885 29.4652 101.359 28.9039C101.833 28.3425 102.07 27.6236 102.07 26.7373L102.06 26.7472Z" fill="#4285F4"/>
<path d="M107.235 31.2677V17.1948H109.448V31.2677H107.235Z" fill="#34A853"/>
<path d="M120.706 26.9639H114.04C114.079 27.8896 114.356 28.5888 114.849 29.0714C115.343 29.5539 116.044 29.8001 116.943 29.8001C117.299 29.8001 117.713 29.7312 118.178 29.5835C118.642 29.4357 119.116 29.1994 119.58 28.8744L120.568 30.263C119.955 30.6963 119.333 31.0114 118.701 31.2084C118.079 31.4053 117.388 31.5038 116.637 31.5038C115.126 31.5038 113.941 31.0705 113.101 30.194C112.262 29.3176 111.827 28.0964 111.827 26.5306C111.827 24.9746 112.262 23.714 113.141 22.7489C114.02 21.7838 115.136 21.3013 116.499 21.3013C117.862 21.3013 118.849 21.7149 119.59 22.5323C120.331 23.3497 120.716 24.5117 120.716 26.0185V26.9737L120.706 26.9639ZM118.583 25.4374C118.583 24.6004 118.395 23.9701 118.02 23.5466C117.644 23.1232 117.131 22.9065 116.469 22.9065C115.837 22.9065 115.294 23.133 114.859 23.5959C114.415 24.0587 114.148 24.6693 114.049 25.4473H118.583V25.4374Z" fill="#EA4335"/>
<path d="M57.0049 54.0853L61.9924 40.7708H64.5602L69.5181 54.0853H67.0194L65.9034 50.9044H60.5703L59.4839 54.0853H57.0049ZM61.1628 49.053H65.3009L63.4738 43.7941C63.4343 43.6562 63.3948 43.5184 63.3553 43.3805C63.3257 43.2426 63.2862 43.0653 63.2566 42.8684H63.1973C63.1677 43.0456 63.1381 43.2131 63.0986 43.3509C63.059 43.4987 63.0294 43.6365 62.98 43.7744L61.1529 49.0431L61.1628 49.053Z" fill="white"/>
<path d="M79.9869 54.0857H77.7746V48.5905C77.7746 47.6845 77.6067 47.0049 77.2808 46.5519C76.945 46.0989 76.4611 45.8724 75.8092 45.8724C75.1574 45.8724 74.5944 46.1186 74.1599 46.6209C73.7253 47.1231 73.5081 47.7534 73.5081 48.5215V54.0857H71.2958V44.346H73.5081V45.9217H73.5476C73.9031 45.3209 74.3574 44.8679 74.8809 44.5626C75.4142 44.2573 76.0265 44.1096 76.7178 44.1096C77.7943 44.1096 78.6042 44.4445 79.1573 45.124C79.7103 45.8035 79.9869 46.7981 79.9869 48.1178V54.0758V54.0857Z" fill="white"/>
<path d="M90.2678 54.0851H88.1246V52.6079H88.0851C87.7592 53.1692 87.3444 53.5927 86.8506 53.8881C86.3568 54.1737 85.7939 54.3215 85.1519 54.3215C84.2532 54.3215 83.5125 54.0654 82.9396 53.5336C82.3668 53.0117 82.0705 52.3026 82.0705 51.4064C82.0705 50.5103 82.3569 49.8111 82.9396 49.2596C83.5223 48.7081 84.3914 48.3535 85.5371 48.1861L88.1345 47.8415V47.6346C88.1345 46.9748 87.9666 46.5021 87.6209 46.1968C87.2753 45.8915 86.8111 45.7438 86.2185 45.7438C85.7544 45.7438 85.2803 45.8325 84.7964 45.9999C84.3124 46.1673 83.8482 46.4233 83.3939 46.768L82.4458 45.4484C83.0384 44.9954 83.6507 44.6605 84.2927 44.4439C84.9346 44.2272 85.6358 44.1189 86.3963 44.1189C87.6901 44.1189 88.6579 44.4439 89.2999 45.084C89.9419 45.7241 90.2579 46.6991 90.2579 47.9892V54.0851H90.2678ZM88.1444 50.1065V49.2891L86.0408 49.5649C85.4186 49.6535 84.9544 49.8209 84.6482 50.0671C84.3421 50.3133 84.184 50.6777 84.184 51.1504C84.184 51.6231 84.3322 51.9776 84.6186 52.2435C84.905 52.5094 85.2803 52.6473 85.7543 52.6473C86.4654 52.6473 87.0481 52.4109 87.4827 51.9284C87.9172 51.4458 88.1444 50.8451 88.1444 50.0967V50.1065Z" fill="white"/>
<path d="M93.1027 54.0855V40.0127H95.3149V54.0855H93.1027Z" fill="white"/>
<path d="M106.809 44.3458L102.326 55.8483C101.98 56.7543 101.506 57.4437 100.894 57.9065C100.291 58.3792 99.5603 58.6156 98.7209 58.6156C98.474 58.6156 98.2369 58.5959 98.0098 58.5663C97.7826 58.5368 97.5653 58.4876 97.3579 58.4383L97.7629 56.7248C97.9011 56.774 98.0394 56.8134 98.1678 56.8331C98.2863 56.8528 98.4246 56.8626 98.5727 56.8626C98.9283 56.8626 99.2443 56.7642 99.5011 56.577C99.7579 56.3899 99.9751 56.1043 100.133 55.74L100.854 54.0658L96.9728 44.3458H99.4221L101.694 51.1212C101.733 51.2394 101.773 51.3773 101.802 51.5447C101.842 51.7121 101.881 51.9091 101.911 52.1159H101.97C102 51.9879 102.029 51.8401 102.069 51.6826C102.108 51.525 102.158 51.3379 102.217 51.1311L104.577 44.3359H106.809V44.3458Z" fill="white"/>
<path d="M113.754 53.9474C113.477 54.0755 113.181 54.1641 112.865 54.2133C112.549 54.2626 112.223 54.2921 111.867 54.2921C110.959 54.2921 110.258 54.0558 109.764 53.5732C109.27 53.0907 109.033 52.3816 109.033 51.4362V46.0592H107.403V44.3456H109.033V42.1396L111.245 41.47V44.3456H113.586V46.0592H111.245V51.2392C111.245 51.7218 111.334 52.0665 111.512 52.2831C111.69 52.4998 111.956 52.5983 112.332 52.5983C112.509 52.5983 112.677 52.5786 112.845 52.5392C113.003 52.4998 113.151 52.4407 113.28 52.3717L113.744 53.9376L113.754 53.9474Z" fill="white"/>
<path d="M116.775 42.6325C116.371 42.6325 116.035 42.5045 115.778 42.2484C115.521 41.9924 115.383 41.6773 115.383 41.3129C115.383 40.919 115.511 40.6038 115.778 40.3576C116.045 40.1114 116.371 39.9834 116.775 39.9834C117.18 39.9834 117.516 40.1114 117.783 40.3576C118.05 40.6038 118.188 40.9288 118.188 41.3129C118.188 41.697 118.05 42.0023 117.783 42.2583C117.516 42.5045 117.18 42.6325 116.775 42.6325ZM117.862 54.0858H115.65V44.3461H117.862V54.0858Z" fill="white"/>
<path d="M128.331 53.4556C127.847 53.7609 127.363 53.9776 126.869 54.1155C126.385 54.2533 125.852 54.3223 125.289 54.3223C123.788 54.3223 122.583 53.8791 121.694 53.0026C120.795 52.1262 120.351 50.9345 120.351 49.4475C120.351 47.8226 120.815 46.5226 121.753 45.5575C122.691 44.5924 123.956 44.1099 125.536 44.1099C126.079 44.1099 126.583 44.169 127.037 44.2871C127.491 44.4053 127.946 44.5924 128.41 44.8583L127.531 46.3946C127.205 46.2075 126.889 46.0696 126.573 45.9908C126.257 45.9121 125.921 45.8628 125.565 45.8628C124.617 45.8628 123.896 46.1681 123.383 46.7885C122.869 47.3991 122.612 48.2263 122.612 49.2505C122.612 50.2747 122.879 51.1217 123.422 51.6929C123.965 52.264 124.657 52.5496 125.496 52.5496C125.773 52.5496 126.069 52.5004 126.405 52.4118C126.741 52.3231 127.076 52.1656 127.412 51.9391L128.321 53.4458L128.331 53.4556Z" fill="white"/>
<path d="M129.467 53.327L130.435 51.771C130.81 52.027 131.205 52.2437 131.63 52.4012C132.055 52.5588 132.519 52.6474 133.033 52.6474C133.576 52.6474 134 52.549 134.307 52.352C134.613 52.1551 134.761 51.8498 134.761 51.4558C134.761 51.1309 134.632 50.865 134.376 50.6581C134.119 50.4513 133.694 50.2741 133.092 50.1264C131.877 49.8408 131.028 49.4665 130.534 48.9938C130.04 48.5211 129.803 47.9007 129.803 47.1326C129.803 46.2462 130.149 45.5273 130.85 44.966C131.551 44.4046 132.45 44.1289 133.556 44.1289C134.099 44.1289 134.623 44.1978 135.116 44.3357C135.61 44.4736 136.094 44.7001 136.558 44.9955L135.679 46.5121C135.265 46.2561 134.879 46.069 134.534 45.9508C134.188 45.8326 133.833 45.7834 133.467 45.7834C132.934 45.7834 132.529 45.8819 132.233 46.0788C131.936 46.2758 131.788 46.5515 131.788 46.9061C131.788 47.2606 131.926 47.5265 132.213 47.7037C132.499 47.881 132.983 48.0484 133.684 48.2158C134.751 48.4719 135.521 48.8363 136.015 49.309C136.509 49.7817 136.756 50.4218 136.756 51.2293C136.756 52.1649 136.41 52.9134 135.719 53.4747C135.028 54.036 134.089 54.3216 132.924 54.3216C132.282 54.3216 131.68 54.2428 131.097 54.0754C130.524 53.908 129.971 53.6618 129.438 53.3368L129.467 53.327Z" fill="white"/>
</svg>
