<svg width="203" height="102" viewBox="0 0 203 102" fill="none" xmlns="http://www.w3.org/2000/svg">
<path d="M188.553 61.6967H188.597C191.165 61.6967 192.973 59.9083 192.995 57.3481C193.005 56.0799 192.657 54.9205 191.97 54.0841C191.259 53.1967 190.266 52.7241 189.094 52.7139H189.07C187.49 52.7139 186.025 53.9209 184.587 56.3978L184.472 56.595L184.4 56.3791L183.31 53.314C183.243 53.0454 183.013 52.8788 182.715 52.8788C182.514 52.8843 182.319 52.9467 182.151 53.059C182.068 53.1063 181.996 53.1713 181.94 53.2493C181.885 53.3274 181.846 53.4168 181.828 53.5112L181.82 53.5401C180.382 58.0502 179.194 60.2415 178.188 60.2415C178.042 60.2415 177.927 60.1905 177.843 60.097C177.579 59.8046 177.645 59.111 177.735 58.1454L177.843 55.7875C177.784 54.1555 176.895 53.1729 175.464 53.1627C173.646 53.1627 172.47 55.1075 171.929 56.2669L171.766 56.612L171.733 56.2312C171.597 54.7964 171.118 53.0828 169.604 53.0692C167.84 53.0692 166.495 55.15 165.675 56.8942L165.455 57.3617L165.477 56.8449L165.714 52.7581C165.773 52.3756 165.742 52.1189 165.617 51.971C165.499 51.835 165.275 51.784 164.949 51.801C164.384 51.835 164.095 52.1835 163.66 53.3412C162.946 55.2452 161.129 59.6703 159.678 59.6703C159.39 59.6686 159.163 59.5683 158.994 59.3762C158.385 58.6741 158.629 56.7803 158.966 54.1572L158.991 53.9583C159.15 52.7173 158.879 52.4521 158.208 52.3263C158.141 52.3141 158.073 52.3078 158.005 52.3076C157.468 52.3076 157.218 52.8244 156.719 54.2575C155.802 56.8143 154.672 59.5003 153.332 59.5003C153.282 59.5003 153.236 59.4969 153.185 59.4884C152.475 59.3694 152.508 58.3086 152.508 56.9673C152.519 56.2431 152.53 55.4373 152.419 54.6791C152.219 53.348 151.438 52.515 150.38 52.5065C148.271 52.5065 146.848 55.2214 146.185 56.8415L146.033 57.207L145.982 56.816L145.728 53.688V53.6489L145.752 53.6183C149.699 48.6237 151.47 45.0197 151.495 41.9325C151.512 39.9605 150.605 38.7756 149.073 38.7637C147.953 38.7637 145.288 39.7021 144.363 48.3857L144.082 53.3259L144.065 53.3514C142.26 55.9779 138.405 60.4982 134.631 60.4982C131.22 60.4982 128.5 57.7272 128.5 52.8482C128.5 46.2862 133.119 42.2572 136.598 42.2572H136.627C137.383 42.2623 138.031 42.4748 138.501 42.8692C138.992 43.2772 139.246 43.8552 139.239 44.5352C139.232 45.4413 138.938 45.9071 138.654 46.3542L138.442 46.7061C138.375 46.8285 138.314 47.007 138.403 47.16C138.493 47.313 138.728 47.415 139.012 47.415C139.841 47.415 141.093 46.2114 141.105 44.3975C141.118 42.4986 139.528 40.5419 136.69 40.5419C132.393 40.5419 126.604 45.2849 126.604 52.9757C126.604 58.4157 129.997 62.1727 134.594 62.1727C137.855 62.1727 141.083 59.8267 143.94 55.9048L144.116 55.6668L144.13 55.9626L144.37 59.3541L144.454 60.4795C144.451 60.9436 144.525 61.2649 144.684 61.4655C144.843 61.6661 145.096 61.7545 145.48 61.7596C146.122 61.7596 146.249 61.3176 146.505 60.2347L146.579 59.9253C146.894 58.6112 148.061 54.3187 149.815 54.3187C150.103 54.3221 150.323 54.4071 150.48 54.5737C150.869 54.9868 150.825 55.8351 150.776 56.8177C150.742 57.4297 150.714 58.0638 150.774 58.6792C150.94 60.3452 151.654 61.1578 152.962 61.1663C154.303 61.1663 155.702 59.7162 156.44 58.3664L156.58 58.1114L156.634 58.397C156.77 59.1195 157.379 61.4876 159.29 61.4876C161.019 61.4876 162.504 59.6584 164.128 55.8912L164.342 55.3982L164.328 55.9354L164.216 60.4523C164.216 61.4944 164.318 61.8922 164.8 61.8922L164.908 61.8973C165.368 61.8973 165.681 61.6219 165.839 61.0762C167.064 56.7922 168.123 54.793 169.168 54.793C170.195 54.7998 170.29 56.6868 170.372 60.0188L170.378 60.2534C170.403 61.4179 170.445 61.933 171.164 61.9398C171.711 61.9398 171.848 61.508 172.128 60.4438L172.311 59.7808C173.299 56.3366 174.118 54.9307 175.136 54.9307C176.009 54.9375 176.058 55.8419 176.073 56.1207C176.107 56.7582 176.04 57.4246 175.979 58.0672L175.882 59.859C175.933 61.2071 176.669 61.9534 177.949 61.9636C179.611 61.9636 181.109 60.0086 182.424 56.1632L182.515 55.8946L182.62 56.1598L183.456 58.5602L183.466 58.5976L183.449 58.6316C182.177 61.4706 181.28 64.6292 181.267 66.3156C181.25 68.5392 182.251 69.9842 183.818 69.9961H183.845C184.697 69.9961 186.683 69.6527 186.721 66.4703C186.738 65.1664 186.428 63.3219 185.811 60.9878L185.74 60.7209L185.968 60.8909C186.758 61.4179 187.649 61.6984 188.546 61.7069L188.553 61.6967ZM145.742 50.9051L145.938 48.5965C146.554 43.8654 147.836 40.5606 149.059 40.5606H149.066C149.65 40.5657 149.94 41.0077 149.935 41.8781C149.918 44.015 148.572 47.0733 145.933 50.968L145.727 51.274L145.742 50.9051ZM184.755 67.9153C184.56 68.1754 184.29 68.3063 183.95 68.3063C183.561 68.3029 183.266 68.1669 183.067 67.8983C182.508 67.1503 182.666 65.3857 183.574 62.1863L183.926 61.0439L184.033 60.7243L184.126 61.0643C185.188 64.7567 185.398 67.0653 184.752 67.9289L184.755 67.9153ZM185.085 58.4548L185.068 58.4208L185.029 58.2984L185.046 58.2644C186.255 55.7586 187.643 54.3204 188.849 54.3204H188.862C190.224 54.3306 191.166 55.5614 191.153 57.3158C191.144 58.4854 190.632 59.1603 190.202 59.519C189.712 59.927 189.062 60.165 188.416 60.165C186.82 60.1514 185.709 59.23 185.087 58.4599L185.085 58.4548ZM107.901 61.2853C109.768 61.1357 111.25 58.5653 111.802 57.4909L111.944 57.2104L111.998 57.5215C112.262 59.0549 113.093 61.6355 115.691 61.6525H115.713C116.836 61.6525 118.112 60.9623 119.401 59.655L119.496 59.5598L119.563 59.6754C120.431 61.134 121.593 61.9075 122.833 61.8446C124.657 61.7494 125.763 60.4506 125.878 59.5496C125.904 59.3201 125.844 59.1025 125.712 58.9546C125.548 58.771 125.31 58.7506 125.137 58.9172L125.053 58.9971C124.63 59.4051 123.835 60.1871 122.975 60.216C121.92 60.267 121.14 59.6346 120.636 58.3256L120.615 58.2712L120.649 58.2253C123.552 54.4122 125.589 48.5914 125.386 44.6882C125.293 42.8811 124.77 40.7272 122.806 40.7272L122.661 40.7306C121.91 40.7697 121.223 41.1301 120.627 41.8016C118.805 43.8501 117.853 48.8906 118.198 54.6451C118.258 55.774 118.464 56.8902 118.812 57.9652L118.829 58.023L118.79 58.0689C117.714 59.3337 116.652 60.0307 115.799 60.0307C113.747 60.0307 113.817 56.5746 113.979 53.7067C114.013 53.0879 114.067 52.6952 113.884 52.4708C113.754 52.311 113.536 52.2328 113.219 52.2294H113.182C112.451 52.2294 112.299 52.3824 111.925 53.4704C111.147 55.7314 109.615 59.5275 108.072 59.5275C107.644 59.5241 107.317 59.3745 107.094 59.0906C106.346 58.1318 106.915 55.7365 107.37 53.8121L107.598 52.8261C107.7 52.3705 107.666 52.0373 107.507 51.8367C107.348 51.6361 107.025 51.5545 106.6 51.5868C105.94 51.6378 105.517 51.9183 105.314 53.1814L105.274 53.4432L105.105 53.2562C104.817 52.8278 104.254 52.3178 103.21 52.3178L102.926 52.3297C101.809 52.4215 100.54 53.2018 99.6134 54.3663C98.5266 55.7333 98.0045 57.4681 98.1552 59.2113L98.189 59.4833L98.1958 59.5343L98.1619 59.5717C97.514 60.2806 96.8526 60.6427 96.1996 60.6427C95.1897 60.6359 94.6094 59.8811 94.6094 58.6231C94.6094 56.5066 96.0372 50.1231 96.0372 47.8145C96.0372 45.3563 94.9478 44.0184 93.0548 44.0031H93.026C90.2619 44.0031 88.1084 47.1549 86.0462 53.6421L85.4761 55.5155L85.1886 56.4913L85.2731 55.4781L85.6622 48.945C85.7637 45.8119 85.3442 43.794 84.3732 42.7791C83.8488 42.2317 83.1586 41.9631 82.2586 41.9546H82.2349C78.8516 41.9546 77.2326 47.687 76.0519 51.7296L74.526 57.5878L74.8034 57.1339L75.5748 45.6011C75.5308 42.145 74.3873 40.5946 71.8616 40.5759H71.8278C70.4778 40.5759 69.544 41.2491 68.9942 41.8169C68.1146 42.7247 67.5665 44.0507 67.5969 45.1965C67.6138 45.8765 68.0401 46.5123 68.3632 46.5123C68.573 46.5123 68.6897 46.2318 68.7388 46.0635C69.5203 43.4676 70.5319 42.2045 71.8295 42.2045C72.3674 42.2096 72.7683 42.3677 73.0695 42.6924C74.0845 43.7855 73.9153 46.7384 73.5651 52.0968L73.2319 58.0077L73.1676 59.1093C73.0694 60.6563 72.9899 61.8769 73.5736 61.9687C74.3348 62.0877 74.8254 61.7766 75.0792 61.0235L77.9212 51.2434C79.4826 45.8714 80.6617 43.9198 82.1723 43.9198C83.9147 43.9198 84.045 46.9288 83.7286 53.2783L83.4969 57.8003L83.4631 58.4769C83.3954 59.8505 83.3446 60.9351 83.7337 61.3669C83.8555 61.4961 84.0213 61.5607 84.2412 61.5607C84.9974 61.5607 85.2224 60.8977 85.6013 59.7927L85.8179 59.1722C88.4061 51.9914 90.3228 45.7626 92.8941 45.7626C93.6638 45.7626 94.2474 46.3916 94.2474 47.619C94.2474 50.4529 92.8687 55.9269 92.8687 58.703C92.8687 59.6975 93.1529 60.573 93.6909 61.219C94.2423 61.865 95.0154 62.205 95.9239 62.2135H95.9442C96.8035 62.2135 97.7001 61.7936 98.6069 60.9657L98.6914 60.8892L98.7591 60.9827C99.3563 61.7902 100.322 62.2237 101.364 62.1438C102.961 62.018 104.303 60.5883 104.802 59.2419L104.9 58.9784L104.996 59.2419C105.365 60.2398 106.164 61.4451 107.879 61.3057L107.901 61.2853ZM122.622 42.5241H122.649C122.832 42.5241 122.992 42.6159 123.126 42.7961C123.76 43.658 123.769 46.803 122.679 50.3832C122.057 52.4283 121.218 54.3612 120.255 55.9711L120.103 56.2261L120.064 55.9303L119.856 53.3803C119.578 47.9692 121.206 42.5802 122.625 42.5071L122.622 42.5241ZM104.895 55.1653C104.337 57.4263 103.264 60.1548 101.33 60.3112L101.173 60.318C100.371 60.318 99.9213 59.808 99.8198 58.7489C99.7132 57.4467 100.271 55.9201 101.241 54.8627C101.858 54.1895 102.557 53.8172 103.203 53.8172H103.217C104.034 53.824 104.607 54.4802 104.871 55.099L104.885 55.133L104.895 55.1653ZM113.861 46.8761C113.147 46.8761 112.57 47.4405 112.565 48.1341C112.56 48.8277 113.131 49.4091 113.84 49.4125L113.85 49.5145V49.4125C114.554 49.4125 115.129 48.8481 115.136 48.1545C115.143 47.4609 114.569 46.8812 113.861 46.8761ZM158.724 46.8761C158.01 46.8761 157.435 47.4405 157.428 48.1341C157.421 48.8277 157.995 49.4091 158.703 49.4125L158.713 49.5145V49.4125C159.417 49.4125 159.992 48.8481 159.999 48.1545C160.006 47.4609 159.432 46.8812 158.724 46.8761Z" fill="white"/>
<path d="M60.6971 64.5103C60.6971 64.4168 60.6734 64.3403 60.6734 64.2298C60.6734 64.1618 60.6497 64.1108 60.6497 64.0649C60.63 63.9299 60.5989 63.7968 60.5567 63.6671C60.4632 63.4009 60.3209 63.1547 60.1372 62.9412C59.9643 62.7443 59.7595 62.5782 59.5316 62.4499C59.2981 62.3309 59.0647 62.2799 58.8786 62.2153C58.8109 62.2153 58.7602 62.1915 58.7145 62.1915C58.9716 61.0695 58.6468 60.2025 58.4354 59.803L58.4827 59.7554L59.2051 58.9564L59.2524 58.9105C59.394 58.7012 59.504 58.4721 59.5789 58.2305C59.6263 58.0605 59.672 57.8786 59.672 57.7154V57.27C59.6483 56.9181 59.6043 56.4744 59.3675 55.9814C59.2491 55.7468 59.0883 55.4884 58.8769 55.2555C58.6568 55.0099 58.3965 54.804 58.1072 54.6469C58.0835 54.6231 58.0598 54.6231 58.0395 54.5993C57.4831 53.7917 56.8252 53.0598 56.0822 52.4216L55.1958 51.7195L54.6139 51.2979C54.3348 51.0871 54.1233 50.9698 54.0319 50.9239L53.5414 50.5958C53.4737 50.5278 53.4229 50.5023 53.401 50.4768C53.401 50.4768 53.401 50.453 53.3773 50.4088C53.3536 50.3408 53.3536 50.2439 53.3536 50.0807L53.3773 49.0267L53.587 45.8885L53.6107 44.6475C53.5868 44.0713 53.5087 43.4987 53.3773 42.9373C53.3536 42.8183 53.3096 42.7027 53.2842 42.5854C53.2605 42.4919 53.2369 42.4443 53.2166 42.4154C53.1915 42.3349 53.1604 42.2565 53.1235 42.1808C53.0998 42.1332 53.0998 42.0873 53.0559 42.0397C53.0085 41.9207 52.9628 41.8051 52.8918 41.6878L52.8681 41.664L52.8444 41.596L52.8207 41.5484C52.7023 41.3376 52.567 41.1506 52.4249 40.9874C52.3288 40.5326 52.1964 40.0863 52.029 39.6529C51.8598 39.1837 51.6095 38.6669 51.2593 38.1535C51.1409 37.9835 51.0022 37.8016 50.8635 37.6384L50.9091 37.5908C52.0502 36.3505 53.0578 34.9926 53.9152 33.5397C56.3174 29.3475 55.5223 26.7941 54.4278 25.3899L54.4041 25.344L54.3804 25.2964C53.3316 24.1234 51.8869 23.423 50.1394 23.1884C46.4803 22.7192 42.3324 24.5484 41.2379 25.0618L39.2332 22.8603C39.0641 22.6903 38.8611 22.4863 38.6513 22.3452L37.978 21.9542C37.4891 21.7377 36.9709 21.5956 36.4403 21.5326C35.3458 21.3915 34.0889 21.5326 32.7186 21.8845C30.6886 22.3996 28.4303 23.4315 26.0535 24.8595C23.6767 26.2875 21.2068 28.1405 18.8064 30.3403C15.8849 32.9889 13.4624 35.8194 11.6895 38.5394C10.8031 39.8739 10.0825 41.1846 9.54619 42.4494C9.00993 43.6904 8.65976 44.8855 8.52104 45.9633C8.428 46.7623 8.428 47.5103 8.58871 48.1903C8.65429 48.4906 8.75597 48.7817 8.89152 49.0573C9.05561 49.4092 9.26368 49.7373 9.52082 50.0178L11.5948 52.1938L11.8283 52.4284L11.8046 52.4522L11.7369 52.5933C11.6912 52.6613 11.6692 52.7344 11.6185 52.7633L11.5508 52.9044C11.5271 52.9724 11.4832 53.0455 11.4578 53.1152L11.3901 53.2563C11.3664 53.3243 11.3224 53.3974 11.2971 53.4671C11.2734 53.5147 11.2497 53.5606 11.2497 53.6082L11.182 53.819C11.1584 53.8666 11.1584 53.9125 11.1347 53.9601L11.067 54.1947C11.067 54.2185 11.0433 54.2423 11.0433 54.2627C11.0433 54.2831 11.0196 54.3103 11.0196 54.3307L10.952 54.5653C10.952 54.6129 10.9283 54.6588 10.9283 54.7064C10.9283 54.7302 10.9046 54.7744 10.9046 54.7999C10.9046 54.8458 10.8809 54.8934 10.8809 54.941C10.8809 54.9886 10.8572 55.0345 10.8572 55.0821C10.8336 55.1756 10.8336 55.2521 10.8099 55.3881C10.8099 55.4119 10.8099 55.4357 10.7862 55.4816V55.5054C10.7862 55.5734 10.7625 55.6465 10.7625 55.6754C10.7625 55.7689 10.7388 55.8862 10.7388 55.9814V57.1544C10.7388 57.202 10.7388 57.2479 10.7625 57.2955C10.7625 57.3431 10.7625 57.4145 10.7862 57.4655V57.5335C10.7862 57.5811 10.8099 57.6525 10.8099 57.6984C10.8099 57.7443 10.8336 57.7919 10.8336 57.8616C10.8336 57.8854 10.8336 57.9092 10.8572 57.9296C10.8572 57.9534 10.8809 57.9976 10.8809 58.0231V58.0707C10.8809 58.1183 10.9046 58.1642 10.9283 58.2407C10.9283 58.2645 10.9283 58.2645 10.952 58.2883C10.9757 58.3359 10.9757 58.3818 10.9757 58.4073L10.9993 58.4549C10.9993 58.4787 10.9993 58.4787 11.023 58.5008L11.0467 58.5484V58.6164C11.0467 58.6402 11.0467 58.6402 11.0704 58.664L11.0941 58.7116C11.0941 58.7592 11.1178 58.7796 11.1178 58.8306C11.1414 58.8782 11.1414 58.9241 11.1651 59.0006C11.1651 59.0244 11.1651 59.0244 11.1888 59.0482C11.2125 59.1162 11.2345 59.1672 11.2345 59.1893C11.2582 59.2369 11.2818 59.2828 11.3021 59.3593L11.3258 59.3831C11.3495 59.4307 11.3495 59.4766 11.3732 59.5021L11.3969 59.5497C11.3969 59.5735 11.4206 59.5956 11.4206 59.6177C11.4206 59.6398 11.4442 59.6857 11.4679 59.7112L11.4916 59.7588C11.5153 59.7826 11.5153 59.8268 11.5373 59.8523C11.5593 59.8778 11.561 59.8982 11.561 59.9203C11.5847 59.9679 11.6083 60.0138 11.6286 60.0852L11.6523 60.109C11.676 60.1328 11.676 60.1566 11.6997 60.177C11.7234 60.1974 11.7234 60.245 11.7454 60.2705C11.7674 60.296 11.7927 60.3385 11.813 60.4116L11.8367 60.4354C11.8604 60.4592 11.8604 60.483 11.8841 60.5034C11.9078 60.5493 11.9314 60.5714 11.9314 60.5969C11.9551 60.6207 11.9788 60.6649 11.9991 60.7159V60.7397C12.0228 60.7635 12.0228 60.7873 12.0448 60.8077C12.0624 60.8427 12.0858 60.8743 12.1141 60.9012C12.1378 60.925 12.1598 60.9692 12.2072 61.0423C12.2309 61.0661 12.2529 61.0882 12.2529 61.1103C12.2765 61.1562 12.3002 61.1783 12.3205 61.2038C12.3408 61.2293 12.3662 61.2718 12.3882 61.3228C12.4119 61.3466 12.4356 61.3908 12.4559 61.4163C12.4745 61.4578 12.5076 61.4911 12.5489 61.5098L12.6419 61.6033C12.6893 61.6509 12.7096 61.6968 12.7604 61.7444L12.8077 61.792L12.8754 61.86L13.0615 62.03L13.1291 62.098L13.1528 62.1218C13.1985 62.1677 13.2712 62.2153 13.3152 62.285L13.3389 62.3088C13.3626 62.3326 13.3846 62.3326 13.4066 62.3768C13.4742 62.4448 13.547 62.4958 13.6163 62.5468L13.6637 62.5706L13.6874 62.5944L13.7348 62.6182C13.8024 62.6658 13.8532 62.7117 13.9039 62.7593L13.9276 62.7831C13.9513 62.8069 13.975 62.8069 13.975 62.8069L14.0223 62.8545C14.0697 62.9021 14.1154 62.9225 14.1628 62.9735L14.2084 62.9973L14.2761 63.0653C14.3235 63.0891 14.3945 63.1333 14.4385 63.1588C14.4622 63.1826 14.4859 63.2047 14.5315 63.2047L14.5772 63.2285L14.6009 63.2523H14.6246C14.7176 63.2999 14.7887 63.3458 14.858 63.3934L14.9054 63.4172L15.1845 63.5583H15.2082L15.2505 63.5719L15.3909 63.6399C15.4146 63.6399 15.4383 63.6637 15.4586 63.6637C15.4822 63.6875 15.5059 63.6875 15.5516 63.7113H15.5753C15.6227 63.7351 15.6683 63.7589 15.7157 63.7589H15.7394C15.7868 63.7827 15.8324 63.8065 15.9035 63.8269H15.9272L15.9745 63.8507C15.9982 63.8507 16.0219 63.8745 16.0422 63.8745H16.0659L16.2993 63.9425H16.323C16.4414 63.9901 16.5565 64.0105 16.6732 64.036H16.6969L17.0014 64.104H17.0944C17.1874 64.1278 17.2636 64.1516 17.3735 64.1516H17.4666C17.5342 64.1516 17.585 64.1754 17.6357 64.1754C17.6357 64.1992 17.6594 64.223 17.6594 64.2434L18.172 65.5524C20.9226 73.2109 28.5419 79.1592 37.2371 80.2574C45.9322 81.3352 55.228 75.5263 59.0021 67.6808C59.1592 67.3892 59.307 67.0927 59.4453 66.7917C59.8174 66.3939 60.1219 65.9927 60.2911 65.5745C60.5956 65.3161 60.6633 64.801 60.6413 64.3556" fill="#664F44"/>
<path d="M53.2658 26.18C52.8462 25.7125 52.3573 25.3606 51.8211 25.1022C51.728 25.0563 51.6519 25.0342 51.5166 25.0087C51.4709 24.9849 51.4235 24.9407 51.3762 24.9152C50.904 24.7302 50.4107 24.6045 49.9078 24.5412C47.3906 24.2131 44.5012 25.1498 42.8705 25.806C42.7774 25.8519 42.7013 25.874 42.5913 25.925L42.1718 26.095L41.4495 26.4231C41.4021 26.4469 41.3818 26.4469 41.3311 26.469L40.8878 25.9539L40.6781 25.7193L40.5089 25.5085L40.4412 25.415L38.7411 23.4481L38.6007 23.2832L38.4315 23.0724H38.4079L37.9173 23.1914L37.359 23.3104C37.0545 23.1693 36.6824 23.0758 36.2628 23.0044C35.4238 22.8854 34.3512 23.0044 33.14 23.3104C31.9288 23.6164 30.5518 24.1536 29.1088 24.8795C26.1957 26.3313 22.9799 28.5566 19.8553 31.4126C18.7998 32.3723 17.7888 33.3804 16.8256 34.4335L14.3557 37.3847C12.8417 39.3737 11.6998 41.2947 10.9555 43.0287C10.4649 44.1762 10.1638 45.2302 10.0471 46.1431C9.95402 46.7993 9.9794 47.3841 10.0927 47.8533L10.2331 48.2749C10.3516 48.5554 10.4903 48.79 10.6764 49.0008L12.5643 50.9898L12.774 51.2006L12.7977 51.1768C12.8479 51.1037 12.911 51.0403 12.9838 50.9898L13.0768 50.8963C13.1225 50.8283 13.1953 50.7807 13.2392 50.7263C13.2866 50.6787 13.3069 50.6583 13.3577 50.6328C13.4084 50.6073 13.4253 50.5648 13.4761 50.5393L13.5234 50.4934C13.5691 50.4696 13.5911 50.4254 13.6419 50.3999C13.6875 50.3523 13.7569 50.3064 13.8043 50.2588C13.8279 50.235 13.8719 50.2112 13.8973 50.1908H13.921C13.9886 50.1449 14.0394 50.0973 14.0901 50.0497C14.1375 50.0259 14.1578 50.0038 14.2086 49.9562C14.2762 49.9103 14.327 49.8627 14.3777 49.8151C14.4251 49.7913 14.4454 49.7692 14.4961 49.7471C14.5638 49.6995 14.6366 49.6536 14.7059 49.6281C14.7533 49.6043 14.7736 49.5805 14.8243 49.5601C14.892 49.5125 14.9647 49.4921 15.0341 49.4411C15.0798 49.4173 15.1018 49.3935 15.1525 49.3731L15.1982 49.3493C15.2659 49.3255 15.3166 49.2813 15.3674 49.2558C15.391 49.232 15.435 49.232 15.4604 49.2082C15.5078 49.1844 15.5534 49.1623 15.6245 49.1402L15.7649 49.0722L15.8123 49.0484L16.1624 48.9073C16.2098 48.8835 16.2301 48.8835 16.2809 48.8597C16.3316 48.8359 16.3485 48.8359 16.3993 48.8121L16.4449 48.7883C16.4686 48.7883 16.4923 48.7645 16.5126 48.7645C16.56 48.7424 16.6073 48.7424 16.6767 48.7186H16.7241C16.7917 48.6948 16.8425 48.6948 16.8932 48.671C16.9406 48.6472 17.0117 48.6472 17.0573 48.6251C17.125 48.6013 17.1977 48.6013 17.2671 48.5775C17.2908 48.5775 17.3145 48.5537 17.3601 48.5537C17.3838 48.5537 17.4278 48.5537 17.4532 48.5299C17.5208 48.5061 17.5936 48.5061 17.6629 48.5061C17.7323 48.5061 17.7814 48.4823 17.8321 48.4823C17.8795 48.4823 17.9252 48.4585 17.9725 48.4585H18.1417L18.9368 48.4823H18.9841C19.2975 48.5097 19.6088 48.5568 19.9162 48.6234C19.9839 48.6472 20.0803 48.6472 20.1497 48.6693C20.1734 48.6455 20.1734 48.6013 20.1971 48.5758L20.7333 47.6408C21.7822 45.8847 22.8987 44.3377 24.0422 42.9828L25.2315 41.6704C26.8859 39.9364 28.5404 38.6036 30.0324 37.5734L31.0136 36.9172L32.2722 36.1692L33.2026 35.6762L34.5306 35.0438L34.8807 34.9027L35.3459 34.7327C35.2275 34.7089 35.0922 34.7089 34.9738 34.7089H34.5069C34.3885 34.7089 34.2531 34.7089 34.1347 34.7327L33.3904 34.8007C33.2973 34.8245 33.228 34.8245 33.1332 34.8483C33.7246 34.5468 34.3403 34.296 34.9738 34.0986L36.141 33.8181C36.6536 33.7246 37.1425 33.6549 37.5857 33.6481L38.4248 33.6243L39.1471 33.6481C39.5625 33.6683 39.9756 33.7229 40.382 33.8113C40.2636 33.6481 40.1283 33.5308 39.9862 33.4135C39.7071 33.2027 39.4042 33.0616 39.1403 32.9443L38.8358 32.8253C38.7682 32.8015 38.6954 32.7777 38.6667 32.7777C38.8071 32.7539 38.9204 32.7301 39.0388 32.7301L39.4347 32.6825C40.5292 32.589 41.5087 32.6825 42.231 32.8015C43.0769 32.9647 43.63 33.1755 43.63 33.1755C43.5 32.9344 43.3262 32.7199 43.1175 32.5431C42.977 32.4241 42.813 32.3085 42.6742 32.215L43.5133 32.4496C44.212 32.6604 44.7956 32.9188 45.2608 33.1296L45.6803 33.3404C45.726 33.3642 45.748 33.388 45.7734 33.388L46.4264 33.7858C46.3587 33.5308 46.2166 33.2928 46.0305 33.0837C45.9848 33.0361 45.9375 32.9647 45.8901 32.9205H45.9138C45.9375 32.9205 45.9611 32.9443 46.0068 32.9443C46.0305 32.9443 46.0745 32.9681 46.1252 32.9902C46.2944 33.0582 46.5904 33.1602 46.9169 33.3421C46.9406 33.3421 46.9406 33.3659 46.9643 33.3659L47.1047 33.4339C47.2231 33.5019 47.3382 33.5529 47.4549 33.6447L47.8051 33.8555L47.9742 33.9745C48.0926 34.068 48.228 34.1445 48.3464 34.2805C48.4868 34.3995 48.6001 34.5151 48.7186 34.6324L48.7862 34.7004L49.04 34.9809C49.2041 35.1509 49.3445 35.3787 49.4832 35.5895C49.6456 35.8445 49.7623 36.1505 49.879 36.4395C49.879 36.4633 49.879 36.4854 49.9027 36.4854L50.2749 36.0876C51.6215 34.4964 55.6764 29.3454 53.2302 26.2072" fill="#132134"/>
<path d="M59.3012 64.6739C59.3012 64.6739 59.3485 64.322 59.1607 63.9939C59.1607 63.9701 59.1371 63.9463 59.1371 63.9463L59.044 63.8528C58.995 63.8001 58.9406 63.7528 58.8816 63.7117C58.8579 63.6879 58.814 63.6641 58.7632 63.6437C58.6369 63.5873 58.5039 63.5478 58.3673 63.5264C58.2489 63.5026 58.1339 63.5026 57.9952 63.5026H57.826V63.5485C57.826 63.5723 57.8497 63.5961 57.8497 63.642C57.8497 63.6658 57.8497 63.6896 57.8734 63.6896C57.8971 63.7576 57.9191 63.8596 57.9411 63.9701C57.9411 63.9701 57.9411 63.9938 57.9174 64.038V64.0618C57.8497 64.2267 57.6602 64.6008 57.2407 65.0683C57.173 65.1618 57.1003 65.2315 57.0073 65.3233C55.84 66.5422 53.3245 68.2507 48.0127 69.2112C46.2195 69.4662 44.5414 69.4916 43.1407 69.3046C41.043 69.0462 39.4816 68.3697 38.7356 67.4551C38.6679 67.3871 38.6171 67.2919 38.5664 67.2205L38.448 67.0505C38.4243 67.0267 38.4243 67.0046 38.4023 66.9825C38.1116 66.4432 37.9593 65.8396 37.9591 65.2264C37.9591 64.5005 38.1925 63.8205 38.5647 63.3054C38.8692 62.8838 39.2634 62.5574 39.7539 62.4163C39.9874 62.3483 40.2445 62.2973 40.4983 62.3228C40.5456 62.3228 40.6167 62.3228 40.708 62.3466L41.4304 62.4401C41.4541 62.4401 41.4981 62.4401 41.5234 62.4639C42.5266 62.5829 44.1117 62.7444 46.0233 62.6271C49.5199 62.4163 54.1094 61.3146 58.2811 57.5219V57.4981C58.3048 57.17 58.2574 56.6091 57.8615 56.1637C57.7939 56.0957 57.7211 56.0225 57.6281 55.9528C57.5807 55.9052 57.5097 55.8848 57.4657 55.8338C57.398 55.81 57.3473 55.7658 57.3016 55.7403L57.0918 55.5993V55.5755C57.0682 55.5279 57.0462 55.482 56.9988 55.4344C55.9263 53.7939 54.4359 52.8334 53.8286 52.3914C53.5495 52.1806 53.3617 52.0854 53.3617 52.0854C52.0794 51.2864 51.8933 51.0314 52.0084 48.8996L52.2181 45.7376L52.2418 45.2225V44.5425C52.2418 44.4235 52.2181 44.3079 52.2181 44.2144C52.2181 44.1685 52.2181 44.1209 52.1945 44.0733C52.1708 43.9543 52.1708 43.8387 52.1488 43.7214C52.1488 43.6738 52.1251 43.6024 52.1251 43.5582C52.1251 43.4902 52.1014 43.4392 52.0777 43.3882C52.0541 43.3423 52.0541 43.2692 52.0321 43.225C52.0084 43.157 51.9847 43.0839 51.9847 43.0142C51.9847 42.9904 51.961 42.9666 51.961 42.9462C51.961 42.9258 51.9373 42.8986 51.9373 42.8782V42.8544L51.9136 42.7864C51.89 42.7405 51.8663 42.6929 51.8663 42.6453V42.6215L51.8426 42.5739L51.8189 42.528C51.7715 42.4345 51.7512 42.358 51.7005 42.2696L51.6768 42.2016L51.5364 41.967L51.4907 41.9211C51.4434 41.8735 51.4231 41.8276 51.3723 41.78L51.3249 41.712C51.284 41.6527 51.2369 41.598 51.1845 41.5488V41.3788L51.1169 41.0507C51.1169 41.0269 51.0932 40.9827 51.0932 40.9572V40.9334C51.0932 40.8858 51.0695 40.8654 51.0695 40.8144C51.0458 40.7209 51.0221 40.6444 50.9765 40.5339C50.9765 40.5101 50.9528 40.4659 50.9528 40.4404L50.8851 40.2296C50.8614 40.182 50.8614 40.1361 50.8377 40.1106C50.8141 40.0426 50.7921 39.9695 50.7447 39.8998L50.677 39.7587C50.6534 39.6907 50.6094 39.6176 50.584 39.5479L50.5163 39.4068C50.469 39.3388 50.4487 39.2657 50.3979 39.196L50.3302 39.0549L50.1898 38.8203C50.1662 38.7727 50.1425 38.7523 50.1222 38.7013C50.0985 38.6775 50.0748 38.6333 50.0545 38.6078C49.9868 38.5398 49.9361 38.4667 49.8853 38.397L49.838 38.3732C49.7449 38.2797 49.6739 38.2032 49.5808 38.1182L49.5572 38.0944C49.5146 38.0688 49.4759 38.0373 49.4421 38.0009H49.4184C49.3711 37.9771 49.3508 37.9533 49.3 37.9329L49.2763 37.9091L49.0666 37.7901C49.0429 37.7663 48.9989 37.7663 48.9482 37.7442L48.1565 37.4858C48.1328 37.4858 48.1091 37.4858 48.0888 37.462C47.7975 37.3811 47.5014 37.3186 47.2024 37.275C47.0839 37.2512 46.9926 37.2512 46.8759 37.2274C46.8285 37.2274 46.7828 37.2274 46.7118 37.2036H46.6441L45.8998 37.156H45.8439C45.5175 37.156 45.191 37.1798 44.8882 37.2495C44.9558 37.1305 45.1673 36.9945 45.3551 36.8755C45.6088 36.7344 45.8456 36.6409 45.8456 36.6409C45.7052 36.6409 45.5665 36.6647 45.4261 36.6885C45.3804 36.6885 45.3331 36.7123 45.2857 36.7123C45.262 36.7123 45.218 36.7123 45.1927 36.7361H45.1673C45.1436 36.7361 45.1199 36.7361 45.0996 36.7599C44.4789 36.9066 43.8708 37.1027 43.2811 37.3464L43.1407 37.4144H43.117C43.0696 37.4144 43.0493 37.4144 42.9986 37.4382C43.2777 36.8993 43.6972 36.6188 44.0237 36.4777C44.0711 36.4539 44.1421 36.4301 44.1878 36.4097C44.2115 36.4097 44.2115 36.4097 44.2352 36.3859C44.2825 36.3621 44.3282 36.3621 44.3536 36.3383C44.4213 36.3145 44.472 36.3145 44.472 36.3145H44.0998C43.3527 36.4016 42.6309 36.6404 41.9785 37.0166C41.5866 37.2364 41.2127 37.4871 40.8603 37.7663C40.7673 37.7901 40.6979 37.8139 40.6065 37.8139L37.6698 38.5619L36.4806 38.9597L35.5502 39.3116L34.8735 39.5921C33.2664 40.318 31.6593 41.2785 30.3297 42.5671L30.1893 42.7082L29.8391 43.0601L29.6987 43.2012C29.653 43.2692 29.5803 43.3423 29.5363 43.3712C29.2791 43.6517 29.0457 43.956 28.8139 44.2841C28.6498 44.5187 28.4874 44.7771 28.347 45.0321L28.3234 45.0559C28.0189 45.5948 27.7414 46.1558 27.5317 46.7899C27.4132 47.0959 27.3219 47.4223 27.2272 47.7504L27.1595 48.0088L27.1358 48.0547C27.0461 48.4066 26.9768 48.7823 26.9328 49.1597C26.9328 49.2277 26.9091 49.3008 26.9091 49.3943L26.8618 49.9791C26.8381 50.1491 26.8381 50.331 26.8381 50.518V51.2439L26.8618 51.8763V51.9001C26.8618 52.1109 26.8854 52.3217 26.9091 52.5563C26.9091 52.6498 26.9328 52.7263 26.9328 52.8368V52.9048C26.9328 52.9524 26.9328 52.9983 26.9565 53.068L27.0495 53.816C27.0495 53.884 27.0732 53.9571 27.0732 54.0268L27.1916 54.683C27.1916 54.683 27.1443 54.4025 27.1679 53.9809C27.1679 53.8874 27.1916 53.7701 27.1916 53.6749C27.2153 53.4403 27.2593 53.1598 27.3557 52.9014L27.4234 52.6906C27.4234 52.6668 27.4471 52.643 27.4691 52.5971C27.5217 52.4673 27.5839 52.3418 27.6551 52.2214C27.6788 52.3149 27.6788 52.3914 27.7008 52.4798V53.7208C27.7245 54.5198 27.7939 55.4769 27.9546 56.2963C27.9546 56.2963 27.9783 54.8207 28.2337 54.6337C28.2337 54.6337 28.6769 57.3979 29.0728 58.4281C29.1201 58.5692 29.1912 58.6627 29.2369 58.7341V58.4536L29.1895 56.932V56.7671L30.2383 58.7103L30.5648 59.2713C29.8205 59.9275 29.1201 60.8863 28.6076 62.0117L28.3741 62.5727L28.2557 62.9008C28.2557 62.9246 28.232 62.9688 28.232 62.9943L28.1643 63.2289C28.1643 63.2748 28.1407 63.2969 28.1407 63.3479L28.073 63.5825C28.073 63.6301 28.0493 63.6505 28.0493 63.7015L27.9816 64.0534C27.958 64.1724 27.9343 64.2879 27.9343 64.4052C27.9343 64.4528 27.9343 64.4733 27.9106 64.5243C27.9106 64.6178 27.8869 64.6892 27.8869 64.7793C27.8869 64.8252 27.8869 64.8728 27.8632 64.9204C27.8632 65.0139 27.8395 65.0836 27.8395 65.1754V65.9948C27.8395 66.0883 27.8395 66.1648 27.8632 66.3008V66.3688C27.8632 66.4878 27.8869 66.6033 27.9089 66.7427C27.9089 66.7903 27.9089 66.8108 27.9326 66.8618C27.9326 66.9553 27.9563 67.0266 27.9799 67.1201C27.9799 67.1677 28.0036 67.2136 28.0036 67.2612C28.0273 67.3292 28.0273 67.4262 28.051 67.4959C28.051 67.5435 28.0747 67.5894 28.0747 67.637C28.0984 67.705 28.122 67.7781 28.122 67.8716C28.1457 67.9192 28.1457 67.9651 28.1694 68.0365L28.2371 68.2711C28.2608 68.3187 28.2608 68.3646 28.2844 68.4122L28.3521 68.6468C28.3758 68.6944 28.3758 68.7403 28.3995 68.7879C28.4232 68.8814 28.4671 68.9578 28.4925 69.0428C28.5162 69.0887 28.5162 69.1108 28.5382 69.1618L28.8884 69.9354C28.9121 69.983 28.934 70.0034 28.956 70.0544L29.0964 70.3349C29.1201 70.3808 29.1421 70.4284 29.1895 70.476C29.2369 70.544 29.2825 70.6409 29.3299 70.7106C29.3536 70.7582 29.3976 70.804 29.4229 70.8516C29.4703 70.9196 29.516 71.0148 29.5853 71.0862C29.6327 71.1338 29.653 71.1797 29.7038 71.2511L29.8662 71.4858C29.9135 71.5334 29.9338 71.5793 29.9846 71.649C30.0522 71.717 30.103 71.8139 30.1537 71.8836C30.2011 71.9295 30.2214 71.9771 30.2722 72.0247C30.3398 72.1182 30.4126 72.1878 30.5056 72.2796L30.624 72.3987L30.9742 72.7727C30.9742 72.7727 30.9065 72.6791 30.8101 72.4921C30.7864 72.4683 30.7627 72.4241 30.7627 72.3731L30.6951 72.232C30.6714 72.1844 30.6477 72.1385 30.6274 72.0671C30.4582 71.6455 30.2772 71.037 30.3009 70.3808L30.5107 70.6612C30.5783 70.8261 30.6798 71.0353 30.8152 71.2699C30.8637 71.3429 30.9029 71.4217 30.9319 71.5045L31.5375 72.5585L32.3834 73.8233C32.3834 73.8233 32.0332 73.0753 31.9165 72.5823C31.8928 72.4412 31.8691 72.3272 31.8928 72.2541C31.9165 72.2779 31.9401 72.3222 31.9858 72.3477C32.0095 72.3715 32.0332 72.4157 32.0789 72.4412C32.1451 72.5374 32.2151 72.6309 32.2886 72.7217L32.336 72.7693C32.3834 72.8169 32.4037 72.8883 32.4544 72.9342C32.5018 73.0022 32.5474 73.0753 32.6168 73.145L34.2493 75.0659C34.4134 75.207 34.5538 75.3243 34.6451 75.3719L33.9684 74.1531C35.5079 75.4179 41.8922 77.0345 48.1784 75.2308C48.9482 75.02 49.6925 74.7379 50.4385 74.4115C50.8903 74.2118 51.3333 73.9929 51.7665 73.7552L51.8341 73.7094L52.7426 73.1705L53.4192 72.7251L54.5357 71.8819C54.5594 71.8581 54.5831 71.8343 54.6034 71.8343L55.6065 70.8737C56.0061 70.4523 56.3795 70.0066 56.7247 69.5392L56.7484 69.5154C56.8415 69.3964 56.9125 69.3047 56.9819 69.1874L57.0056 69.1635C57.0292 69.1159 57.0529 69.0955 57.0732 69.0445L57.3997 68.5754C57.4234 68.5295 57.4471 68.5074 57.4674 68.4564C57.5148 68.3629 57.5604 68.2932 57.6315 68.2014L57.7499 68.0314C57.7973 67.9634 57.8429 67.8903 57.8683 67.8206L58.0781 67.4466L58.1457 67.3055L58.2862 67.0249L58.3538 66.8822L58.3775 66.8362C58.4249 66.7172 58.4959 66.6017 58.5416 66.4844V66.4606C58.7514 66.2906 58.8918 66.0866 59.0322 65.9217C59.0559 65.8979 59.0795 65.8741 59.0795 65.8537C59.22 65.4083 59.313 65.0581 59.313 64.7317M21.8054 60.1298C21.8054 60.106 21.8054 60.0821 21.7817 60.0362L21.6193 58.7953V58.7018C21.5516 58.7256 21.4789 58.8208 21.3858 58.9364C21.3621 58.9823 21.3182 59.0299 21.2928 59.0996C21.083 59.4974 20.8969 60.06 20.8969 60.06L20.9426 59.4991V59.4311L21.0103 58.8445V58.7766C21.034 58.542 21.0779 58.3312 21.1287 58.1204C21.1287 58.0966 21.1287 58.0728 21.1524 58.0269V58.0031C21.1524 57.9793 21.1524 57.9554 21.1761 57.935C21.1761 57.8874 21.1997 57.8671 21.1997 57.8161L21.2928 57.3231L21.3605 56.9253V56.8777C21.3605 56.8539 21.3605 56.8301 21.3841 56.8301V56.7842C21.3841 56.7604 21.4078 56.7162 21.4078 56.6907C21.4078 56.6652 21.4078 56.6431 21.4315 56.6227C21.4315 56.5751 21.4552 56.5292 21.4552 56.5037C21.4552 56.4782 21.4789 56.4357 21.4789 56.4102C21.4789 56.3643 21.5026 56.3166 21.5026 56.2945C21.5026 56.2724 21.5026 56.247 21.5262 56.2266C21.5262 56.2028 21.5262 56.1807 21.5499 56.1807C21.5499 56.1331 21.5736 56.1127 21.5736 56.0872V56.0192L21.5279 56.0668C21.4806 56.0906 21.4603 56.1348 21.4095 56.1603L21.3621 56.2062C21.3165 56.2538 21.2691 56.2997 21.2437 56.3473L21.22 56.3711L21.0796 56.5819L21.056 56.6057C21.056 56.6295 21.0323 56.6295 21.0323 56.6533L20.9646 56.7944V56.8403C20.9409 56.9083 20.8969 56.9813 20.8716 57.051L20.7024 57.59C20.6787 57.6376 20.6787 57.709 20.655 57.7311L20.6094 57.9419C20.6094 57.8739 20.6094 57.8229 20.633 57.7719C20.633 57.6529 20.6567 57.5135 20.6567 57.3979C20.6567 57.3044 20.6804 57.1871 20.7041 57.0919C20.7041 57.0681 20.7041 57.0239 20.7278 56.9984C20.7278 56.9525 20.7515 56.9049 20.7515 56.8573C20.7515 56.8097 20.7751 56.7638 20.7751 56.7162V56.6481C20.7751 56.6005 20.7988 56.5292 20.7988 56.485V56.3218C20.7988 56.298 20.7988 56.2742 20.8225 56.2538C20.8494 56.1783 20.8654 56.0992 20.8699 56.0192V55.9954C20.8936 55.9478 20.8936 55.8764 20.9172 55.8305V55.7608C20.9409 55.6418 20.9849 55.5261 21.0103 55.4088V55.3612C21.0103 55.3374 21.0103 55.3137 21.034 55.2933C21.0796 55.1233 21.1524 54.9193 21.1964 54.7544V54.7306L21.3588 54.2852V54.2614L21.4264 54.0914C21.4738 53.9979 21.4941 53.9214 21.5448 53.8109C21.5448 53.7871 21.5685 53.7429 21.6125 53.6477C21.6362 53.6239 21.6362 53.5797 21.6582 53.5542C21.6819 53.5083 21.7056 53.4607 21.7259 53.391L21.7495 53.3451L22.1454 52.6192C22.1691 52.5954 22.1691 52.5512 22.1911 52.5257V52.5019L22.2147 52.4543C22.2621 52.3863 22.3078 52.2894 22.3552 52.2197C22.4228 52.1007 22.4736 51.9851 22.5243 51.8916L22.8034 51.3986C22.8271 51.3306 22.8491 51.3051 22.8711 51.2796C22.8474 51.2796 22.7307 51.1861 22.5446 51.0688L21.5888 50.5537L21.193 50.3837L20.6567 50.1729C20.6094 50.1491 20.5637 50.1491 20.5163 50.1253L20.0511 49.9842L19.7246 49.9162C19.6316 49.8924 19.5554 49.8924 19.4455 49.8686C19.3981 49.8686 19.3524 49.8686 19.3051 49.8448C19.2594 49.8448 19.212 49.8448 19.1647 49.821C19.0463 49.821 18.9075 49.7972 18.7925 49.7972H18.6081C18.3426 49.7959 18.0776 49.8192 17.8164 49.8669H17.7724C17.3072 49.9349 16.864 50.0369 16.4191 50.2188C16.2787 50.2664 16.14 50.3378 15.9759 50.3888C15.9302 50.4126 15.9082 50.4364 15.8575 50.4364L15.7171 50.5044C15.2975 50.7152 14.9017 50.9974 14.5278 51.3034H14.5058C14.1793 51.5584 13.9002 51.8644 13.66 52.1534L13.4502 52.4339C13.3572 52.5529 13.2878 52.6685 13.2168 52.7858C13.0709 53.0033 12.9387 53.2299 12.8209 53.4641C12.7736 53.5576 12.7279 53.629 12.7025 53.7225C12.7025 53.7463 12.6788 53.7463 12.6788 53.7684C12.4454 54.3294 12.2593 54.9159 12.1882 55.5483C12.1646 55.6639 12.1646 55.7829 12.1409 55.9223V55.9699C12.1409 56.0634 12.1172 56.1399 12.1172 56.2759V56.6975C12.1172 56.791 12.1172 56.8675 12.1409 56.978V57.0969C12.1409 57.1649 12.1646 57.2381 12.1646 57.3078V57.3316C12.1646 57.3792 12.1646 57.3995 12.1882 57.4505C12.1882 57.5185 12.2119 57.5917 12.2119 57.6206C12.2119 57.6495 12.2356 57.7141 12.2356 57.7617C12.2593 57.8297 12.2593 57.8807 12.2813 57.9317C12.2813 57.9776 12.305 58.0252 12.3286 58.0728V58.0966L12.3523 58.1442V58.1901L12.376 58.2377C12.3997 58.2836 12.3997 58.3312 12.4234 58.3788C12.4471 58.4264 12.4471 58.4978 12.4691 58.5437C12.491 58.5896 12.5164 58.6372 12.5164 58.7069L12.5401 58.7545C12.5638 58.8004 12.5638 58.8225 12.5858 58.8735C12.6078 58.9245 12.6331 58.967 12.6534 59.0367L12.7211 59.1778C12.7448 59.2016 12.7448 59.2236 12.7668 59.2457C12.7888 59.2678 12.7905 59.2934 12.8142 59.3138L12.8818 59.4549C12.9055 59.5025 12.9292 59.5739 12.9749 59.6198C12.9985 59.6674 13.0222 59.7133 13.0425 59.7388C13.0662 59.7847 13.1102 59.8578 13.1356 59.902C13.1609 59.9462 13.1829 59.97 13.2032 60.021C13.2341 60.0807 13.2734 60.1357 13.32 60.1842C13.3436 60.2318 13.3673 60.2522 13.3876 60.2777C13.435 60.3236 13.4553 60.3967 13.506 60.4409C13.5297 60.4647 13.5534 60.5089 13.5737 60.5344C13.6194 60.582 13.6668 60.6534 13.7141 60.6993C13.7378 60.7231 13.7615 60.7451 13.7818 60.7927C13.8275 60.8403 13.8748 60.9117 13.9222 60.9576L13.9899 61.0257C14.0372 61.0733 14.0829 61.1447 14.1523 61.1906L14.2199 61.2586L14.384 61.4235C14.4077 61.4473 14.4314 61.4711 14.4517 61.4711C14.4991 61.517 14.5701 61.5646 14.6209 61.6343C14.6445 61.6581 14.6682 61.6581 14.6885 61.6802C14.7562 61.7278 14.8069 61.7737 14.8577 61.8213C14.8814 61.8451 14.9051 61.8451 14.9051 61.8689L15.1148 62.01L15.1605 62.0338L15.3703 62.1749L15.4176 62.1987L15.6511 62.3397L15.6968 62.3635C15.7644 62.4111 15.8592 62.4571 15.9302 62.4826L15.9776 62.5064L16.2347 62.6254L16.2584 62.6492C16.3514 62.6968 16.4276 62.7172 16.5121 62.7682H16.5358C16.6289 62.792 16.705 62.8362 16.8149 62.8617H16.8386C16.886 62.8855 16.9317 62.8855 16.979 62.9076C17.0264 62.9297 17.0721 62.9314 17.1431 62.9552H17.1668L17.4713 63.0231C17.5644 63.0469 17.6811 63.0691 17.7758 63.0691L18.757 63.1626H18.9904C19.1088 63.1626 19.2002 63.1626 19.3169 63.1388C19.4573 63.115 19.6214 63.115 19.7838 63.0912L20.1797 63.0231L20.7853 62.8582C21.3943 62.695 21.9018 62.4605 22.23 62.2021L21.8578 60.3287C21.8104 60.2777 21.7868 60.1859 21.7631 60.0907" fill="#90694C"/>
<path d="M36.7666 25.3291L36.6989 24.3941L37.1658 23.3639L37.335 23.3163C37.0305 23.1752 36.6583 23.0817 36.2405 23.0103C35.4014 22.8913 34.3289 23.0103 33.1177 23.3163C31.9065 23.6223 30.5294 24.1595 29.0864 24.8854C26.1734 26.3372 22.9575 28.5625 19.833 31.4202C18.7385 32.4062 17.7354 33.4347 16.8049 34.4411L14.3351 37.3923C12.8211 39.3813 11.6792 41.3023 10.9349 43.0363C10.4443 44.1838 10.1398 45.2378 10.0264 46.1507C9.93339 46.8069 9.95877 47.3917 10.0738 47.8609L10.2142 48.2825C10.3326 48.563 10.468 48.7976 10.6574 49.0084L12.5521 50.9991L12.7619 51.2099L12.7855 51.1861C12.8329 51.1181 12.904 51.045 12.9547 51.0161L12.9784 50.9923L13.0461 50.9243C13.0917 50.8563 13.1645 50.8053 13.2085 50.7543C13.2558 50.7067 13.2761 50.6863 13.3269 50.6608C13.3776 50.6353 13.3945 50.5928 13.4453 50.5673L13.491 50.5197C13.5383 50.4959 13.5586 50.4517 13.6094 50.4262C13.6568 50.3786 13.7278 50.3327 13.7735 50.2851C13.7972 50.2613 13.8411 50.2375 13.8665 50.2171H13.8902C13.9579 50.1712 14.0086 50.1236 14.0594 50.076C14.105 50.0522 14.127 50.0284 14.1778 49.9825C14.2455 49.9366 14.2962 49.889 14.347 49.8414C14.3943 49.8176 14.4146 49.7938 14.4654 49.7734C14.533 49.7258 14.6058 49.6799 14.6751 49.6544C14.7208 49.6306 14.7428 49.6068 14.7936 49.5864C14.8612 49.5405 14.934 49.5184 15.0033 49.4674C15.0507 49.4436 15.071 49.4215 15.1217 49.3994L15.1674 49.3756C15.6106 48.1346 16.2839 46.7525 17.172 45.3466C18.2446 43.6126 19.6199 41.7868 21.249 39.961L24.6052 36.5644C26.1097 35.1873 27.6972 33.9048 29.3588 32.7241L32.5053 30.7096C32.5983 30.662 32.6745 30.5906 32.8098 30.5447L33.6252 30.0993L35.3507 29.2799L35.0716 28.9518L35.0259 28.9042L34.6757 28.5064L32.7421 26.1638L32.7658 24.4774L32.7421 24.4536L34.1175 24.032L36.7294 25.3716" fill="#2F83C1"/>
<path d="M59.3016 64.6737C59.3016 64.6737 59.3489 64.3218 59.1612 63.9937C59.1612 63.9699 59.1375 63.9461 59.1375 63.9461L59.0444 63.8526C58.9954 63.8 58.941 63.7527 58.882 63.7115C58.8584 63.6877 58.8144 63.6639 58.7636 63.6435C58.6374 63.5871 58.5043 63.5477 58.3678 63.5262C58.2493 63.5024 58.1343 63.5024 57.9956 63.5024H57.8264V63.5483C57.8264 63.5721 57.8501 63.5959 57.8501 63.6418C57.8501 63.6656 57.8501 63.6894 57.8738 63.6894C57.8975 63.7574 57.9195 63.8594 57.9415 63.9699C57.9415 63.9699 57.9415 63.9937 57.9178 64.0379V64.0617C57.8501 64.2266 57.6607 64.6006 57.2411 65.0681C57.1735 65.1616 57.1007 65.2313 57.0077 65.3231C55.8404 66.542 53.3249 68.2505 48.0131 69.211C46.2199 69.466 44.5418 69.4915 43.1411 69.3045C41.0434 69.0461 39.482 68.3695 38.736 67.4549C38.6683 67.3869 38.6176 67.2917 38.5668 67.2203L38.4484 67.0503C38.4247 67.0265 38.4247 67.0044 38.4027 66.9823C38.112 66.4431 37.9597 65.8395 37.9595 65.2262C37.9595 64.5003 38.193 63.8203 38.5651 63.3052C38.8696 62.8836 39.2638 62.5572 39.7544 62.4161C39.9878 62.3481 40.2449 62.2971 40.4987 62.3226C40.5461 62.3226 40.6171 62.3226 40.7085 62.3464L41.4308 62.4399C41.4545 62.4399 41.4985 62.4399 41.5238 62.4637C42.527 62.5827 44.1121 62.7442 46.0237 62.6269C49.5204 62.4161 54.1098 61.3145 58.2815 57.5218V57.498C58.3052 57.1699 58.2578 56.6089 57.862 56.1635C57.7943 56.0955 57.7216 56.0224 57.6285 55.9527C57.5811 55.9051 57.5101 55.8847 57.4661 55.8337C57.3984 55.8099 57.3477 55.7657 57.302 55.7402L57.0923 55.5991V55.5753C57.0686 55.5277 57.0466 55.4818 56.9992 55.4342C55.9267 53.7937 54.4363 52.8332 53.829 52.3912C53.5499 52.1804 53.3621 52.0852 53.3621 52.0852C52.0798 51.2862 51.8938 51.0312 52.0088 48.8994L52.2186 45.7374L52.2422 45.2223V44.5423C52.2422 44.4233 52.2186 44.3077 52.2186 44.2142C52.2186 44.1683 52.2186 44.1207 52.1949 44.0731C52.1712 43.9541 52.1712 43.8385 52.1492 43.7212C52.1492 43.6736 52.1255 43.6022 52.1255 43.558C52.1255 43.49 52.1018 43.439 52.0782 43.388C52.0545 43.3421 52.0545 43.269 52.0325 43.2248C52.0088 43.1568 51.9851 43.0837 51.9851 43.014C51.9851 42.9902 51.9614 42.9664 51.9614 42.946C51.9614 42.9256 51.9377 42.8984 51.9377 42.878V42.8542L51.9141 42.7862C51.8904 42.7403 51.8667 42.6927 51.8667 42.6451V42.6213L51.843 42.5737L51.8193 42.5278C51.772 42.4343 51.7517 42.3578 51.7009 42.2694L51.6772 42.2014L51.5368 41.9668L51.4911 41.9209C51.4438 41.8733 51.4235 41.8274 51.3727 41.7798L51.3254 41.7118C51.2844 41.6526 51.2374 41.5979 51.185 41.5486L51.0158 41.3786C50.9481 41.331 50.8754 41.2851 50.806 41.2596C50.7823 41.2358 50.7587 41.2358 50.7384 41.2358L50.5979 41.1678C50.5743 41.1678 50.5506 41.144 50.5303 41.144C50.4829 41.1202 50.4372 41.1202 50.4119 41.0964C50.3882 41.0964 50.3662 41.0726 50.3188 41.0726C50.2715 41.0726 50.2512 41.0488 50.2004 41.0488H49.6878C49.6641 41.0488 49.6422 41.0488 49.6202 41.0726C49.5965 41.0726 49.5728 41.0726 49.5525 41.0964C49.5068 41.0964 49.4595 41.1202 49.3901 41.144H49.3444L48.9486 41.2851L48.9029 41.3089C48.8555 41.3327 48.8099 41.3565 48.7388 41.3769L48.6711 41.4007L48.5307 41.4687L48.4631 41.5146L48.3227 41.5826L48.255 41.6302C48.2076 41.654 48.1619 41.6982 48.1146 41.7237L48.0672 41.7475C48.0198 41.7951 47.9488 41.8155 47.9031 41.8665L47.8794 41.8903C47.8118 41.9379 47.761 41.9838 47.7103 42.0093L47.3601 42.2439L47.0556 42.4547L47.0082 42.4785C46.9128 42.5494 46.8115 42.612 46.7054 42.6655L46.6581 42.6893C46.565 42.7573 46.4483 42.8083 46.3536 42.8593L46.3079 42.8831C46.2148 42.9511 46.0981 43.0021 45.9814 43.048L45.9357 43.0718L45.6092 43.2129L45.5619 43.2367C45.4434 43.2843 45.3284 43.3047 45.2117 43.3557H45.1948L44.8226 43.4237L44.1696 43.4713C43.811 43.4709 43.4528 43.4476 43.0971 43.4016L42.7469 43.3336C42.6996 43.3336 42.6539 43.3098 42.6285 43.3098L41.6981 43.099C41.5577 43.0752 41.4443 43.031 41.3022 43.0055L40.6493 42.8644C40.6019 42.8644 40.5562 42.8406 40.5308 42.8406C40.5055 42.8406 40.4632 42.8168 40.4378 42.8168C40.3904 42.8168 40.3448 42.793 40.2974 42.793C40.25 42.793 40.2043 42.7692 40.157 42.7692H40.1113C40.0639 42.7692 40.0183 42.7454 39.9929 42.7454C39.8998 42.7216 39.8237 42.6978 39.6884 42.6978C39.6647 42.6978 39.6207 42.6978 39.5953 42.674C39.5277 42.674 39.4549 42.6502 39.3856 42.6502C39.3382 42.6502 39.3179 42.6502 39.2672 42.6264C39.1995 42.6264 39.1487 42.6026 39.098 42.6026H38.0255C37.9071 42.6026 37.8157 42.6264 37.699 42.6264H37.6059C37.5383 42.6264 37.4655 42.6502 37.3962 42.6502H37.3725C37.3251 42.6502 37.3048 42.674 37.2541 42.674C37.1864 42.6978 37.1137 42.6978 37.0443 42.7216C36.9986 42.7216 36.9513 42.7454 36.9259 42.7454C36.8582 42.7692 36.7855 42.7913 36.7161 42.7913C36.6705 42.7913 36.6485 42.8151 36.5977 42.8389L36.3643 42.9069C36.3169 42.9307 36.2966 42.9307 36.2712 42.9545L35.9447 43.0956C35.0696 43.6065 34.3079 44.2921 33.7067 45.1101C33.5039 45.38 33.3169 45.6616 33.1467 45.9533C32.968 46.2614 32.8125 46.5824 32.6815 46.9138C32.6341 47.0073 32.6138 47.0838 32.5631 47.1943L32.399 47.6873C32.399 47.7111 32.399 47.7349 32.3753 47.7349L32.2349 48.3197C32.1875 48.5305 32.1672 48.7175 32.1419 48.9283C32.1182 49.0473 32.1182 49.1391 32.1182 49.2564C32.095 49.5529 32.095 49.8507 32.1182 50.1472V50.2152C32.1182 50.2832 32.1182 50.3563 32.1419 50.4498L32.2349 51.0822C32.2586 51.1502 32.2823 51.2233 32.2823 51.3168C32.306 51.3848 32.306 51.4579 32.3296 51.5276C32.4599 52.0387 32.664 52.5278 32.9353 52.9794C33.891 54.642 35.4761 55.6484 36.64 56.1873L38.039 56.7262L37.9916 56.7738L37.6871 56.8418L37.1052 57.0118C36.8718 57.0798 36.5926 57.1818 36.3101 57.3178C35.5658 57.6238 34.725 58.0658 33.979 58.6778C33.886 58.7458 33.8098 58.841 33.6999 58.9124C33.5358 59.0535 33.3954 59.1929 33.2567 59.3578L33.1383 59.4768C33.0909 59.5448 33.0198 59.5958 32.9742 59.6468L32.9065 59.7148C32.8388 59.8083 32.7661 59.8848 32.7373 59.9953C32.6697 60.0888 32.6189 60.1653 32.5682 60.2758C32.1249 61.0493 31.8695 61.986 31.9389 63.1097V63.0638C31.9389 63.04 31.9389 63.0162 31.9625 62.9958V62.972C31.9625 62.9482 31.9862 62.9244 31.9862 62.8785V62.8547C31.9862 62.8309 32.0099 62.7867 32.0099 62.7357C32.0099 62.6847 32.0336 62.6677 32.0573 62.6167V62.5878C32.081 62.5419 32.081 62.4943 32.103 62.4467V62.4229C32.1266 62.3753 32.1266 62.3294 32.1503 62.2818V62.258C32.178 62.2051 32.2012 62.1499 32.2197 62.0931L32.2434 62.0693C32.267 62.0217 32.2907 61.9503 32.3364 61.9061L32.4768 61.6477C32.5005 61.6239 32.5242 61.5797 32.5445 61.5542L32.5682 61.5304L32.7086 61.3196C32.7542 61.272 32.8016 61.2006 32.849 61.1564L32.8963 61.1088C32.942 61.0612 32.964 61.0153 33.0148 60.9898L33.0621 60.9422C33.1095 60.8963 33.1805 60.8487 33.2245 60.779C33.2245 60.779 32.2231 63.074 32.6663 64.876V64.5241C32.6663 64.4765 32.6663 64.4306 32.69 64.383C32.69 64.3371 32.69 64.2895 32.7136 64.2419V64.2181C32.7136 64.1705 32.7373 64.0991 32.7373 64.0532V64.0056C32.761 63.9376 32.761 63.8866 32.7847 63.8356V63.8118C32.8084 63.7438 32.8321 63.6707 32.8321 63.6418C32.8321 63.618 32.8557 63.5942 32.8557 63.5738L32.8794 63.5279C32.9031 63.4803 32.9251 63.4089 32.9471 63.363C32.9708 63.295 33.0148 63.2219 33.0655 63.1522C33.0655 63.1284 33.0892 63.1046 33.0892 63.1046L33.2296 62.8938L33.1839 64.1348C33.1839 64.2538 33.1839 64.3456 33.2076 64.4629C33.2076 64.5309 33.2076 64.604 33.2313 64.6737C33.2076 65.1412 33.2076 65.6087 33.255 66.1017C33.3226 66.9211 33.5341 67.8102 33.8843 68.7248C33.8843 68.7248 33.5578 67.6708 34.0247 66.6168L34.1651 66.8973L34.3343 68.1383C34.4273 68.9577 34.8012 71.4193 36.4776 73.1261C36.4776 73.1261 35.8483 72.3067 35.9413 71.2527L36.1105 71.6267C36.3896 72.1656 36.9496 73.1482 37.5789 73.8537C37.5789 73.8537 37.0883 72.8949 37.2067 72.6807C37.2067 72.6807 38.8375 74.7207 39.3501 74.9077L38.6734 73.7857L38.6497 73.7619C41.0011 75.4959 44.266 76.1249 48.2753 75.0029C48.9739 74.8329 49.6743 74.5575 50.4186 74.2549C50.8704 74.0553 51.3134 73.8364 51.7466 73.5987L51.8143 73.5528L52.7227 73.0139L53.3993 72.5685L54.5158 71.7253C54.5395 71.7015 54.5615 71.6794 54.5835 71.6794L55.5867 70.7189C55.9862 70.2975 56.3596 69.8518 56.7049 69.3844L56.7285 69.3606C56.8137 69.2567 56.8917 69.1471 56.962 69.0325L56.9857 69.0087C57.0094 68.9628 57.033 68.9407 57.0533 68.8897L57.3798 68.4205C57.4035 68.3746 57.4255 68.3525 57.4475 68.3049C57.4949 68.2114 57.5405 68.14 57.6116 68.0465L57.73 67.8765C57.7774 67.8085 57.8231 67.7354 57.8484 67.6657L58.0582 67.2917L58.1259 67.1506L58.3356 66.729L58.3593 66.6814C58.4067 66.5624 58.4777 66.4468 58.5234 66.3295V66.3057C58.7332 66.1357 58.8736 65.9317 59.014 65.7668C59.0377 65.743 59.0613 65.7192 59.0613 65.6988C59.2677 65.3979 59.3608 65.0477 59.3608 64.7196M21.6197 58.7016C21.552 58.7254 21.4793 58.8206 21.3862 58.9362C21.3626 58.9821 21.3186 59.0297 21.2932 59.0994C21.0834 59.4972 20.8974 60.0599 20.8974 60.0599L20.943 59.4989V59.4309L21.0107 58.8444V58.7764C21.0344 58.5418 21.0784 58.331 21.1291 58.1202C21.1291 58.0964 21.1291 58.0726 21.1528 58.0267V58.0029C21.1528 57.9791 21.1528 57.9553 21.1765 57.9349C21.1765 57.8873 21.2002 57.8669 21.2002 57.8159L21.2932 57.3229L21.3609 56.9251V56.8775C21.3609 56.8537 21.3609 56.8299 21.3846 56.8299V56.784C21.3846 56.7602 21.4082 56.716 21.4082 56.6905C21.4082 56.665 21.4082 56.6429 21.4319 56.6225C21.4319 56.5749 21.4556 56.529 21.4556 56.5035C21.4556 56.478 21.4793 56.4355 21.4793 56.41C21.4793 56.3641 21.503 56.3165 21.503 56.2944C21.503 56.2723 21.503 56.2468 21.5267 56.2264C21.5267 56.2026 21.5267 56.1805 21.5503 56.1805C21.5503 56.1329 21.574 56.1125 21.574 56.087V56.019L21.5283 56.0666C21.481 56.0904 21.4607 56.1346 21.4099 56.1601L21.3626 56.206C21.3169 56.2536 21.2695 56.2995 21.2441 56.3471L21.2205 56.3709L21.0801 56.5817L21.0564 56.6055C21.0564 56.6293 21.0327 56.6293 21.0327 56.6531L20.965 56.7942V56.8401C20.9413 56.9081 20.8974 56.9812 20.872 57.0509L20.7028 57.5898C20.6791 57.6374 20.6791 57.7088 20.6554 57.7309L20.6098 57.9417C20.6098 57.8737 20.6098 57.8227 20.6335 57.7717C20.6335 57.6527 20.6571 57.5133 20.6571 57.3977C20.6571 57.3042 20.6808 57.1869 20.7045 57.0917C20.7045 57.0679 20.7045 57.0237 20.7282 56.9982C20.7282 56.9523 20.7519 56.9047 20.7519 56.8571C20.7519 56.8095 20.7756 56.7636 20.7756 56.716V56.648C20.7756 56.6004 20.7992 56.529 20.7992 56.4848V56.3216C20.7992 56.2978 20.7992 56.274 20.8229 56.2536C20.8499 56.1781 20.8658 56.0991 20.8703 56.019V55.9952C20.894 55.9476 20.894 55.8762 20.9177 55.8303V55.7606C20.9413 55.6416 20.9853 55.526 21.0107 55.4087V55.3611C21.0107 55.3373 21.0107 55.3135 21.0344 55.2931C21.0801 55.1231 21.1528 54.9191 21.1968 54.7542V54.7304L21.3592 54.285V54.2612L21.4268 54.0912C21.4742 53.9977 21.4945 53.9212 21.5453 53.8107C21.5453 53.7869 21.5689 53.7427 21.6129 53.6475C21.6366 53.6237 21.6366 53.5795 21.6586 53.554C21.6823 53.5081 21.706 53.4605 21.7263 53.3908L21.75 53.3449C21.7263 53.3211 21.6823 53.3211 21.6569 53.2973H21.6332L21.5859 53.2735C21.3664 53.1735 21.141 53.0872 20.9109 53.0151H20.8635C20.7103 52.9728 20.5543 52.9416 20.3966 52.9216C20.3036 52.9216 20.2275 52.8978 20.1175 52.8978H19.8891C19.7707 52.8978 19.6557 52.9216 19.5389 52.9216C19.4916 52.9216 19.4713 52.9216 19.4205 52.9454C19.3732 52.9454 19.3021 52.9692 19.2564 52.9692C19.2328 52.9692 19.2091 52.9692 19.1888 52.993C19.1414 52.993 19.1211 53.0168 19.0704 53.0168L18.8369 53.0848C18.8132 53.0848 18.7692 53.1086 18.7439 53.1086C18.6508 53.1545 18.5341 53.1766 18.4394 53.2276C18.392 53.2514 18.3717 53.2752 18.3209 53.2752L18.1518 53.3687C18.1044 53.3925 18.0587 53.4163 18.0114 53.4622C17.964 53.486 17.9183 53.5098 17.871 53.5557C17.8236 53.5795 17.7779 53.6237 17.7306 53.6492C17.7069 53.673 17.6629 53.6951 17.6375 53.7172L17.4041 53.928L17.2856 54.047C17.218 54.115 17.1672 54.1881 17.1165 54.2578L17.0928 54.2816C17.0691 54.3292 17.0251 54.3496 16.9998 54.4006L16.9321 54.4686C16.8137 54.6335 16.6986 54.8205 16.6056 55.0075C16.5819 55.0313 16.5819 55.0534 16.5599 55.0755C16.5142 55.169 16.4923 55.2455 16.4415 55.356C16.4178 55.4036 16.4178 55.424 16.3958 55.475C16.3721 55.5685 16.3282 55.645 16.3028 55.781V55.8745C16.2791 55.9425 16.2791 56.0156 16.2571 56.0853C16.2571 56.1329 16.2571 56.1533 16.2334 56.2043C16.2334 56.2519 16.2334 56.2723 16.2097 56.3233V56.4168C16.2097 56.5358 16.1861 56.6514 16.2097 56.7687C16.2061 56.8629 16.214 56.9571 16.2334 57.0492V57.0968C16.2334 57.1444 16.2571 57.1903 16.2571 57.2379C16.2808 57.4079 16.3248 57.5898 16.3755 57.7768L16.5159 58.1508C16.6089 58.3816 16.7263 58.6016 16.8661 58.807C17.1452 59.2286 17.5191 59.606 17.9606 59.8848C18.1941 60.048 18.4732 60.1653 18.7523 60.2588C19.0095 60.3523 19.2886 60.422 19.5914 60.4288C19.6591 60.4288 19.7318 60.4526 19.7606 60.4526H20.0651C20.1581 60.4526 20.2342 60.4288 20.3442 60.4288C20.3915 60.4288 20.4626 60.4288 20.5083 60.405L20.9041 60.337H20.9278C20.9735 60.3132 21.0208 60.3132 21.0902 60.2911C21.2526 60.2452 21.4167 60.1721 21.5571 60.1211L21.5808 60.0973C21.6282 60.0735 21.6738 60.0497 21.6992 60.0497L21.5368 58.8087C21.6552 58.7577 21.6552 58.7339 21.6552 58.7101" fill="#FCE9CD"/>
<path d="M57.8786 63.7155C57.8786 63.6917 57.8786 63.6679 57.8549 63.6679C57.8312 63.622 57.8312 63.5999 57.8312 63.5744C57.7409 63.268 57.6076 62.9761 57.4353 62.7074C57.2712 62.4524 57.1308 62.3096 57.1308 62.3096L57.1985 62.0291C57.2222 61.9135 57.2442 61.7945 57.2442 61.6772C57.3372 60.834 57.1258 60.1778 56.9397 59.8038C56.916 59.7358 56.8923 59.6848 56.872 59.6406L56.4762 59.9211C53.959 61.6313 51.139 62.7312 48.0855 63.2021C45.9878 63.5302 43.7751 63.554 41.4677 63.2701L41.5134 63.2939C41.5134 63.2939 40.1144 63.4639 39.7422 64.8154L39.7659 64.8392L39.6475 65.73C39.6931 66.9472 40.2294 67.6969 40.8587 68.093C41.5117 68.3514 42.3034 68.5384 43.1898 68.654C44.7039 68.824 46.4767 68.7951 48.2479 68.5129C50.6247 68.1848 53.9826 66.92 56.3814 65.2829C56.9177 64.9089 57.4303 64.5094 57.8498 64.1099L57.8955 64.064C57.8955 63.9008 57.8718 63.809 57.8718 63.7121" fill="white"/>
<path d="M53.3349 52.1463C52.0526 51.3473 51.8665 51.0923 51.9815 48.9605L52.1913 45.7985L52.215 45.2834V44.6034C52.215 44.4844 52.1913 44.3688 52.1913 44.2753C52.1913 44.2277 52.1913 44.1818 52.1676 44.1342C52.1439 44.0152 52.1439 43.8996 52.122 43.7823C52.122 43.7364 52.0983 43.6633 52.0983 43.6191C52.0983 43.5511 52.0746 43.5001 52.0509 43.4491C52.0272 43.3981 52.0272 43.3301 52.0052 43.2842C51.8361 43.0037 51.6094 42.7691 51.3522 42.5583L51.3049 42.5124L51.2592 42.4903H51.2355C51.1882 42.4665 51.1679 42.4427 51.1171 42.4223C51.0664 42.4019 51.0241 42.3764 50.9987 42.3543C50.6265 42.1197 50.1833 41.9803 49.7401 41.9089C49.4863 41.8613 49.2275 41.8613 48.9704 41.8613C48.852 41.8613 48.7132 41.8851 48.5982 41.8851C48.2717 41.931 47.9452 42.0007 47.5967 42.0959L47.2466 42.3305L46.9421 42.5413L46.8947 42.5651C46.7993 42.636 46.698 42.6986 46.5919 42.7521L46.5462 42.7759C46.4532 42.8439 46.3365 42.8949 46.2417 42.9459L46.1944 42.9697C46.0928 43.0381 45.9831 43.0935 45.8679 43.1346L45.8205 43.1584L45.494 43.2995L45.4466 43.3233L45.0965 43.4423H45.0728L44.7006 43.5103L44.0476 43.5579C43.6891 43.5565 43.331 43.5338 42.9751 43.4899L42.6249 43.4219C42.5776 43.4219 42.5319 43.3981 42.5065 43.3981L41.5761 43.1873C41.4357 43.1635 41.319 43.1193 41.1803 43.0938L40.5273 42.9527C40.4816 42.9527 40.4342 42.9289 40.4089 42.9289C40.2397 42.9289 40.0367 42.9527 39.8743 42.9748H39.8269C39.287 43.0442 38.7557 43.1702 38.2418 43.3505C38.2181 43.3505 38.1962 43.3743 38.1488 43.3743C38.0557 43.3981 37.9847 43.4423 37.895 43.4678L37.5685 43.6089C36.7988 43.937 36.0765 44.4079 35.3778 44.991C35.0987 45.2256 34.8416 45.501 34.5861 45.739C34.2193 46.1336 33.8839 46.5565 33.583 47.0038C33.5593 47.0276 33.5593 47.0514 33.5373 47.0718C33.3808 47.3037 33.2406 47.5462 33.1178 47.7977L32.9774 48.0561V48.0799C32.8404 48.3684 32.7234 48.6661 32.6272 48.9707C32.6272 48.9945 32.6272 49.0183 32.6035 49.0183C32.5798 49.0659 32.5798 49.1118 32.5561 49.1594C32.5061 49.2966 32.4671 49.4376 32.4394 49.581C32.392 49.7221 32.3717 49.8615 32.3464 50.0264C32.3464 50.0502 32.3227 50.0944 32.3227 50.1199C32.299 50.2134 32.299 50.2899 32.2753 50.3749L32.1823 51.3609V51.5955C32.3133 52.1063 32.5173 52.5954 32.7879 53.0473C33.7437 54.7099 35.3288 55.7163 36.5096 56.2552L37.9086 56.7941L37.9323 56.8179L37.9559 56.7941C38.0157 56.7513 38.0723 56.7042 38.1251 56.653C38.1488 56.6292 38.1725 56.6292 38.1928 56.6054L38.4025 56.4643C38.4262 56.4405 38.4499 56.4405 38.4702 56.4167L38.68 56.2756C38.7037 56.2518 38.7256 56.2518 38.7476 56.228L38.9811 56.0869C39.0048 56.0631 39.0285 56.0631 39.0488 56.0393L39.2822 55.8982C39.3059 55.8744 39.3296 55.8744 39.3499 55.8523L39.5833 55.7112C39.607 55.6874 39.651 55.6874 39.6764 55.6636C39.744 55.616 39.8405 55.5701 39.9098 55.5225C39.9335 55.4987 39.9775 55.4749 40.0029 55.4749C40.0705 55.429 40.1669 55.3814 40.2566 55.3338C40.3023 55.31 40.3243 55.2862 40.375 55.2862C40.4681 55.2403 40.5374 55.1927 40.6288 55.1672C40.6761 55.1434 40.6964 55.1213 40.7472 55.1213L41.0009 55.0023L41.1413 54.9343L41.3985 54.8153C41.4458 54.7915 41.4915 54.7677 41.5626 54.7473C41.6556 54.7235 41.725 54.6793 41.8163 54.6538C41.8637 54.63 41.9347 54.6062 41.9787 54.5858C42.0718 54.562 42.1428 54.5178 42.2325 54.4923L42.4016 54.4243C42.4947 54.4005 42.5657 54.3563 42.6554 54.3308L42.8652 54.2628C42.9328 54.239 43.0276 54.2152 43.0986 54.1693L43.5655 54.0333L43.8193 53.9653L44.0527 53.8973C44.1558 53.8736 44.257 53.8423 44.3555 53.8038C44.4029 53.78 44.4486 53.78 44.4959 53.7579C44.8681 52.7974 46.01 50.4089 47.9469 50.1505L48.5305 50.1029H48.671C48.6473 49.9618 48.6253 49.8224 48.6253 49.6575C48.5576 48.6273 48.879 47.7603 49.3239 47.7365C49.6741 47.7127 49.9532 48.2465 50.0006 48.3927C50.1556 48.7561 50.2423 49.1451 50.256 49.5402C50.2797 49.938 50.2324 50.3137 50.163 50.6401C50.2087 50.686 50.2307 50.7336 50.2814 50.7591C50.7246 51.3201 50.794 52.0715 50.7889 52.6325C50.953 52.6087 51.1391 52.6087 51.3252 52.5866C51.3725 52.5866 51.4182 52.5866 51.4656 52.5628H51.5586L52.2353 52.5169L53.7967 52.4234L53.3095 52.1684M58.1815 66.5946C57.3823 67.3064 56.5068 67.9268 55.5713 68.4442L54.2653 69.0766C53.3983 69.4537 52.5021 69.759 51.5857 69.9895C49.7925 70.4349 48.5407 70.4349 48.5407 70.4349C49.5219 70.9721 50.7534 70.9721 51.5925 70.9024C52.1761 70.8548 52.5736 70.7375 52.5736 70.7375C52.5499 71.0894 52.506 71.4175 52.4552 71.7439C52.395 72.0646 52.3015 72.3779 52.1761 72.6789V72.7027C52.0357 73.0546 51.8496 73.3589 51.6635 73.6377C51.6398 73.6615 51.6161 73.7057 51.5958 73.7312L51.6635 73.6853L52.5719 73.1464L53.2486 72.701L54.3651 71.8578C54.3888 71.834 54.4125 71.8102 54.4328 71.8102L55.4359 70.8497C55.8355 70.4288 56.2084 69.9831 56.5524 69.5152L56.5761 69.4914L56.8096 69.1633L56.8332 69.1395C56.8569 69.0919 56.8789 69.0715 56.9009 69.0205L57.2274 68.5513C57.2511 68.5054 57.2748 68.4833 57.2951 68.4323C57.3424 68.3388 57.3881 68.2691 57.4592 68.1773L57.5776 68.0073C57.625 67.9419 57.6647 67.8711 57.696 67.7965L57.9058 67.4225L58.2103 66.8105C58.2559 66.6915 58.3287 66.5759 58.3727 66.4586C58.2796 66.4841 58.2323 66.53 58.1629 66.6014M36.9088 57.163C36.6753 57.231 36.3962 57.333 36.1171 57.469C35.3728 57.775 34.532 58.217 33.786 58.829C33.6929 58.897 33.6168 58.9922 33.5069 59.0636C33.3445 59.2047 33.2024 59.3441 33.0636 59.509L32.9452 59.628C32.8995 59.696 32.8268 59.747 32.7811 59.798L32.7135 59.866C32.6458 59.9595 32.5731 60.036 32.5443 60.1465C32.4766 60.24 32.4259 60.3165 32.3751 60.427C31.9319 61.2005 31.6765 62.1372 31.7458 63.2609V63.215C31.7458 63.1912 31.7458 63.1674 31.7695 63.147V63.1232C31.7695 63.0994 31.7932 63.0773 31.7932 63.0297V63.0042C31.7932 62.9804 31.8169 62.9362 31.8169 62.8852C31.8169 62.8342 31.8406 62.8172 31.8642 62.7662V62.7322C31.8879 62.6846 31.8879 62.6387 31.9116 62.5911V62.5673C31.9353 62.5214 31.9353 62.4738 31.959 62.4262V62.4024C31.9827 62.3548 32.0047 62.3089 32.0266 62.2392L32.0503 62.2154C32.074 62.1678 32.0977 62.0964 32.1434 62.0505L32.2838 61.7955C32.3075 61.7717 32.3311 61.7275 32.3514 61.702L32.3751 61.6782L32.5155 61.4674C32.5629 61.4198 32.6086 61.3484 32.6559 61.3025L32.7016 61.2566C32.749 61.2107 32.7693 61.1631 32.82 61.1376L32.8674 61.09C32.9148 61.0441 32.9858 60.9965 33.0315 60.9268C33.0315 60.9268 32.03 63.2218 32.4732 65.0068V64.6549C32.4732 64.6073 32.4732 64.5614 32.4969 64.5138C32.4969 64.4662 32.4969 64.4203 32.5206 64.3727V64.3489C32.5206 64.3013 32.5443 64.2299 32.5443 64.1857V64.1381C32.568 64.0701 32.568 64.0191 32.5917 63.9681V63.946C32.616 63.8862 32.6319 63.8233 32.639 63.759C32.639 63.7352 32.6627 63.7114 32.6627 63.691L32.6864 63.6434C32.7101 63.5958 32.7338 63.5244 32.7541 63.4785C32.7777 63.4105 32.8217 63.3374 32.8725 63.2677C32.8725 63.2439 32.8962 63.2201 32.8962 63.2201L33.0366 63.0093L32.9892 64.2503C32.9852 64.3602 32.9931 64.4702 33.0129 64.5784C33.0129 64.6464 33.0129 64.7195 33.0366 64.7892C33.0849 64.0979 33.2103 63.4142 33.4104 62.7509L33.5745 62.2358C33.5745 62.212 33.5982 62.1882 33.5982 62.1678L33.7674 61.7003C33.7911 61.6765 33.7911 61.6527 33.8147 61.6068L34.0245 61.1614C34.0482 61.1376 34.0482 61.1138 34.0482 61.0934L34.5557 60.2502C34.5794 60.2264 34.5794 60.2026 34.6031 60.1822L34.8128 59.8762C34.8365 59.8524 34.8365 59.8286 34.8585 59.8082C34.8805 59.7878 34.8822 59.7606 34.9059 59.7402L35.1596 59.3883C35.1833 59.3645 35.1833 59.3424 35.207 59.3424L35.4861 59.0143L35.8363 58.6165L36.1865 58.2646L36.7447 57.7257C37.2573 57.2565 37.6751 56.9522 37.8172 56.8757L37.5127 56.9437C37.3322 57.0312 37.1442 57.1023 36.9511 57.1562M50.3948 52.0358C50.3948 52.0358 50.3948 51.9882 50.3711 51.8947C50.278 51.5666 49.9515 50.7727 48.6693 50.8866C47.3159 51.0277 46.8507 52.1276 46.7357 52.5016C46.712 52.5696 46.712 52.6206 46.712 52.6206L46.7594 52.6444C46.9218 52.5033 47.2669 52.5033 47.5511 52.7124C47.6915 52.8059 47.7845 52.8824 47.8776 53.0184C47.996 53.1884 48.018 53.3924 47.9452 53.5335L47.8776 53.6015C47.9227 53.6217 47.9697 53.6371 48.018 53.6474C48.3901 53.7664 49.439 53.9755 49.9972 53.2496C50.0209 53.202 50.0446 53.1816 50.0649 53.1306C49.9465 53.0847 49.9008 52.9198 49.9008 52.709C49.9008 52.6155 49.9245 52.539 49.9482 52.403C50.0158 52.1225 50.2273 51.961 50.388 52.029M43.6552 62.0522L41.4171 62.4738C41.4408 62.4738 41.4848 62.4738 41.5101 62.4976C43.0015 62.6884 44.5071 62.743 46.0083 62.6608C49.5049 62.45 54.0944 61.3518 58.2661 57.5557V57.5319C58.2898 57.2038 58.2424 56.6411 57.8466 56.1974C57.7789 56.1294 57.7061 56.0563 57.6131 55.9866C57.5894 55.9866 57.5894 55.9628 57.5657 55.9628L57.2612 55.7928L57.0515 55.6517V55.6279C56.7977 56.0019 56.4932 56.3538 56.165 56.6819L55.7929 57.0338C54.651 58.064 53.1589 58.9548 51.5519 59.6569C48.8959 60.8265 45.9135 61.6 43.6518 62.0709M21.5586 55.9577C21.5112 55.9815 21.4909 56.0257 21.4402 56.0512L21.3996 56.0852C21.3522 56.1328 21.3066 56.1787 21.2812 56.2263L21.2575 56.2501L21.1171 56.4609L21.0934 56.4847C21.0934 56.5085 21.0697 56.5085 21.0697 56.5306L21.0021 56.6717V56.7193C20.9784 56.7873 20.9344 56.8604 20.909 56.9301L20.7398 57.469C20.7162 57.5166 20.7162 57.588 20.6942 57.6101L20.6468 57.8209C20.6468 57.7529 20.6468 57.7019 20.6705 57.6509C20.6705 57.5319 20.6942 57.3925 20.6942 57.2769C20.6987 57.1736 20.714 57.071 20.7398 56.9709C20.7398 56.9471 20.7398 56.9029 20.7635 56.8774C20.7635 56.8298 20.7872 56.7839 20.7872 56.7363C20.7872 56.6887 20.8109 56.6428 20.8109 56.5952V56.5272C20.8109 56.4813 20.8346 56.4082 20.8346 56.364V56.1991C20.8346 56.1753 20.8346 56.1532 20.8583 56.1311C20.8854 56.0557 20.9014 55.9766 20.9056 55.8965V55.8727C20.9293 55.8251 20.9293 55.7537 20.9513 55.7078V55.684C20.975 55.5684 21.019 55.4494 21.0443 55.3321V55.2862C21.0443 55.2624 21.0443 55.2403 21.068 55.2182L21.2321 54.6793V54.6555L21.3945 54.2101V54.1863L21.4622 54.0163C21.5079 53.9228 21.5299 53.8463 21.5806 53.7358C21.5806 53.712 21.6043 53.6678 21.6483 53.5709C21.672 53.5471 21.672 53.5029 21.6939 53.4774C21.7176 53.4315 21.7413 53.3839 21.7616 53.3142L21.7853 53.2666C21.7616 53.2428 21.7176 53.2428 21.6923 53.219H21.6533L21.606 53.1952C21.3861 53.0953 21.1601 53.0095 20.9293 52.9385H20.8836C20.7195 52.8909 20.5791 52.8705 20.4167 52.845C20.3237 52.845 20.2476 52.8212 20.1376 52.8212H19.9042C19.7857 52.8212 19.6707 52.845 19.554 52.845C19.5083 52.845 19.4863 52.845 19.4356 52.8688C19.3899 52.8688 19.3172 52.8926 19.2732 52.8926C19.2495 52.8926 19.2275 52.8926 19.2055 52.9164C19.1581 52.9164 19.1378 52.9402 19.0871 52.9402L18.8536 53.0082C18.83 53.0082 18.786 53.032 18.7606 53.032C18.6676 53.0796 18.5508 53.1 18.4561 53.151C18.4087 53.1748 18.3884 53.1986 18.3377 53.1986L18.1685 53.2921C18.1211 53.3159 18.0755 53.3397 18.0281 53.3856C17.9807 53.4094 17.9351 53.4332 17.8877 53.4791C17.842 53.5029 17.7947 53.5471 17.7473 53.5726C17.7236 53.5964 17.6796 53.6202 17.6542 53.6406C17.5866 53.7086 17.4918 53.7817 17.4208 53.8514L17.3024 53.9704C17.2347 54.0384 17.184 54.1115 17.1332 54.1812L17.1095 54.205C17.0858 54.2509 17.0419 54.273 17.0165 54.3206L16.9488 54.3886C16.8257 54.5591 16.7165 54.7393 16.6223 54.9275C16.5986 54.9513 16.5986 54.9734 16.575 54.9955C16.5276 55.089 16.5073 55.1655 16.4565 55.276C16.4329 55.3236 16.4329 55.344 16.4092 55.395C16.4092 55.4188 16.4329 55.4426 16.4329 55.463L16.5005 55.718V55.7656L16.5936 56.0002C16.6759 56.2195 16.7772 56.4312 16.8964 56.6326C16.9201 56.6564 16.9201 56.6802 16.9437 56.7006V56.7244L16.9674 56.7482C17.0269 56.8715 17.0971 56.9893 17.1772 57.1001L17.4563 57.4741L17.502 57.5217L17.5697 57.5897C17.5697 57.5438 17.546 57.4962 17.546 57.4707C17.4817 57.1788 17.4505 56.8806 17.4529 56.5816V56.534L17.4766 55.9951L17.5443 56.2059C17.568 56.2994 17.612 56.3759 17.6373 56.4864V56.5323C17.7777 56.9301 17.9418 57.2582 18.1025 57.5183C18.2374 57.7582 18.3936 57.9852 18.5694 58.1966C18.5931 58.2204 18.6168 58.2425 18.6168 58.2646L18.6642 58.3105C18.5926 58.0033 18.5535 57.6893 18.5474 57.3738V57.0678C18.5474 56.9267 18.5474 56.8128 18.5711 56.6938C18.6185 56.9046 18.6895 57.1154 18.7403 57.3024V57.3262C18.936 57.8478 19.1945 58.3433 19.51 58.8018L19.5337 58.8256C19.5794 58.8732 19.6014 58.9191 19.6267 58.9667C19.6504 58.9905 19.6741 59.0143 19.6741 59.0347L19.7215 59.0806L19.7451 59.1044V59.0585C19.7451 59.0109 19.7215 58.965 19.7215 58.9174L19.6538 58.4482C19.6538 58.3547 19.6301 58.2374 19.6301 58.1422V57.6254C19.6301 57.5064 19.6538 57.3704 19.6538 57.2514L19.7215 57.486C19.7451 57.5336 19.7688 57.605 19.7891 57.6509V57.6747L19.8128 57.6985L19.8805 57.8685C19.9278 57.9875 19.9735 58.1031 20.0446 58.1966L20.2137 58.5485C20.2488 58.6011 20.2799 58.6562 20.3068 58.7134L20.4252 58.8834C20.4726 58.9293 20.4929 58.9769 20.5182 59.0245L20.5419 59.0483C20.5656 59.0959 20.6096 59.1163 20.635 59.1673C20.6586 59.1911 20.6823 59.2149 20.6823 59.2353C20.728 59.2829 20.75 59.3288 20.7754 59.3288L20.7991 59.3526V59.2846L20.8667 58.6998V58.6318C20.8904 58.3972 20.9344 58.1864 20.9851 57.9756C20.9851 57.9518 20.9851 57.928 21.0088 57.8821V57.8583C21.0088 57.8345 21.0088 57.8124 21.0325 57.7903C21.0325 57.7444 21.0562 57.7223 21.0562 57.6713L21.1492 57.1613L21.2169 56.7635V56.7159C21.2169 56.6921 21.2169 56.6683 21.2406 56.6683V56.6207C21.2406 56.5969 21.2643 56.5527 21.2643 56.5272C21.2643 56.5017 21.2643 56.4796 21.2879 56.4592C21.2879 56.4116 21.3116 56.3657 21.3116 56.3402C21.3116 56.3147 21.3353 56.2722 21.3353 56.2467C21.3353 56.1991 21.359 56.1532 21.359 56.1277C21.359 56.1022 21.359 56.0801 21.3827 56.0597C21.3827 56.0359 21.3827 56.0138 21.4064 56.0138C21.4064 55.9662 21.43 55.9458 21.43 55.9203V55.8523L21.5485 55.9271M49.7925 65.7157L50.6316 65.4097C51.0748 65.2397 51.3083 65.0816 51.3083 65.0357C51.2846 64.9881 51.0291 65.0119 50.5639 65.1292L49.7181 65.2992C49.554 65.3468 49.3679 65.3672 49.1818 65.3927L48.5762 65.4862L47.1772 65.6494L46.4075 65.7174L45.5921 65.765C44.4756 65.7888 43.2238 65.7412 41.9804 65.51C41.2163 65.3618 40.4781 65.1012 39.7897 64.7365L39.766 64.7127C40.1382 63.3782 41.5372 63.1912 41.5372 63.1912L41.4915 63.1674H41.4239L40.8876 63.0994C40.7692 63.0756 40.6778 63.0756 40.6085 63.0518C40.5408 63.0518 40.4681 63.028 40.4444 63.028C39.6053 62.9804 39.1418 63.6842 38.9997 63.9885L38.932 64.1296C38.8136 64.4101 38.7223 64.7161 38.6986 65.0646C38.6705 65.4053 38.7095 65.7483 38.8134 66.0738C38.9174 66.3994 39.0841 66.7011 39.3042 66.9618C39.6307 67.3596 40.1906 67.7098 40.9113 67.992C40.282 67.5942 39.722 66.802 39.7 65.612C40.4224 65.918 41.2225 66.122 41.8654 66.2206C43.1102 66.4495 44.3788 66.5204 45.6412 66.4314L46.4802 66.3634L47.2753 66.2699L48.6743 66.0149L49.28 65.85C49.4897 65.8024 49.6521 65.7548 49.8145 65.6851" fill="#F2D2AC"/>
<path d="M48.6984 50.1071C49.397 50.1309 49.8656 50.3417 50.1904 50.6681C50.2724 50.3076 50.3037 49.9374 50.2835 49.5682C50.2598 49.1228 50.1651 48.725 50.0297 48.4207C49.9824 48.2507 49.7032 47.7407 49.3531 47.7645C48.9098 47.7883 48.5833 48.6553 48.6544 49.6855C48.6582 49.827 48.6718 49.968 48.6984 50.1071ZM49.8673 52.7523C49.8673 52.9223 49.935 53.1042 50.0314 53.1739C50.1938 53.2674 50.4036 53.0804 50.4966 52.7761C50.4966 52.7523 50.5203 52.7285 50.5203 52.7081C50.588 52.4276 50.5203 52.1471 50.3579 52.0757C50.1938 51.9822 49.9857 52.1692 49.891 52.4735C49.891 52.5687 49.8673 52.6588 49.8673 52.7523ZM46.6988 53.2691C46.7665 53.3881 46.868 53.5037 47.0253 53.5972C47.3298 53.7672 47.6546 53.808 47.8407 53.6448L47.9084 53.5768C47.976 53.4357 47.9541 53.2487 47.8407 53.0617C47.773 52.9427 47.6715 52.8271 47.5142 52.7557C47.2097 52.5857 46.8849 52.5449 46.7191 52.6877C46.6955 52.7115 46.6735 52.7336 46.6515 52.7812C46.5838 52.8968 46.6058 53.0872 46.6988 53.2742M57.9078 64.0471C57.4455 64.4872 56.9463 64.8864 56.4158 65.2405C54.0136 66.881 50.6607 68.1679 48.2822 68.4705C46.4891 68.751 44.7399 68.7986 43.2242 68.6116C42.3377 68.4926 41.5697 68.3056 40.893 68.0506C40.1707 67.7701 39.6107 67.4182 39.2859 67.0204C38.7954 66.4339 38.6566 65.7318 38.6803 65.1232C38.697 64.7981 38.7763 64.4795 38.9138 64.1848L38.9814 64.0437C39.1455 63.7377 39.5871 63.0135 40.4261 63.0832C40.4498 63.0832 40.5192 63.0832 40.5902 63.107C40.6579 63.107 40.7594 63.1308 40.8694 63.1546L41.4056 63.2226H41.4733C43.7807 63.5031 45.9934 63.481 48.0911 63.1546C51.1428 62.6854 53.9645 61.5855 56.4817 59.8736L56.8776 59.5931L58.2529 57.5327C54.0813 61.3492 49.4901 62.4508 45.9951 62.6616C44.494 62.7552 42.9873 62.6999 41.497 62.4967C41.4513 62.4967 41.4293 62.4967 41.4039 62.4729L40.6816 62.3794C40.5885 62.3794 40.5192 62.3556 40.4718 62.3556C40.2181 62.3318 39.9592 62.3794 39.7275 62.4491C39.2455 62.6078 38.828 62.9199 38.5382 63.3382C38.1661 63.8533 37.9326 64.5554 37.9326 65.2592C37.9326 65.844 38.073 66.4543 38.3758 67.0153C38.3995 67.0391 38.3995 67.0612 38.4215 67.0833L38.5399 67.2533C38.5943 67.3373 38.6566 67.4159 38.726 67.4879C39.4484 68.4008 41.0334 69.057 43.1311 69.3375C44.5521 69.5075 46.2099 69.5024 48.0031 69.244C53.3149 68.2835 55.8355 66.5512 56.9977 65.3561L57.2312 65.1011C57.6507 64.6081 57.8368 64.2511 57.9078 64.093V64.0896C57.9315 64.0437 57.9315 64.0216 57.9315 64.0216L57.9078 64.0471Z" fill="#664F44"/>
<path d="M41.0059 45.5434C40.8418 45.4499 40.6557 45.3785 40.4696 45.3326L40.0974 45.2646C40.0518 45.2646 40.0044 45.2646 39.957 45.2408C39.3277 45.1932 38.7898 45.2867 38.7898 45.2867C38.6714 45.3105 38.5563 45.3343 38.4633 45.3802C37.7409 45.5895 37.099 46.0146 36.6227 46.5991C36.2963 47.0207 36.0645 47.4491 35.9461 47.9081C35.9224 47.9557 35.9224 47.9761 35.9224 48.0271C35.8987 48.1461 35.8547 48.2617 35.8294 48.3552C35.7617 48.7292 35.7109 49.0573 35.7109 49.3412L35.7346 49.9498C35.875 49.6217 36.0391 49.3412 36.2015 49.0607C36.5974 48.3807 37.0169 47.8197 37.4601 47.3743C38.2992 46.5243 39.1602 46.0398 39.8115 45.8052C40.5119 45.5672 41.0008 45.5468 41.0008 45.5468M51.0916 44.3517L51.0679 44.3041C50.9748 44.1851 50.8581 44.0695 50.7177 43.976C50.3912 43.7652 49.948 43.6479 49.3424 43.7652C49.3424 43.7652 48.62 43.9284 48.2005 44.4214C48.2005 44.4214 49.4591 43.8825 50.8108 44.843C50.9292 44.9365 51.0679 45.013 51.1829 45.149C51.298 45.285 51.4367 45.3836 51.5551 45.5468C51.5551 45.5468 51.5077 44.9603 51.1592 44.4452C51.1356 44.3993 51.1136 44.3772 51.0916 44.3517Z" fill="#E9B784"/>
<path d="M41.1697 53.6688L42.7548 53.2472C42.8478 52.8018 42.8732 52.2612 42.8021 51.6781C42.638 50.3181 42.0324 49.2641 41.4268 49.3355C40.8212 49.4069 40.471 50.5765 40.6351 51.9365C40.7282 52.6403 40.9142 53.2472 41.1697 53.6688Z" fill="#664F44"/>
<path d="M38.3973 23.0586L37.1387 23.3391L37.3925 25.6341L34.0599 23.9239L32.6846 24.3455L32.7083 24.3693L36.7632 29.0069L36.8579 28.961L37.2301 28.7264C37.2758 28.7026 37.3231 28.6805 37.3705 28.6329L37.9287 28.3048L36.2032 26.3158L38.9776 27.6758L39.2313 27.5347L38.9776 25.5457L40.2362 27.0213H40.2599C40.3783 26.9737 40.4696 26.9023 40.5863 26.8564L40.6337 26.8326L40.6794 26.8088C40.7031 26.8088 40.7268 26.785 40.7268 26.785L40.8672 26.717C41.0313 26.6235 41.1937 26.5521 41.3324 26.4824L38.3956 23.0654" fill="#FFD250"/>
<path d="M37.1627 23.3405L37.3318 23.2929C37.0273 23.1518 36.6552 23.0583 36.2373 22.9869C35.3982 22.8679 34.3257 22.9869 33.1145 23.2929C31.9033 23.5989 30.5262 24.1361 29.0833 24.862C26.1702 26.3138 22.9543 28.5391 19.8298 31.3951C18.7353 32.3811 17.7322 33.4096 16.8018 34.416L20.5945 39.0995L23.9271 35.7505C25.5341 34.2749 27.1666 32.9625 28.7737 31.8405C30.2366 30.8046 31.7702 29.8735 33.3632 29.0542L32.7102 26.0571L32.7339 24.3707L32.7102 24.3469L34.0855 23.9253L36.7651 25.3074L36.6974 24.3724L37.1627 23.3439" fill="#4D9ED7"/>
<path d="M37.1628 23.3418L36.6959 24.372L36.7636 25.3325L37.4166 25.6606L37.1628 23.3418ZM36.207 26.3168L39.0034 27.6989L37.9308 28.3075L36.207 26.3168ZM39.0034 25.5433L39.2571 27.5323L40.2586 27.0172L39.0034 25.5433Z" fill="#132134"/>
<path d="M49.5375 24.8149H50.0517C50.4991 24.8207 50.9444 24.876 51.3797 24.9798C51.4034 24.9798 51.4254 24.9798 51.4474 25.0036H51.4711L51.5167 25.0274H51.5641C51.5167 25.0036 51.4711 24.9594 51.4237 24.9339C50.9515 24.7486 50.4583 24.623 49.9553 24.5599C47.4381 24.2318 44.5488 25.1685 42.918 25.8247C42.825 25.8706 42.7488 25.8927 42.6389 25.9437L42.2193 26.1137L41.497 26.4418C41.4513 26.4656 41.4293 26.4656 41.3786 26.4877L40.9354 26.6985L40.7713 26.792C40.7476 26.792 40.7239 26.8158 40.7239 26.8158H40.6309L40.6072 26.8396C40.4939 26.8851 40.3847 26.9403 40.2807 27.0045H40.2621C40.2384 27.0283 40.2147 27.0283 40.1944 27.0504H40.1707C40.147 27.0504 40.1234 27.0742 40.1234 27.0742L39.6328 27.3292C39.5144 27.3972 39.3993 27.4482 39.2826 27.4992H39.2589L39.0052 27.6403C38.726 27.7814 38.4689 27.9463 38.1898 28.1095C38.1661 28.1333 38.1424 28.1333 38.0967 28.1571C38.0731 28.1809 38.0494 28.1809 38.0291 28.203C38.0088 28.2251 37.9834 28.2268 37.9614 28.2506L37.9377 28.2744L37.3795 28.6025C37.3321 28.6263 37.2864 28.6501 37.2391 28.696L36.8669 28.9306L36.7722 28.9765L35.7233 29.6786L34.0215 30.8975C33.9538 30.9434 33.8811 31.0131 33.8117 31.0607C32.3434 32.1606 30.9444 33.3557 29.5944 34.5746L25.5175 38.5798L23.7345 40.46L22.2424 42.194C22.2424 42.194 22.3355 42.126 22.4962 41.9594L22.124 42.4048L29.1614 35.5674L33.9623 31.7509L36.175 30.2294L36.8974 29.7619L37.2695 29.5511C37.3372 29.5035 37.4099 29.4576 37.4793 29.4321C37.6197 29.3641 37.733 29.2672 37.8751 29.1975C37.9935 29.1295 38.1289 29.0564 38.2473 28.9629C38.315 28.9153 38.3877 28.8949 38.4571 28.8439L38.9477 28.5634C39.0407 28.5158 39.1168 28.4444 39.2268 28.3985L40.1572 27.9055C40.1809 27.8817 40.2029 27.8817 40.2249 27.8579L40.3653 27.7899C40.4329 27.7661 40.4837 27.7219 40.5344 27.6964C40.5581 27.6726 40.5818 27.6726 40.6021 27.6505L40.7425 27.5825L40.7882 27.5587L41.184 27.3887C41.2077 27.3887 41.2314 27.3649 41.2517 27.3428L41.3921 27.2748L41.859 27.064C41.9047 27.0402 41.952 27.0181 41.9774 26.996C42.0011 26.996 42.0248 26.9722 42.0451 26.9722C42.0908 26.9484 42.1381 26.9263 42.1855 26.9263L42.7218 26.6917L43.1887 26.4809L45.6585 25.5459C47.1049 25.1447 48.3872 24.888 49.5053 24.8404" fill="white"/>
</svg>
