<svg width="141" height="29" viewBox="0 0 141 29" fill="none" xmlns="http://www.w3.org/2000/svg">
<path d="M104.548 9.95394V27.682H98.8369V7.17773L104.548 9.95394Z" fill="#F37368"/>
<path d="M23.7207 24.3906L28.004 28.1186L46.0493 18.7192L44.1853 14.2376L23.7207 24.3906ZM98.8368 12.9685L113.352 5.43308L110.894 1.18945L98.8368 7.17812V12.9685Z" fill="#F7A199"/>
<path d="M57.987 8.56586V27.682H52.5139V0.435547L57.987 8.56586ZM23.7207 24.3902L28.004 28.1183L36.2533 7.49504L33.5961 0.435547L23.7207 24.3902Z" fill="#F37368"/>
<path d="M33.5957 0.435547H39.2274L49.658 27.682H43.8677L33.5957 0.435547ZM58.8195 0.435547L70.8365 19.0361V27.682L52.5135 0.435547H58.8195ZM81.1481 0.435547H86.8195V27.682H81.1481V0.435547ZM98.8365 5.43271H90.1113V0.435547H110.457L113.352 5.43271H104.548H98.8365Z" fill="#F04939"/>
<path d="M130.129 17.332V27.6833H124.497V17.332" fill="#F7A199"/>
<path d="M134.015 0.435547L124.497 17.3307H130.129L140.004 0.435547H134.015Z" fill="#F04939"/>
<path d="M124.497 17.3307L114.661 0.435547H120.848L127.471 12.0163L124.497 17.3307Z" fill="#F37368"/>
<path d="M2.58152 3.60938C2.58152 7.37708 4.92146 9.6377 9.60135 10.8275L14.5589 11.9776C19.0008 13.0088 21.6977 15.5471 21.6977 19.6717C21.7373 21.4564 21.1424 23.2014 20.0716 24.6292C20.0716 20.5046 17.93 18.2836 12.8138 16.9352L7.93563 15.8247C4.00928 14.9522 0.995117 12.8502 0.995117 8.36858C0.995117 6.6632 1.55036 4.95782 2.58152 3.60938Z" fill="#F04939"/>
<path d="M70.8369 17.648V0.435547H76.31V27.682H70.8369V17.648Z" fill="#F37368"/>
<path d="M17.0182 18.6402C19.1202 19.9887 20.072 21.8924 20.072 24.6289C18.2873 26.8895 15.2335 28.119 11.6244 28.119C5.55642 28.119 1.23347 25.1048 0.321289 19.9093H6.15132C6.90486 22.289 8.88786 23.3994 11.5847 23.3994C14.7972 23.4391 16.9785 21.6941 17.0182 18.6402ZM2.58191 3.56941C4.28729 1.34844 7.22214 0 10.7915 0C17.0182 0 20.5876 3.29179 21.4998 7.89235H15.868C15.2335 6.06799 13.6867 4.64023 10.8709 4.64023C7.81704 4.67989 5.75472 6.42493 5.63574 9.20113C3.59206 8.07407 2.50259 5.86969 2.58191 3.56941Z" fill="#F37368"/>
</svg>
