<svg width="216" height="108" viewBox="0 0 216 108" fill="none" xmlns="http://www.w3.org/2000/svg">
<path d="M73.7518 61.9733L77.8918 58.7153C79.051 60.7565 80.9266 61.9157 83.0794 61.9157C85.3978 61.9157 86.6668 60.4253 86.6668 58.7693C86.6668 56.7821 84.2944 56.1773 81.6988 55.4033C78.4984 54.4097 74.9128 53.1965 74.9128 48.5597C74.9128 44.6969 78.2788 41.6621 82.8598 41.6621C86.7784 41.6621 88.9852 43.1525 90.9166 45.1397L87.1636 48.0089C86.17 46.5185 84.7912 45.7463 82.9156 45.7463C80.7628 45.7463 79.6576 46.9055 79.6576 48.3959C79.6576 50.2175 81.976 50.8799 84.514 51.7079C87.772 52.7573 91.4116 54.1919 91.4116 58.7711C91.4116 62.5799 88.3768 66.2231 83.1316 66.2231C78.8296 66.2771 75.9028 64.4591 73.75 61.9751L73.7518 61.9733ZM110.454 49.5569H114.923V51.3785C115.973 50.0537 117.573 49.2257 119.448 49.2257C123.311 49.2257 125.63 51.7097 125.63 55.9577V65.9477H121.049V56.5661C121.049 54.3593 120.055 53.0885 118.014 53.0885C116.304 53.0885 114.923 54.2477 114.923 57.0071V65.9477H110.448L110.454 49.5569ZM126.679 57.7793C126.679 51.9833 130.927 49.2257 134.626 49.2257C136.779 49.2257 138.435 49.9997 139.54 51.1571V41.9951H144.009V65.9459H139.536V64.1243C138.433 65.3933 136.721 66.2771 134.568 66.2771C131.091 66.2771 126.677 63.5177 126.677 57.7775L126.679 57.7793ZM139.648 57.7253C139.648 55.2953 137.884 53.3099 135.454 53.3099C134.871 53.2969 134.291 53.4022 133.749 53.6195C133.207 53.8367 132.715 54.1615 132.303 54.5741C131.89 54.9868 131.565 55.4787 131.348 56.0203C131.131 56.5619 131.026 57.1419 131.039 57.7253C131.02 58.3101 131.122 58.8924 131.338 59.4363C131.553 59.9803 131.878 60.4743 132.291 60.888C132.705 61.3017 133.199 61.6263 133.743 61.8418C134.287 62.0572 134.869 62.1589 135.454 62.1407C137.884 62.1407 139.648 60.1535 139.648 57.7253ZM145.057 53.9723C145.057 47.1287 150.187 41.6657 157.308 41.6657C160.839 41.6657 163.82 42.9347 165.973 44.9777C166.855 45.8057 167.575 46.7417 168.18 47.7929L164.207 50.2229C162.717 47.5193 160.454 46.0829 157.364 46.0829C153.004 46.0829 149.638 49.6703 149.638 53.9741C149.638 58.3895 152.95 61.8653 157.529 61.8653C161.007 61.8653 163.487 59.8781 164.315 56.8253H156.809V52.4657H169.226V54.2873C169.226 60.6881 164.645 66.2627 157.526 66.2627C150.02 66.2627 145.052 60.5783 145.052 53.9561L145.057 53.9723ZM170.333 49.5569H174.78V52.2605C175.608 50.5505 177.099 49.5569 179.306 49.5569H181.127L179.471 53.9165H178.256C175.884 53.9165 174.836 55.1855 174.836 58.2185V65.9441H170.311L170.333 49.5569ZM182.308 49.5569H186.777V65.9477H182.308V53.9165H180.652L182.308 49.5569ZM184.571 47.0729C186.061 47.0729 187.274 45.8579 187.274 44.3693C187.274 42.8807 186.059 41.6657 184.571 41.6657C183.082 41.6657 181.867 42.8807 181.867 44.3693C181.867 45.8579 183.082 47.0729 184.571 47.0729ZM187.883 57.7793C187.883 51.9833 192.131 49.2257 195.83 49.2257C197.982 49.2257 199.637 49.9997 200.744 51.1571V41.9951H205.213V65.9459H200.744V64.1243C199.64 65.3933 197.928 66.2771 195.776 66.2771C192.298 66.2771 187.884 63.5177 187.884 57.7775L187.883 57.7793ZM200.852 57.7253C200.852 55.2953 199.088 53.3099 196.658 53.3099C196.074 53.2969 195.494 53.4022 194.953 53.6195C194.411 53.8367 193.919 54.1615 193.506 54.5741C193.094 54.9868 192.769 55.4787 192.552 56.0203C192.334 56.5619 192.229 57.1419 192.242 57.7253C192.224 58.3101 192.326 58.8924 192.541 59.4363C192.757 59.9803 193.081 60.4743 193.495 60.888C193.909 61.3017 194.403 61.6263 194.947 61.8418C195.491 62.0572 196.073 62.1589 196.658 62.1407C199.088 62.1407 200.852 60.1535 200.852 57.7253ZM109.406 57.7253C109.406 52.9787 105.986 49.2257 100.964 49.2257C96.2176 49.2257 92.4106 53.0345 92.4106 57.7793C92.4106 62.5241 95.9422 66.3329 101.076 66.3329C104.607 66.3329 107.147 64.6229 108.582 62.1929L104.994 60.0401C104.22 61.4747 102.788 62.4125 101.076 62.4125C98.7034 62.4125 97.213 61.2533 96.7162 59.4317H109.352V57.7217L109.406 57.7253ZM96.9322 55.7381C97.5946 54.1937 99.085 53.1461 100.961 53.1461C102.836 53.1461 104.273 54.0281 104.879 55.7381H96.9322Z" fill="white"/>
<path d="M10.793 44.9277H28.829V62.9637H10.793V44.9277Z" fill="white"/>
<path d="M10.793 44.9277H28.829V62.9637H10.793V44.9277Z" fill="#99E1F4"/>
<path d="M28.8291 62.9648H46.7625V80.8982H28.8291V62.9648Z" fill="white"/>
<path d="M28.8291 62.9648H46.7625V80.8982H28.8291V62.9648Z" fill="#99E1F4"/>
<path d="M10.793 80.9H28.829V81.0044H10.793V80.9ZM10.793 62.9648H28.829V80.9H10.793V62.9648Z" fill="#1A82E2"/>
<path d="M28.8291 26.9961H46.7625V44.9295H28.8291V26.9961ZM46.7643 45.0357H64.8003V62.9691H46.7643V45.0357Z" fill="#00B3E3"/>
<path d="M46.7645 62.9637V44.9277H28.8311V62.9637H46.7645Z" fill="#009DD9"/>
<path d="M46.7637 26.9961H64.7997V44.9295H46.7637V26.9961Z" fill="#1A82E2"/>
<path d="M46.7637 44.9277H64.7997V45.0321H46.7637V44.9277Z" fill="#1A82E2"/>
</svg>
