<svg width="143" height="42" viewBox="0 0 143 42" fill="none" xmlns="http://www.w3.org/2000/svg">
<path d="M30.6538 8.36542C30.622 8.16403 30.4524 8.05803 30.304 8.04743C30.1556 8.03683 27.1029 7.80365 27.1029 7.80365C27.1029 7.80365 24.983 5.69435 24.7498 5.46116C24.5166 5.22797 24.0609 5.30217 23.8807 5.35516C23.8595 5.35516 23.4143 5.49296 22.6935 5.72615C21.9834 3.68044 20.7326 1.80433 18.5279 1.80433C18.4643 1.80433 18.4007 1.80433 18.3371 1.80433C17.7118 0.977569 16.938 0.617188 16.2596 0.617188C11.1295 0.617188 8.67039 7.02989 7.90723 10.2945C5.91452 10.9093 4.49419 11.3545 4.314 11.4075C3.20105 11.7573 3.16925 11.7891 3.02086 12.8384C2.91486 13.6334 0 36.1573 0 36.1573L22.7041 40.4077L34.9995 37.7472C34.9995 37.7472 30.6855 8.55621 30.6538 8.35482V8.36542ZM21.4322 6.10773C20.8598 6.28792 20.2132 6.48931 19.5137 6.7013C19.5137 6.5635 19.5137 6.43631 19.5137 6.28792C19.5137 5.01598 19.3335 3.99843 19.0579 3.18226C20.192 3.32006 20.9446 4.6132 21.4322 6.10773ZM17.6482 3.43665C17.9662 4.23162 18.1675 5.36576 18.1675 6.89209C18.1675 6.96629 18.1675 7.04048 18.1675 7.11468C16.9168 7.49626 15.5601 7.92024 14.2033 8.34422C14.9665 5.39756 16.3974 3.97723 17.6482 3.43665ZM16.1218 1.99512C16.3444 1.99512 16.567 2.06932 16.779 2.21771C15.1361 2.99147 13.366 4.94178 12.624 8.8318C11.5323 9.17098 10.4723 9.49957 9.48655 9.80696C10.3557 6.8391 12.4332 1.99512 16.1218 1.99512Z" fill="#95BF47"/>
<path d="M30.3039 8.04717C30.1555 8.03657 27.1029 7.80338 27.1029 7.80338C27.1029 7.80338 24.983 5.69408 24.7498 5.46089C24.665 5.3761 24.5484 5.3337 24.4212 5.3125L22.7041 40.418L34.9995 37.7576C34.9995 37.7576 30.6855 8.56655 30.6537 8.36516C30.6219 8.16377 30.4523 8.05777 30.3039 8.04717Z" fill="#5E8E3E"/>
<path d="M18.5171 14.8416L17.0014 19.357C17.0014 19.357 15.6765 18.6468 14.0441 18.6468C11.6592 18.6468 11.532 20.1414 11.532 20.523C11.532 22.5793 16.906 23.3742 16.906 28.197C16.906 31.9916 14.4999 34.4401 11.2459 34.4401C7.34524 34.4401 5.35254 32.0128 5.35254 32.0128L6.39129 28.568C6.39129 28.568 8.43699 30.3275 10.1647 30.3275C11.2989 30.3275 11.7546 29.4371 11.7546 28.7906C11.7546 26.0983 7.34525 25.9817 7.34525 21.5617C7.34525 17.8413 10.0163 14.248 15.4009 14.248C17.4784 14.248 18.4959 14.8416 18.4959 14.8416H18.5171Z" fill="white"/>
<path d="M49.3283 23.3009C48.0987 22.6331 47.4734 22.0713 47.4734 21.3082C47.4734 20.3224 48.3531 19.697 49.7205 19.697C51.3104 19.697 52.7307 20.3648 52.7307 20.3648L53.8543 16.9306C53.8543 16.9306 52.8261 16.125 49.7841 16.125C45.5655 16.125 42.6294 18.5417 42.6294 21.9441C42.6294 23.8732 43.9967 25.3466 45.8199 26.3959C47.2932 27.2333 47.8126 27.8374 47.8126 28.7066C47.8126 29.5758 47.0812 30.3495 45.7139 30.3495C43.6788 30.3495 41.7496 29.3002 41.7496 29.3002L40.5625 32.7344C40.5625 32.7344 42.3432 33.9216 45.3323 33.9216C49.6781 33.9216 52.7943 31.7805 52.7943 27.9328C52.7943 25.8659 51.215 24.3926 49.3283 23.3115V23.3009Z" fill="white"/>
<path d="M66.6383 16.0829C64.4972 16.0829 62.8225 17.1005 61.5187 18.6374L61.4446 18.6056L63.2995 8.89648H58.4661L53.7705 33.6039H58.6039L60.215 25.1561C60.851 21.9657 62.4939 20.0048 64.0308 20.0048C65.112 20.0048 65.5359 20.7361 65.5359 21.7961C65.5359 22.4638 65.4618 23.2694 65.324 23.9372L63.5008 33.6145H68.3342L70.2315 23.6298C70.4435 22.5804 70.5813 21.3191 70.5813 20.4711C70.5813 17.7365 69.1398 16.0935 66.6171 16.0935L66.6383 16.0829Z" fill="white"/>
<path d="M81.5406 16.082C75.7215 16.082 71.8633 21.3394 71.8633 27.1903C71.8633 30.9425 74.174 33.9528 78.5198 33.9528C84.2329 33.9528 88.0911 28.8332 88.0911 22.8445C88.0911 19.3785 86.056 16.082 81.5406 16.082ZM79.1557 30.243C77.5128 30.243 76.8027 28.8438 76.8027 27.0843C76.8027 24.3178 78.2442 19.7919 80.8729 19.7919C82.59 19.7919 83.1518 21.2652 83.1518 22.6961C83.1518 25.6746 81.7102 30.2324 79.1557 30.2324V30.243Z" fill="white"/>
<path d="M100.461 16.082C97.1967 16.082 95.3418 18.9545 95.3418 18.9545H95.2676L95.5432 16.3576H91.2716C91.0596 18.1065 90.678 20.7776 90.2858 22.7703L86.9258 40.4715H91.7592L93.0947 33.3168H93.2007C93.2007 33.3168 94.197 33.9528 96.0414 33.9528C101.723 33.9528 105.433 28.1337 105.433 22.2509C105.433 18.9969 103.991 16.082 100.461 16.082ZM95.84 30.3066C94.5892 30.3066 93.8473 29.607 93.8473 29.607L94.6528 25.081C95.2146 22.0707 96.7939 20.0674 98.4686 20.0674C99.942 20.0674 100.398 21.4348 100.398 22.7279C100.398 25.8442 98.5428 30.296 95.84 30.296V30.3066Z" fill="white"/>
<path d="M112.344 9.13867C110.807 9.13867 109.577 10.3682 109.577 11.9475C109.577 13.3891 110.489 14.3642 111.856 14.3642H111.93C113.435 14.3642 114.739 13.3467 114.771 11.5554C114.771 10.1562 113.828 9.13867 112.354 9.13867H112.344Z" fill="white"/>
<path d="M105.58 33.6042H110.413L113.71 16.4648H108.845L105.58 33.6042Z" fill="white"/>
<path d="M126.017 16.4329H122.657L122.837 15.6273C123.112 13.9844 124.098 12.5111 125.709 12.5111C126.568 12.5111 127.246 12.7549 127.246 12.7549L128.19 8.97086C128.19 8.97086 127.352 8.54688 125.561 8.54688C123.77 8.54688 122.127 9.03445 120.834 10.158C119.191 11.5571 118.417 13.5922 118.025 15.6273L117.887 16.4329H115.64L114.94 20.0791H117.187L114.633 33.6041H119.466L122.021 20.0791H125.349L126.017 16.4329Z" fill="white"/>
<path d="M137.643 16.4648C137.643 16.4648 134.623 24.0859 133.266 28.2409H133.192C133.096 26.9054 132.005 16.4648 132.005 16.4648H126.927L129.832 32.2051C129.906 32.5549 129.863 32.7669 129.726 33.0107C129.164 34.1024 128.221 35.1518 127.097 35.9149C126.185 36.5827 125.168 37.0067 124.362 37.2823L125.698 41.3843C126.684 41.1723 128.708 40.3667 130.425 38.7556C132.63 36.6887 134.665 33.4982 136.764 29.1524L142.689 16.4648H137.643Z" fill="white"/>
</svg>
