<svg width="92" height="39" viewBox="0 0 92 39" fill="none" xmlns="http://www.w3.org/2000/svg">
<path d="M91.3894 20.0217C91.3894 13.5281 88.2433 8.4026 82.2323 8.4026C76.2212 8.4026 72.5418 13.5264 72.5418 19.9709C72.5418 27.6058 76.8545 31.4631 83.04 31.4631C86.059 31.4631 88.3416 30.7858 90.067 29.8139V24.7341C88.3416 25.5959 86.3638 26.1293 83.8527 26.1293C81.3924 26.1293 79.2098 25.2674 78.9321 22.2738H91.3369C91.3386 21.9487 91.3894 20.6296 91.3894 20.0217ZM78.8593 17.6122C78.8593 14.7455 80.6101 13.5484 82.2086 13.5484C83.7562 13.5484 85.4054 14.7337 85.4054 17.6122H78.8593ZM62.7497 8.4026C60.8991 8.39573 59.1176 9.10504 57.7782 10.382L57.4481 8.80898H51.8603V38.3868L58.2016 37.0424L58.227 29.863C59.1396 30.5233 60.4841 31.4614 62.7175 31.4614C67.2588 31.4614 71.3937 27.809 71.3937 19.7677C71.3734 12.4105 67.1877 8.4026 62.7497 8.4026ZM61.2257 25.8804C59.7289 25.8804 58.8416 25.347 58.232 24.6951L58.2066 15.284C58.867 14.5491 59.7797 14.0411 61.2257 14.0411C63.5336 14.0411 65.1321 16.6285 65.1321 19.9523C65.1338 23.3439 63.5607 25.8804 61.2274 25.8804H61.2257ZM43.14 6.90576L49.5067 5.53592V0.386719L43.14 1.73117V6.90576ZM43.14 8.83438H49.5067V31.0313H43.14V8.83438ZM36.3162 10.7105L35.9064 8.83438H30.4304V31.0296H36.7717V15.9867C38.2685 14.0327 40.805 14.3883 41.5907 14.6677V8.83438C40.7813 8.52959 37.813 7.97082 36.3162 10.7105ZM23.632 3.3296L17.4499 4.65542L17.4245 24.9745C17.4245 28.7285 20.2404 31.4936 23.9944 31.4936C26.0737 31.4936 27.5959 31.1126 28.4341 30.6571V25.5011C27.623 25.8313 23.6151 26.998 23.6151 23.244V14.2376H28.4341V8.83438H23.6066L23.632 3.3296ZM6.48437 15.2772C6.48437 14.2884 7.29544 13.9074 8.63989 13.9074C10.8343 13.9534 12.9879 14.5094 14.9303 15.5312V9.56587C12.9295 8.77773 10.7954 8.38277 8.64497 8.4026C3.49577 8.4026 0.0703125 11.0915 0.0703125 15.582C0.0703125 22.5836 9.71003 21.4678 9.71003 24.4852C9.71003 25.6518 8.69408 26.0328 7.27513 26.0328C5.17041 26.0328 2.47982 25.1709 0.349699 24.0009V30.039C2.53637 30.9853 4.89252 31.4772 7.27513 31.4851C12.5513 31.4851 16.1783 28.8724 16.1783 24.3311C16.1495 16.7741 6.48437 18.1185 6.48437 15.2772Z" fill="white"/>
</svg>
