<svg width="62" height="88" viewBox="0 0 62 88" fill="none" xmlns="http://www.w3.org/2000/svg">
<g clip-path="url(#clip0_648_1334)">
<mask id="mask0_648_1334" style="mask-type:luminance" maskUnits="userSpaceOnUse" x="0" y="0" width="62" height="88">
<path d="M62 0H0V88H62V0Z" fill="white"/>
</mask>
<g mask="url(#mask0_648_1334)">
<path d="M37.0354 29.0706C40.1758 26.4402 41.5672 10.8948 42.9264 5.3069C44.2858 -0.281008 49.9076 0.00240378 49.9076 0.00240378C49.9076 0.00240378 48.448 2.57488 49.0436 4.4946C49.639 6.4143 53.7172 8.1303 53.7172 8.1303L52.8376 10.4788C52.8376 10.4788 51.0008 10.2409 49.9076 12.4551C48.8148 14.6694 51.2768 36.369 51.2768 36.369C51.2768 36.369 44.0412 49.7164 44.0412 55.2568C44.0412 60.7972 46.6304 65.4406 46.6304 65.4406H42.997C42.997 65.4406 37.6668 59.0162 36.5736 55.8054C35.4804 52.5948 35.9176 49.3842 35.9176 49.3842C35.9176 49.3842 30.1238 49.0524 24.986 49.3842C19.8484 49.7164 16.4222 54.1892 15.8038 56.6914C15.1854 59.1934 14.9293 65.4406 14.9293 65.4406H12.0563C10.3077 59.9752 8.91887 58.0166 9.67229 55.2568C11.7592 47.613 11.3493 43.2776 10.8661 41.3464C10.3829 39.4154 7.11133 37.7302 7.11133 37.7302C8.71391 34.4234 10.3497 32.8344 17.3863 32.6688C24.423 32.503 33.8952 31.701 37.0354 29.0706Z" fill="#EC4815"/>
<path d="M18.2227 54.9373C18.2227 54.9373 18.9651 61.8957 22.9092 65.4413H26.2892C22.9092 61.5635 22.5406 51.4551 22.5406 51.4551C20.8214 52.0221 18.6671 53.9033 18.2227 54.9373Z" fill="#EC4815"/>
<path d="M0 71.7109V75.1783H4.54112V88.0007H9.10516V75.1783H13.6463V71.7109H0Z" fill="#EC4815"/>
<path d="M27.4629 88.0007V84.5333H23.8391V75.1783H27.4629V71.7109H15.6514V75.1783H19.2751V84.5333H15.6514V88.0007H27.4629Z" fill="#EC4815"/>
<path d="M40.1763 81.0191C39.9927 80.3209 39.5569 79.3439 39.0525 78.5523L34.9929 71.7109H30.7959V88.0007H34.9011V81.9737C34.9011 80.9495 34.8553 79.8791 34.7635 78.9947H35.1765C35.4975 79.9021 35.8873 80.7169 36.2773 81.3451L40.3367 88.0007H44.5797V71.7109H40.4743V77.8543C40.4743 78.9251 40.5203 80.0417 40.5891 81.0191H40.1763Z" fill="#EC4815"/>
<path d="M62.0004 87.9999V78.2489L56.7022 71.5703H53.7896L48.4688 78.2489V87.9999H52.8493V84.7651H57.6198V87.9999H62.0004ZM57.8032 79.2263V81.4839H52.666V79.2263L55.0282 76.0153H55.4408L57.8032 79.2263Z" fill="#EC4815"/>
</g>
</g>
<defs>
<clipPath id="clip0_648_1334">
<rect width="62" height="88" fill="white"/>
</clipPath>
</defs>
</svg>
