<svg width="110" height="90" viewBox="0 0 110 90" fill="none" xmlns="http://www.w3.org/2000/svg">
<path fill-rule="evenodd" clip-rule="evenodd" d="M34.57 89.7363H25.9746V81.8477H34.4348V83.5948H28.2745V84.9381H34.1062V86.586H28.2779V87.9447H34.57V89.7397V89.7363Z" fill="white"/>
<path fill-rule="evenodd" clip-rule="evenodd" d="M84.0237 89.7364H75.5635V81.9727H83.8919V83.6839H77.8308V85.0049H83.5702V86.6254H77.8308V87.9636H84.0237V89.7312V89.7364Z" fill="white"/>
<path fill-rule="evenodd" clip-rule="evenodd" d="M46.2254 89.7363H42.7482L38.169 83.8361H38.1245V89.7363H35.8486V81.8477H39.3823L43.905 87.7547H43.9495V81.8477H46.2305V89.7363H46.2254Z" fill="white"/>
<path fill-rule="evenodd" clip-rule="evenodd" d="M73.7854 89.7363H70.3083L65.7291 83.8361H65.6846V89.7363H63.3984V81.8477H66.9321L71.4548 87.7547H71.4993V81.8477H73.7854V89.7363Z" fill="white"/>
<path fill-rule="evenodd" clip-rule="evenodd" d="M52.9449 89.8407C52.2159 89.8407 51.5884 89.8224 51.0625 89.7859C50.6059 89.7627 50.1525 89.6951 49.709 89.584C49.3838 89.5029 49.0775 89.3594 48.8072 89.1614C48.5706 88.9769 48.3845 88.7355 48.2664 88.4598C48.1242 88.1257 48.0336 87.772 47.9978 87.4108C47.9498 86.9263 47.9275 86.4397 47.931 85.9528V85.7218C47.9276 85.2315 47.951 84.7414 48.0012 84.2536C48.0349 83.8909 48.1238 83.5354 48.2647 83.1995C48.3846 82.9248 48.5711 82.6843 48.8072 82.4996C49.0778 82.3029 49.385 82.1621 49.7107 82.0855C50.1532 81.9753 50.6054 81.9083 51.0608 81.8853C51.5913 81.8511 52.2187 81.834 52.9431 81.834H53.2854C53.8923 81.834 54.4239 81.8471 54.8802 81.8733C55.275 81.893 55.6679 81.941 56.0558 82.0171C56.3395 82.0703 56.6136 82.166 56.8686 82.3011C57.0739 82.4101 57.2499 82.5668 57.382 82.758C57.5129 82.9599 57.6008 83.1864 57.6404 83.4237C57.6916 83.7226 57.7157 84.0256 57.7123 84.3289V84.6318H55.4877V84.536C55.492 84.3812 55.4634 84.2272 55.4039 84.0842C55.3342 83.9501 55.218 83.846 55.077 83.7916C54.8577 83.7067 54.627 83.6548 54.3925 83.6376C54.0982 83.6091 53.7103 83.5942 53.2289 83.5931H53.0338C52.5969 83.5931 52.2239 83.6005 51.9147 83.6153C51.655 83.6244 51.3967 83.657 51.143 83.7129C50.967 83.7505 50.8009 83.8246 50.6553 83.9302C50.5307 84.0291 50.4369 84.1615 50.3849 84.3118C50.3204 84.5054 50.2824 84.7069 50.272 84.9107C50.2548 85.1486 50.2463 85.4344 50.2463 85.7663V85.9066C50.2463 86.2335 50.2548 86.5124 50.272 86.7451C50.2828 86.945 50.3208 87.1425 50.3849 87.3321C50.437 87.4814 50.5308 87.6127 50.6553 87.7102C50.8009 87.8159 50.967 87.8899 51.143 87.9276C51.3967 87.9833 51.655 88.016 51.9147 88.0251C52.2239 88.0411 52.5969 88.0485 53.0338 88.0474H53.2289C53.5848 88.0474 53.8911 88.0474 54.1478 88.0285C54.4045 88.0097 54.6218 87.9943 54.7981 87.9669C54.9431 87.9466 55.0846 87.9069 55.219 87.8489C55.3151 87.806 55.3991 87.7402 55.4637 87.6572C55.5227 87.578 55.562 87.4859 55.5784 87.3885C55.5973 87.2686 55.6065 87.1472 55.6058 87.0258V86.8067H52.5787V85.2838H57.803V87.036C57.8067 87.3701 57.782 87.7038 57.7294 88.0337C57.6871 88.2951 57.5966 88.5463 57.4624 88.7746C57.3333 88.9831 57.1576 89.1588 56.9491 89.288C56.693 89.4408 56.4139 89.5511 56.1226 89.6148C55.7285 89.7038 55.3279 89.761 54.9247 89.7859C54.4593 89.8202 53.9185 89.8373 53.2991 89.8373L52.9449 89.8407Z" fill="white"/>
<path fill-rule="evenodd" clip-rule="evenodd" d="M61.722 89.7562H59.4102V81.9258H61.722V89.7562Z" fill="white"/>
<path fill-rule="evenodd" clip-rule="evenodd" d="M8.25047 77.7151C7.13248 77.7151 6.15253 77.6849 5.31062 77.6244C4.57684 77.5815 3.84775 77.4791 3.13055 77.3181C2.59681 77.2029 2.08457 77.0042 1.61272 76.7294C1.22587 76.4965 0.897493 76.178 0.652732 75.7986C0.400242 75.3915 0.228829 74.9394 0.147928 74.4672C0.0424239 73.872 -0.00684771 73.2681 0.000764126 72.6636V63.7654H4.05631V71.3494C4.05631 71.8183 4.07285 72.221 4.10594 72.5575C4.12917 72.8512 4.19667 73.1397 4.30615 73.4131C4.39855 73.6398 4.54906 73.8381 4.7425 73.9881C4.96902 74.1508 5.22549 74.2671 5.49714 74.3303C5.87543 74.4261 6.26241 74.4834 6.6522 74.5015C7.11081 74.5271 7.65497 74.5408 8.28982 74.5408H8.63206C9.26521 74.5408 9.81051 74.526 10.268 74.4963C10.6576 74.4767 11.0448 74.4223 11.4247 74.3338C11.6971 74.2728 11.954 74.1562 12.1794 73.9915C12.3703 73.8395 12.5198 73.6417 12.614 73.4166C12.7249 73.1434 12.793 72.8548 12.816 72.561C12.8479 72.2187 12.8639 71.8194 12.8639 71.3631V63.7637H16.9211V72.6619C16.927 73.2642 16.8812 73.8659 16.7842 74.4604C16.7092 74.9336 16.5423 75.3876 16.2931 75.7968C16.0522 76.176 15.7273 76.4945 15.3434 76.7277C14.8729 77.0028 14.3618 77.2015 13.829 77.3164C13.109 77.4778 12.377 77.5802 11.6404 77.6227C10.7905 77.682 9.80082 77.7122 8.67142 77.7134L8.25047 77.7151Z" fill="white"/>
<path fill-rule="evenodd" clip-rule="evenodd" d="M37.7754 77.5469H31.7109L23.7264 67.2284H23.6477V77.5469H19.6709V63.7461H25.8312L33.7181 74.0749H33.7952V63.7461H37.772V77.5401L37.7754 77.5469Z" fill="white"/>
<path fill-rule="evenodd" clip-rule="evenodd" d="M49.732 70.7142C50.4319 70.7142 50.988 70.6937 51.4038 70.6509C51.7345 70.6316 52.057 70.5399 52.3484 70.3822C52.5567 70.2565 52.7077 70.0545 52.7694 69.8192C52.843 69.5059 52.8764 69.1845 52.8686 68.8627V68.6248C52.8759 68.307 52.8426 67.9896 52.7694 67.6802C52.7394 67.5638 52.6863 67.4547 52.613 67.3594C52.5398 67.2641 52.448 67.1847 52.3433 67.1258C52.0482 66.9743 51.7247 66.8862 51.3935 66.8674C50.9777 66.8246 50.425 66.8041 49.732 66.8041H44.6771V70.7142H49.732ZM56.9532 77.547H52.9456V76.4279C52.9485 76.0805 52.9325 75.7332 52.8977 75.3875C52.8741 75.1311 52.8039 74.8812 52.6906 74.65C52.5892 74.4527 52.4375 74.2856 52.2509 74.1657C52.0203 74.0268 51.7663 73.9311 51.5014 73.8833C51.1233 73.8086 50.7399 73.764 50.3548 73.7499C49.8985 73.7259 49.3578 73.7139 48.7326 73.7139H44.6771V77.547H40.6592V63.7462H51.3593C52.2878 63.7309 53.2157 63.8008 54.1315 63.955C54.749 64.0494 55.3354 64.2886 55.8427 64.6531C56.2619 64.9827 56.5657 65.4369 56.7102 65.9502C56.8839 66.6007 56.9646 67.2724 56.9498 67.9455V68.4297C56.9555 68.9068 56.9131 69.3832 56.8232 69.8518C56.7511 70.2237 56.6114 70.5793 56.4108 70.9007C56.2219 71.1937 55.9714 71.4419 55.6767 71.628C55.3353 71.8356 54.9608 71.9832 54.5695 72.0643V72.1431C54.9754 72.2026 55.3739 72.3041 55.7588 72.4459C56.0501 72.5525 56.304 72.7416 56.4895 72.9901C56.6825 73.273 56.8067 73.597 56.8523 73.9364C56.9247 74.4309 56.9573 74.9305 56.9498 75.4303V77.5402L56.9532 77.547Z" fill="white"/>
<path fill-rule="evenodd" clip-rule="evenodd" d="M74.5761 77.5469H59.5859V63.7461H74.3399V66.7972H63.6021V69.1432H73.7718V72.0249H63.6021V74.4017H74.5761V77.5401V77.5469Z" fill="white"/>
<path fill-rule="evenodd" clip-rule="evenodd" d="M88.1293 72.1999L85.3178 66.6642H85.2185L82.4276 72.1999H88.1293ZM95.2273 77.556H90.8535L89.5889 75.0798H80.9867L79.7427 77.556H75.4014L82.8092 63.7637H87.787L95.2273 77.556Z" fill="white"/>
<path fill-rule="evenodd" clip-rule="evenodd" d="M110 77.556H96.7139V63.7637H100.769V74.3543H110V77.5628V77.556Z" fill="white"/>
<path fill-rule="evenodd" clip-rule="evenodd" d="M71.5825 31.9182C71.1016 34.2386 68.9609 40.1901 62.1384 43.414L59.4004 40.3339L54.7802 44.9815C52.1495 44.9461 49.5626 44.3029 47.2217 43.1022C44.8807 41.9014 42.8492 40.1756 41.2857 38.0597C41.7772 38.2126 42.2848 38.3079 42.7984 38.3438C43.5547 38.3574 44.3744 38.0802 44.3744 36.8037V24.2691C44.3857 23.9466 44.3212 23.6259 44.1861 23.3328C44.0509 23.0397 43.8489 22.7824 43.5963 22.5815C43.3437 22.3806 43.0475 22.2418 42.7315 22.1762C42.4155 22.1106 42.0885 22.12 41.7768 22.2037C39.6378 22.6931 37.9266 28.0338 37.9266 28.0338C37.9028 25.5675 38.4164 23.1257 39.4318 20.878C40.4472 18.6303 41.9399 16.6308 43.8063 15.0184C46.9925 12.3181 50.1052 11.3838 52.4701 11.0176C50.1343 12.3489 48.8201 14.5221 48.8201 16.3463C48.8201 19.2707 50.586 18.925 51.1097 18.4938V35.421C51.1982 35.6337 51.3132 35.8343 51.4519 36.0182C51.6858 36.3417 51.9939 36.6044 52.3503 36.7842C52.7067 36.9641 53.101 37.0558 53.5002 37.0518C55.2696 37.0518 57.5643 35.0326 57.5643 35.0326V21.3259C57.5643 19.9312 56.5136 18.2457 55.4613 17.6707C55.4613 17.6707 57.4086 17.3285 58.9145 18.4767C59.1969 18.1308 59.4973 17.8001 59.8145 17.4859C63.3157 14.0464 66.62 13.071 69.3716 12.5816C69.3716 12.5816 64.3629 16.5174 64.3629 21.7879C64.3629 25.7117 64.4639 35.279 64.4639 35.279C66.3274 37.0689 69.0876 34.485 71.5825 31.9182Z" fill="white"/>
<path fill-rule="evenodd" clip-rule="evenodd" d="M55.0005 2.09905e-07C49.4815 0.000338664 44.0866 1.63724 39.4979 4.70372C34.9092 7.77019 31.3328 12.1285 29.2211 17.2275C27.1094 22.3265 26.5571 27.9373 27.6342 33.3501C28.7112 38.763 31.3692 43.735 35.2719 47.6373C39.1747 51.5396 44.147 54.1969 49.56 55.2733C54.973 56.3496 60.5837 55.7967 65.6824 53.6844C70.7812 51.572 75.1391 47.9951 78.205 43.4061C81.2709 38.817 82.9071 33.4218 82.9068 27.9028C82.9068 24.2383 82.1849 20.6097 80.7825 17.2241C79.38 13.8385 77.3244 10.7624 74.733 8.17134C72.1416 5.58028 69.0653 3.52504 65.6795 2.123C62.2938 0.720948 58.6651 -0.000449262 55.0005 2.09905e-07ZM55.0005 54.6917C49.7021 54.692 44.5226 53.1212 40.117 50.1778C35.7113 47.2344 32.2775 43.0507 30.2496 38.1557C28.2218 33.2607 27.691 27.8743 28.7245 22.6777C29.7579 17.481 32.3092 12.7075 36.0556 8.96087C39.802 5.21421 44.5754 2.66265 49.7719 1.62886C54.9685 0.595065 60.3549 1.12547 65.2501 3.15301C70.1452 5.18054 74.3291 8.61414 77.2728 13.0196C80.2165 17.425 81.7877 22.6044 81.7877 27.9028C81.7877 35.0074 78.9655 41.821 73.942 46.8448C68.9185 51.8687 62.1051 54.6912 55.0005 54.6917Z" fill="white"/>
</svg>
