<svg width="127" height="29" viewBox="0 0 127 29" fill="none" xmlns="http://www.w3.org/2000/svg">
<path d="M63.3563 7.18732C58.397 7.18732 54.8213 10.4216 54.8213 15.2731C54.8213 20.1245 58.8462 23.3588 63.8055 23.3588C66.8017 23.3588 69.443 22.1729 71.0781 20.1739L67.6417 18.1884C66.7343 19.1812 65.3552 19.7606 63.8055 19.7606C61.6538 19.7606 59.8255 18.6376 59.1472 16.8408H71.734C71.8328 16.3377 71.8912 15.8166 71.8912 15.2686C71.8912 10.4216 68.3155 7.18732 63.3563 7.18732ZM59.1067 13.7008C59.6683 11.9085 61.2045 10.781 63.3518 10.781C65.5035 10.781 67.0398 11.9085 67.5968 13.7008H59.1067ZM111.727 7.18732C106.768 7.18732 103.192 10.4216 103.192 15.2731C103.192 20.1245 107.217 23.3588 112.176 23.3588C115.172 23.3588 117.814 22.1729 119.449 20.1739L116.012 18.1884C115.105 19.1812 113.726 19.7606 112.176 19.7606C110.024 19.7606 108.196 18.6376 107.518 16.8408H120.105C120.203 16.3377 120.262 15.8166 120.262 15.2686C120.262 10.4216 116.686 7.18732 111.727 7.18732ZM107.482 13.7008C108.043 11.9085 109.58 10.781 111.727 10.781C113.879 10.781 115.415 11.9085 115.972 13.7008H107.482ZM89.9493 15.2731C89.9493 17.9683 91.7102 19.7651 94.4414 19.7651C96.2922 19.7651 97.6802 18.9251 98.3945 17.555L101.844 19.545C100.416 21.9258 97.7386 23.3588 94.4414 23.3588C89.4777 23.3588 85.9065 20.1245 85.9065 15.2731C85.9065 10.4216 89.4822 7.18732 94.4414 7.18732C97.7386 7.18732 100.411 8.6203 101.844 11.0011L98.3945 12.9911C97.6802 11.621 96.2922 10.781 94.4414 10.781C91.7147 10.781 89.9493 12.5778 89.9493 15.2731ZM127 2.24604V22.9096H122.957V2.24604H127ZM16.5982 0L33.1964 28.7493H0L16.5982 0ZM58.096 2.24604L45.6485 23.808L33.2009 2.24604H37.8682L45.6485 15.7223L53.4288 2.24604H58.096ZM84.5589 7.63653V11.9894C84.1096 11.8591 83.6335 11.7692 83.1214 11.7692C80.5115 11.7692 78.6293 13.5661 78.6293 16.2613V22.9096H74.5864V7.63653H78.6293V11.7692C78.6293 9.48727 81.2841 7.63653 84.5589 7.63653Z" fill="white"/>
</svg>
