<svg width="69" height="58" viewBox="0 0 69 58" fill="none" xmlns="http://www.w3.org/2000/svg">
<path d="M68.9995 1.1123V12.8954L68.5972 12.3852L64.7676 7.54051L68.9995 1.1123Z" fill="white"/>
<path d="M68.8197 12.9055L68.9876 13.1172L63.4502 25.162L64.685 8.42835L64.7351 7.7373L68.8197 12.9055Z" fill="white"/>
<path d="M57.8381 4.65137L55.7413 8.70061L53.4573 13.1115L48.1777 12.0073L57.8381 4.65137Z" fill="white"/>
<path d="M46.6705 17.1334C46.6705 17.1334 46.6705 17.1334 46.669 17.1348L39.8187 21.1738L39.5195 21.3502L48.0335 12.124L51.3754 12.8239L53.2998 13.2268L53.2526 13.2547L46.6734 17.1319L46.6705 17.1334Z" fill="white"/>
<path d="M46.957 17.1359L53.5009 13.2793L63.478 17.9108L63.5311 17.9343L54.0697 17.4785L46.957 17.1359Z" fill="white"/>
<path d="M51.4121 32.9454L55.2462 25.5762L56.2776 25.585L63.0926 25.6409L51.4121 32.9454Z" fill="white"/>
<path d="M51.3145 33.1992L60.5931 33.3404L53.0827 36.453L51.3145 33.1992Z" fill="white"/>
<path d="M39.1018 21.8916L41.5876 31.9265L40.5282 31.2737L36.9033 29.0403C37.0551 26.5466 38.701 22.7782 39.1018 21.8916Z" fill="white"/>
<path d="M36.8962 29.208L41.2873 31.9134L37.4385 31.0415C37.0465 30.721 36.8638 30.1049 36.8962 29.208Z" fill="white"/>
<path d="M38.5928 34.5455C38.7681 33.9588 39.0245 32.4811 37.6807 31.249L40.2637 31.8342L41.5398 32.1239L38.5928 34.5469V34.5455Z" fill="white"/>
<path d="M38.373 35.0332L38.535 38.2429L35.3994 40.3881L38.373 35.0332Z" fill="white"/>
<path d="M39.1448 41.994L35.3299 42.1572C35.0264 41.7544 34.9837 41.1868 35.2194 40.7148L39.1448 41.994Z" fill="white"/>
<path d="M37.375 42.3597C37.1805 42.2715 36.9271 42.2935 36.625 42.4229C36.1491 42.6258 35.7571 42.5847 35.458 42.2979L39.1462 42.1406L37.711 42.739C37.6359 42.5538 37.5239 42.4273 37.3765 42.3597H37.375Z" fill="white"/>
<path d="M41.7085 32.2363L45.8844 39.2071L40.3455 38.444L38.7217 38.2205L41.7085 32.2363Z" fill="white"/>
<path d="M46.6258 32.7178L46.088 37.9683L45.976 39.074L41.8428 32.1738L46.6258 32.7178Z" fill="white"/>
<path d="M46.5945 32.5661L41.8145 32.0236L44.3843 26.8643L45.9668 30.9488L46.5945 32.5661Z" fill="white"/>
<path d="M46.7685 32.7754L52.885 36.5306L46.1113 39.1889L46.7685 32.7754Z" fill="white"/>
<path d="M39.1803 45.1208L37.748 44.2415C37.7775 44.0783 37.8615 43.5608 37.7996 43.1035L38.2299 43.6005L39.9524 45.5942L39.1803 45.1193V45.1208Z" fill="white"/>
<path d="M37.7363 45.4645C37.5138 45.1101 37.6435 44.5896 37.7068 44.3896L40.0586 45.8335L40.2103 45.9261L40.1676 45.9805L38.7663 47.7478C38.4583 47.5935 38.2697 47.3847 38.2064 47.1259C38.087 46.6392 38.5718 45.8688 38.5718 45.8688C38.5423 45.8673 37.8719 45.6835 37.7363 45.4659V45.4645Z" fill="white"/>
<path d="M39.534 48.4217C39.3793 48.157 39.1671 47.9527 38.9004 47.8115L40.1485 46.2383L39.9127 47.0764L39.534 48.4217Z" fill="white"/>
<path d="M39.8376 49.6858C39.8347 49.3726 39.7934 49.0859 39.7139 48.833L43.2798 51.4899L40.3652 51.4031C40.0263 50.9194 39.845 50.3254 39.8391 49.6858H39.8376Z" fill="white"/>
<path d="M42.621 53.0431C41.6352 52.827 40.9221 52.1404 40.4756 51.5537L43.3887 51.6405L42.6225 53.0446L42.621 53.0431Z" fill="white"/>
<path d="M48.861 52.8242C46.6787 53.3564 44.6821 53.4373 42.7725 53.0727L43.5475 51.6523L48.861 52.8242Z" fill="white"/>
<path d="M62.4854 52.6447H68.8259L63.6096 43.2803C63.6096 43.2803 62.6032 51.6713 62.4854 52.6447Z" fill="white"/>
<path d="M59.3896 57.1103L68.5696 52.7949H62.4413C62.1422 53.2169 59.3896 57.1103 59.3896 57.1103Z" fill="white"/>
<path d="M63.6523 43.0536L68.8391 52.3665L67.3523 38.3604L64.9873 41.3598L63.6523 43.0536Z" fill="white"/>
<path d="M63.7217 42.7276L65.2777 36.6729L67.2905 38.2093L63.7217 42.7276Z" fill="white"/>
<path d="M58.2529 4.40671L68.8961 1L68.1092 2.19683L64.6494 7.44879L58.2529 4.40671Z" fill="white"/>
<path d="M58.0482 4.56543L63.7595 17.8776L53.5967 13.1609L58.0482 4.56543Z" fill="white"/>
<path d="M63.8161 18.1963L63.3903 23.979L63.2783 25.4949L55.3994 25.4302L63.8161 18.1963Z" fill="white"/>
<path d="M39.4509 41.9394L35.3486 40.6014L36.2711 39.9692L38.5638 38.4004L39.4509 41.9394Z" fill="white"/>
<path d="M56.8928 43.3364L46.2305 39.3004L53.0174 36.6377L56.8928 43.3364Z" fill="white"/>
<path d="M56.6886 52.8936H49.5244L58.9991 57.1383L56.6886 52.8936Z" fill="white"/>
<path d="M49.2666 52.7459H56.4632L51.6522 49.9067L49.8693 48.8555L49.3919 51.9402L49.2666 52.7459Z" fill="white"/>
<path d="M59.8089 52.839L62.2608 52.7949L60.7608 54.9151L59.1767 57.1559L56.8545 52.892L59.8089 52.839Z" fill="white"/>
<path d="M39.3467 21.7812L48.229 23.228L44.3949 26.5804L39.3467 21.7812Z" fill="white"/>
<path d="M44.3031 26.6966L41.726 31.8721L40.6871 27.6802L39.2549 21.8975L44.3031 26.6966Z" fill="white"/>
<path d="M38.5078 34.8055L41.4828 32.3604L38.6684 37.9961L38.5078 34.8055Z" fill="white"/>
<path d="M51.1654 33.2347L52.8541 36.34L51.9007 35.7548L47.0293 32.7627L51.1654 33.2347Z" fill="white"/>
<path d="M53.4199 36.472H65.015L60.9392 33.3564L53.4199 36.472Z" fill="white"/>
<path d="M53.3086 36.6201L61.2037 41.5001L63.5171 42.9322L65.1379 36.6201H53.3086Z" fill="white"/>
<path d="M44.5811 26.9609L51.0041 33.0686L50.4662 33.0069L46.7604 32.5849L44.5811 26.9609Z" fill="white"/>
<path d="M40.1924 45.6473L37.7891 42.8654L39.4998 42.1523L40.1924 45.6473Z" fill="white"/>
<path d="M45.7167 47.4383L41.7265 46.2488L40.3826 45.8489L40.001 43.9198L39.668 42.2451L45.7167 47.4383Z" fill="white"/>
<path d="M42.2335 49.4544L43.2753 51.3026L39.6387 48.5942L40.0748 47.0489L40.3415 46.0977L42.2335 49.4544Z" fill="white"/>
<path d="M62.3582 52.4897L53.2607 36.7617L59.2137 40.4434L63.4854 43.0841L62.3582 52.4897Z" fill="white"/>
<path d="M57.1249 43.7363L62.2792 52.6479L60.5655 52.6788L56.8096 52.7449L56.8685 51.0497L57.1249 43.7363Z" fill="white"/>
<path d="M44.3931 49.1796L48.88 52.6789L43.5576 51.5041L40.5635 46.1904L44.3931 49.1796Z" fill="white"/>
<path d="M40.6719 46.0889L41.1714 46.2374L49.731 48.7898L49.5851 49.7338L49.1283 52.6847L40.6719 46.0889Z" fill="white"/>
<path d="M56.5783 43.7363L53.0698 46.2829L49.8001 48.656L49.4907 48.5634L46.2578 47.6003L56.5783 43.7363Z" fill="white"/>
<path d="M56.7033 51.5745L56.6635 52.6934L49.9473 48.7309L56.9803 43.626L56.7033 51.5745Z" fill="white"/>
<path d="M58.1992 4.54297L64.6001 7.58799L64.4557 9.53762L63.8516 17.7184L58.1992 4.54297Z" fill="white"/>
<path d="M46.8525 17.4424L54.9156 25.3277L48.4557 23.1237L46.8525 17.4424Z" fill="white"/>
<path d="M48.1465 22.5699L48.2939 23.0903L39.335 21.6303L39.4528 21.5598L46.6627 17.3105L48.1465 22.5699Z" fill="white"/>
<path d="M48.3562 23.3135L51.0689 32.9278L44.5029 26.6834L48.3562 23.3135Z" fill="white"/>
<path d="M39.6044 41.9484L38.707 38.3682L45.7519 39.3386L39.6044 41.9484Z" fill="white"/>
<path d="M56.8503 43.4771L46.0996 39.4072V47.5013L56.8503 43.4771Z" fill="white"/>
<path d="M39.6934 42.0714L41.55 43.6652L45.9528 47.4469V39.4131L39.6934 42.0714Z" fill="white"/>
<path d="M46.8975 17.2793L52.9757 17.5719L63.7146 18.0894L55.2066 25.4042L50.0758 20.3875L46.8975 17.2793Z" fill="white"/>
<path d="M55.0974 25.544L51.2338 32.9676L48.5049 23.2959L52.6617 24.7133L55.0974 25.544Z" fill="white"/>
<path d="M0 1.1123V12.8954L0.402268 12.3852L4.23192 7.54051L0 1.1123Z" fill="white"/>
<path d="M0.179699 12.9055L0.0117188 13.1172L5.54916 25.162L4.31436 8.42835L4.26427 7.7373L0.179699 12.9055Z" fill="white"/>
<path d="M11.1621 4.65137L13.2589 8.70061L15.5429 13.1115L20.8224 12.0073L11.1621 4.65137Z" fill="white"/>
<path d="M22.3295 17.1334C22.3295 17.1334 22.3295 17.1334 22.331 17.1348L29.1813 21.1738L29.4805 21.3502L20.9665 12.124L17.6246 12.8239L15.7002 13.2268L15.7473 13.2547L22.3266 17.1334H22.3295Z" fill="white"/>
<path d="M22.0418 17.1359L15.4979 13.2793L5.52082 17.9108L5.46777 17.9343L14.9292 17.4785L22.0418 17.1359Z" fill="white"/>
<path d="M17.5877 32.9454L13.7537 25.5762L12.7222 25.585L5.90723 25.6409L17.5877 32.9454Z" fill="white"/>
<path d="M17.6849 33.1992L8.40625 33.3404L15.9167 36.453L17.6849 33.1992Z" fill="white"/>
<path d="M29.8979 21.8916L27.4121 31.9265L28.4716 31.2737L32.0964 29.0403C31.9446 26.5466 30.2987 22.7782 29.8979 21.8916Z" fill="white"/>
<path d="M32.103 29.208L27.7119 31.9134L31.5607 31.0415C31.9527 30.721 32.1354 30.1049 32.103 29.208Z" fill="white"/>
<path d="M30.407 34.5455C30.2316 33.9588 29.9752 32.4811 31.3191 31.249L28.736 31.8342L27.46 32.1239L30.407 34.5469V34.5455Z" fill="white"/>
<path d="M30.6269 35.0332L30.4648 38.2429L33.6005 40.3881L30.6269 35.0332Z" fill="white"/>
<path d="M29.8545 41.994L33.6694 42.1572C33.9729 41.7544 34.0157 41.1868 33.7799 40.7148L29.8545 41.994Z" fill="white"/>
<path d="M31.6247 42.3597C31.8192 42.2715 32.0726 42.2935 32.3747 42.4229C32.8506 42.6258 33.2426 42.5847 33.5417 42.2979L29.8535 42.1406L31.2887 42.739C31.3639 42.5538 31.4758 42.4273 31.6232 42.3597H31.6247Z" fill="white"/>
<path d="M27.2912 32.2363L23.1152 39.2071L28.6542 38.444L30.278 38.2205L27.2912 32.2363Z" fill="white"/>
<path d="M22.374 32.7178L22.9119 37.9683L23.0238 39.074L27.157 32.1738L22.374 32.7178Z" fill="white"/>
<path d="M22.4043 32.5661L27.1844 32.0236L24.6146 26.8643L23.032 30.9488L22.4043 32.5661Z" fill="white"/>
<path d="M22.2308 32.7754L16.1143 36.5306L22.888 39.1889L22.2308 32.7754Z" fill="white"/>
<path d="M29.819 45.1208L31.2512 44.2415C31.2218 44.0783 31.1378 43.5608 31.1997 43.1035L30.7694 43.6005L29.0469 45.5942L29.819 45.1193V45.1208Z" fill="white"/>
<path d="M31.2631 45.4645C31.4856 45.1101 31.3559 44.5896 31.2926 44.3896L28.9408 45.8335L28.7891 45.9261L28.8318 45.9805L30.2331 47.7478C30.5411 47.5935 30.7297 47.3847 30.793 47.1259C30.9124 46.6392 30.4276 45.8688 30.4276 45.8688C30.4571 45.8673 31.1275 45.6835 31.2631 45.4659V45.4645Z" fill="white"/>
<path d="M29.466 48.4217C29.6207 48.157 29.8329 47.9527 30.0996 47.8115L28.8516 46.2383L29.0873 47.0764L29.466 48.4217Z" fill="white"/>
<path d="M29.1618 49.6858C29.1648 49.3726 29.206 49.0859 29.2856 48.833L25.7197 51.4899L28.6343 51.4031C28.9732 50.9194 29.1545 50.3254 29.1604 49.6858H29.1618Z" fill="white"/>
<path d="M26.379 53.0431C27.3648 52.827 28.078 52.1404 28.5245 51.5537L25.6113 51.6405L26.3776 53.0446L26.379 53.0431Z" fill="white"/>
<path d="M20.1387 52.8242C22.3209 53.3564 24.3175 53.4373 26.2272 53.0727L25.4521 51.6523L20.1387 52.8242Z" fill="white"/>
<path d="M6.51434 52.6447H0.173828L5.39005 43.2803C5.39005 43.2803 6.39646 51.6713 6.51434 52.6447Z" fill="white"/>
<path d="M9.61062 57.1103L0.430664 52.7949H6.55899C6.85811 53.2169 9.61062 57.1103 9.61062 57.1103Z" fill="white"/>
<path d="M5.34691 43.0536L0.160156 52.3665L1.64693 38.3604L4.01191 41.3598L5.34691 43.0536Z" fill="white"/>
<path d="M5.27782 42.7276L3.7218 36.6729L1.70898 38.2093L5.27782 42.7276Z" fill="white"/>
<path d="M10.7467 4.40671L0.103516 1L0.890369 2.19683L4.35017 7.44879L10.7467 4.40671Z" fill="white"/>
<path d="M10.9516 4.56543L5.24023 17.8776L15.403 13.1609L10.9516 4.56543Z" fill="white"/>
<path d="M5.18359 18.1963L5.60944 23.979L5.72142 25.4949L13.6003 25.4302L5.18359 18.1963Z" fill="white"/>
<path d="M29.5479 41.9394L33.6501 40.6014L32.7277 39.9692L30.4349 38.4004L29.5479 41.9394Z" fill="white"/>
<path d="M12.1074 43.3364L22.7683 39.3004L15.9813 36.6377L12.1074 43.3364Z" fill="white"/>
<path d="M12.3114 52.8936H19.4756L10.001 57.1383L12.3114 52.8936Z" fill="white"/>
<path d="M19.7327 52.7459H12.5361L17.3471 49.9067L19.1301 48.8555L19.6075 51.9402L19.7327 52.7459Z" fill="white"/>
<path d="M9.1902 52.839L6.73828 52.7949L8.23831 54.9151L9.82234 57.1559L12.1446 52.892L9.1902 52.839Z" fill="white"/>
<path d="M29.6528 21.7812L20.7705 23.228L24.6046 26.5804L29.6528 21.7812Z" fill="white"/>
<path d="M24.6963 26.6966L27.2735 31.8721L28.3123 27.6802L29.7445 21.8975L24.6963 26.6966Z" fill="white"/>
<path d="M30.4916 34.8055L27.5166 32.3604L30.331 37.9961L30.4916 34.8055Z" fill="white"/>
<path d="M17.8341 33.2347L16.1455 36.34L17.0989 35.7548L21.9703 32.7627L17.8341 33.2347Z" fill="white"/>
<path d="M15.5794 36.473H3.98438L8.0601 33.3574L15.5794 36.473Z" fill="white"/>
<path d="M15.6916 36.6201L7.79657 41.5001L5.48316 42.9322L3.8623 36.6201H15.6916Z" fill="white"/>
<path d="M24.4191 26.9609L17.9961 33.0686L18.5339 33.0069L22.2398 32.5849L24.4191 26.9609Z" fill="white"/>
<path d="M28.8066 45.6473L31.2099 42.8654L29.4992 42.1523L28.8066 45.6473Z" fill="white"/>
<path d="M23.2832 47.4383L27.2735 46.2488L28.6173 45.8489L28.9989 43.9198L29.332 42.2451L23.2832 47.4383Z" fill="white"/>
<path d="M26.7664 49.4544L25.7246 51.3026L29.3612 48.5942L28.9251 47.0489L28.6584 46.0977L26.7664 49.4544Z" fill="white"/>
<path d="M6.64091 52.4897L15.7384 36.7617L9.78538 40.4434L5.51367 43.0841L6.64091 52.4897Z" fill="white"/>
<path d="M11.875 43.7363L6.7207 52.6479L8.43439 52.6788L12.1904 52.7449L12.1314 51.0497L11.875 43.7363Z" fill="white"/>
<path d="M24.606 49.1796L20.1191 52.6789L25.4415 51.5041L28.4356 46.1904L24.606 49.1796Z" fill="white"/>
<path d="M28.3287 46.0889L27.8291 46.2374L19.2695 48.7898L19.4154 49.7338L19.8722 52.6847L28.3287 46.0889Z" fill="white"/>
<path d="M12.4219 43.7363L15.9303 46.2829L19.2 48.656L19.5095 48.5634L22.7423 47.6003L12.4219 43.7363Z" fill="white"/>
<path d="M12.2966 51.5745L12.3363 52.6934L19.0526 48.7309L12.0195 43.626L12.2966 51.5745Z" fill="white"/>
<path d="M10.8003 4.54297L4.39941 7.58799L4.54382 9.53762L5.14796 17.7184L10.8003 4.54297Z" fill="white"/>
<path d="M22.147 17.4424L14.084 25.3277L20.5438 23.1237L22.147 17.4424Z" fill="white"/>
<path d="M20.8534 22.5699L20.7061 23.0903L29.665 21.6303L29.5471 21.5598L22.3372 17.3105L20.8534 22.5699Z" fill="white"/>
<path d="M20.6434 23.3135L17.9307 32.9278L24.4966 26.6834L20.6434 23.3135Z" fill="white"/>
<path d="M29.3945 41.9484L30.2919 38.3682L23.2471 39.3386L29.3945 41.9484Z" fill="white"/>
<path d="M12.1494 43.4771L22.9001 39.4072V47.5013L12.1494 43.4771Z" fill="white"/>
<path d="M29.3063 42.0714L27.4497 43.6652L23.0469 47.4469V39.4131L29.3063 42.0714Z" fill="white"/>
<path d="M22.1023 17.2793L16.0241 17.5719L5.28516 18.0894L13.7932 25.4042L18.924 20.3875L22.1023 17.2793Z" fill="white"/>
<path d="M13.9023 25.544L17.7659 32.9676L20.4948 23.2959L16.3381 24.7133L13.9023 25.544Z" fill="white"/>
</svg>
